<svg id="Layer_1" data-name="Layer 1" xmlns="http://www.w3.org/2000/svg" viewBox="0 0 136.06 128"><path d="M141.21,38.71s0-.07,0-.09a10.68,10.68,0,0,1,4.57-2.26c1.28-.17,2.54-.5,3.83-.6a20.43,20.43,0,0,1,3.75.06,37.89,37.89,0,0,1,3.79.75,2.44,2.44,0,0,1,.53.21c.69.33,1.4.62,2.05,1a11,11,0,0,1,2,1.39,25.9,25.9,0,0,1,3.06,3.23c.8,1.08,1.22,2.43,2,3.54,1.16,1.68,1.19,3.52,1.14,5.41a40.85,40.85,0,0,1-.31,6.84,9.63,9.63,0,0,1-1.91,4c-1.2,1.49-2,3.3-3.09,4.9-1.45,2.14-3,4.18-4.49,6.31-1.26,1.82-2.44,3.7-3.66,5.55,0,.07-.16.11-.24.17.55-1,1-2,1.66-2.91,1-1.52,2.16-3,3.18-4.5,1.42-2.11,2.8-4.24,4.17-6.39,1-1.57,1.94-3.17,2.91-4.76a21,21,0,0,0,1.31-3.73,33.81,33.81,0,0,0,.23-5.33,13.9,13.9,0,0,0-1.6-6.13,31,31,0,0,0-3.62-4.93,6.25,6.25,0,0,0-1.4-1,11,11,0,0,0-5-2.64,25.86,25.86,0,0,0-9.37-.26,11.07,11.07,0,0,0-2.22.6c-.75.27-1.47.62-2.2.93Z" transform="translate(-31.95 -35.7)" style="fill:#faebf3"/><path d="M34.36,97.12a2.81,2.81,0,0,1,.39-1c1.24-1.31,2.57-2.53,3.78-3.86,1-1.15,2.48-1.6,3.73-2.37,1.79-1.09,3.77-1,5.62-1.56A11.9,11.9,0,0,1,52,88.21c1.57.13,3.13.45,4.68.72a2.9,2.9,0,0,1,.93.43c.22.12.39.36.62.44a11.68,11.68,0,0,1,4.25,2.52c1.14,1,2.25,2.1,3.35,3.18,3.52,3.43,7,6.88,10.53,10.31,1.8,1.77,3.64,3.51,5.45,5.28a14.69,14.69,0,0,1,1,1.18l4.7-5.59v.42L84,111.78l-.38.39c-.52.22-.94.59-1.53-.07-1.32-1.51-2.74-2.94-4.17-4.36-1.86-1.84-3.77-3.64-5.65-5.47-1.7-1.65-3.38-3.3-5.07-5-2.3-2.07-4.15-4.63-7-6.16C58.54,90.24,57,89.19,55,89c-.77-.07-1.55-.07-2.31-.2a16.06,16.06,0,0,0-7,.31,16.7,16.7,0,0,0-6.59,3,16.16,16.16,0,0,0-2,1.82c-.91,1-1.72,2.11-2.57,3.18Z" transform="translate(-31.95 -35.7)" style="fill:#e1d4e2"/><path d="M34.55,97.11C35.4,96,36.21,95,37.12,93.93a16.16,16.16,0,0,1,2-1.82,16.7,16.7,0,0,1,6.59-3l.81,0,0,.17c-1,.4-2.1.76-3.12,1.19a15.44,15.44,0,0,0-3.61,1.66,16.78,16.78,0,0,0-4.6,5c-.24.44-.51.87-.73,1.33a16.94,16.94,0,0,0-2,8.38,11.7,11.7,0,0,0,.79,4.46,8.19,8.19,0,0,1,.37,1.31,13.25,13.25,0,0,0,3.08,5.63c1.44,1.52,2.92,3,4.39,4.49l.58.79h-.2l-3.11-2.75c-.4-.39-.79-.79-1.18-1.18a4.2,4.2,0,0,0-.55-1,16.84,16.84,0,0,1-4.09-8.44,25,25,0,0,1-.22-5.82,8,8,0,0,1,.51-2.54c.5-1.39,1.14-2.73,1.71-4.09A2.61,2.61,0,0,0,34.55,97.11Z" transform="translate(-31.95 -35.7)" style="fill:#b695bd"/><path d="M100.58,158.85a42.69,42.69,0,0,1-3.47,2.53,26.18,26.18,0,0,1-3.91,1.81,6.56,6.56,0,0,1-2.34.51c-2.59,0-5.19-.1-7.78-.17a1.32,1.32,0,0,1-.57-.08A33,33,0,0,0,79,161.64c-3.13-1.16-4.68-4-7-6.14-1.5-1.37-2.9-2.84-4.32-4.3a14.51,14.51,0,0,1-1.16-1.52c1,.94,2.08,1.84,3.07,2.81,1.87,1.84,3.69,3.72,5.54,5.58l.2.38A12.44,12.44,0,0,0,76.93,160a23.44,23.44,0,0,0,3.36,2,13.29,13.29,0,0,0,3.63,1.27c1.68.26,3.41.15,5.12.25,2.31.14,4.31-.94,6.42-1.59a12.3,12.3,0,0,0,2.38-1.35l3.53-3.12Z" transform="translate(-31.95 -35.7)" style="fill:#f1d8e8"/><path d="M166.22,60.59c-1,1.59-1.92,3.19-2.91,4.76-1.37,2.15-2.75,4.28-4.17,6.39-1,1.52-2.16,3-3.18,4.5-.62.93-1.11,1.94-1.66,2.91-.9,1.34-1.77,2.7-2.71,4a14.66,14.66,0,0,1-1.38,1.47c.64-1.13,1.25-2.28,1.91-3.39s1.45-2.31,2.18-3.46a7.73,7.73,0,0,0,.94-1c1.14-1.66,2.26-3.34,3.37-5a2.3,2.3,0,0,0,.19-.66l3.71-5.47a35.82,35.82,0,0,0,2.08-3.11c.64-1.19,1.09-2.48,1.63-3.73l.58-1.17C166.61,58.64,166.41,59.61,166.22,60.59Z" transform="translate(-31.95 -35.7)" style="fill:#f5cee3"/><path d="M138.09,103.37c-.77,1.13-1.57,2.25-2.31,3.4-1,1.6-2,3.23-3,4.82-.53.83-1.16,1.6-1.71,2.43s-1.21,1.93-1.83,2.89-1.18,1.75-1.75,2.63c-.21.32-.36.68-.54,1l-1.54,1.18c.25-.43.53-.84.77-1.28s.5-1,.75-1.48l.82-1.34c.39-.59.79-1.17,1.18-1.75l2.52-3.33c.79-1.16,1.61-2.3,2.37-3.48.61-1,1.16-2,1.73-3,.5-.66,1-1.3,1.48-2,1.21-1.81,2.4-3.64,3.6-5.45l.58-.39-.77,1.76h0C139.19,100.83,138.94,102.31,138.09,103.37Z" transform="translate(-31.95 -35.7)" style="fill:#e3c9df"/><path d="M87.5,107.1v-.42c.61-.9,1.18-1.83,1.85-2.69q2.77-3.58,5.61-7.12c1.87-2.32,3.8-4.59,5.66-6.93,1.17-1.47,2.25-3,3.41-4.52,1-1.26,2-2.49,3-3.73l1.18-1a1.93,1.93,0,0,1-.18.44c-1,1.31-2.09,2.61-3.13,3.93q-3,3.86-6.08,7.74C97.9,93.94,97,95,96.08,96.18c-1.3,1.68-2.54,3.41-3.86,5.08C90.67,103.23,89.08,105.15,87.5,107.1Z" transform="translate(-31.95 -35.7)" style="fill:#e2cfe1"/><path d="M125.41,121.74l1.54-1.18c-.79,1.08-1.61,2.15-2.37,3.26-.55.79-1,1.65-1.53,2.45s-1.12,1.54-1.67,2.32c-.45.63-.89,1.26-1.31,1.9-2,3-3.92,6.12-5.91,9.16-.77,1.16-1.63,2.25-2.44,3.37h-.39l.39-1c.75-.93,1.55-1.83,2.24-2.81.55-.78,1-1.64,1.47-2.47h0c.58-.87,1.15-1.75,1.75-2.61.7-1,1.45-2,2.14-3,.43-.63.8-1.3,1.19-2l.45-.75,2.86-4.73.6-1Z" transform="translate(-31.95 -35.7)" style="fill:#f8e6ef"/><path d="M127.92,55.11l1.17-1.56.8-.77.58-.2V53l-.78.78a12.47,12.47,0,0,1-.83,1.3c-1,1.22-1.94,2.4-2.89,3.61-1.54,1.94-3.09,3.86-4.57,5.85-.77,1-1.38,2.2-2.07,3.31L118,69.38l-1,1-.8.76a4.85,4.85,0,0,1,.46-.91c.82-1,1.71-2,2.51-3.06,1.46-2,2.89-4,4.32-5.93.71-1,1.4-2,2.1-3Z" transform="translate(-31.95 -35.7)" style="fill:#ebb5d4"/><path d="M75.19,158.07c-1.85-1.86-3.67-3.74-5.54-5.58-1-1-2-1.87-3.07-2.81l-1.93-2a9,9,0,0,0-.73-1q-3.26-3.32-6.52-6.61v-.2a2.14,2.14,0,0,1,.58.31c1,1.08,2,2.21,3.12,3.27,1.68,1.67,3.4,3.28,5.09,4.93s3.12,3.05,4.68,4.58L73,155.52c.26.29.51.57.76.87Z" transform="translate(-31.95 -35.7)" style="fill:#d9a3ca"/><path d="M111.33,143h.39a3.42,3.42,0,0,1-.32,1c-1.2,1.71-2.48,3.36-3.65,5.09-1.4,2.07-2.69,4.21-4.08,6.28-.7,1-1.51,2-2.31,3a3.12,3.12,0,0,1-.78.52l.79-1.37h0c.85-1.08,1.73-2.15,2.54-3.26.7-.95,1.36-1.94,2-2.93.79-1.25,1.54-2.52,2.31-3.77.38-.56.75-1.12,1.14-1.68Z" transform="translate(-31.95 -35.7)" style="fill:#f9e7f1"/><path d="M34.55,97.11a2.61,2.61,0,0,1-.09.57c-.57,1.36-1.21,2.7-1.71,4.09a8,8,0,0,0-.51,2.54,25,25,0,0,0,.22,5.82,16.84,16.84,0,0,0,4.09,8.44,4.2,4.2,0,0,1,.55,1,12,12,0,0,1-3.62-5c-.76-1.94-1.72-3.89-1.5-6.13a29.51,29.51,0,0,0,0-4c-.1-2.74,1.17-5,2.36-7.32Z" transform="translate(-31.95 -35.7)" style="fill:#c7aaca"/><path d="M125.59,58.24c-.7,1-1.39,2-2.1,3-1.43,2-2.86,4-4.32,5.93-.8,1-1.69,2-2.51,3.06a4.85,4.85,0,0,0-.46.91l-.19.21-.57.2h-.22l1.75-2.4c1.5-2,3-4,4.53-6,1.21-1.57,2.46-3.11,3.69-4.67Z" transform="translate(-31.95 -35.7)" style="fill:#f3d7e9"/><path d="M140.44,100.05c.25-.59.51-1.17.77-1.76,1.14-1.76,2.27-3.52,3.42-5.27.46-.7,1-1.36,1.45-2.06.63-1,1.21-2,1.84-3,.48-.75,1-1.48,1.48-2.22a2.25,2.25,0,0,1-.13.84c-1.08,1.7-2.21,3.38-3.31,5.07-.54.83-1.06,1.66-1.59,2.49-.68,1-1.36,2.07-2.05,3.1Z" transform="translate(-31.95 -35.7)" style="fill:#ecd5e6"/><path d="M129.89,52.78l-.8.77c-.13-1.24,1-1.73,1.56-2.56a36,36,0,0,1,2.36-2.9c.71-.92,1.43-1.83,2.15-2.74l.19-.39,3.91-4.49v.39c-.81,1-1.64,1.92-2.41,2.91-.48.62-.87,1.31-1.3,2-.42.44-.88.86-1.25,1.33-1.23,1.54-2.43,3.09-3.64,4.65C130.39,52.06,130.15,52.42,129.89,52.78Z" transform="translate(-31.95 -35.7)" style="fill:#f5dbeb"/><path d="M38.28,120.75l3.11,2.75c1.08,1.16,2.15,2.33,3.26,3.46.5.51,1.08,1,1.62,1.42l.25.34L52,134.41l0,0-.77-.4h0q-1.86-1.95-3.71-3.91-3.06-3.09-6.11-6.2C40.31,122.88,39.3,121.81,38.28,120.75Z" transform="translate(-31.95 -35.7)" style="fill:#d3bbd3"/><path d="M149.4,85.78c-.49.74-1,1.47-1.48,2.22-.63,1-1.21,2-1.84,3-.46.7-1,1.36-1.45,2.06-1.15,1.75-2.28,3.51-3.42,5.27l-.58.39c1.29-2,2.56-4.08,3.87-6.1.54-.84,1.19-1.6,1.74-2.42.39-.58.69-1.22,1-1.83l1.95-3.71h.2v1A1.11,1.11,0,0,1,149.4,85.78Z" transform="translate(-31.95 -35.7)" style="fill:#e5a0c7"/><path d="M115.22,71.52h.22c-1,1.3-1.85,2.63-2.85,3.89-1.43,1.79-2.92,3.53-4.38,5.29l-1.18,1c.37-.52.7-1.07,1.1-1.56,1.41-1.7,2.85-3.38,4.26-5.09C113.35,73.88,114.28,72.7,115.22,71.52Z" transform="translate(-31.95 -35.7)" style="fill:#e9d5e7"/><path d="M149.42,85.59v-1l.38-.59c.51-.7,1-1.39,1.52-2.11.71-1.09,1.38-2.2,2.05-3.31s1.14-2,1.71-3h.2l-1,2.15c-.73,1.15-1.48,2.29-2.18,3.46s-1.27,2.26-1.91,3.39Z" transform="translate(-31.95 -35.7)" style="fill:#ecaacd"/><path d="M57.4,140.1q3.26,3.3,6.52,6.61a9,9,0,0,1,.73,1c-.83-.73-1.71-1.42-2.49-2.2-1.74-1.75-3.44-3.54-5.15-5.33a5.14,5.14,0,0,1-.59-.85Z" transform="translate(-31.95 -35.7)" style="fill:#e4d0e2"/><path d="M139.26,40.47,135.35,45c.61-.84,1.2-1.69,1.82-2.51a13.58,13.58,0,0,1,1.58-1.87c.76-.69,1.64-1.25,2.46-1.87l1.18-.59Z" transform="translate(-31.95 -35.7)" style="fill:#f9e8f3"/><path d="M57.4,140.1l-1-.78-2-1.95a1.93,1.93,0,0,0-.24-.5c-.76-.82-1.53-1.62-2.3-2.43l0,0c.35.31.72.6,1,.94,1.48,1.51,2.94,3,4.41,4.55Z" transform="translate(-31.95 -35.7)" style="fill:#d3bbd3"/><path d="M125.59,58.24l-.4.2a6.57,6.57,0,0,1,2.73-3.33C127.15,56.16,126.37,57.2,125.59,58.24Z" transform="translate(-31.95 -35.7)" style="fill:#f5dbeb"/><path d="M47.45,130.13q1.84,2,3.71,3.91Q49.3,132.09,47.45,130.13Z" transform="translate(-31.95 -35.7)" style="fill:#e4d0e2"/><path d="M51.93,134.44c.77.81,1.54,1.61,2.3,2.43a1.93,1.93,0,0,1,.24.5L51.16,134Z" transform="translate(-31.95 -35.7)" style="fill:#e4d0e2"/><path d="M138.09,103.37c.85-1.06,1.1-2.54,2.35-3.32Z" transform="translate(-31.95 -35.7)" style="fill:#ecd5e6"/><path d="M135.16,45.35,133,48.09Z" transform="translate(-31.95 -35.7)" style="fill:#f9e8f3"/><path d="M139.26,40.47l3.13-2.35c.73-.31,1.45-.66,2.2-.93a11.07,11.07,0,0,1,2.22-.6,25.86,25.86,0,0,1,9.37.26,11,11,0,0,1,5,2.64l.58,1a2.89,2.89,0,0,1-.58-.3,14.53,14.53,0,0,0-6.4-3.15,10.47,10.47,0,0,0-2.5-.19c-1.9,0-3.79.16-5.68.25,0,0-.05,0-.07.07l-.78.19-4.5,2.15-.39.39-1.56,1Z" transform="translate(-31.95 -35.7)" style="fill:#f6d1e5"/><path d="M161.72,40.47l-.58-1a6.25,6.25,0,0,1,1.4,1,31,31,0,0,1,3.62,4.93,13.9,13.9,0,0,1,1.6,6.13,33.81,33.81,0,0,1-.23,5.33,21,21,0,0,1-1.31,3.73l.58-2.93.39-1a9.66,9.66,0,0,0,.34-1.75c0-1-.09-2-.14-2.94h0c.27-2-.81-3.64-1.17-5.47-.77-1.23-1.49-2.5-2.34-3.68A25.38,25.38,0,0,0,161.72,40.47Z" transform="translate(-31.95 -35.7)" style="fill:#f7d2e5"/><path d="M87.5,107.1c1.58-1.95,3.17-3.87,4.72-5.84,1.32-1.67,2.56-3.4,3.86-5.08C97,95,97.9,93.94,98.82,92.82l.4.22c-.4.49-.8,1-1.19,1.47l-1.71,2.23-.24.37a6.17,6.17,0,0,0-.88.81c-.58.81-1.12,1.66-1.67,2.5l-1.14,1.41a3,3,0,0,0-.76.54c-.83,1-1.63,2-2.42,3.1s-1.67,2.24-2.51,3.36l-2.52,3H84Z" transform="translate(-31.95 -35.7)" style="fill:#ba94bb"/><path d="M67.18,97.31c1.69,1.66,3.37,3.31,5.07,5,1.88,1.83,3.79,3.63,5.65,5.47,1.43,1.42,2.85,2.85,4.17,4.36.59.66,1,.29,1.53.07-.57,1.18-1,1.24-1.75.23a6.7,6.7,0,0,0-.69-.81l-6.56-6.37-4.69-4.59-3.13-3.31Z" transform="translate(-31.95 -35.7)" style="fill:#bf96c0"/><path d="M67.18,97.31h-.4c-2.5-2-4.36-4.81-7.34-6.24-1.64-.78-3.19-1.89-5.15-1.78h0a4.08,4.08,0,0,0-.83-.17h-7l-.81,0a16.06,16.06,0,0,1,7-.31c.76.13,1.54.13,2.31.2,2,.2,3.55,1.25,5.23,2.16C63,92.68,64.88,95.24,67.18,97.31Z" transform="translate(-31.95 -35.7)" style="fill:#bf9fc1"/><path d="M69.91,100.63l4.69,4.59,6.56,6.37a6.7,6.7,0,0,1,.69.81c.75,1,1.18.95,1.75-.23l.38-.39h.2c0,.19,0,.37,0,.56l-.77,1c-.52,0-1.05.8-1.57,0a4,4,0,0,0-.46-.74q-2.66-2.78-5.34-5.52a2.47,2.47,0,0,0-.65-.38l-1.95-2.15-3.53-3.7Z" transform="translate(-31.95 -35.7)" style="fill:#a160a1"/><path d="M41,122.7c-1.47-1.49-2.95-3-4.39-4.49a13.25,13.25,0,0,1-3.08-5.63,8.19,8.19,0,0,0-.37-1.31,11.7,11.7,0,0,1-.79-4.46,16.94,16.94,0,0,1,2-8.38c.22-.46.49-.89.73-1.33,0,.21,0,.41,0,.62-.4.84-.79,1.68-1.19,2.51a10.93,10.93,0,0,1-.6,2.61,8.53,8.53,0,0,0-.37,5.71,21.32,21.32,0,0,0,2.15,6.74l2.74,3.7,2.33,2.35,1.18,1.38Z" transform="translate(-31.95 -35.7)" style="fill:#863f88"/><path d="M35.15,97.72l0-.62a16.78,16.78,0,0,1,4.6-5,15.44,15.44,0,0,1,3.61-1.66c1-.43,2.08-.79,3.12-1.19h7.83l3.31,1.37-1.8-.49-1.71-.49a5.16,5.16,0,0,0-.94-.17c-1.95,0-3.89,0-5.84,0a7.77,7.77,0,0,0-1.85.48,20.13,20.13,0,0,0-2.07.7,24.77,24.77,0,0,0-3.12,1.6,15.05,15.05,0,0,0-2.41,2A27,27,0,0,0,36,96.59C35.7,97,35.43,97.34,35.15,97.72Z" transform="translate(-31.95 -35.7)" style="fill:#804484"/><path d="M41,122.7l.38,0,1,.77,1.17,1.18c.9,1,1.76,2.09,2.71,3.08A11.28,11.28,0,0,0,47.84,129l.38.2.6.77,3.12,3.33c.38.41.75.84,1.15,1.24l3.34,3.25c.85.91,1.7,1.82,2.54,2.74l.59.78a7.39,7.39,0,0,1-1-.68c-1.55-1.59-3.08-3.2-4.63-4.8-1.71-1.78-3.39-3.59-5.15-5.32a21.21,21.21,0,0,0-2.31-1.75l-.25-.34-4.68-4.89Z" transform="translate(-31.95 -35.7)" style="fill:#a2559c"/><path d="M41.59,123.49l4.68,4.89c-.54-.47-1.12-.91-1.62-1.42-1.11-1.13-2.18-2.3-3.26-3.46Z" transform="translate(-31.95 -35.7)" style="fill:#c7aaca"/><path d="M54.29,89.3H46.46l0-.17h7A4.08,4.08,0,0,1,54.29,89.3Z" transform="translate(-31.95 -35.7)" style="fill:#915a95"/><path d="M111.33,143l-2,2.81c-.39.56-.76,1.12-1.14,1.68a4,4,0,0,0-.7.66c-1,1.45-1.86,2.94-2.81,4.39-.57.86-1.22,1.66-1.8,2.52s-1,1.59-1.53,2.39h0l-3.53,3.12-.59.19a2.38,2.38,0,0,1,.39-.64A12.88,12.88,0,0,0,99.16,159c1.15-1.3,2.22-2.66,3.3-4,.75-.95,1.5-1.91,2.18-2.91,1-1.53,2-3.12,3-4.66.68-1,1.44-2,2.1-3,1.09-1.71,2.12-3.45,3.2-5.17.4-.65.84-1.29,1.28-1.92.78-1.1,1.62-2.16,2.36-3.28,1.33-2,2.61-4.08,3.92-6.11.53-.81,1-1.62,1.64-2.38s1.1-1.22,1.65-1.82L121,128.41l-.45.75a7,7,0,0,0-1,.94c-.9,1.29-1.79,2.6-2.62,3.93-.55.88-1,1.83-1.51,2.74h0a9.85,9.85,0,0,0-1,1.11c-.91,1.38-1.78,2.78-2.67,4.17Z" transform="translate(-31.95 -35.7)" style="fill:#ebb6d5"/><path d="M97.25,160.79l.59-.19A12.3,12.3,0,0,1,95.46,162c-2.11.65-4.11,1.73-6.42,1.59-1.71-.1-3.44,0-5.12-.25A13.29,13.29,0,0,1,80.29,162a23.44,23.44,0,0,1-3.36-2,12.44,12.44,0,0,1-1.54-1.54A13.19,13.19,0,0,0,77,159.74c1,.6,2.08,1.11,3.11,1.67a11.2,11.2,0,0,0,6.21,1.73,15.07,15.07,0,0,1,2.33,0c2.35.34,4.29-1,6.45-1.42.15,0,.26-.2.4-.26C96.08,161.24,96.67,161,97.25,160.79Z" transform="translate(-31.95 -35.7)" style="fill:#efc2dc"/><path d="M86.32,163.14a11.2,11.2,0,0,1-6.21-1.73c-1-.56-2.1-1.07-3.11-1.67a13.19,13.19,0,0,1-1.61-1.29c-.07-.12-.14-.25-.2-.38l-1.39-1.68c-.25-.3-.5-.58-.76-.87.76.68,1.53,1.36,2.28,2l2,1.86,1.76,1.18A26,26,0,0,0,82,161.89c1.43.44,2.91.71,4.37,1.06Z" transform="translate(-31.95 -35.7)" style="fill:#db97c2"/><path d="M140.82,39.88l.39-.39,2.35-1,1.27.38-.17.2a7.92,7.92,0,0,0,.63,1.23c1.11,1.46,2.31,2.85,3.37,4.34,1.32,1.84,2.46,3.82,3.83,5.62a27.69,27.69,0,0,0,3.35,3.5c.58.53,1.75.45,1.65,1.67,0,.08.18.26.27.26,1.12,0,1.22,1,1.75,1.62a2.13,2.13,0,0,0,.62.58,29.5,29.5,0,0,0,3.44,1.45,1.67,1.67,0,0,1,1.22,1.35,1.31,1.31,0,0,1-.58,1.68c-.21.12-.29.47-.43.72-.27.47-.56.93-.81,1.41s-.31.76-.46,1.14l-3.71,5.47h0l.2-1a7.19,7.19,0,0,0,.83-.92c.76-1.19,1.51-2.39,2.21-3.61a1.83,1.83,0,0,0,.14-1.06c0-.1-.55-.2-.83-.16-1.5.23-2.56-.9-3.89-1.2,0,0-.07-.11-.11-.15-.45-.36-.89-.73-1.34-1.08a5,5,0,0,1-.81-.59c-.7-.92-1.31-1.92-2.05-2.82-1.45-1.76-3.17-3.31-4.21-5.41a9.34,9.34,0,0,0-1.05-1.62c-1.45-1.84-3.29-3.33-4.66-5.26-.37-.5-.92-.79-.77-1.53,0-.14-.16-.39-.31-.47A2.2,2.2,0,0,1,141,41.83c0-.29-.23-.6-.35-.9-.27.27-.66.49-.77.81s-.19.74-.76.55c-.18-.06-.43.08-.64.13.54-.58,1.09-1.16,1.63-1.75Z" transform="translate(-31.95 -35.7)" style="fill:#f0b7d4"/><path d="M162.51,65.67c.15-.38.28-.77.46-1.14s.54-.94.81-1.41c.14-.25.22-.6.43-.72a1.31,1.31,0,0,0,.58-1.68,1.67,1.67,0,0,0-1.22-1.35,29.5,29.5,0,0,1-3.44-1.45,2.13,2.13,0,0,1-.62-.58c-.53-.6-.63-1.65-1.75-1.62-.09,0-.28-.18-.27-.26.1-1.22-1.07-1.14-1.65-1.67a27.69,27.69,0,0,1-3.35-3.5c-1.37-1.8-2.51-3.78-3.83-5.62-1.06-1.49-2.26-2.88-3.37-4.34a7.92,7.92,0,0,1-.63-1.23l.17-.2-1.27-.38a3.38,3.38,0,0,0,.7-.23c.5-.29,1-.63,1.45-.95l.78-.19c1.46,0,2.92,0,4.38,0s2.84-.27,4.13.58a5.12,5.12,0,0,1-1.4.38,4.25,4.25,0,0,0-1.82,2,.41.41,0,0,0,0,.19c.5,1,1,2.13,1.52,3.14a19.15,19.15,0,0,1,1.77,2.85c.38,1.12,2,1.3,1.86,2.7,0,.06.19.17.3.2a13.26,13.26,0,0,1,5.36,3.23c1.28,1.2,2.55,1.38,4.33.44-.06,1-.06,1.74-.17,2.51-.15,1.15-.38,2.28-.57,3.42-.54,1.25-1,2.54-1.63,3.73A35.82,35.82,0,0,1,162.51,65.67ZM147.07,37.46c.58.86.93.87,1.74,0Z" transform="translate(-31.95 -35.7)" style="fill:#f3bbd7"/><path d="M166.22,58.83c.19-1.14.42-2.27.57-3.42.11-.77.11-1.55.17-2.51-1.78.94-3.05.76-4.33-.44a13.26,13.26,0,0,0-5.36-3.23c-.11,0-.31-.14-.3-.2.13-1.4-1.48-1.58-1.86-2.7a19.15,19.15,0,0,0-1.77-2.85c-.57-1-1-2.09-1.52-3.14a.41.41,0,0,1,0-.19,4.25,4.25,0,0,1,1.82-2,5.12,5.12,0,0,0,1.4-.38c-1.29-.85-2.74-.54-4.13-.58s-2.92,0-4.38,0c0,0,0-.07.07-.07,1.89-.09,3.78-.21,5.68-.25a10.47,10.47,0,0,1,2.5.19,14.53,14.53,0,0,1,6.4,3.15,2.89,2.89,0,0,0,.58.3,25.38,25.38,0,0,1,2.16,2.37c.85,1.18,1.57,2.45,2.34,3.68L167.39,52h0c-.07,1.57-.13,3.13-.2,4.69l-.39,1Z" transform="translate(-31.95 -35.7)" style="fill:#f5c0da"/><path d="M154.3,77.78l1-2.15c.29-.33.61-.65.88-1,.89-1.16,1.76-2.33,2.63-3.49h0a2.3,2.3,0,0,1-.19.66c-1.11,1.68-2.23,3.36-3.37,5A7.73,7.73,0,0,1,154.3,77.78Z" transform="translate(-31.95 -35.7)" style="fill:#f0b7d4"/><path d="M128.93,115.89c-.39.58-.79,1.16-1.18,1.75l-.21-.6v-.39c.38-.47.78-.92,1.14-1.41a8.5,8.5,0,0,0,.57-1c.28-.5.55-1,.83-1.52.95-.25.43-1.27,1.08-1.79-.43-.21-.75-.36-1-.53a6.11,6.11,0,0,1-2-1.15c-1.46-1.78-3.09-3.45-3.94-5.7a15.49,15.49,0,0,0-1.79-3.06c-.89-1.34-1.83-2.63-2.78-3.92-.71-1-1.45-1.9-2.19-2.83-1-1.32-2.1-2.61-3.12-3.94-1.13-1.48-2.21-3-3.34-4.47-.54-.69-1.35-1.24-1.68-2a3.56,3.56,0,0,0-.92-1.68c.39-.52.79-1,1.19-1.55.56,0,1.07,0,.82.85a1.22,1.22,0,0,0,.24,1c1,1.23,2.08,2.41,3.11,3.63s2.13,2.48,3.14,3.76c1.73,2.2,3.43,4.44,5.13,6.66a34.44,34.44,0,0,1,2.5,3.33c1.57,2.69,2.66,5.66,5,7.89.78.76,1,2.21,2.5,2.12.07,0,.17.31.26.48a6.44,6.44,0,0,0-.42.72c-.2.47-.37.95-.55,1.43-.58.86-1.17,1.71-1.71,2.59A10.72,10.72,0,0,0,128.93,115.89Z" transform="translate(-31.95 -35.7)" style="fill:#a74a96"/><path d="M147.27,88.33c-.34.61-.64,1.25-1,1.83-.55.82-1.2,1.58-1.74,2.42-1.31,2-2.58,4.06-3.87,6.1-1.2,1.81-2.39,3.64-3.6,5.45-.46.68-1,1.32-1.48,2,0-.14,0-.27,0-.41.32-.52.65-1,1-1.55l2.34-3.33s0-.12,0-.19l.42-.71,1.73-3c.5-.8,1.63-1.17,1.56-2.35.7-.9,1.44-1.77,2.1-2.7.83-1.16,1.6-2.36,2.39-3.55Z" transform="translate(-31.95 -35.7)" style="fill:#d38aba"/><path d="M125.41,121.74l-1,1-2.74,2.72-2.93,1.76a5,5,0,0,1,1.14-1.12,9.78,9.78,0,0,0,3.55-3.18l1.39-1.74L125,121l1.93-2c-.25.5-.49,1-.75,1.48S125.66,121.31,125.41,121.74Z" transform="translate(-31.95 -35.7)" style="fill:#c479b0"/><path d="M135.54,105.7v.41c-.57,1-1.12,2-1.73,3-.76,1.18-1.58,2.32-2.37,3.48,0-.2,0-.4,0-.6.48-.83.93-1.67,1.43-2.49.74-1.2,1.52-2.38,2.29-3.56Z" transform="translate(-31.95 -35.7)" style="fill:#c67bb2"/><path d="M126.93,119,125,121c0-.19-.14-.46-.06-.57.45-.61,1-1.19,1.43-1.77l1.17-1.57.21.6C127.47,118.08,127.2,118.53,126.93,119Z" transform="translate(-31.95 -35.7)" style="fill:#a04493"/><path d="M131.44,112c0,.2,0,.4,0,.6l-2.52,3.33a10.72,10.72,0,0,1,.62-1.33c.54-.88,1.13-1.73,1.71-2.59Z" transform="translate(-31.95 -35.7)" style="fill:#c077b0"/><path d="M109.58,80.12c-.4.52-.8,1-1.19,1.55l-.18,0a15.32,15.32,0,0,0-1.56,1.56c-2.18,2.75-4.33,5.53-6.47,8.31a3.91,3.91,0,0,0-.4.85l-.37.59a.58.58,0,0,0-.19,0l-.4-.22q3-3.88,6.08-7.74c1-1.32,2.09-2.62,3.13-3.93a1.93,1.93,0,0,0,.18-.44c1.46-1.76,3-3.5,4.38-5.29,1-1.26,1.9-2.59,2.85-3.89l.57-.2a5.08,5.08,0,0,1-.45.94c-1.09,1.39-2.24,2.74-3.32,4.13-.54.69-1,1.44-1.49,2.16Z" transform="translate(-31.95 -35.7)" style="fill:#d098c4"/><path d="M121.68,125.44l2.74-2.72-.6,1c-.55.6-1.15,1.17-1.65,1.82s-1.11,1.57-1.64,2.38c-1.31,2-2.59,4.09-3.92,6.11-.74,1.12-1.58,2.18-2.36,3.28-.44.63-.88,1.27-1.28,1.92-1.08,1.72-2.11,3.46-3.2,5.17-.66,1-1.42,2-2.1,3-1,1.54-2,3.13-3,4.66-.68,1-1.43,2-2.18,2.91-1.08,1.36-2.15,2.72-3.3,4a12.88,12.88,0,0,1-1.52,1.19,2.38,2.38,0,0,0-.39.64c-.58.23-1.17.45-1.75.7-.14.06-.25.23-.4.26-2.16.39-4.1,1.76-6.45,1.42a15.07,15.07,0,0,0-2.33,0V163l3.71-.2c1.42-.42,2.83-.83,4.24-1.27.13,0,.31-.23.31-.34,0-1,.69-.63,1.22-.69a2,2,0,0,0,1-.43c-.12-.71.59-1.24.56-1.65-.08-1.32.91-2.12,1.2-3.23a6.79,6.79,0,0,1,.82-1.85c1.46-2.35,2.92-4.7,4.46-7,1.13-1.69,2.35-3.31,3.6-4.92s2.38-2.89,3.58-4.34c.68-.82,1.19-1.91,2-2.42,1.92-1.12,2.26-3,2.73-4.82.23-.9.75-1.32,1.62-.88l1.25.68a3.93,3.93,0,0,0,.19-1.32c-.14-.55.09-.67.51-.94A25.88,25.88,0,0,0,121.68,125.44Z" transform="translate(-31.95 -35.7)" style="fill:#e295c0"/><path d="M115.43,136.77c.5-.91,1-1.86,1.51-2.74.83-1.33,1.72-2.64,2.62-3.93a7,7,0,0,1,1-.94c-.39.65-.76,1.32-1.19,2-.69,1-1.44,2-2.14,3C116.58,135,116,135.9,115.43,136.77Z" transform="translate(-31.95 -35.7)" style="fill:#efc7e0"/><path d="M111.72,142.05c.89-1.39,1.76-2.79,2.67-4.17a9.85,9.85,0,0,1,1-1.11c-.49.83-.92,1.69-1.47,2.47C113.27,140.22,112.47,141.12,111.72,142.05Z" transform="translate(-31.95 -35.7)" style="fill:#efc7e0"/><path d="M158.79,71.14c-.87,1.16-1.74,2.33-2.63,3.49-.27.35-.59.67-.88,1h0a8.93,8.93,0,0,0,.59-1.1c.22-.62.51-1.3-.23-1.8-2.23-1.5-4.61-2.79-6.45-4.82a22.19,22.19,0,0,0-2.77-2.54c-1.49-1.16-3.08-2.19-4.58-3.33a4,4,0,0,1-.86-1.16c-.68-1.12-1.33-2.26-2-3.37-.11-.19-.35-.29-.5-.46a1.2,1.2,0,0,1-.35-.53c-.41-2.65-1.86-4.88-3-7.22-.39-.81-1.35-.86-1.66,0a9.81,9.81,0,0,1-3,3.71v-.39l1.61-2,2.1-2.64,2.15-2.54c.67.58,1.34,1.14,2,1.73.39.35,1,.74,1,1.11,0,.92.66,1.19,1.16,1.66a20.82,20.82,0,0,1,1.59,1.67c.71.88.91,2.16,2.11,2.66.12,0,.13.38.18.58a2.12,2.12,0,0,0,.18.7c1.29,1.72,2.6,3.42,3.91,5.12.16.21.3.42.47.62.53.64,1.05,1.29,1.61,1.9a25.85,25.85,0,0,0,2.5,2.62,16.9,16.9,0,0,0,2.73,1.75c1,.59,2.11,1.1,3.24,1.68l-.07,1Z" transform="translate(-31.95 -35.7)" style="fill:#ecaacd"/><path d="M130.47,53a9.81,9.81,0,0,0,3-3.71c.31-.82,1.27-.77,1.66,0,1.15,2.34,2.6,4.57,3,7.22a1.2,1.2,0,0,0,.35.53c.15.17.39.27.5.46.69,1.11,1.34,2.25,2,3.37a4,4,0,0,0,.86,1.16c1.5,1.14,3.09,2.17,4.58,3.33a22.19,22.19,0,0,1,2.77,2.54c1.84,2,4.22,3.32,6.45,4.82.74.5.45,1.18.23,1.8a8.93,8.93,0,0,1-.59,1.1h-.2l-.07-.92-.21.19a9.84,9.84,0,0,1-1.88-1,2.67,2.67,0,0,0-3.16-.64,2.39,2.39,0,0,1-.94.09c.16-.77.51-1.41.34-1.85a6.47,6.47,0,0,0-1.44-2.09c-.19-.19-.84.1-1.28.11a2.89,2.89,0,0,1-.74-.16l-.19-.19c-.87-1.11-1.72-2.23-2.65-3.28a1.16,1.16,0,0,0-1.08-.07c-.59.34-1,0-.89-.41.23-1.16-.54-.9-1.14-.94-.31,0-.61,0-1-.08a1.81,1.81,0,0,0-.93-2,16.39,16.39,0,0,1-3.22-3.17c-.94-1.21-1.53-2.69-2.44-3.93a3,3,0,0,0-2.51-1.59Z" transform="translate(-31.95 -35.7)" style="fill:#e7a2c8"/><path d="M129.69,53.75a3,3,0,0,1,2.51,1.59c.91,1.24,1.5,2.72,2.44,3.93a16.39,16.39,0,0,0,3.22,3.17,1.81,1.81,0,0,1,.93,2c.35,0,.65.07,1,.08.6,0,1.37-.22,1.14.94-.07.36.3.75.89.41a1.16,1.16,0,0,1,1.08.07c.93,1,1.78,2.17,2.65,3.28a35.28,35.28,0,0,0-3.26-2.34,38.53,38.53,0,0,0-4.11-1.94,6,6,0,0,0-1.42-.22,6,6,0,0,0-.76-.57,7.21,7.21,0,0,0-3.89-.6,1.29,1.29,0,0,1-1.44-.87,1.42,1.42,0,0,0-1-.82,3,3,0,0,1-2.4-1.6l-.87-1.47-3.64,4.58c-.66.83-1.66,1.57-1.92,2.51a3.89,3.89,0,0,1-1.51,2c.69-1.11,1.3-2.27,2.07-3.31,1.48-2,3-3.91,4.57-5.85,1-1.21,1.94-2.39,2.89-3.61A12.47,12.47,0,0,0,129.69,53.75Z" transform="translate(-31.95 -35.7)" style="fill:#e59fc6"/><path d="M119.33,67.82a3.89,3.89,0,0,0,1.51-2c.26-.94,1.26-1.68,1.92-2.51l3.64-4.58.87,1.47a3,3,0,0,0,2.4,1.6,1.42,1.42,0,0,1,1,.82,1.29,1.29,0,0,0,1.44.87,7.21,7.21,0,0,1,3.89.6,6,6,0,0,1,.76.57,3.17,3.17,0,0,1-.76-.1,13.87,13.87,0,0,0-7.27-.68,13.41,13.41,0,0,0-2.35.88c-.5.19-1,.33-1.54.49a2.56,2.56,0,0,1-2,.84,1.86,1.86,0,0,0-1.07.36c-1.29.94-2.54,1.93-3.81,2.9Z" transform="translate(-31.95 -35.7)" style="fill:#e096c1"/><path d="M118,69.38c1.27-1,2.52-2,3.81-2.9a1.86,1.86,0,0,1,1.07-.36,2.56,2.56,0,0,0,2-.84,6.48,6.48,0,0,0,.77-.1,39.52,39.52,0,0,1,4.23-1c2.78-.38,5.42.54,8.09,1.14a24.58,24.58,0,0,1-2.58-.33,12.85,12.85,0,0,0-6.25-.19,40.08,40.08,0,0,0-4.9,1.34,35.89,35.89,0,0,0-4.6,2.3,3.43,3.43,0,0,0-.62.59L117,70.36Z" transform="translate(-31.95 -35.7)" style="fill:#d883b6"/><path d="M117,70.36,118.94,69h.2L118,70.35l-1.76,1.76-2.54,3.13L112.11,77l-1.36,1.56c.49-.72,1-1.47,1.49-2.16,1.08-1.39,2.23-2.74,3.32-4.13a5.08,5.08,0,0,0,.45-.94l.19-.21C116.47,70.87,116.74,70.62,117,70.36Z" transform="translate(-31.95 -35.7)" style="fill:#c170ab"/><path d="M134.18,47.89l-2.1,2.64-1.61,2-.58.2c.26-.36.5-.72.77-1.06,1.21-1.56,2.41-3.11,3.64-4.65.37-.47.83-.89,1.25-1.33h0C135.09,46.46,134.64,47.18,134.18,47.89Z" transform="translate(-31.95 -35.7)" style="fill:#f5c0da"/><path d="M77.33,159.43l-2-1.86c-.75-.69-1.52-1.37-2.28-2L70.88,153h.21l1.17,1,1.17,1.37,1.37,1c.92,1.34,1.36,1.62,2.09,1.25a5.38,5.38,0,0,1-.49-.82c-.11-.29-.26-.7-.14-.9a14.47,14.47,0,0,1,1.48-2c.52-.61,1.14-1.14,1.68-1.73,1.56-1.72,3.09-3.46,4.66-5.17a6,6,0,0,1,1.6-1.51c1.82-.89,2.73-2.64,4-4,.62-.65,1.12-1.42,1.68-2.13,1.3-1.65,2.57-3.32,3.91-4.93s2.94-3.42,4.44-5.1a3.16,3.16,0,0,1,.83-.52l.28,1.7a10.36,10.36,0,0,0-1,.91c-1.53,1.75-3.06,3.49-4.54,5.28-1.11,1.34-2.19,2.71-3.2,4.12a27.87,27.87,0,0,1-5.45,6,7,7,0,0,0-.58.51L83,150.41a7.1,7.1,0,0,0-.56.67c-.52.66-1,1.34-1.54,2a10.48,10.48,0,0,0-2.49,4.53c-.12.61-.17,1.22-.25,1.83Z" transform="translate(-31.95 -35.7)" style="fill:#c76da9"/><path d="M71.09,153h-.21c-1.56-1.53-3.11-3.06-4.68-4.58s-3.41-3.26-5.09-4.93C60,142.42,59,141.29,58,140.21a2.14,2.14,0,0,0-.58-.31c-1.47-1.52-2.93-3-4.41-4.55-.32-.34-.69-.63-1-.94l-5.44-5.69a21.21,21.21,0,0,1,2.31,1.75c1.76,1.73,3.44,3.54,5.15,5.32,1.55,1.6,3.08,3.21,4.63,4.8a7.39,7.39,0,0,0,1,.68l1.95,1.95,3.13,3.32L66,147.71l2.15,2.15,2.74,2.74Z" transform="translate(-31.95 -35.7)" style="fill:#bc73ad"/><path d="M101.36,157.48c.51-.8,1-1.61,1.53-2.39s1.23-1.66,1.8-2.52c1-1.45,1.86-2.94,2.81-4.39a4,4,0,0,1,.7-.66c-.77,1.25-1.52,2.52-2.31,3.77-.63,1-1.29,2-2,2.93C103.09,155.33,102.21,156.4,101.36,157.48Z" transform="translate(-31.95 -35.7)" style="fill:#efc2dc"/><path d="M140.82,39.88l-.71.79c-.54.59-1.09,1.17-1.63,1.75l-2.15,2.74-.78.58h0c.43-.66.82-1.35,1.3-2,.77-1,1.6-1.94,2.41-2.91Z" transform="translate(-31.95 -35.7)" style="fill:#f5c0da"/><path d="M137.89,65.28c-2.67-.6-5.31-1.52-8.09-1.14a39.52,39.52,0,0,0-4.23,1,6.48,6.48,0,0,1-.77.1c.52-.16,1-.3,1.54-.49a13.41,13.41,0,0,1,2.35-.88,13.87,13.87,0,0,1,7.27.68,3.17,3.17,0,0,0,.76.1,6,6,0,0,1,1.42.22,38.53,38.53,0,0,1,4.11,1.94,35.28,35.28,0,0,1,3.26,2.34l.19.19a8.4,8.4,0,0,1,1.18,1.37c.66,1.17,1.13,2.45,1.83,3.6a13.73,13.73,0,0,1,1.63,6.29A13.45,13.45,0,0,1,149.8,84l-.38.59h-.2c.14-1.18.25-2.36.4-3.53a10.61,10.61,0,0,0-.59-4.87c-.32-.59-.87-1.16-.9-1.77a6.26,6.26,0,0,0-1.48-3.22,16.53,16.53,0,0,0-5.82-4.74A30.24,30.24,0,0,0,137.89,65.28Z" transform="translate(-31.95 -35.7)" style="fill:#de8fbc"/><path d="M149,76.22a10.61,10.61,0,0,1,.59,4.87c-.15,1.17-.26,2.35-.4,3.53l-1.95,3.71h-.2a7.61,7.61,0,0,1,.31-.79c.41-.85.84-1.69,1.26-2.53l.19-.59a12.14,12.14,0,0,0,.5-5.42C149.25,78.07,149.13,77.15,149,76.22Z" transform="translate(-31.95 -35.7)" style="fill:#d47eb3"/><path d="M149.8,84a13.45,13.45,0,0,0,.54-3.39,13.73,13.73,0,0,0-1.63-6.29c-.7-1.15-1.17-2.43-1.83-3.6a8.4,8.4,0,0,0-1.18-1.37,2.89,2.89,0,0,0,.74.16c.44,0,1.09-.3,1.28-.11a6.47,6.47,0,0,1,1.44,2.09c.17.44-.18,1.08-.34,1.85a2.39,2.39,0,0,0,.94-.09,2.67,2.67,0,0,1,3.16.64,9.84,9.84,0,0,0,1.88,1l.21-.19.07.92c-.57,1-1.12,2-1.71,3s-1.34,2.22-2.05,3.31C150.85,82.64,150.31,83.33,149.8,84Z" transform="translate(-31.95 -35.7)" style="fill:#e5a0c7"/><path d="M145.71,37.34c-.48.32-1,.66-1.45.95a3.38,3.38,0,0,1-.7.23l-2.35,1Z" transform="translate(-31.95 -35.7)" style="fill:#f5c0da"/><path d="M167.39,52l-1.17-5.47C166.58,48.35,167.66,50,167.39,52Z" transform="translate(-31.95 -35.7)" style="fill:#f5cee3"/><path d="M167.19,56.68c.07-1.56.13-3.12.2-4.69.05,1,.16,2,.14,2.94A9.66,9.66,0,0,1,167.19,56.68Z" transform="translate(-31.95 -35.7)" style="fill:#f5cee3"/><path d="M99.22,93a.58.58,0,0,1,.19,0l1-.55.67-.32c0,.26,0,.52,0,.78s-.15.64,0,.77c.48.51,1.07.91,1.55,1.41a20.93,20.93,0,0,1,2.64,3c1.36,2.16,2.48,4.47,3.78,6.66a33.29,33.29,0,0,0,4.81,6.69,32.43,32.43,0,0,1,3.7,4.33,12.87,12.87,0,0,0,1.72,2.23,12.28,12.28,0,0,1,2.52,4.55c.13.31-.1.79-.2,1.19a6.5,6.5,0,0,1-.28.68c-.71.46-1.43.9-2.13,1.38a4.16,4.16,0,0,0-.61.58l-1,.2v-.2l.19-.2h.2a11.25,11.25,0,0,0,1.68-1.09c.24-.21.44-.86.3-1a27.07,27.07,0,0,0-2.43-2.59,28.12,28.12,0,0,1-2.82-2.5c-1.89-2.35-3.62-4.83-5.43-7.25a14.36,14.36,0,0,1-2-2.57c-.85-2-2.3-3.53-3.38-5.33-.34-.58-.67-1.17-1-1.73-.77-1.21-1.58-2.39-2.34-3.61-.58-1-1.9-1.46-1.75-2.87,0-.08-.36-.2-.55-.3l-1.17,1.17-.4.39-.35-.18L98,94.51C98.42,94,98.82,93.53,99.22,93Z" transform="translate(-31.95 -35.7)" style="fill:#8d3287"/><path d="M117.77,126.22l-.19.2a3,3,0,0,0-2.25.94c-.11.15-.39.19-.6.24-1.44.33-2.87.65-4.31,1a7.1,7.1,0,0,1-4-.18c2.57.55,4.91-.49,7.43-.93-.5-.54-1.21-1-1.29-1.47-.17-1-.89-1.41-1.62-1.89-1.49-1-3.2-1.75-4.37-3a69.35,69.35,0,0,1-5.18-6.81c-1.16-1.62-2.21-3.33-3.24-5-.83-1.36-1.54-2.79-2.35-4.17a10.44,10.44,0,0,0-1.37-1.87,1.12,1.12,0,0,1-.41-1.26c.08-.23-.15-.55-.24-.83-.21.19-.57.37-.59.59-.09.68-.49.76-1,.72l.21-.56,1.14-1.41,1-1,2.15-2.54.4-.39c.61.38.33.85.21,1.37a5.15,5.15,0,0,0-.22,2.15,7.18,7.18,0,0,0,1.08,1.79q1.27,2.2,2.53,4.41c1.18,2,2.32,4.09,3.56,6.08a16.5,16.5,0,0,0,1.69,2c.82.95,1.63,1.91,2.44,2.87a63.85,63.85,0,0,0,4.5,5.32,34.89,34.89,0,0,0,4.44,3.06C117.52,125.68,117.62,126,117.77,126.22Z" transform="translate(-31.95 -35.7)" style="fill:#82297e"/><path d="M92.39,101.83l-.21.56-3.52,4.49-1.74,2H86.7c.84-1.12,1.66-2.25,2.51-3.36s1.59-2.09,2.42-3.1A3,3,0,0,1,92.39,101.83Z" transform="translate(-31.95 -35.7)" style="fill:#904d8f"/><path d="M86.7,108.83h.22c0,.13,0,.26,0,.38l-.58.78-1.76,2.16-.39.19c0-.19,0-.37,0-.56Z" transform="translate(-31.95 -35.7)" style="fill:#864687"/><path d="M94.52,99.46l-1,1c.55-.84,1.09-1.69,1.67-2.5a6.17,6.17,0,0,1,.88-.81Z" transform="translate(-31.95 -35.7)" style="fill:#9e599c"/><path d="M94.52,99.46l1.56-2.35.24-.37.35.18C96,97.77,95.24,98.61,94.52,99.46Z" transform="translate(-31.95 -35.7)" style="fill:#862e82"/><path d="M57.6,90.67,54.29,89.3c2-.11,3.51,1,5.15,1.78,3,1.43,4.84,4.22,7.34,6.24l3.13,3.31v.21c-.45-.33-.9-.66-1.36-1l-.39-.39L67,98.29,65.8,96.94l-2.53-2.36a12.48,12.48,0,0,0-.92-.86c-.85-.64-1.73-1.26-2.59-1.88Z" transform="translate(-31.95 -35.7)" style="fill:#915a95"/><path d="M56.43,137.75l-3.34-3.25c-.4-.4-.77-.83-1.15-1.24h.2l.39.39L54.29,135l1.22,1.45.35-.22a2.5,2.5,0,0,0-.24-.94c-.46-.65-.42-1.09.32-1.47a6.16,6.16,0,0,0,1.2-.81c1-.84,1.94-1.68,2.86-2.57.67-.65,1.25-1.37,1.89-2.05,1.11-1.19,2.17-2.45,3.38-3.55,1.37-1.24,2.9-2.32,4.32-3.52.41-.34.6-.93,1-1.29,1.56-1.37,3.11-2.77,4.77-4a51,51,0,0,1,4.35-2.71,1.44,1.44,0,0,1,.63,0l1.49,0c.52.81,1,0,1.57,0,.09.3.09.67.28.87.39.42.9.72,1.33,1.11,1.55,1.41,3.09,2.84,4.63,4.26h-.4l-.38-.2c-.27-.27-.54-.55-.82-.8l-2.7-2.33c-.46-.42-.85-1.07-1.39-1.23a20.4,20.4,0,0,0-3.33-.48c-.09,0-.21.13-.31.21-1.91,1.5-3.82,3-5.7,4.52A22.84,22.84,0,0,0,72.9,121c-1,1-2,2-2.94,2.94-.65.66-1.24,1.39-1.9,2-1.52,1.51-3.08,3-4.61,4.48-1.74,1.72-3.44,3.47-5.19,5.17a1.45,1.45,0,0,0-.18,2.3,4.28,4.28,0,0,1,.42,1.28l-.26.08Z" transform="translate(-31.95 -35.7)" style="fill:#96388c"/><path d="M81.83,113.33l-1.49,0a1.44,1.44,0,0,0-.63,0A51,51,0,0,0,75.36,116c-1.66,1.24-3.21,2.64-4.77,4-.4.36-.59,1-1,1.29-1.42,1.2-3,2.28-4.32,3.52-1.21,1.1-2.27,2.36-3.38,3.55-.64.68-1.22,1.4-1.89,2.05-.92.89-1.89,1.73-2.86,2.57a6.16,6.16,0,0,1-1.2.81c-.74.38-.78.82-.32,1.47a2.5,2.5,0,0,1,.24.94l-.35.22L54.29,135c.06-.27.25-.6.15-.8a1.28,1.28,0,0,1,.41-1.64c1.28-1.18,2.58-2.36,3.79-3.6.94-1,1.74-2.06,2.65-3,.45-.5,1.18-.8,1.48-1.35.76-1.36,2.26-1.76,3.27-2.8s2.16-1.7,3.17-2.63a33.73,33.73,0,0,1,2.61-2.72c2-1.46,4.2-2.73,6.33-4,.24-.15.62-.09.93-.14l1.13-.21c-.18-.32-.34-.65-.54-1a1.63,1.63,0,0,0-.38-.3l-1-1-2.73-2.74-.2-.19v-.2a2.47,2.47,0,0,1,.65.38q2.68,2.75,5.34,5.52A4,4,0,0,1,81.83,113.33Z" transform="translate(-31.95 -35.7)" style="fill:#94378c"/><path d="M89.64,119.58c-1.54-1.42-3.08-2.85-4.63-4.26-.43-.39-.94-.69-1.33-1.11-.19-.2-.19-.57-.28-.87l.77-1,.39-.19c0,.12,0,.28-.09.37-.68.77-.37,1.31.3,1.91,1.8,1.61,3.54,3.28,5.33,4.9,1,.89,2,1.73,3.06,2.59.16.14.32.28.47.43l1.68,1.71a17.6,17.6,0,0,1-1.85-1.18C92.16,121.82,90.91,120.69,89.64,119.58Z" transform="translate(-31.95 -35.7)" style="fill:#73226f"/><path d="M68.54,99.86c.46.32.91.65,1.36,1l3.53,3.7-.2.2c-1-1-2-2-3-3C69.64,101.15,69.1,100.49,68.54,99.86Z" transform="translate(-31.95 -35.7)" style="fill:#8a428a"/><path d="M73.23,104.74l.2-.2,1.95,2.15v.2c-.2-.08-.45-.1-.58-.25-.48-.55-.92-1.13-1.37-1.71h-.2Z" transform="translate(-31.95 -35.7)" style="fill:#8b2f86"/><path d="M67,98.29l1.17,1.18c-.06.41.43.92-.3,1.24a7.5,7.5,0,0,0-1.48,1c-1.84,1.38-3.73,2.71-5.49,4.19-2.32,1.94-4.59,4-6.8,6-1.39,1.28-2.58,2.78-4,4.06-1.65,1.52-3.48,2.86-5.13,4.4-.7.65-1.81,1.16-1.63,2.44,0,.32.16.63.25,1l-1.23-.31-1-.77-1.18-1.38c.44.34.87.68,1.33,1a2.55,2.55,0,0,0,.64.23,2.85,2.85,0,0,0-.12-.66,2.69,2.69,0,0,0-.44-.62c-.56-.68-1.15-1.32-1.66-2s-.44-1.12.47-1.53a7.83,7.83,0,0,0,1.41-.81c.56-.43,1-1.18,1.58-1.36a9,9,0,0,0,4-2.86,72,72,0,0,1,7.67-7.06c1.74-1.5,3.65-2.82,5.51-4.18a6.17,6.17,0,0,1,1.38-.62c.21-.15.2-.79.38-.85,1.16-.36,2.17-1.35,3.57-.78C66.69,99.5,67.06,99.07,67,98.29Z" transform="translate(-31.95 -35.7)" style="fill:#742373"/><path d="M57.6,90.67l2.16,1.17A12.79,12.79,0,0,0,60.7,93c.64.62,1.32,1.2,2,1.8-.27.09-.6.33-.78.24a2.58,2.58,0,0,0-3.44.56,4.07,4.07,0,0,1-.59.51c-1.44.93-2.92,1.8-4.32,2.78s-3,2.23-4.46,3.36c-.59.45-1.19.89-1.74,1.38-1.56,1.35-3,2.79-4.65,4.06s-3.69,2.08-5.18,3.76a4.86,4.86,0,0,0-1.6,3.44c0,.69-.31.68-.79.43A21.32,21.32,0,0,1,33,108.55a8.53,8.53,0,0,1,.37-5.71,10.93,10.93,0,0,0,.6-2.61,23.32,23.32,0,0,1-.21,2.78c-.11.59-.67,1.12-.71,1.69a32.42,32.42,0,0,0,.15,3.55c.93.75.78,1.79.79,2.81a12.86,12.86,0,0,0,.22,1.62h.42a6.48,6.48,0,0,0,.11-1.51,3.63,3.63,0,0,1,.86-2.78,19.73,19.73,0,0,0,1.49-2c.18-.31,0-.82,0-1,.8,0,1.53.14,2-.15a24,24,0,0,0,2.27-2c1.25-1.06,2.53-2.08,3.81-3.11.07-.06.19,0,.27-.1,1.29-1,3.24-1,4-2.77,0-.07.15-.11.23-.16,1.32-.8,2.65-1.58,4-2.39.65-.4,1.48-.74,1.83-1.34a2.8,2.8,0,0,1,2.21-1.73c.39-.22.39-.49,0-.56a5.38,5.38,0,0,1-3-1.18s-.19,0-.29,0h-.19v-.2l1.71.49Z" transform="translate(-31.95 -35.7)" style="fill:#632368"/><path d="M35.14,115.29c.48.25.8.26.79-.43a4.86,4.86,0,0,1,1.6-3.44C39,109.74,41,109,42.71,107.66s3.09-2.71,4.65-4.06c.55-.49,1.15-.93,1.74-1.38,1.48-1.13,2.94-2.29,4.46-3.36s2.88-1.85,4.32-2.78a4.07,4.07,0,0,0,.59-.51A2.58,2.58,0,0,1,61.91,95c.18.09.51-.15.78-.24.12.1.3.17.37.3.19.33.33.69.49,1a6.07,6.07,0,0,0-1,0c-.4.05-1,.06-1.15.29-1,2-2.92,3.21-4.7,4.39a25.59,25.59,0,0,0-4.38,3.64c-.73.77-1.5,1.5-2.29,2.19-1,.84-2,1.58-3,2.43-1.18,1-2.27,2.21-3.47,3.24s-2.69,2.14-4,3.22a7.2,7.2,0,0,0-1.34,1.24,1,1,0,0,0,0,1c.89.72.4,1-.3,1.3Z" transform="translate(-31.95 -35.7)" style="fill:#69236c"/><path d="M37.88,119c.7-.29,1.19-.58.3-1.3a1,1,0,0,1,0-1,7.2,7.2,0,0,1,1.34-1.24c1.33-1.08,2.72-2.1,4-3.22S45.82,110.06,47,109c1-.85,2-1.59,3-2.43.79-.69,1.56-1.42,2.29-2.19a25.59,25.59,0,0,1,4.38-3.64c1.78-1.18,3.66-2.34,4.7-4.39.12-.23.75-.24,1.15-.29a6.07,6.07,0,0,1,1,0c-.16-.35-.3-.71-.49-1-.07-.13-.25-.2-.37-.3-.67-.6-1.35-1.18-2-1.8a12.79,12.79,0,0,1-.94-1.13c.86.62,1.74,1.24,2.59,1.88a12.48,12.48,0,0,1,.92.86l2.53,2.36L67,98.29c.08.78-.29,1.21-1,.91-1.4-.57-2.41.42-3.57.78-.18.06-.17.7-.38.85a6.17,6.17,0,0,0-1.38.62c-1.86,1.36-3.77,2.68-5.51,4.18a72,72,0,0,0-7.67,7.06,9,9,0,0,1-4,2.86c-.61.18-1,.93-1.58,1.36a7.83,7.83,0,0,1-1.41.81c-.91.41-1,.72-.47,1.53s1.1,1.35,1.66,2a2.69,2.69,0,0,1,.44.62,2.85,2.85,0,0,1,.12.66,2.55,2.55,0,0,1-.64-.23c-.46-.31-.89-.65-1.33-1Z" transform="translate(-31.95 -35.7)" style="fill:#6e2370"/><path d="M54.28,89.89c.1,0,.24,0,.29,0a5.38,5.38,0,0,0,3,1.18c.44.07.44.34,0,.56-1.29,0-2.6-.15-3.78.58-1,.63-2.35.2-3.38,1a2,2,0,0,1-1.75-.16.94.94,0,0,0-1.36.15,4.18,4.18,0,0,0-.76,1.33,1.89,1.89,0,0,1-2,1.47.91.91,0,0,0-.52.11,36.47,36.47,0,0,0-3.16,2.21A33.56,33.56,0,0,0,38.24,101a1.49,1.49,0,0,1-1.77.31,12.86,12.86,0,0,0-1.61-.31c0,1.82,0,3.4,0,5a2.23,2.23,0,0,1-1.67,2.3A32.42,32.42,0,0,1,33,104.7c0-.57.6-1.1.71-1.69a23.32,23.32,0,0,0,.21-2.78c.4-.83.79-1.67,1.19-2.51.28-.38.55-.77.84-1.13a27,27,0,0,1,1.87-2.24,15.05,15.05,0,0,1,2.41-2,24.77,24.77,0,0,1,3.12-1.6,20.13,20.13,0,0,1,2.07-.7,7.77,7.77,0,0,1,1.85-.48c1.95-.06,3.89,0,5.84,0a5.16,5.16,0,0,1,.94.17v.2a37.91,37.91,0,0,1-4,0,6.71,6.71,0,0,0-4,.4,5.29,5.29,0,0,0,1.15.36c2.19,0,4.38,0,6.57,0C54.18,90.64,54.61,90.46,54.28,89.89Z" transform="translate(-31.95 -35.7)" style="fill:#582260"/><path d="M85.34,116.26l2.7,2.33c.28.25.55.53.82.8-.55-.32-1.12-.61-1.64-1s-.72,0-.85.43A3.45,3.45,0,0,1,86,120c-1,1.32-2.21,2.52-3.14,3.9-2.16,3.17-5.17,5.48-8,8-1.09,1-2.28,1.9-3.33,2.93-2.46,2.39-4.86,4.83-7.28,7.25-.5.5-.94,1-.55,1.78.07.14,0,.35,0,.52a1.82,1.82,0,0,1-.59-.13c-.53-.35-1-.72-1.57-1.09l-1.95-1.95-.59-.78,1.69.79a2.19,2.19,0,0,1,.77-3c.61-.51,1.21-1,1.78-1.59,1.3-1.26,2.57-2.55,3.85-3.83l1.58-1.55c1.1-1.09,2.18-2.21,3.3-3.28,1.56-1.48,3.19-2.88,4.72-4.39.92-.9,1.64-2,2.56-2.91,1.43-1.4,3-2.68,4.41-4.09A1.37,1.37,0,0,1,85.34,116.26Z" transform="translate(-31.95 -35.7)" style="fill:#a24593"/><path d="M42.37,123.49l1.23.31c-.09-.36-.2-.67-.25-1-.18-1.28.93-1.79,1.63-2.44,1.65-1.54,3.48-2.88,5.13-4.4,1.39-1.28,2.58-2.78,4-4.06,2.21-2.06,4.48-4.08,6.8-6,1.76-1.48,3.65-2.81,5.49-4.19a7.5,7.5,0,0,1,1.48-1c.73-.32.24-.83.3-1.24l.39.39c.56.63,1.1,1.29,1.69,1.9,1,1,2,2,3,3v.19c-.24,1-.74.41-1.11.14a2.33,2.33,0,0,0-2.63-.29,20.76,20.76,0,0,0-3,2.07c-3.14,2.64-6.23,5.33-9.33,8-1.36,1.16-2.74,2.31-4.06,3.51-1.76,1.61-3.47,3.28-5.21,4.91a2.84,2.84,0,0,0-.46,3.64,3.76,3.76,0,0,1,.24.87l-1-.2a5.86,5.86,0,0,1-.74-.54c-.81-.78-1.59-1.59-2.38-2.38Z" transform="translate(-31.95 -35.7)" style="fill:#7d267b"/><path d="M85.34,116.26a1.37,1.37,0,0,0-1.71.41c-1.43,1.41-3,2.69-4.41,4.09-.92.91-1.64,2-2.56,2.91-1.53,1.51-3.16,2.91-4.72,4.39-1.12,1.07-2.2,2.19-3.3,3.28l-1.58,1.55c-1.28,1.28-2.55,2.57-3.85,3.83-.57.56-1.17,1.08-1.78,1.59a2.19,2.19,0,0,0-.77,3L59,140.49l-2.54-2.74,1.81,1.52.26-.08a4.28,4.28,0,0,0-.42-1.28,1.45,1.45,0,0,1,.18-2.3c1.75-1.7,3.45-3.45,5.19-5.17,1.53-1.5,3.09-3,4.61-4.48.66-.65,1.25-1.38,1.9-2,1-1,2-2,2.94-2.94a22.84,22.84,0,0,1,1.71-1.7c1.88-1.53,3.79-3,5.7-4.52.1-.08.22-.22.31-.21A20.4,20.4,0,0,1,84,115C84.49,115.19,84.88,115.84,85.34,116.26Z" transform="translate(-31.95 -35.7)" style="fill:#9a3c8f"/><path d="M73.43,104.93c.45.58.89,1.16,1.37,1.71.13.15.38.17.58.25l.2.19-.33.86c-.63-.51-1-1.28-1.81-.59A52.74,52.74,0,0,0,68,112.09,57,57,0,0,1,62.5,117c-.61.51-1.31.91-1.93,1.41s-1.39,1.24-2.09,1.86-1.68,1.44-2.49,2.2a75.84,75.84,0,0,1-5.57,5.2c-1,.73-.87,1.15-.43,1.93l-.59.58-.58-.2-.6-.77c.41-.18.83-.44.48-.94a1.33,1.33,0,0,1,.23-1.84c1.93-2.08,3.8-4.22,5.85-6.16s4.48-3.83,6.68-5.78,4.54-4.23,6.9-6.25c1.11-1,2.17-2.12,3.87-2.14C72.81,106,73.49,105.79,73.43,104.93Z" transform="translate(-31.95 -35.7)" style="fill:#872c82"/><path d="M73.43,104.93c.06.86-.62,1.11-1.2,1.12-1.7,0-2.76,1.19-3.87,2.14-2.36,2-4.58,4.19-6.9,6.25s-4.55,3.75-6.68,5.78-3.92,4.08-5.85,6.16a1.33,1.33,0,0,0-.23,1.84c.35.5-.07.76-.48.94l-.38-.2-1.18-1.37,1,.2a3.76,3.76,0,0,0-.24-.87,2.84,2.84,0,0,1,.46-3.64c1.74-1.63,3.45-3.3,5.21-4.91,1.32-1.2,2.7-2.35,4.06-3.51,3.1-2.68,6.19-5.37,9.33-8a20.76,20.76,0,0,1,3-2.07,2.33,2.33,0,0,1,2.63.29c.37.27.87.87,1.11-.14Z" transform="translate(-31.95 -35.7)" style="fill:#82297f"/><path d="M46.66,127.59,47.84,129a11.28,11.28,0,0,1-1.59-1.21c-1-1-1.81-2-2.71-3.08.79.79,1.57,1.6,2.38,2.38A5.86,5.86,0,0,0,46.66,127.59Z" transform="translate(-31.95 -35.7)" style="fill:#863f88"/><path d="M48.82,129.93l.58.2c.2.24.4.49.61.72l2.13,2.41h-.2Z" transform="translate(-31.95 -35.7)" style="fill:#91348a"/><path d="M90,162.75l-3.71.2c-1.46-.35-2.94-.62-4.37-1.06a26,26,0,0,1-2.86-1.28h1a8.33,8.33,0,0,1,.8.51,3.15,3.15,0,0,0,3.19.44c.21-.07.51-.48.46-.6-.39-.91.17-1.27.82-1.67.21-.13.3-.47.44-.72.75-1.22,1.4-2.5,2.26-3.64,1.09-1.47,2.33-2.82,3.52-4.21.39-.46.86-.86,1.24-1.33.86-1,1.72-2.1,2.54-3.18,1.23-1.62,2.47-3.23,3.64-4.88,1-1.43,1.8-3,2.89-4.35,1.35-1.69,2.9-3.2,4.34-4.81.27-.31.65-.78.57-1.07-.28-1,.33-1,1-1,.15,0,.29-.12.43-.18h2.12c1.48,0,3,0,4.17-1.06.16-.14.49-.08.74-.11a5.8,5.8,0,0,1-3.2,1.41c-.11,0-.23.48-.3.75s0,.72-.16.9a40.44,40.44,0,0,0-2.91,2.95c-1,1.32-2.4,2.25-3.3,3.68s-2,2.4-3,3.65c-.63.81-1.1,1.73-1.68,2.58-.41.59-.92,1.12-1.34,1.71-.92,1.31-1.81,2.65-2.72,4l-4,5.72c-.46.66-.91,1.34-1.39,2a4.14,4.14,0,0,0-1.08,2.71A13.12,13.12,0,0,1,90,162.75Z" transform="translate(-31.95 -35.7)" style="fill:#d682b5"/><path d="M80.07,160.61h-1l-1.76-1.18h.79a5.59,5.59,0,0,0,.74.63,3.69,3.69,0,0,0,.75.26,7.44,7.44,0,0,0,.2-.78,4.52,4.52,0,0,1,.14-1.19c.34-.69.83-1.3,1.22-2a17.92,17.92,0,0,1,1.42-2.46c1.18-1.4,2.5-2.67,3.76-4,.5-.53,1-1.11,1.49-1.61a30.16,30.16,0,0,0,2.44-2.19c1-1.22,1.93-2.57,2.87-3.87,1-1.47,2-3,3.17-4.4,2.1-2.39,3.92-5.05,6.53-7,.67-.5,1.27-1.13,2.22-.94-.26.48-.4,1.11-.8,1.41a21.42,21.42,0,0,0-4.09,4.36c-.92,1.2-1.9,2.36-2.8,3.57-1.76,2.39-3.4,4.87-5.26,7.17-1.63,2-3.52,3.79-5.25,5.71-.84.93-1.61,1.93-2.38,2.92-.32.43-.49,1-.84,1.4-1,1.2-2.35,2.1-2.9,3.66C80.68,160.35,80.31,160.45,80.07,160.61Z" transform="translate(-31.95 -35.7)" style="fill:#cd75ad"/><path d="M136.33,45.16l2.15-2.74c.21-.05.46-.19.64-.13.57.19.61-.13.76-.55s.5-.54.77-.81c.12.3.37.61.35.9a2.2,2.2,0,0,0,1.14,2.45c.15.08.34.33.31.47-.15.74.4,1,.77,1.53,1.37,1.93,3.21,3.42,4.66,5.26a9.34,9.34,0,0,1,1.05,1.62c1,2.1,2.76,3.65,4.21,5.41.74.9,1.35,1.9,2.05,2.82A5,5,0,0,0,156,62c.45.35.89.72,1.34,1.08,0,0,.06.14.11.15,1.33.3,2.39,1.43,3.89,1.2.28,0,.82.06.83.16a1.83,1.83,0,0,1-.14,1.06c-.7,1.22-1.45,2.42-2.21,3.61a7.19,7.19,0,0,1-.83.92l.07-1c-1.13-.58-2.21-1.09-3.24-1.68a16.9,16.9,0,0,1-2.73-1.75,25.85,25.85,0,0,1-2.5-2.62c-.56-.61-1.08-1.26-1.61-1.9-.17-.2-.31-.41-.47-.62-1.31-1.7-2.62-3.4-3.91-5.12a2.12,2.12,0,0,1-.18-.7c0-.2-.06-.53-.18-.58-1.2-.5-1.4-1.78-2.11-2.66a20.82,20.82,0,0,0-1.59-1.67c-.5-.47-1.15-.74-1.16-1.66,0-.37-.66-.76-1-1.11-.66-.59-1.33-1.15-2-1.73Z" transform="translate(-31.95 -35.7)" style="fill:#eeb0d0"/><path d="M147.07,37.46h1.74C148,38.33,147.65,38.32,147.07,37.46Z" transform="translate(-31.95 -35.7)" style="fill:#f0b7d4"/><path d="M127.54,117l-1.17,1.57a9,9,0,0,0-1-1c-.33-.25-.8-.33-1.1-.61a28.13,28.13,0,0,1-5-5.7c-.48-.79-1.07-1.52-1.61-2.27l-3.42-4.68c-.4-.56-.87-1.09-1.21-1.68-.64-1.12-1.22-2.27-1.82-3.41a15.52,15.52,0,0,0-1.56-2.87c-1.7-2-3.55-3.87-5.34-5.79-.36-.38-.78-.68-.48-1.33.08-.17-.16-.49-.24-.72l-1.46,1.14c.8-1,1.61-2,2.42-2.92.29-.34.59-.66.89-1l.84-.78a1.38,1.38,0,0,1,.09.71,4.78,4.78,0,0,0,.27,1.93,12.59,12.59,0,0,0,1.87,2.21c.7.72,1.55,1.31,2.19,2.08,1.29,1.55,2.5,3.17,3.72,4.78.75,1,1.53,2,2.18,3,1,1.66,1.9,3.4,2.91,5.06.84,1.39,1.78,2.7,2.64,4.07.24.37.25.9.53,1.23.82,1,1.79,1.83,2.56,2.84s1.52,2.27,2.26,3.41c0,.07,0,.2,0,.29Z" transform="translate(-31.95 -35.7)" style="fill:#9c4091"/><path d="M112.11,77l1.56-1.76c.26.19.71.34.76.57a6.24,6.24,0,0,0,1.8,3.69,9.35,9.35,0,0,1,1.39,1.72c1.08,1.57,2.12,3.18,3.2,4.75.29.42.71.75,1,1.16,1.25,1.56,2.51,3.11,3.72,4.7,1,1.27,1.87,2.58,2.76,3.9.79,1.17,1.51,2.39,2.28,3.58.56.86,1.14,1.73,1.74,2.57a9.37,9.37,0,0,0,1.47,1.83c.29.24.91.1,1.38.14s.62.07.93.11l-.42.88-.55,1.07c-.77,1.18-1.55,2.36-2.29,3.56-.5.82-1,1.66-1.43,2.49h-.18c.18-.48.35-1,.55-1.43a6.44,6.44,0,0,1,.42-.72c.36-.55.74-1.08,1.08-1.65a1,1,0,0,0,.2-.7c-.06-.16-.42-.19-.63-.32a3.43,3.43,0,0,1-.82-.57,7.22,7.22,0,0,1-.46-.82c-.36-.49-.8-.92-1.13-1.44-.63-1-1.2-2-1.81-3-1-1.69-2.07-3.39-3.14-5.06-.71-1.1-1.44-2.2-2.25-3.24-.53-.67-1.3-1.17-1.83-1.85-1.09-1.39-2.06-2.87-3.12-4.29-.76-1-1.63-1.93-2.36-3a33.59,33.59,0,0,0-2.3-3.39,2.57,2.57,0,0,1-.7-2.56C113.19,77,112.75,77,112.11,77Z" transform="translate(-31.95 -35.7)" style="fill:#af539a"/><path d="M112.11,77c.64,0,1.08,0,.85.93a2.57,2.57,0,0,0,.7,2.56,33.59,33.59,0,0,1,2.3,3.39c.73,1,1.6,1.94,2.36,3,1.06,1.42,2,2.9,3.12,4.29.53.68,1.3,1.18,1.83,1.85.81,1,1.54,2.14,2.25,3.24,1.07,1.67,2.1,3.37,3.14,5.06.61,1,1.18,2.06,1.81,3,.33.52.77,1,1.13,1.44a7.22,7.22,0,0,0,.46.82,3.43,3.43,0,0,0,.82.57c.21.13.57.16.63.32a1,1,0,0,1-.2.7c-.34.57-.72,1.1-1.08,1.65-.09-.17-.19-.48-.26-.48-1.53.09-1.72-1.36-2.5-2.12-2.29-2.23-3.38-5.2-5-7.89A34.44,34.44,0,0,0,122,96c-1.7-2.22-3.4-4.46-5.13-6.66-1-1.28-2.08-2.52-3.14-3.76s-2.1-2.4-3.11-3.63a1.22,1.22,0,0,1-.24-1c.25-.86-.26-.85-.82-.85l1.17-1.56Z" transform="translate(-31.95 -35.7)" style="fill:#ac4f98"/><path d="M108.21,81.7l.18,0a3.56,3.56,0,0,1,.92,1.68c.33.77,1.14,1.32,1.68,2,1.13,1.48,2.21,3,3.34,4.47,1,1.33,2.09,2.62,3.12,3.94.74.93,1.48,1.87,2.19,2.83,1,1.29,1.89,2.58,2.78,3.92a15.49,15.49,0,0,1,1.79,3.06c.85,2.25,2.48,3.92,3.94,5.7a6.11,6.11,0,0,0,2,1.15c.3.17.62.32,1,.53-.65.52-.13,1.54-1.08,1.79l-.39-.39c-.11-.07-.21-.18-.32-.2-2.09-.43-3.2-2.16-4.38-3.61-.62-.77-1-1.87-1.67-2.72a19.08,19.08,0,0,1-.94-1.8c-1.08-1.71-2.17-3.41-3.31-5.08-.91-1.33-1.89-2.61-2.87-3.88s-2-2.45-3-3.68c-.71-.9-1.33-1.89-2.1-2.72A14.15,14.15,0,0,1,108,84.23l.4-1.21-.22-.08L106.64,84l.56-.85C107.53,82.68,107.87,82.19,108.21,81.7Z" transform="translate(-31.95 -35.7)" style="fill:#a54694"/><path d="M106.64,84l1.54-1.09.22.08-.4,1.21c0,.7-.36,1.54-.08,2.07a9.75,9.75,0,0,0,3,3.8,7,7,0,0,1,1.8,2.38c.65,1.12,1.15,2.33,1.72,3.5.12.23.24.59.41.63,1.53.32,1.93,1.87,3,2.69a2.53,2.53,0,0,1,.64,1c.54,1.21,1,2.45,1.56,3.64a27.31,27.31,0,0,0,1.49,2.55,4.33,4.33,0,0,0,.46.5,10.21,10.21,0,0,1,.84,1,37.77,37.77,0,0,0,2.34,3.61c.43.52.43,1.5,1.39,1.58a2.51,2.51,0,0,0,0,.61,5.3,5.3,0,0,0,.47.79,14.66,14.66,0,0,0,1.38-1c.44-.38.8-.85,1.2-1.27l.39.39c-.28.51-.55,1-.83,1.52a8.5,8.5,0,0,1-.57,1c-.36.49-.76.94-1.14,1.41,0-.09,0-.22,0-.29-.74-1.14-1.42-2.34-2.26-3.41s-1.74-1.87-2.56-2.84c-.28-.33-.29-.86-.53-1.23-.86-1.37-1.8-2.68-2.64-4.07-1-1.66-1.89-3.4-2.91-5.06-.65-1.06-1.43-2-2.18-3-1.22-1.61-2.43-3.23-3.72-4.78-.64-.77-1.49-1.36-2.19-2.08a12.59,12.59,0,0,1-1.87-2.21,4.78,4.78,0,0,1-.27-1.93,1.38,1.38,0,0,0-.09-.71l-.84.78Z" transform="translate(-31.95 -35.7)" style="fill:#a04493"/><path d="M148.64,85c-.42.84-.85,1.68-1.26,2.53a7.61,7.61,0,0,0-.31.79c-.79,1.19-1.56,2.39-2.39,3.55-.66.93-1.4,1.8-2.1,2.7a4.54,4.54,0,0,0,.6-.92,4.36,4.36,0,0,0,.18-1c-.39-.51-1.26-.36-1.4-1.3-.25-1.6-.74-3.17-1.15-4.74,0-.13-.22-.22-.34-.32a2.93,2.93,0,0,1-.34-.24c-.38-.42-.74-.84-1.11-1.26s-.75-.64-.91-1c-.67-1.63-1.24-3.31-1.87-5a2.78,2.78,0,0,0-.51-1,2.69,2.69,0,0,1,0-3.57,4,4,0,0,1,3.62-.16c1.18.78,2.4,1.49,3.58,2.26a10.43,10.43,0,0,1,1,.87l-1.25-.5c-.67-.27-1.56.17-1.46.75a12,12,0,0,0,.8,3.25,27.56,27.56,0,0,0,2.5,3.63c.45.6,1,1.14,1.49,1.72,1.41-1.42,1.2-4.85-.52-6.5l-.39-.78-.78-1.56h0c.32.25.77.43.93.75,1.09,2.1,2.39,4.13,2.39,6.63C147.65,85.46,148,85.48,148.64,85Z" transform="translate(-31.95 -35.7)" style="fill:#cc6fa9"/><path d="M141,96.93l-1.73,3-.42.71h-.2c.17-.39.32-.8.52-1.18s.75-.8.1-1.34c-.59.37-1.24,1.06-1.83.19-1-1.41-1.81-2.9-2.68-4.36a29.46,29.46,0,0,0-2.44-4.16c-1.58-1.88-3-3.93-4.62-5.75a21.55,21.55,0,0,1-2-3.15c-.64-1.06-1.23-2.15-1.9-3.18s-1.67-1.93-2-3.25a21.31,21.31,0,0,0-1-2,1.38,1.38,0,0,1,1-1.88c.73-.13,1.47-.15,2.21-.22l1.37.19-2.4.77c.25.34.6.6.59.83,0,.84.49,1.29,1,1.8a2.36,2.36,0,0,1,.35.57,17.81,17.81,0,0,0,3.75,5.53,4.92,4.92,0,0,1,.62,1.08c.47.77.92,1.55,1.45,2.27s1.12,1.16,1.55,1.82c.71,1.1,1.29,2.29,2,3.42,1.32,2.21,2.66,4.41,4,6.63.53.88,1,1.79,2.33,1.3.11,0,.3.1.45.16Z" transform="translate(-31.95 -35.7)" style="fill:#bf62a2"/><path d="M141,96.93v-.2c-.28-.26-.57-.51-.84-.78s-.6-.49-.71-.81a23.37,23.37,0,0,0-.91-2.83c-1.09-2.07-2.28-4.08-3.49-6.07-1-1.65-2.11-3.27-3.21-4.87-.67-1-1.46-1.87-2.1-2.86-.88-1.36-1.95-2.62-2-4.4-.07-2,.62-3.09,2.33-3.36l-.66.55c.31.6.87,1.19.88,1.78A4.65,4.65,0,0,0,132,76.87c.15.13.16.41.26.6.32.66.5,1.53,1,1.94,1.39,1.07,1.78,2.74,2.69,4.09,1.14,1.69,2.17,3.46,3.21,5.22.54.92,1,1.91,1.5,2.83a6.34,6.34,0,0,0,1.27,1.55c.13.11.69-.29,1.06-.44a1.54,1.54,0,0,1,.38,0,4.36,4.36,0,0,1-.18,1,4.54,4.54,0,0,1-.6.92C142.65,95.76,141.52,96.13,141,96.93Z" transform="translate(-31.95 -35.7)" style="fill:#c567a5"/><path d="M135.16,105.91l.55-1.07.42-.88,1.18-1.37-.79,1.56c-.33.52-.66,1-1,1.55Z" transform="translate(-31.95 -35.7)" style="fill:#bb5ea0"/><path d="M136.52,104.15l.79-1.56h0c.45-.65.91-1.3,1.36-2h.2c0,.07,0,.15,0,.19Z" transform="translate(-31.95 -35.7)" style="fill:#c67bb2"/><path d="M102.15,89.7l1.46-1.14c.08.23.32.55.24.72-.3.65.12,1,.48,1.33,1.79,1.92,3.64,3.79,5.34,5.79a15.52,15.52,0,0,1,1.56,2.87c.6,1.14,1.18,2.29,1.82,3.41.34.59.81,1.12,1.21,1.68l3.42,4.68c.54.75,1.13,1.48,1.61,2.27a28.13,28.13,0,0,0,5,5.7c.3.28.77.36,1.1.61a9,9,0,0,1,1,1c-.48.58-1,1.16-1.43,1.77-.08.11,0,.38.06.57l-.17.21a3.62,3.62,0,0,0-1.08.59c-.73.8-1.39,1.67-2.07,2.52l-.39.19a6.5,6.5,0,0,0,.28-.68c.1-.4.33-.88.2-1.19a12.28,12.28,0,0,0-2.52-4.55,12.87,12.87,0,0,1-1.72-2.23,32.43,32.43,0,0,0-3.7-4.33,33.29,33.29,0,0,1-4.81-6.69c-1.3-2.19-2.42-4.5-3.78-6.66a20.93,20.93,0,0,0-2.64-3c-.48-.5-1.07-.9-1.55-1.41-.12-.13,0-.51,0-.77s0-.52,0-.78l-.67.32-1,.55.37-.59Z" transform="translate(-31.95 -35.7)" style="fill:#94388d"/><path d="M90,162.75a13.12,13.12,0,0,0,.18-2,4.14,4.14,0,0,1,1.08-2.71c.48-.64.93-1.32,1.39-2l4-5.72c.91-1.32,1.8-2.66,2.72-4,.42-.59.93-1.12,1.34-1.71.58-.85,1.05-1.77,1.68-2.58,1-1.25,2.15-2.33,3-3.65s2.29-2.36,3.3-3.68a40.44,40.44,0,0,1,2.91-2.95c.18-.18.08-.6.16-.9s.19-.75.3-.75a5.8,5.8,0,0,0,3.2-1.41l.59-.39,2-.73c.32-.13.63-.3.94-.45l2.93-1.76a25.88,25.88,0,0,1-2.32,1.89c-.42.27-.65.39-.51.94a3.93,3.93,0,0,1-.19,1.32l-1.25-.68c-.87-.44-1.39,0-1.62.88-.47,1.83-.81,3.7-2.73,4.82-.86.51-1.37,1.6-2,2.42-1.2,1.45-2.43,2.86-3.58,4.34s-2.47,3.23-3.6,4.92c-1.54,2.3-3,4.65-4.46,7a6.79,6.79,0,0,0-.82,1.85c-.29,1.11-1.28,1.91-1.2,3.23,0,.41-.68.94-.56,1.65a2,2,0,0,1-1,.43c-.53.06-1.24-.34-1.22.69,0,.11-.18.3-.31.34C92.86,161.92,91.45,162.33,90,162.75Z" transform="translate(-31.95 -35.7)" style="fill:#dc8bba"/><path d="M118.75,127.2c-.31.15-.62.32-.94.45l-2,.73-2.74.78c-1.18.13-2.36.32-3.55.37a16.9,16.9,0,0,1-7-.76h-.4l.21-.19h1c2.47,1.13,5.08.77,7.67.71.05,0,.09-.08.14-.12a3.71,3.71,0,0,0,.67-.07,33.32,33.32,0,0,0,3.58-1,32.89,32.89,0,0,0,3.17-1.65,4.16,4.16,0,0,1,.61-.58c.7-.48,1.42-.92,2.13-1.38l.39-.19c.3-.22.61-.43.9-.66l.86-.71a9.78,9.78,0,0,1-3.55,3.18A5,5,0,0,0,118.75,127.2Z" transform="translate(-31.95 -35.7)" style="fill:#b760a2"/><path d="M123.44,122.9l-.86.71c-.29.23-.6.44-.9.66.68-.85,1.34-1.72,2.07-2.52a3.62,3.62,0,0,1,1.08-.59Z" transform="translate(-31.95 -35.7)" style="fill:#9c4091"/><path d="M102.15,89.7l-2.37,2.72a3.91,3.91,0,0,1,.4-.85c2.14-2.78,4.29-5.56,6.47-8.31a15.32,15.32,0,0,1,1.56-1.56c-.34.49-.68,1-1,1.48l-.56.85-1.18,1.76c-.3.33-.6.65-.89,1C103.76,87.75,103,88.72,102.15,89.7Z" transform="translate(-31.95 -35.7)" style="fill:#ad62a4"/><path d="M136.33,45.16v.19l-2.15,2.54c.46-.71.91-1.43,1.37-2.15Z" transform="translate(-31.95 -35.7)" style="fill:#f0b7d4"/><path d="M149,76.22c.1.93.22,1.85.3,2.78a12.14,12.14,0,0,1-.5,5.42c0-.29,0-.58,0-.87.4-3.26.39-6.47-1.19-9.48a16.9,16.9,0,0,0-2.07-3.44,21.85,21.85,0,0,0-4-3.12,11.19,11.19,0,0,0-3.7-1.78c-2.84-.53-5.71-1.19-8.65-.65-1.2.23-2.42.4-3.6.7a24.27,24.27,0,0,0-2.6.91,2.49,2.49,0,0,0-.52.25l-3.36,2h-.2a3.43,3.43,0,0,1,.62-.59,35.89,35.89,0,0,1,4.6-2.3,40.08,40.08,0,0,1,4.9-1.34,12.85,12.85,0,0,1,6.25.19,24.58,24.58,0,0,0,2.58.33,30.24,30.24,0,0,1,2.94,1.21,16.53,16.53,0,0,1,5.82,4.74,6.26,6.26,0,0,1,1.48,3.22C148.16,75.06,148.71,75.63,149,76.22Z" transform="translate(-31.95 -35.7)" style="fill:#d276ae"/><path d="M137.31,102.59,136.13,104c-.31,0-.61-.09-.93-.11s-1.09.1-1.38-.14a9.37,9.37,0,0,1-1.47-1.83c-.6-.84-1.18-1.71-1.74-2.57-.77-1.19-1.49-2.41-2.28-3.58-.89-1.32-1.8-2.63-2.76-3.9-1.21-1.59-2.47-3.14-3.72-4.7-.32-.41-.74-.74-1-1.16-1.08-1.57-2.12-3.18-3.2-4.75a9.35,9.35,0,0,0-1.39-1.72,6.24,6.24,0,0,1-1.8-3.69c-.05-.23-.5-.38-.76-.57l2.54-3.13c0,.62.29.68.8.46s1.16-.43,1.74-.65c-.56.53-1.14,1-1.68,1.59a.91.91,0,0,0-.08,1.41c1.86,2.39,3.65,4.83,5.46,7.26.68.9,1.35,1.81,2,2.72,1,1.39,2,2.76,3,4.2,1.27,2,3.1,3.48,4.18,5.62s2.52,4.11,3.82,6.14a1,1,0,0,0,.72.34c.92,0,1.29.5,1.18,1.39Z" transform="translate(-31.95 -35.7)" style="fill:#b5579d"/><path d="M119.14,69l3.36-2a2.49,2.49,0,0,1,.52-.25,24.27,24.27,0,0,1,2.6-.91c1.18-.3,2.4-.47,3.6-.7,2.94-.54,5.81.12,8.65.65a11.19,11.19,0,0,1,3.7,1.78,21.85,21.85,0,0,1,4,3.12,16.9,16.9,0,0,1,2.07,3.44v.2a12.46,12.46,0,0,0-1.35-2.37A20.27,20.27,0,0,0,140.43,67a35.2,35.2,0,0,0-3.93-1.16,43.87,43.87,0,0,0-5.36-.56,14,14,0,0,0-2.62.35l-5.31,1.39c-.11,0-.2.16-.31.22l-1.42.73-.78.5c-.92.61-1.82,1.23-2.73,1.84Z" transform="translate(-31.95 -35.7)" style="fill:#c560a1"/><path d="M118,70.35c.91-.61,1.81-1.23,2.73-1.84l.78-.5-.6,1.46a4.49,4.49,0,0,0,1.28.22c1.15-.19,2.28-.46,3.43-.7h2c-.21.06-.41.15-.62.19l-5,1a5.58,5.58,0,0,0-3.12,1.76c-.58.22-1.17.41-1.74.65s-.81.16-.8-.46Z" transform="translate(-31.95 -35.7)" style="fill:#bd539a"/><path d="M102.14,128.76h.4a4.31,4.31,0,0,0,2.94,1c1-.06,2,0,2.92,0v.2h-3.33c-.95-.19-1.55.44-2.22.94-2.61,1.93-4.43,4.59-6.53,7-1.19,1.36-2.12,2.93-3.17,4.4-.94,1.3-1.83,2.65-2.87,3.87a30.16,30.16,0,0,1-2.44,2.19c-.53.5-1,1.08-1.49,1.61-1.26,1.33-2.58,2.6-3.76,4a17.92,17.92,0,0,0-1.42,2.46c-.39.66-.88,1.27-1.22,2a4.52,4.52,0,0,0-.14,1.19,7.44,7.44,0,0,1-.2.78,3.69,3.69,0,0,1-.75-.26,5.59,5.59,0,0,1-.74-.63c.08-.61.13-1.22.25-1.83a10.48,10.48,0,0,1,2.49-4.53c.53-.65,1-1.33,1.54-2a7.1,7.1,0,0,1,.56-.67l3.16-3.16a7,7,0,0,1,.58-.51,27.87,27.87,0,0,0,5.45-6c1-1.41,2.09-2.78,3.2-4.12,1.48-1.79,3-3.53,4.54-5.28a10.36,10.36,0,0,1,1-.91l-.28-1.7h1.56Z" transform="translate(-31.95 -35.7)" style="fill:#c970aa"/><path d="M101,128.76h-.39a3.16,3.16,0,0,0-.83.52c-1.5,1.68-3,3.37-4.44,5.1s-2.61,3.28-3.91,4.93c-.56.71-1.06,1.48-1.68,2.13-1.31,1.36-2.22,3.11-4,4a6,6,0,0,0-1.6,1.51c-1.57,1.71-3.1,3.45-4.66,5.17-.54.59-1.16,1.12-1.68,1.73a14.47,14.47,0,0,0-1.48,2c-.12.2,0,.61.14.9a5.38,5.38,0,0,0,.49.82c-.73.37-1.17.09-2.09-1.25a4.81,4.81,0,0,0,.27-.81c.09-.49,0-1.12.22-1.47.88-1.18,1.88-2.28,2.85-3.4.36-.41.78-.77,1.15-1.17a49.7,49.7,0,0,1,3.51-3.73,60.24,60.24,0,0,0,6.14-6.34c1.51-1.76,3.08-3.47,4.64-5.19a41.88,41.88,0,0,1,3.28-3.5c1.07-.95,1.85-2.54,3.72-2.13Z" transform="translate(-31.95 -35.7)" style="fill:#c167a6"/><path d="M100.58,128.57c-1.87-.41-2.65,1.18-3.72,2.13a41.88,41.88,0,0,0-3.28,3.5c-1.56,1.72-3.13,3.43-4.64,5.19a60.24,60.24,0,0,1-6.14,6.34,49.7,49.7,0,0,0-3.51,3.73c-.37.4-.79.76-1.15,1.17-1,1.12-2,2.22-2.85,3.4-.26.35-.13,1-.22,1.47a4.81,4.81,0,0,1-.27.81l-1.37-1c.16-.4.34-.78.47-1.19a7.79,7.79,0,0,1,.69-2.14,32.13,32.13,0,0,1,2.73-3c1.1-1.13,2.25-2.23,3.35-3.36.92-.95,1.8-1.94,2.71-2.9,1.58-1.66,3.17-3.31,4.76-5,.35-.37.72-.73,1.06-1.11.88-1,1.73-2,2.63-3,2-2.12,4-4.2,6-6.3Z" transform="translate(-31.95 -35.7)" style="fill:#bf66a5"/><path d="M71.09,153l-.2-.39c.48,0,.83-.07.66-.74a1.33,1.33,0,0,1,.24-1A25.61,25.61,0,0,1,74.12,148c2-2,3.7-4.43,6.17-6,.1-.06.16-.2.25-.29,1.12-1.2,2.23-2.42,3.37-3.6,1-1,2-2,3-3,.66-.67,1.32-1.33,1.94-2,2.07-2.27,4-4.73,7-5.82a1.47,1.47,0,0,1,1.61.11,20.55,20.55,0,0,0-2.57,1.72c-1.68,1.5-3.29,3.1-4.9,4.68-.52.51-.92,1.15-1.44,1.66-1.58,1.54-3.22,3-4.78,4.57s-2.85,3.08-4.31,4.58c-1,1.08-2.19,2.08-3.23,3.16a19.19,19.19,0,0,1-1.69,2A3.54,3.54,0,0,0,72.89,153c0,.3-.41.63-.63.94Z" transform="translate(-31.95 -35.7)" style="fill:#ba60a2"/><path d="M72.26,154c.22-.31.65-.64.63-.94a3.54,3.54,0,0,1,1.65-3.28,19.19,19.19,0,0,0,1.69-2c1-1.08,2.18-2.08,3.23-3.16,1.46-1.5,2.83-3.09,4.31-4.58s3.2-3,4.78-4.57c.52-.51.92-1.15,1.44-1.66,1.61-1.58,3.22-3.18,4.9-4.68a20.55,20.55,0,0,1,2.57-1.72h.39c-2,2.1-4,4.18-6,6.3-.9,1-1.75,2-2.63,3-.34.38-.71.74-1.06,1.11-1.59,1.66-3.18,3.31-4.76,5-.91,1-1.79,1.95-2.71,2.9-1.1,1.13-2.25,2.23-3.35,3.36a32.13,32.13,0,0,0-2.73,3,7.79,7.79,0,0,0-.69,2.14c-.13.41-.31.79-.47,1.19Z" transform="translate(-31.95 -35.7)" style="fill:#bc61a2"/><path d="M61.51,143.22c.52.37,1,.74,1.57,1.09a1.82,1.82,0,0,0,.59.13c0-.17.1-.38,0-.52-.39-.78,0-1.28.55-1.78,2.42-2.42,4.82-4.86,7.28-7.25,1-1,2.24-1.93,3.33-2.93,2.78-2.55,5.79-4.86,8-8,.93-1.38,2.12-2.58,3.14-3.9a3.45,3.45,0,0,0,.42-1.18c.13-.48.27-.82.85-.43s1.09.65,1.64,1l.38.2c.58.6,1.14,1.21,1.72,1.8s.94.88,1.42,1.32h-.2l-.19-.2-1.8-.69c-.66.48-1.27.89-1.84,1.34a27.1,27.1,0,0,0-2.71,2.29c-1.51,1.6-2.83,3.37-4.39,4.93-2.66,2.67-5.44,5.23-8.19,7.82-.7.66-1.53,1.2-2.22,1.88s-1,1.39-1.6,2c-1.37,1.39-3.39,2.2-3.75,4.46h-.85Z" transform="translate(-31.95 -35.7)" style="fill:#aa4e98"/><path d="M97.85,127.4h-.39a1.47,1.47,0,0,0-1.61-.11c-3.06,1.09-4.95,3.55-7,5.82-.62.69-1.28,1.35-1.94,2-1,1-2,2-3,3-1.14,1.18-2.25,2.4-3.37,3.6-.09.09-.15.23-.25.29-2.47,1.58-4.12,4-6.17,6a25.61,25.61,0,0,0-2.33,2.85,1.33,1.33,0,0,0-.24,1c.17.67-.18.73-.66.74l-2.74-2.74,1,.31c.11-.48.06-1,.3-1.27,1.42-1.63,2.89-3.2,4.36-4.78.41-.44.92-.81,1.35-1.24,1.33-1.36,2.61-2.76,4-4.08s3.06-2.77,4.56-4.19a29.18,29.18,0,0,0,2.7-2.75,38.6,38.6,0,0,1,5-5.56c.94-.77,1.73-2,3.28-1.25.75.52,1.47,1.07,2.25,1.54a9,9,0,0,0,1.46.61l3.92,1.37-.21.19H101l-.39-.19Z" transform="translate(-31.95 -35.7)" style="fill:#b75c9f"/><path d="M94.72,125.05c-1.55-.8-2.34.48-3.28,1.25a38.6,38.6,0,0,0-5,5.56,29.18,29.18,0,0,1-2.7,2.75c-1.5,1.42-3.07,2.76-4.56,4.19s-2.64,2.72-4,4.08c-.43.43-.94.8-1.35,1.24-1.47,1.58-2.94,3.15-4.36,4.78-.24.27-.19.79-.3,1.27l-1-.31L66,147.71l1.53.88c0-.2.13-.44.06-.53-.63-.72-.25-1.24.29-1.74.72-.65,1.45-1.28,2.13-2,2.07-2.1,4.09-4.25,6.19-6.32,1.53-1.51,3.2-2.87,4.73-4.38s2.76-3,4.11-4.46c.93-1,1.73-2.17,2.74-3.1,1.17-1.08,2.68-1.78,3.56-3.2.12-.19.43-.25.65-.38l.19.2c.12.24.17.57.36.72C93.24,124,94,124.52,94.72,125.05Z" transform="translate(-31.95 -35.7)" style="fill:#b1559b"/><path d="M92,122.51c-.22.13-.53.19-.65.38-.88,1.42-2.39,2.12-3.56,3.2-1,.93-1.81,2.07-2.74,3.1-1.35,1.5-2.68,3-4.11,4.46s-3.2,2.87-4.73,4.38c-2.1,2.07-4.12,4.22-6.19,6.32-.68.69-1.41,1.32-2.13,2-.54.5-.92,1-.29,1.74.07.09,0,.33-.06.53L66,147.71l-1.36-1.17h.85c.36-2.26,2.38-3.07,3.75-4.46.59-.61,1-1.39,1.6-2s1.52-1.22,2.22-1.88c2.75-2.59,5.53-5.15,8.19-7.82,1.56-1.56,2.88-3.33,4.39-4.93a27.1,27.1,0,0,1,2.71-2.29c.57-.45,1.18-.86,1.84-1.34Z" transform="translate(-31.95 -35.7)" style="fill:#ae529a"/><path d="M147.66,74.27v-.2c1.58,3,1.59,6.22,1.19,9.48,0,.29,0,.58,0,.87l-.19.59c-.61.47-1,.45-1-.44,0-2.5-1.3-4.53-2.39-6.63-.16-.32-.61-.5-.93-.75a6.56,6.56,0,0,0-.74-.75c-1.16-.82-2.28-1.69-3.51-2.39-1.8-1-3.67-2-5.52-2.91a1.8,1.8,0,0,0-.42-.37,12.46,12.46,0,0,0-5.32-.55c-1.15,0-2.29.22-3.44.33L124,70.36v-.2a24.15,24.15,0,0,1,4.56-.72,26.36,26.36,0,0,1,5.7.91A17.53,17.53,0,0,1,137.64,72,17,17,0,0,1,140,73.23c1.34.94,2.62,2,3.92,3,.12.15.21.38.36.44,1.53.54,2.13,1.69,2.63,3.19a14.93,14.93,0,0,1,.92,3.81,5.23,5.23,0,0,0,.22.91h.45c.1-1.09.26-2.18.28-3.26s-.1-2.07-.18-3.1a9,9,0,0,0-.19-1Z" transform="translate(-31.95 -35.7)" style="fill:#c760a1"/><path d="M98.24,95.36c.19.1.55.22.55.3-.15,1.41,1.17,1.92,1.75,2.87.76,1.22,1.57,2.4,2.34,3.61.36.56.69,1.15,1,1.73,1.08,1.8,2.53,3.35,3.38,5.33a14.36,14.36,0,0,0,2,2.57c1.81,2.42,3.54,4.9,5.43,7.25a28.12,28.12,0,0,0,2.82,2.5,27.07,27.07,0,0,1,2.43,2.59c.14.16-.06.81-.3,1a11.25,11.25,0,0,1-1.68,1.09c-.3-.83-.58-1.66-.9-2.48,0-.11-.27-.15-.4-.24a12.8,12.8,0,0,1-2.43-1.76c-1.33-1.56-2.42-3.3-3.81-4.83s-2.81-3.44-4.14-5.21a21.09,21.09,0,0,1-1-2c-.84-1.44-1.75-2.84-2.58-4.28-.45-.77-.79-1.6-1.2-2.38s-.89-1.7-1.37-2.53c-.35-.57-.77-1.1-1.14-1.65-.55-.83-1.27-1.6-.62-2.73C98.48,96,98.29,95.64,98.24,95.36Z" transform="translate(-31.95 -35.7)" style="fill:#882e83"/><path d="M98.24,95.36c.05.28.24.64.13.82-.65,1.13.07,1.9.62,2.73.37.55.79,1.08,1.14,1.65.48.83.93,1.68,1.37,2.53s.75,1.61,1.2,2.38c.83,1.44,1.74,2.84,2.58,4.28a21.09,21.09,0,0,0,1,2c1.33,1.77,2.64,3.58,4.14,5.21s2.48,3.27,3.81,4.83a12.8,12.8,0,0,0,2.43,1.76c.13.09.35.13.4.24.32.82.6,1.65.9,2.48h-.2c-.15-.23-.25-.54-.47-.68a34.89,34.89,0,0,1-4.44-3.06,63.85,63.85,0,0,1-4.5-5.32c-.81-1-1.62-1.92-2.44-2.87a16.5,16.5,0,0,1-1.69-2c-1.24-2-2.38-4-3.56-6.08q-1.26-2.2-2.53-4.41a7.18,7.18,0,0,1-1.08-1.79,5.15,5.15,0,0,1,.22-2.15c.12-.52.4-1-.21-1.37Z" transform="translate(-31.95 -35.7)" style="fill:#862e82"/><path d="M102.35,128.57l-3.92-1.37-6.05-4.49c-.48-.44-1-.87-1.42-1.32s-1.14-1.2-1.72-1.8h.4c1.27,1.11,2.52,2.24,3.82,3.31a17.6,17.6,0,0,0,1.85,1.18l2.14,1.39,1.17,1a15.7,15.7,0,0,0,1.72.79c1,.36,2.11.64,3.17,1,.53.1,1,.21,1.58.3,1.78.29,3.56.84,5.36.32,2.39-.68,5-.77,7.13-2.18l1-.2a32.89,32.89,0,0,1-3.17,1.65,33.32,33.32,0,0,1-3.58,1,3.71,3.71,0,0,1-.67.07c-.42,0-.85,0-1.27,0-2.18-.18-4.36-.39-6.54-.58Z" transform="translate(-31.95 -35.7)" style="fill:#9a408e"/><path d="M117.58,126.62c-2.17,1.41-4.74,1.5-7.13,2.18-1.8.52-3.58,0-5.36-.32-.53-.09-1-.2-1.58-.3h1l2,.19a7.1,7.1,0,0,0,4,.18c1.44-.3,2.87-.62,4.31-1,.21,0,.49-.09.6-.24a3,3,0,0,1,2.25-.94Z" transform="translate(-31.95 -35.7)" style="fill:#882e83"/><path d="M106.44,128.37l-2-.19V128c.78,0,1.56,0,2.34,0a12.63,12.63,0,0,0,2.38-.33c.64-.16.73-.62.2-1.07s-1-.71-1.47-1.1c-1.63-1.31-3.28-2.61-4.88-4a32.36,32.36,0,0,1-3.23-3.07c-1.69-1.92-2.41-4.49-4.3-6.32a20.65,20.65,0,0,1-2.46-3.47,6.25,6.25,0,0,0-.88-1.38c-.74-.63-1.23-1.22-.67-2.22a.63.63,0,0,0-.11-.59.61.61,0,0,0-.6.09c-.55.62-1,1.3-1.56,1.93a2.85,2.85,0,0,1-.59.42l3.52-4.49c.54,0,.94,0,1-.72,0-.22.38-.4.59-.59.09.28.32.6.24.83a1.12,1.12,0,0,0,.41,1.26A10.44,10.44,0,0,1,95.82,105c.81,1.38,1.52,2.81,2.35,4.17,1,1.7,2.08,3.41,3.24,5a69.35,69.35,0,0,0,5.18,6.81c1.17,1.28,2.88,2.06,4.37,3,.73.48,1.45.84,1.62,1.89.08.52.79.93,1.29,1.47C111.35,127.88,109,128.92,106.44,128.37Z" transform="translate(-31.95 -35.7)" style="fill:#792277"/><path d="M88.66,106.88a2.85,2.85,0,0,0,.59-.42c.53-.63,1-1.31,1.56-1.93a.61.61,0,0,1,.6-.09.63.63,0,0,1,.11.59c-.56,1-.07,1.59.67,2.22a6.25,6.25,0,0,1,.88,1.38,20.65,20.65,0,0,0,2.46,3.47c1.89,1.83,2.61,4.4,4.3,6.32a32.36,32.36,0,0,0,3.23,3.07c1.6,1.37,3.25,2.67,4.88,4,.48.39,1,.71,1.47,1.1s.44.91-.2,1.07a12.63,12.63,0,0,1-2.38.33c-.78.05-1.56,0-2.34,0-1.77.25-3.12-.93-4.69-1.37,1.18-.64,1.18-.74.4-1.86s-1.58-2.33-2.31-3.53c-1.11-1.81-2.07-3.73-3.28-5.47-1-1.5-2.42-2.76-3.52-4.23-.92-1.24-2.56-2.23-1.88-4.21,0,0-.07-.1-.14-.19s-.28,0-.33.07c-.45.61-.89,1.23-1.3,1.86,0,.08,0,.25,0,.37l-.59-.2c0-.12,0-.25,0-.38Z" transform="translate(-31.95 -35.7)" style="fill:#6f2370"/><path d="M93.16,121.93c-1-.86-2.07-1.7-3.06-2.59-1.79-1.62-3.53-3.29-5.33-4.9-.67-.6-1-1.14-.3-1.91.07-.09.06-.25.09-.37L86.32,110c.69.75,1.45,1.46,2.07,2.27,1.17,1.52,2.17,3.18,3.42,4.63a6.78,6.78,0,0,1,1.68,3,8,8,0,0,0,.33,1.21C94.11,121.8,93.79,122,93.16,121.93Z" transform="translate(-31.95 -35.7)" style="fill:#58225d"/><path d="M93.16,121.93c.63,0,1-.13.66-.84a8,8,0,0,1-.33-1.21,6.78,6.78,0,0,0-1.68-3c-1.25-1.45-2.25-3.11-3.42-4.63-.62-.81-1.38-1.52-2.07-2.27l.58-.78.59.2c1.06.24,1.43,1.21,2,1.94,1.14,1.46,2.13,3.06,3.36,4.45a11.66,11.66,0,0,1,2.41,4.45c.51,1.67,1.07,3.22,2.72,4.1.19.11.3.36.5.6l-1,.5-2.14-1.39-1.68-1.71C93.48,122.21,93.32,122.07,93.16,121.93Z" transform="translate(-31.95 -35.7)" style="fill:#612365"/><path d="M65.8,96.94l-2.53-2.36Z" transform="translate(-31.95 -35.7)" style="fill:#8a428a"/><path d="M79.29,110.79a1.63,1.63,0,0,1,.38.3c.2.3.36.63.54,1l-1.13.21c-.31,0-.69,0-.93.14-2.13,1.31-4.3,2.58-6.33,4a33.73,33.73,0,0,0-2.61,2.72c-1,.93-2.22,1.65-3.17,2.63s-2.51,1.44-3.27,2.8c-.3.55-1,.85-1.48,1.35-.91,1-1.71,2.08-2.65,3-1.21,1.24-2.51,2.42-3.79,3.6a1.28,1.28,0,0,0-.41,1.64c.1.2-.09.53-.15.8l-1.76-1.37.74-.1c-.91-1.53-.78-2.41.44-3.54a4.69,4.69,0,0,0,.52-.57c.83-1,1.62-2,2.48-3s1.83-1.66,2.56-2.62c1.7-2.27,4.31-3.35,6.36-5.15.92-.81,1.84-1.63,2.73-2.46,1.27-1.19,2.48-2.46,3.8-3.58a13.38,13.38,0,0,1,2.39-1.43c1.24-.69,2.49-1.06,3.83-.16C78.55,111.17,79,110.89,79.29,110.79Z" transform="translate(-31.95 -35.7)" style="fill:#91348a"/><path d="M79.29,110.79c-.31.1-.74.38-.91.27-1.34-.9-2.59-.53-3.83.16a13.38,13.38,0,0,0-2.39,1.43c-1.32,1.12-2.53,2.39-3.8,3.58-.89.83-1.81,1.65-2.73,2.46-2,1.8-4.66,2.88-6.36,5.15-.73,1-1.74,1.71-2.56,2.62s-1.65,2-2.48,3a4.69,4.69,0,0,1-.52.57c-1.22,1.13-1.35,2-.44,3.54l-.74.1-.39-.39L50,130.85c-.21-.23-.41-.48-.61-.72l.59-.58c.16-.26.28-.67.5-.74a6.46,6.46,0,0,0,3.61-2.43,23.36,23.36,0,0,1,2.39-2.59,5.91,5.91,0,0,1,.66-.56c.79-.59,1.62-1.14,2.38-1.78s1.11-1.32,1.81-1.72a28.11,28.11,0,0,0,5.37-4.29,23.53,23.53,0,0,0,3.41-3.36,14.28,14.28,0,0,1,1.9-1.91,2.51,2.51,0,0,1,.67-.35l2.39-1.24,1.82,1.32c.49.36,1,.55,1.41-.08Z" transform="translate(-31.95 -35.7)" style="fill:#8c2e86"/><path d="M78.31,109.82c-.43.63-.92.44-1.41.08l-1.82-1.32-2.39,1.24a2.51,2.51,0,0,0-.67.35,14.28,14.28,0,0,0-1.9,1.91,23.53,23.53,0,0,1-3.41,3.36,28.11,28.11,0,0,1-5.37,4.29c-.7.4-1.17,1.19-1.81,1.72s-1.59,1.19-2.38,1.78a5.91,5.91,0,0,0-.66.56,23.36,23.36,0,0,0-2.39,2.59,6.46,6.46,0,0,1-3.61,2.43c-.22.07-.34.48-.5.74-.44-.78-.52-1.2.43-1.93a75.84,75.84,0,0,0,5.57-5.2c.81-.76,1.67-1.46,2.49-2.2s1.37-1.27,2.09-1.86,1.32-.9,1.93-1.41A57,57,0,0,0,68,112.09a52.74,52.74,0,0,1,5.41-4.74c.83-.69,1.18.08,1.81.59l.33-.86Z" transform="translate(-31.95 -35.7)" style="fill:#8b2f86"/><path d="M33.19,108.25a2.23,2.23,0,0,0,1.67-2.3c0-1.59,0-3.17,0-5a12.86,12.86,0,0,1,1.61.31,1.49,1.49,0,0,0,1.77-.31,33.56,33.56,0,0,1,2.62-2.58A36.47,36.47,0,0,1,44,96.17a.91.91,0,0,1,.52-.11,1.89,1.89,0,0,0,2-1.47,4.18,4.18,0,0,1,.76-1.33.94.94,0,0,1,1.36-.15,2,2,0,0,0,1.75.16c1-.84,2.36-.41,3.38-1,1.18-.73,2.49-.58,3.78-.58a2.8,2.8,0,0,0-2.21,1.73c-.35.6-1.18.94-1.83,1.34-1.3.81-2.63,1.59-4,2.39-.08,0-.2.09-.23.16-.71,1.8-2.66,1.81-4,2.77-.08,0-.2,0-.27.1-1.28,1-2.56,2-3.81,3.11a24,24,0,0,1-2.27,2c-.45.29-1.18.11-2,.15,0,.18.15.69,0,1a19.73,19.73,0,0,1-1.49,2,3.63,3.63,0,0,0-.86,2.78,6.48,6.48,0,0,1-.11,1.51H34.2a12.86,12.86,0,0,1-.22-1.62C34,110,34.12,109,33.19,108.25Z" transform="translate(-31.95 -35.7)" style="fill:#5d2363"/><path d="M54.28,89.89c.33.57-.1.75-.48.75-2.19,0-4.38,0-6.57,0a5.29,5.29,0,0,1-1.15-.36,6.71,6.71,0,0,1,4-.4,37.91,37.91,0,0,0,4,0Z" transform="translate(-31.95 -35.7)" style="fill:#502158"/><path d="M105.07,129.94h3.13c-.14.06-.28.18-.43.18-.66,0-1.27-.06-1,1,.08.29-.3.76-.57,1.07-1.44,1.61-3,3.12-4.34,4.81-1.09,1.35-1.89,2.92-2.89,4.35-1.17,1.65-2.41,3.26-3.64,4.88-.82,1.08-1.68,2.13-2.54,3.18-.38.47-.85.87-1.24,1.33-1.19,1.39-2.43,2.74-3.52,4.21-.86,1.14-1.51,2.42-2.26,3.64-.14.25-.23.59-.44.72-.65.4-1.21.76-.82,1.67,0,.12-.25.53-.46.6a3.15,3.15,0,0,1-3.19-.44,8.33,8.33,0,0,0-.8-.51c.24-.16.61-.26.68-.47.55-1.56,1.91-2.46,2.9-3.66.35-.41.52-1,.84-1.4.77-1,1.54-2,2.38-2.92,1.73-1.92,3.62-3.7,5.25-5.71,1.86-2.3,3.5-4.78,5.26-7.17.9-1.21,1.88-2.37,2.8-3.57a21.42,21.42,0,0,1,4.09-4.36C104.67,131.05,104.81,130.42,105.07,129.94Z" transform="translate(-31.95 -35.7)" style="fill:#ce79b0"/><path d="M108.4,129.94v-.2a17.79,17.79,0,0,0,2.31,0,22,22,0,0,0,2.37-.56l2.74-.78-.59.39c-.25,0-.58,0-.74.11-1.21,1.1-2.69,1.05-4.17,1.06Z" transform="translate(-31.95 -35.7)" style="fill:#ce79b0"/><path d="M129.69,112.36c-.4.42-.76.89-1.2,1.27a14.66,14.66,0,0,1-1.38,1,5.3,5.3,0,0,1-.47-.79,2.51,2.51,0,0,1,0-.61c-1-.08-1-1.06-1.39-1.58A37.77,37.77,0,0,1,122.9,108a10.21,10.21,0,0,0-.84-1,4.33,4.33,0,0,1-.46-.5,27.31,27.31,0,0,1-1.49-2.55c-.57-1.19-1-2.43-1.56-3.64a2.53,2.53,0,0,0-.64-1c-1.08-.82-1.48-2.37-3-2.69-.17,0-.29-.4-.41-.63-.57-1.17-1.07-2.38-1.72-3.5A7,7,0,0,0,111,90.1a9.75,9.75,0,0,1-3-3.8c-.28-.53,0-1.37.08-2.07a14.15,14.15,0,0,0,3.15,4.44c.77.83,1.39,1.82,2.1,2.72,1,1.23,2,2.43,3,3.68s2,2.55,2.87,3.88c1.14,1.67,2.23,3.37,3.31,5.08a19.08,19.08,0,0,0,.94,1.8c.68.85,1.05,2,1.67,2.72,1.18,1.45,2.29,3.18,4.38,3.61C129.48,112.18,129.58,112.29,129.69,112.36Z" transform="translate(-31.95 -35.7)" style="fill:#a04392"/><path d="M134.57,71.14c1.85,1,3.72,1.87,5.52,2.91,1.23.7,2.35,1.57,3.51,2.39a6.56,6.56,0,0,1,.74.75H144a10.43,10.43,0,0,0-1-.87c-1.18-.77-2.4-1.48-3.58-2.26a4,4,0,0,0-3.62.16,2.69,2.69,0,0,0,0,3.57,2.78,2.78,0,0,1,.51,1c.63,1.65,1.2,3.33,1.87,5,.16.4.6.7.91,1s.73.84,1.11,1.26a2.93,2.93,0,0,0,.34.24c.12.1.31.19.34.32.41,1.57.9,3.14,1.15,4.74.14.94,1,.79,1.4,1.3a1.54,1.54,0,0,0-.38,0c-.37.15-.93.55-1.06.44a6.34,6.34,0,0,1-1.27-1.55c-.54-.92-1-1.91-1.5-2.83-1-1.76-2.07-3.53-3.21-5.22-.91-1.35-1.3-3-2.69-4.09-.52-.41-.7-1.28-1-1.94-.1-.19-.11-.47-.26-.6a4.65,4.65,0,0,1-1.67-3.79c0-.59-.57-1.18-.88-1.78l.66-.55a3.15,3.15,0,0,1,1-.18C132.27,70.72,133.42,70.94,134.57,71.14Z" transform="translate(-31.95 -35.7)" style="fill:#ca6ba7"/><path d="M144,77.19h.39l.78,1.56c-.49-.23-.61-1.25-1.44-.73a1.3,1.3,0,0,0-.32,1.89,32.67,32.67,0,0,0,2,3.23.79.79,0,0,0,.75.21.78.78,0,0,0,.35-.68,21.61,21.61,0,0,0-.59-2.09c-.11-.36-.24-.7-.36-1,1.72,1.65,1.93,5.08.52,6.5-.5-.58-1-1.12-1.49-1.72a27.56,27.56,0,0,1-2.5-3.63,12,12,0,0,1-.8-3.25c-.1-.58.79-1,1.46-.75Z" transform="translate(-31.95 -35.7)" style="fill:#d378af"/><path d="M145.51,79.54c.12.35.25.69.36,1a21.61,21.61,0,0,1,.59,2.09.78.78,0,0,1-.35.68.79.79,0,0,1-.75-.21,32.67,32.67,0,0,1-2-3.23,1.3,1.3,0,0,1,.32-1.89c.83-.52.95.5,1.44.73Z" transform="translate(-31.95 -35.7)" style="fill:#dd87b7"/><path d="M124,70.16v.2c-.74.07-1.48.09-2.21.22a1.38,1.38,0,0,0-1,1.88,21.31,21.31,0,0,1,1,2c.34,1.32,1.31,2.18,2,3.25s1.26,2.12,1.9,3.18a21.55,21.55,0,0,0,2,3.15c1.66,1.82,3,3.87,4.62,5.75a29.46,29.46,0,0,1,2.44,4.16c.87,1.46,1.73,3,2.68,4.36.59.87,1.24.18,1.83-.19.65.54.12.91-.1,1.34s-.35.79-.52,1.18c-.45.66-.91,1.31-1.36,2,.11-.89-.26-1.34-1.18-1.39a1,1,0,0,1-.72-.34c-1.3-2-2.73-4-3.82-6.14s-2.91-3.66-4.18-5.62c-.93-1.44-2-2.81-3-4.2-.65-.91-1.32-1.82-2-2.72-1.81-2.43-3.6-4.87-5.46-7.26a.91.91,0,0,1,.08-1.41c.54-.54,1.12-1.06,1.68-1.59a5.58,5.58,0,0,1,3.12-1.76Z" transform="translate(-31.95 -35.7)" style="fill:#bb5ea0"/><path d="M134.57,71.14c-1.15-.2-2.3-.42-3.46-.57a3.15,3.15,0,0,0-1,.18c-1.71.27-2.4,1.41-2.33,3.36.06,1.78,1.13,3,2,4.4.64,1,1.43,1.88,2.1,2.86,1.1,1.6,2.19,3.22,3.21,4.87,1.21,2,2.4,4,3.49,6.07a23.37,23.37,0,0,1,.91,2.83c.11.32.46.55.71.81s.56.52.84.78c-.15-.06-.34-.2-.45-.16-1.31.49-1.8-.42-2.33-1.3-1.33-2.22-2.67-4.42-4-6.63-.67-1.13-1.25-2.32-2-3.42-.43-.66-1.07-1.18-1.55-1.82s-1-1.5-1.45-2.27a4.92,4.92,0,0,0-.62-1.08,17.81,17.81,0,0,1-3.75-5.53,2.36,2.36,0,0,0-.35-.57c-.5-.51-1-1-1-1.8,0-.23-.34-.49-.59-.83l2.4-.77c1.15-.11,2.29-.28,3.44-.33a12.46,12.46,0,0,1,5.32.55A1.8,1.8,0,0,1,134.57,71.14Z" transform="translate(-31.95 -35.7)" style="fill:#c465a4"/><path d="M113.08,129.16a22,22,0,0,1-2.37.56,17.79,17.79,0,0,1-2.31,0c-1,0-2-.05-2.92,0a4.31,4.31,0,0,1-2.94-1,16.9,16.9,0,0,0,7,.76C110.72,129.48,111.9,129.29,113.08,129.16Z" transform="translate(-31.95 -35.7)" style="fill:#bf66a5"/><path d="M103.32,128.57c2.18.19,4.36.4,6.54.58.42,0,.85,0,1.27,0,0,0-.09.12-.14.12C108.4,129.34,105.79,129.7,103.32,128.57Z" transform="translate(-31.95 -35.7)" style="fill:#a74f99"/><path d="M124,70.16h-2.15l5-1c.21,0,.41-.13.62-.19,1.34.15,2.69.27,4,.47a11.84,11.84,0,0,0,1.77.46,5,5,0,0,1,3.36,1.23,1.76,1.76,0,0,0,2.9-.48,3,3,0,0,1,2.11-1.45,3.75,3.75,0,0,0,.87-.44L140.43,67a20.27,20.27,0,0,1,5.88,4.86,12.46,12.46,0,0,1,1.35,2.37l.78,2.92c-.12.57.32,1.29-.6,1.83a5.46,5.46,0,0,1-.35-1.44,1,1,0,0,0-.89-1.18,26,26,0,0,0-2.65-.18c-1.3-1-2.58-2-3.92-3A17,17,0,0,0,137.64,72a17.53,17.53,0,0,0-3.36-1.61,26.36,26.36,0,0,0-5.7-.91A24.15,24.15,0,0,0,124,70.16Z" transform="translate(-31.95 -35.7)" style="fill:#c2559b"/><path d="M140.43,67l2.14,1.74a3.75,3.75,0,0,1-.87.44,3,3,0,0,0-2.11,1.45,1.76,1.76,0,0,1-2.9.48,5,5,0,0,0-3.36-1.23,11.84,11.84,0,0,1-1.77-.46c-1.33-.2-2.68-.32-4-.47h-2a1.72,1.72,0,0,1,.52-.19l6.47-.41c-.51-1.37.75-1.51,1.56-2.27-1-.18-1.81-.38-2.61-.44-1-.06-2,0-3,0a14,14,0,0,1,2.62-.35,43.87,43.87,0,0,1,5.36.56A35.2,35.2,0,0,1,140.43,67Z" transform="translate(-31.95 -35.7)" style="fill:#be4f97"/><path d="M128.52,65.67c1,0,2,0,3,0,.8.06,1.6.26,2.61.44-.81.76-2.07.9-1.56,2.27l-6.47.41a1.72,1.72,0,0,0-.52.19c-1.15.24-2.28.51-3.43.7a4.49,4.49,0,0,1-1.28-.22l.6-1.46,1.42-.73c.11-.06.2-.19.31-.22Z" transform="translate(-31.95 -35.7)" style="fill:#ba4b93"/><path d="M92.38,122.71l6.05,4.49a9,9,0,0,1-1.46-.61c-.78-.47-1.5-1-2.25-1.54s-1.48-1-2.18-1.62c-.19-.15-.24-.48-.36-.72Z" transform="translate(-31.95 -35.7)" style="fill:#ae529a"/><path d="M144,76.22a26,26,0,0,1,2.65.18,1,1,0,0,1,.89,1.18,5.46,5.46,0,0,0,.35,1.44c.92-.54.48-1.26.6-1.83a9,9,0,0,1,.19,1c.08,1,.19,2.07.18,3.1s-.18,2.17-.28,3.26h-.45a5.23,5.23,0,0,1-.22-.91,14.93,14.93,0,0,0-.92-3.81c-.5-1.5-1.1-2.65-2.63-3.19C144.16,76.6,144.07,76.37,144,76.22Z" transform="translate(-31.95 -35.7)" style="fill:#c45c9f"/><path d="M97.45,125.46l1-.5c-.2-.24-.31-.49-.5-.6-1.65-.88-2.21-2.43-2.72-4.1a11.66,11.66,0,0,0-2.41-4.45c-1.23-1.39-2.22-3-3.36-4.45-.57-.73-.94-1.7-2-1.94,0-.12-.1-.29,0-.37.41-.63.85-1.25,1.3-1.86.05-.07.23,0,.33-.07s.15.16.14.19c-.68,2,1,3,1.88,4.21,1.1,1.47,2.48,2.73,3.52,4.23,1.21,1.74,2.17,3.66,3.28,5.47.73,1.2,1.51,2.38,2.31,3.53s.78,1.22-.4,1.86l-1.18-.18Z" transform="translate(-31.95 -35.7)" style="fill:#632365"/><path d="M98.62,126.43l1.18.18c1.57.44,2.92,1.62,4.69,1.37v.2h-1c-1.06-.32-2.13-.6-3.17-1A15.7,15.7,0,0,1,98.62,126.43Z" transform="translate(-31.95 -35.7)" style="fill:#82297e"/></svg>