<svg id="Layer_1" data-name="Layer 1" xmlns="http://www.w3.org/2000/svg" viewBox="0 0 136.06 172.05"><path d="M158,26.6c4,2.19,7.86,4.71,10.06,8.9a13.31,13.31,0,0,1,1.59,5.68c.17,9.78.13,19.57.06,29.36a15.15,15.15,0,0,1-1,3.72,13.5,13.5,0,0,0,.48-2.39c.14-4.66.21-9.34.29-14a6,6,0,0,0-.25-1.22h-.41l-1,6.09Q165.91,67.37,164,72l0-1-.26-.11-1.43,2.47c.23-1.31.19-2.59,1.43-3.64s1.23-2.62-.74-3.24a3.14,3.14,0,0,1-1.08-.78,57.91,57.91,0,0,1-4.4-4.17c-1.69-1.92-4.06-3.25-5.06-5.78a3.41,3.41,0,0,0-.89-1c-1.13-1.13-2.35-2.18-3.42-3.38-1.7-1.92-3.54-3.56-6.18-4a1.05,1.05,0,0,1-.51-.39c-1.07-1.19-1.72-1.31-2.76-.12a33.37,33.37,0,0,0-2.39,3.55,18.79,18.79,0,0,1,.58-1.94,26.3,26.3,0,0,0,2.34-10,29,29,0,0,0-1.34-8.24,14.29,14.29,0,0,0-3-5,63.34,63.34,0,0,0-5.41-4.91l-3-1.63.09-.43,1.87-.13c3.82.73,7.7,1.25,11.46,2.23,4.38,1.15,8.67,2.67,13,4.12C154.6,25.05,156.27,25.88,158,26.6Z" transform="translate(-33.97 -15.94)" style="fill:#fddf59"/><path d="M38.13,171c-1.5-1.88-3-3.78-3.57-6.2a14.25,14.25,0,0,1-.46-3c-.05-7.43-.05-14.87,0-22.3a6.86,6.86,0,0,1,.19-1.19c0-.54,0-1.08.06-1.6,0-.08.33-.12.51-.18-.09,3.17-.2,6.35-.24,9.52a4.27,4.27,0,0,0,.51,1.42c0,1.32,0,2.64,0,4,0,1,.41,1.36,1.5,1.39a6.44,6.44,0,0,1,2.49,1c.74.38,1.4.94,2.12,1.36,1.21.7,2.46,1.35,3.66,2.06.19.11.2.49.36.68a6.6,6.6,0,0,0,1.26,1.32c.55.38,1.26.5,1.84.84,1.31.79,2.56,1.68,3.87,2.47,1.65,1,3.36,1.88,5,2.89s2.49,2.85,4.64,2.73c.07,0,.14.11.22.16l3.06,1.79a17.61,17.61,0,0,0,1,4c.74,1.55-.31,2.77-.3,4.14a1.89,1.89,0,0,0,2.5,1.78,9.43,9.43,0,0,1,1-.25c3,2.56,6,5,10,6a1.24,1.24,0,0,1-.76.21c-2.49-.4-5-.87-7.46-1.24-1.59-.23-3.19-.34-4.79-.5l-.82-.14h-.54L64.1,184l-1.81-.34a20.71,20.71,0,0,0-2.09-1c-2.33-.79-4.68-1.52-7-2.28l-1.11-.27-3.18-1.42-5-3Z" transform="translate(-33.97 -15.94)" style="fill:#bf4018"/><path d="M164.8,171.92l-2.18,1.91c-.27.14-.56.25-.82.41q-3.51,2.08-7,4.19c-.61.36-1.22.74-1.82,1.11a.24.24,0,0,0-.2.06l-1.1.54-.82-.06,3.28-1.87a29.31,29.31,0,0,0,8.32-5.33c-.48,0-.87.24-1.26.23s-.94-.28-1-.49a5.35,5.35,0,0,0-2.51-3.63,4.69,4.69,0,0,1-1.08-1.54c-.83-1.57-1.13-3.37-2.2-4.85-.69-1-1-2.16-1.72-3.13-.51-.74-1.33-1.21-.87-2.35.12-.29-.34-.88-.64-1.25a16.84,16.84,0,0,1-1.49-1.69c-.35-.63-.24-1.61-.7-2.07s-1.4-.51-2.14-.7a2.5,2.5,0,0,0-.67,0H145.1c.46-.19.9-.41,1.37-.57,5.93-2,11.82-4.08,16.73-8.18,2.34-2,4.79-3.81,5.57-7,0-.07.21-.1.41-.19,0,4.81.16,9.56,0,14.29-.24,5.86,1,11.81-1,17.57Z" transform="translate(-33.97 -15.94)" style="fill:#ee7a20"/><path d="M37.26,77.79a10.09,10.09,0,0,1-3-5.49,8.78,8.78,0,0,0,.24-1.42c0-8.61,0-17.23,0-25.84a5.08,5.08,0,0,1,.52-1.47,33.22,33.22,0,0,0,2.48,3.67c3.25,3.68,7.46,6,11.85,8,1.56.7,3.22,1.18,4.83,1.77l4.66,1.91c-1.56-.46-3.11-.94-4.67-1.36a2,2,0,0,0-1.37,0c-.67.44-1.17,1.14-1.8,1.65A5,5,0,0,0,49,62.58c-.49.35-1.24.77-1.2.87.69,1.72-1,2.68-1.45,3.94s-2,2.47-2.49,4.16-1,3.22-2.61,4.17a3.77,3.77,0,0,0-.88.94,5.54,5.54,0,0,0-1,1.4,4.07,4.07,0,0,0,0,1.43l-1.72-1.17Z" transform="translate(-33.97 -15.94)" style="fill:#fbc83c"/><path d="M34.58,119.37a.37.37,0,0,1-.06-.25c0-.2.06-.39.08-.59l.34-4.3h.32v3.49a6.83,6.83,0,0,0,.67-.63c1.66-2.32,3.34-4.62,4.94-7a10.05,10.05,0,0,0,1.54-2.86c.5-1.81,1.91-2.9,3-4.22A11.29,11.29,0,0,1,48,101.31c1.17.47,2.36.9,3.51,1.41.87.38,1.69.87,2.54,1.31l-3-.87.39.36c-.53.32-1.07.63-1.59,1a7.68,7.68,0,0,0-1.55,1c-1.5,1.61-3.05,3.21-4.39,5-2.75,3.61-5.23,7.38-5.64,12.11a6.94,6.94,0,0,1-.42,1.44c-.83-1-2-1.65-1.51-3.36C36.67,119.38,35.7,118.79,34.58,119.37Z" transform="translate(-33.97 -15.94)" style="fill:#ed8224"/><path d="M166.49,78.57a11,11,0,0,1,2.95,6.29,69.17,69.17,0,0,1,.27,7.49c0,7.62,0,15.23,0,22.84a15.27,15.27,0,0,1-2.95,8.9,8.1,8.1,0,0,0-.57,1.31l-.33-.23a11.91,11.91,0,0,1,.43-1.13c.68-1.37,1.38-2.74,2.07-4.11a20.77,20.77,0,0,0,.76-3.83c.05-2.95-.17-5.89-.2-8.84,0-4.87,0-9.74,0-14.6,0-1,.2-2.08.3-3.12-.84,1.06-1.21,2.39-2.08,3.18-2.57,2.33-5.27,4.54-8.06,6.62a43.6,43.6,0,0,1-5,2.79c-1.59.61-3.18,1.24-4.77,1.84-.43.15-1,.79-1.26-.19.23-1.15-.49-.37-.74-.32-2.48.54-5,1.11-7.45,1.67,1.21-.36,2.42-.71,3.62-1.09l5.15-1.64,1.87-.83a47,47,0,0,0,11.38-5.7,17.74,17.74,0,0,0,5.59-5.81c1.47-1.35,1.91-4.82.85-6.81l-.52-1.12-1.41-3Z" transform="translate(-33.97 -15.94)" style="fill:#fbd564"/><path d="M34.52,131.65a8.88,8.88,0,0,1,2.2-5.34c.31-.39.61-.79.91-1.19a.29.29,0,0,0,.2,0c1.21,1.15,2.46,2.25,3.6,3.46a5.77,5.77,0,0,1,.74,1.67l-.8,1.09a11.47,11.47,0,0,0-.82,1.19c-.93,1.79-1.82,3.59-2.73,5.38a4.15,4.15,0,0,1-.9-.5C35.18,135.92,35,133.7,34.52,131.65Z" transform="translate(-33.97 -15.94)" style="fill:#902113"/><path d="M158,26.6c-1.71-.72-3.38-1.55-5.13-2.14-4.3-1.45-8.59-3-13-4.12-3.76-1-7.64-1.5-11.46-2.23-.16-.08-.31-.22-.47-.23q-7.83-.45-15.68-.86a48,48,0,0,0-6.39-.77c-6.71.06-13.42.27-20.13.53-2.2.08-4.39.48-6.58.75l-6.85.86-2.5.26c2.44-.45,4.86-1.1,7.32-1.31,6.51-.58,13-1.21,19.55-1.37,6.16-.14,12.33.19,18.49.5,4,.19,8.06.57,12.06,1.12a102.13,102.13,0,0,1,12.57,2.27c4.95,1.32,9.77,3.13,14.61,4.83A25.53,25.53,0,0,1,158,26.6Z" transform="translate(-33.97 -15.94)" style="fill:#fdeea3"/><path d="M69.82,18.65l2.5-.26c-.29.18-.56.47-.87.52-1.37.23-2.76.36-4.13.58-.74.12-1.45.41-2.19.53a37.51,37.51,0,0,0-10.6,3.29,30.88,30.88,0,0,0-3.47,1,67.14,67.14,0,0,0-6.52,3.11c-1.79,1-3.4,2.32-5.09,3.5l-.27.27-.52,0a56.11,56.11,0,0,1,6-4.41c6.74-3.78,14.09-6,21.6-7.62C67.39,19,68.61,18.83,69.82,18.65Z" transform="translate(-33.97 -15.94)" style="fill:#feeda1"/><path d="M164.8,171.92l3.33-4.62c.52-1.61,1.48-3.22,1.5-4.84.15-9.8.11-19.6.05-29.41a14.66,14.66,0,0,0-.77-3.24l-1.79-3.32c.35.17.87.25,1,.53a11.92,11.92,0,0,1,1.88,6c0,9.84.05,19.68,0,29.52,0,3.77-2.21,6.61-4.68,9.22C165.21,171.88,165,171.87,164.8,171.92Z" transform="translate(-33.97 -15.94)" style="fill:#f5f5f5"/><path d="M34.6,118.53c0,.2-.05.39-.08.59a15.07,15.07,0,0,1-.51-2.78c0-9.47,0-18.94,0-28.41A14.15,14.15,0,0,1,36.79,79a4.62,4.62,0,0,0,.47-1.21l.33.53-.84,1.94c-.46,1-.93,2-1.39,3-1.28,1.38-.65,3.09-.81,4.66a15.36,15.36,0,0,0-.26,2q0,13.2,0,26.39a9.09,9.09,0,0,0,.24,1.43Z" transform="translate(-33.97 -15.94)" style="fill:#f9c05a"/><path d="M166.49,78.57l0,.57c-.11-.5-.45-1.11-.28-1.49.56-1.26.55-2.69,1.76-3.83.73-.68.59-2.37.7-3.63.24-2.56.41-5.14.55-7.71.07-1.37,0-2.74,0-4.11l-.26,0c-.37,1.46-.74,2.92-1.1,4.37l1-6.09h.41a6,6,0,0,1,.25,1.22c-.08,4.67-.15,9.35-.29,14a13.5,13.5,0,0,1-.48,2.39c-.52.92-1.06,1.83-1.55,2.77A16.08,16.08,0,0,0,166.49,78.57Z" transform="translate(-33.97 -15.94)" style="fill:#eda933"/><path d="M34.26,72.06A8.53,8.53,0,0,1,34,70.5c0-9.92,0-19.83.07-29.74a17.18,17.18,0,0,1,.74-3.54c0,.21,0,.41.05.62l0,.52c-.18,1.89-.5,3.77-.51,5.66C34.24,53.36,34.26,62.71,34.26,72.06Z" transform="translate(-33.97 -15.94)" style="fill:#fbe275"/><path d="M34.26,72.06c0-9.35,0-18.7,0-28,0-1.89.33-3.77.51-5.66.18,1.37.37,2.74.56,4.11l-.28,1.1A5.08,5.08,0,0,0,34.57,45c0,8.61,0,17.23,0,25.84a8.78,8.78,0,0,1-.24,1.42A.33.33,0,0,1,34.26,72.06Z" transform="translate(-33.97 -15.94)" style="fill:#fed669"/><path d="M34.52,131.65c.52,2,.66,4.27,2.4,5.81a4.15,4.15,0,0,0,.9.5L37,139.09l-2.17-2.47c-.18.06-.5.1-.51.18-.06.52-.05,1.06-.06,1.6Z" transform="translate(-33.97 -15.94)" style="fill:#be4617"/><path d="M167.12,126.49l1.79,3.31a12,12,0,0,0,.12,1.48,7,7,0,0,1-2.29,6.43l1.13-2.16a11.46,11.46,0,0,0,.76-2,8.34,8.34,0,0,0-1.92-6.69c-.35-.43-1.06-.58-1.6-.86l0-.29.81-.5.33.23Z" transform="translate(-33.97 -15.94)" style="fill:#d96e2f"/><path d="M37.83,125.17a.29.29,0,0,1-.2,0c-.31-.53-.64-1.05-.93-1.6l-2.12-4.15c1.12-.58,2.09,0,1.74,1.3-.47,1.71.68,2.39,1.51,3.36l.05.84Z" transform="translate(-33.97 -15.94)" style="fill:#ef8d27"/><path d="M34.84,37.84c0-.21,0-.41-.05-.62a12.36,12.36,0,0,1,3.87-6l.52,0c-.35.41-.68.84-1.06,1.23a10.75,10.75,0,0,0-3,5.09Z" transform="translate(-33.97 -15.94)" style="fill:#fed669"/><path d="M38.13,171l5.74,4.67,0,.32-1.63-.82c-1.11-1-2.25-1.94-3.33-3A6,6,0,0,1,38.13,171Z" transform="translate(-33.97 -15.94)" style="fill:#efefef"/><path d="M136.35,50.4a33.37,33.37,0,0,1,2.39-3.55c1-1.19,1.69-1.07,2.76.12a1.05,1.05,0,0,0,.51.39c2.64.47,4.48,2.11,6.18,4,1.07,1.2,2.29,2.25,3.42,3.38a3.41,3.41,0,0,1,.89,1c1,2.53,3.37,3.86,5.06,5.78a57.91,57.91,0,0,0,4.4,4.17,3.14,3.14,0,0,0,1.08.78c2,.62,1.84,2.32.74,3.24s-1.2,2.33-1.43,3.64c-.18.3-.34.62-.54.91-.72,1.07-1.46,2.13-2.19,3.19a2.77,2.77,0,0,0-2.32-3.11c-.49-.08-1.25-.44-1.34-.8-.29-1.16-.94-1.38-1.92-1.07-.3-.56-.43-1.18-.82-1.49-2.45-2-5-3.94-7.44-5.93-.53-.43-.91-1.06-1.44-1.51-1-.87-2.09-1.72-3.21-2.49C139.58,60,138,59,136.37,58c-.43-.25-1.11-.06-1.67,0l-3,.08c0-.18,0-.36,0-.54l1.64-2.47Z" transform="translate(-33.97 -15.94)" style="fill:#fdda52"/><path d="M167.83,62.72c.36-1.45.73-2.91,1.1-4.37l.26,0c0,1.37.06,2.74,0,4.11-.14,2.57-.31,5.15-.55,7.71-.11,1.26,0,3-.7,3.63-1.21,1.14-1.2,2.57-1.76,3.83-.17.38.17,1,.28,1.49l1.41,3A18.29,18.29,0,0,0,166.43,80c-.27-.31-1-.63-1.24-.48a15.5,15.5,0,0,0-2,1.81c-.55.39-1.06.85-1.64,1.18-2.37,1.35-4.76,2.67-7.15,4,.38-.5.74-1,1.15-1.51A67.27,67.27,0,0,0,164,72Q165.91,67.37,167.83,62.72Z" transform="translate(-33.97 -15.94)" style="fill:#e49822"/><path d="M164,72a67.27,67.27,0,0,1-8.45,13c-.41.48-.77,1-1.15,1.51l-.78.85a9.25,9.25,0,0,0-1.3.88c-3,2.86-5.89,5.75-8.86,8.6-.11.11-.46,0-.84-.06l.85-1.49,1.64-1.64,8.21-8.48,6.3-7.67c.73-1.06,1.47-2.12,2.19-3.19.2-.29.36-.61.54-.91l1.43-2.47L164,71Z" transform="translate(-33.97 -15.94)" style="fill:#fbdc65"/><path d="M112.27,17q7.85.42,15.68.86c.16,0,.31.15.47.23l-1.87.13-.09.43c1,.55,2,1.09,3,1.63l-1.42-.23a1.64,1.64,0,0,0,.66.67,16.72,16.72,0,0,1,7.59,8.39A56.21,56.21,0,0,1,138,35.08c-.09,1.35-.15,2.7-.27,4a21.48,21.48,0,0,1-3.06,9.62c.17-.56.29-1.13.51-1.67,2.42-5.79,3.35-11.66.87-17.68a13.45,13.45,0,0,0-4.28-5.83A17.94,17.94,0,0,0,123,18.91l-4.69-1.08c-.52-.08-1-.21-1.57-.25-1.57-.11-3.15-.18-4.72-.27V17Z" transform="translate(-33.97 -15.94)" style="fill:#fbdf6f"/><path d="M138,35.08a56.21,56.21,0,0,0-1.66-5.95,16.72,16.72,0,0,0-7.59-8.39,1.64,1.64,0,0,1-.66-.67l1.42.23a63.34,63.34,0,0,1,5.41,4.91,14.29,14.29,0,0,1,3,5,29,29,0,0,1,1.34,8.24,26.3,26.3,0,0,1-2.34,10,18.79,18.79,0,0,0-.58,1.94l-3,4.66c1.3-3,2.68-5.9,3.87-8.92A23.64,23.64,0,0,0,138.52,36C138.5,35.65,138.18,35.37,138,35.08Z" transform="translate(-33.97 -15.94)" style="fill:#fbe677"/><path d="M47.14,178.21l-1.37-.82L43.84,176l0-.32,5,3-.38,0Z" transform="translate(-33.97 -15.94)" style="fill:#e8e7e7"/><path d="M69.31,179.86a9.43,9.43,0,0,0-1,.25,1.89,1.89,0,0,1-2.5-1.78c0-1.37,1-2.59.3-4.14a17.61,17.61,0,0,1-1-4l-3.06-1.79c-.08,0-.15-.16-.22-.16-2.15.12-3.11-1.79-4.64-2.73s-3.35-1.9-5-2.89c-1.31-.79-2.56-1.68-3.87-2.47-.58-.34-1.29-.46-1.84-.84A6.6,6.6,0,0,1,45.22,158c-.16-.19-.17-.57-.36-.68-1.2-.71-2.45-1.36-3.66-2.06-.72-.42-1.38-1-2.12-1.36a6.44,6.44,0,0,0-2.49-1c-1.09,0-1.5-.36-1.5-1.39,0-1.32,0-2.64,0-4a12.06,12.06,0,0,1,.19-1.47c.56-2.25,1.15-4.49,1.73-6.74l.27.55-.21,1.77c1,.53,1.66.88,2.33,1.3,1.37.85,2.66,1.82,4.07,2.59.81.44,1.94.36,2.67.87,2.88,2,5.63,4.25,8.51,6.29,3.07,2.2,6.23,4.29,9.36,6.41a1.29,1.29,0,0,0,.64.19c1.28,0,1.81.67,1.64,1.93a7.18,7.18,0,0,0-.52,1.63,59.62,59.62,0,0,0-.27,6A16.79,16.79,0,0,0,69,179Z" transform="translate(-33.97 -15.94)" style="fill:#c54917"/><path d="M69.31,179.86,69,179l1.53.89L68.76,176a6.86,6.86,0,0,1,.72,1c2,4.1,5.71,6.1,9.68,7.76l2.46.85c.22.27.41.74.66.78,1.51.25,3,.39,4.54.57l4.1.3a7.31,7.31,0,0,0,1.29.24c4.41,0,8.81,0,13.22,0l7.11-.28,5.21-.28,4.37-.54h1.37v.21c-5.88.46-11.76,1.18-17.65,1.31s-12.09-.12-18.12-.5c-4.34-.27-8.66-1-13-1.58-2.74-.38-5.46-.91-8.18-1.37l-.28-.11c1.6.16,3.2.27,4.79.5,2.49.37,5,.84,7.46,1.24a1.24,1.24,0,0,0,.76-.21C75.33,184.89,72.29,182.42,69.31,179.86Z" transform="translate(-33.97 -15.94)" style="fill:#cc531b"/><path d="M37,139.35c-.58,2.25-1.17,4.49-1.73,6.74a12.06,12.06,0,0,0-.19,1.47,4.27,4.27,0,0,1-.51-1.42c0-3.17.15-6.35.24-9.52.73.82,1.45,1.65,2.17,2.47A2.46,2.46,0,0,1,37,139.35Z" transform="translate(-33.97 -15.94)" style="fill:#a63316"/><path d="M154.14,178.21l-3.28,1.87-.29.32-1.08.24c-.06-.35,0-.8-.21-1-1.12-1.35-2.33-2.62-3.45-4a13.62,13.62,0,0,1-1.74-2.54c-.5-1-.58-2.22-1.16-3.14a23,23,0,0,1-3.31-10.19,11.2,11.2,0,0,0-.48-2.37c-.44-1.32-1-2.59-1.53-3.95l-1.53.14a2.62,2.62,0,0,1,.59-.27l4.33-.82c.66-.05,1.15,0,1.13.92a2.45,2.45,0,0,0,.48,1.06,8.59,8.59,0,0,1,1.09,1.75c.51,1.67.81,3.39,1.31,5.06.37,1.27.92,2.49,1.41,3.72a24.32,24.32,0,0,0,1.21,2.71c.43.77,1.12,1.39,1.54,2.17a22.92,22.92,0,0,1,1,2.47c.55,1.4,1.2,2.76,1.65,4.18a1.71,1.71,0,0,0,2.1,1.41Z" transform="translate(-33.97 -15.94)" style="fill:#e4701b"/><path d="M154.14,178.21l-.27-.27a5.44,5.44,0,0,1-.67-.77,4.79,4.79,0,0,1-.36-.91c.29-.11.58-.23.89-.32a4,4,0,0,1,.65-.06l-.29-1.89c-1-.54-1.8-1-2.61-1.5a.55.55,0,0,1-.16-.47c1.22-1.14.05-1.69-.6-2.33.91-1.41.9-1.41-.15-2.87a1.86,1.86,0,0,1-.46-1c.07-2.19.31-4.29-.48-6.51a8.18,8.18,0,0,0-1.74-3.39c-.67-.65-1.45-1.22-.78-2.32l-1.92.1-.07-.43,1.44-.54-.35-1.37a2.5,2.5,0,0,1,.67,0c.74.19,1.66.23,2.14.7s.35,1.44.7,2.07a16.84,16.84,0,0,0,1.49,1.69c.3.37.76,1,.64,1.25-.46,1.14.36,1.61.87,2.35.68,1,1,2.17,1.72,3.13,1.07,1.48,1.37,3.28,2.2,4.85a4.69,4.69,0,0,0,1.08,1.54,5.35,5.35,0,0,1,2.51,3.63c0,.21.63.49,1,.49s.78-.26,1.26-.23A29.31,29.31,0,0,1,154.14,178.21Z" transform="translate(-33.97 -15.94)" style="fill:#ea751d"/><path d="M146.21,151.4l.35,1.37-1.44.54.07.43,1.92-.1c-.67,1.1.11,1.67.78,2.32a8.18,8.18,0,0,1,1.74,3.39c.79,2.22.55,4.32.48,6.51a1.86,1.86,0,0,0,.46,1c1.05,1.46,1.06,1.46.15,2.87.65.64,1.82,1.19.6,2.33a.55.55,0,0,0,.16.47c.81.49,1.65,1,2.61,1.5l.29,1.89a4,4,0,0,0-.65.06c-.31.09-.6.21-.89.32a4.79,4.79,0,0,0,.36.91,5.44,5.44,0,0,0,.67.77,1.71,1.71,0,0,1-2.1-1.41c-.45-1.42-1.1-2.78-1.65-4.18a22.92,22.92,0,0,0-1-2.47c-.42-.78-1.11-1.4-1.54-2.17a24.32,24.32,0,0,1-1.21-2.71c-.49-1.23-1-2.45-1.41-3.72-.5-1.67-.8-3.39-1.31-5.06a8.59,8.59,0,0,0-1.09-1.75,2.45,2.45,0,0,1-.48-1.06c0-.87-.47-1-1.13-.92l3.29-1.09h1.92Z" transform="translate(-33.97 -15.94)" style="fill:#e9751d"/><path d="M145.1,151.39h-.81c-.62.07-1.25.13-1.87.22-4.94.66-9.62,2.69-14.82,2.08-2.9-.34-5.92.44-8.89.74-1.33.14-2.65.34-4,.51l-7.12,0c-2.13,0-4.25,0-6.38,0a14.24,14.24,0,0,0-1.82.26L92,154.72c.36,0,.72,0,1.09,0,11.19.14,22.37.19,33.49-1.37a124.21,124.21,0,0,0,18.52-3.82l1.61-.27-.47-.83a8.91,8.91,0,0,0,2.6-.16c3-1.13,6-2.3,8.91-3.65a38.93,38.93,0,0,0,4.33-2.75l4.63-4.12a7,7,0,0,0,2.29-6.43,12,12,0,0,1-.12-1.48,14.88,14.88,0,0,1,.77,3.25c.06,9.81.1,19.61-.05,29.41,0,1.62-1,3.23-1.5,4.84,2-5.76.78-11.71,1-17.57.19-4.73,0-9.48,0-14.29-.2.09-.39.12-.41.19-.78,3.2-3.23,5.05-5.57,7-4.91,4.1-10.8,6.18-16.73,8.18C146,151,145.56,151.2,145.1,151.39Z" transform="translate(-33.97 -15.94)" style="fill:#f7aa4f"/><path d="M36.75,80.26l.84-1.94,1.72,1.17a4.07,4.07,0,0,1,0-1.43,5.54,5.54,0,0,1,1-1.4,3.77,3.77,0,0,1,.88-.94c1.59-1,2.16-2.58,2.61-4.17s2-2.77,2.49-4.16,2.14-2.22,1.45-3.94c0-.1.71-.52,1.2-.87a5,5,0,0,1,2.09-3.41c.63-.51,1.13-1.21,1.8-1.65a2,2,0,0,1,1.37,0c1.56.42,3.11.9,4.67,1.36L63.28,60c-1.46-.31-2.56-.6-3,1.64s-2,4.29-2.74,6.51c-.66,1.85-2.06,3.46-1.93,5.6a2.58,2.58,0,0,1-.35,1c-.52,1.28-1.36,2.53-1.48,3.85C53.51,81.68,52,84.3,51,87.13l-2.18-.88a4.65,4.65,0,0,0-.84-.71c-1.26-.62-2.53-1.19-3.8-1.79L39,80C38,78.3,37.45,79.92,36.75,80.26Z" transform="translate(-33.97 -15.94)" style="fill:#fac13a"/><path d="M35.09,43.57l.28-1.1c4.47,7.72,12,10.77,20,13.17l1.66.3c-.69.82.52,1,.54,1.58L54.25,57c-1.61-.59-3.27-1.07-4.83-1.77-4.39-2-8.6-4.29-11.85-8A33.22,33.22,0,0,1,35.09,43.57Z" transform="translate(-33.97 -15.94)" style="fill:#fbe275"/><path d="M54.25,57l3.29.54,4.1,1.37,3,.82,4.65,1.09L68,61l-4.67-1-4.37-1.1Z" transform="translate(-33.97 -15.94)" style="fill:#fdde75"/><path d="M34.6,118.53c0-.27,0-.54-.07-.8V89.22A12.77,12.77,0,0,0,36,92a37.78,37.78,0,0,0,5,4.94c2.18,1.65,4.65,2.94,7,4.38a11.29,11.29,0,0,0-2.54,1.74c-1.1,1.32-2.51,2.41-3,4.22a10.05,10.05,0,0,1-1.54,2.86c-1.6,2.35-3.28,4.65-4.94,7a6.83,6.83,0,0,1-.67.63v-3.49h-.32Z" transform="translate(-33.97 -15.94)" style="fill:#ef8d27"/><path d="M37.88,124.87l-.05-.84a6.94,6.94,0,0,0,.42-1.44c.41-4.73,2.89-8.5,5.64-12.11,1.34-1.74,2.89-3.34,4.39-5a7.68,7.68,0,0,1,1.55-1c.52-.33,1.06-.64,1.59-1l-.39-.36,3,.87.24,0,3.56.54v.28a12.13,12.13,0,0,0-1.88-.2,3.63,3.63,0,0,0-1.74.45,22.58,22.58,0,0,0-2.46,2.14,65.38,65.38,0,0,0-12,14.89C39.17,123.1,38.49,124,37.88,124.87Z" transform="translate(-33.97 -15.94)" style="fill:#e9791f"/><path d="M54.25,104.05,54,104c-.85-.44-1.67-.93-2.54-1.31-1.15-.51-2.34-.94-3.51-1.41-2.34-1.44-4.81-2.73-7-4.38A37.78,37.78,0,0,1,36,92a12.77,12.77,0,0,1-1.42-2.77v28.51a9.09,9.09,0,0,1-.24-1.43q0-13.2,0-26.39a15.36,15.36,0,0,1,.26-2l.81,1.1a54.43,54.43,0,0,0,3.77,4.74c3,3,6.82,4.8,10.63,6.5a57.11,57.11,0,0,0,6.15,1.94l.56.73,1.9.57c-1.11-.2-2.21-.44-3.19.45C55,104.11,54.57,104,54.25,104.05Z" transform="translate(-33.97 -15.94)" style="fill:#f8b149"/><path d="M165.88,125.17l-.81.5-3.26,2.73-5.75,3.29a11.6,11.6,0,0,0,1.42-2.72,6.8,6.8,0,0,0,.05-3.41c-.49-1.64-1.47-3.13-2.11-4.74-.31-.8-.25-1.73-.48-2.56-.17-.57-.64-1.06-.83-1.63-.66-2-.51-4.23-1.53-6.25a22.32,22.32,0,0,1-1.3-5c-.2-.83-.71-1-1.43-.71-.42.17-.81.41-1.23.58-.67.27-1.08.1-1.05-.69l.54-.82c.28,1,.83.34,1.26.19,1.59-.6,3.18-1.23,4.77-1.84a3.53,3.53,0,0,0,.8-.14c2.14-.78,3.61-.16,4.51,2,.37.86.71,1.73,1.13,2.57a12.42,12.42,0,0,1,1.18,2.21,6.81,6.81,0,0,0,2.71,3.61c0,.44-.07,1.26.1,1.33,1.11.39,1.18,1,.86,2-.09.27.14.7.32,1,.51.92,1.07,1.82,1.52,2.58l1.11.65c-.69,1.37-1.39,2.74-2.07,4.11A11.91,11.91,0,0,0,165.88,125.17Z" transform="translate(-33.97 -15.94)" style="fill:#fbba38"/><path d="M168.38,119.93l-1.11-.65c-.45-.76-1-1.66-1.52-2.58-.18-.31-.41-.74-.32-1,.32-1,.25-1.64-.86-2-.17-.07-.08-.89-.1-1.33a6.81,6.81,0,0,1-2.71-3.61,12.42,12.42,0,0,0-1.18-2.21c-.42-.84-.76-1.71-1.13-2.57-.9-2.11-2.37-2.73-4.51-2a3.53,3.53,0,0,1-.8.14,43.6,43.6,0,0,0,5-2.79c2.79-2.08,5.49-4.29,8.06-6.62.87-.79,1.24-2.12,2.08-3.18-.1,1-.29,2.08-.3,3.12,0,4.86,0,9.73,0,14.6,0,2.95.25,5.89.2,8.84A20.77,20.77,0,0,1,168.38,119.93Z" transform="translate(-33.97 -15.94)" style="fill:#f9c23a"/><path d="M153.62,87.36l.78-.85c2.39-1.32,4.78-2.64,7.15-4,.58-.33,1.09-.79,1.64-1.18l2.16-1.21.31.18c-.71,1.63-1.31,3.31-2.15,4.88A43.19,43.19,0,0,1,156,95.65c-1.92,1.9-2.84,4.69-5.45,5.92l-1.87.83-6.93-2.18c-.68-.74.13-1,.47-1.34Z" transform="translate(-33.97 -15.94)" style="fill:#bb4917"/><path d="M150.56,101.57c2.61-1.23,3.53-4,5.45-5.92a43.19,43.19,0,0,0,7.5-10.46c.84-1.57,1.44-3.25,2.15-4.88l-.31-.18-2.16,1.21a15.5,15.5,0,0,1,2-1.81c.23-.15,1,.17,1.24.48a18.29,18.29,0,0,1,1.43,2.12c.17.38.35.75.52,1.12a10,10,0,0,1-.85,6.81,17.74,17.74,0,0,1-5.59,5.81A47,47,0,0,1,150.56,101.57Z" transform="translate(-33.97 -15.94)" style="fill:#c95417"/><path d="M133.88,106.51l6-1.38c2.49-.56,5-1.13,7.45-1.67.25,0,1-.83.74.32l-.54.82-.27.27-1.09.55c-2,.46-3.94,1-5.93,1.36-3.76.69-7.55,1.28-11.32,1.91l3.56-1.89Z" transform="translate(-33.97 -15.94)" style="fill:#e5aa3b"/><path d="M167.53,90.06a10,10,0,0,0,.85-6.81C169.44,85.24,169,88.71,167.53,90.06Z" transform="translate(-33.97 -15.94)" style="fill:#e49822"/><path d="M37,139.35a2.46,2.46,0,0,0,0-.26l.83-1.13c.91-1.79,1.8-3.59,2.73-5.38a11.47,11.47,0,0,1,.82-1.19c.51,1.06.81.14,1.05-.16,1-1.19,1.87-2.43,2.8-3.65a16.06,16.06,0,0,1,3,1.51c2,1.62,3.84,3.41,5.74,5.13a12,12,0,0,0,1.41,1.27c2.09,1.35,4.22,2.65,6.32,4a7.57,7.57,0,0,1,.81.69c1.24,1,2.34,2.36,3.75,3,2.89,1.36,4.56,3.73,6.12,6.29l-3.84,6.84h-.27c.65-1.25,1.3-2.48,1.93-3.73.43-.86.51-1.58-.74-1.78-1.41-.24-2.9-.3-3.9-1.59a.92.92,0,0,0-.62-.26c-3.44,0-5.8-2.3-8.37-4.05-2.34-1.59-4.5-3.45-6.69-5.25s-4.2-3.79-6.87-5c-1.9-.88-1.79-1.17-2.86.65a5.57,5.57,0,0,1-.41.85c-1,1.13-.78,3-2.4,3.75Z" transform="translate(-33.97 -15.94)" style="fill:#cf5818"/><path d="M37.88,124.87c.61-.9,1.29-1.77,1.83-2.72a65.38,65.38,0,0,1,12-14.89,22.58,22.58,0,0,1,2.46-2.14,3.63,3.63,0,0,1,1.74-.45,12.13,12.13,0,0,1,1.88.2l1.1.55A7.45,7.45,0,0,0,57,106c-1.14.7-2.18,1.55-3.25,2.35s-2.63,1.57-3.46,2.71a48.19,48.19,0,0,0-3.42,6c-1,2-1.72,4.19-3.81,5.49a3.17,3.17,0,0,0-1,1.71A2.06,2.06,0,0,0,43.86,127l-1.69,3.26a5.77,5.77,0,0,0-.74-1.67c-1.14-1.21-2.39-2.31-3.6-3.46Z" transform="translate(-33.97 -15.94)" style="fill:#d36514"/><path d="M42.17,130.3,43.86,127c.18-.19.38-.37.55-.57l4.36-5.19c-.51.85-1,1.7-1.55,2.55l.23.19,5.16-4.92v.28c-1.35,1.38-2.7,2.75-4,4.16-.54.57-1,1.23-1.47,1.85l-1.91,2.19c-.93,1.22-1.84,2.46-2.8,3.65-.24.3-.54,1.22-1.05.16Z" transform="translate(-33.97 -15.94)" style="fill:#e37c29"/><path d="M112.27,17H112c-4.48,0-9-.05-13.45,0-3.59,0-7.18.13-10.76.29-2.35.11-4.7.28-7,.61-3.65.53-7.3,1.16-10.93,1.84-3.15.6-6.29,1.29-9.42,2-2,.45-3.92,1-5.87,1.54A37.51,37.51,0,0,1,65.13,20c.74-.12,1.45-.41,2.19-.53,1.37-.22,2.76-.35,4.13-.58.31-.05.58-.34.87-.52l6.85-.86c2.19-.27,4.38-.67,6.58-.75,6.71-.26,13.42-.47,20.13-.53A48,48,0,0,1,112.27,17Z" transform="translate(-33.97 -15.94)" style="fill:#fee385"/><path d="M54.53,23.31c1.95-.52,3.9-1.09,5.87-1.54,3.13-.72,6.27-1.41,9.42-2,3.63-.68,7.28-1.31,10.93-1.84,2.33-.33,4.68-.5,7-.61,3.58-.16,7.17-.25,10.76-.29,4.48,0,9,0,13.45,0v.28c-4.19,0-8.38,0-12.56,0a10,10,0,0,0-1.43.25l-1.34,0-8.21.29-.82,0c-1.86.1-3.72.16-5.58.31a24.21,24.21,0,0,0-2.62.51l-.83.28-5.75.82a9.12,9.12,0,0,0-1.48.07c-2,.41-3.94.86-5.91,1.3l-4.92,1.08-1.1.28A69.84,69.84,0,0,0,44.67,28a20,20,0,0,0-1.81.86c-1.16.68-2.28,1.42-3.41,2.13,1.69-1.18,3.3-2.49,5.09-3.5a67.14,67.14,0,0,1,6.52-3.11A30.88,30.88,0,0,1,54.53,23.31Z" transform="translate(-33.97 -15.94)" style="fill:#fed669"/><path d="M39.45,31c1.13-.71,2.25-1.45,3.41-2.13A20,20,0,0,1,44.67,28c-1.42.89-2,2.36-2.93,3.68A26.68,26.68,0,0,1,37,36.5c-.49.42-1.46.27-1.87,1a10.75,10.75,0,0,1,3-5.09c.38-.39.71-.82,1.06-1.23Z" transform="translate(-33.97 -15.94)" style="fill:#fbc443"/><path d="M55.91,102.18a57.11,57.11,0,0,1-6.15-1.94c-3.81-1.7-7.65-3.47-10.63-6.5A54.43,54.43,0,0,1,35.36,89V83.24c.46-1,.93-2,1.39-3,.7-.34,1.22-2,2.2-.31a1.36,1.36,0,0,0-1.83.63,9.4,9.4,0,0,0-1.65,7l.91-1.7a41,41,0,0,1,3.92,3.06c2.3,2.27,5.13,3.64,8,5a29.8,29.8,0,0,1,4.49,2.23c2.61,2,5.79,2.42,8.64,3.72L62,100l-4.19,1.59Z" transform="translate(-33.97 -15.94)" style="fill:#c74717"/><path d="M35.36,83.24V89l-.81-1.1C34.71,86.33,34.08,84.62,35.36,83.24Z" transform="translate(-33.97 -15.94)" style="fill:#ef8d27"/><path d="M35.1,37.55c.41-.78,1.38-.63,1.87-1a26.68,26.68,0,0,0,4.77-4.85c.9-1.32,1.51-2.79,2.93-3.68A69.84,69.84,0,0,1,59.45,22.5c-.67.31-1.37.59-2,.95-1.26.7-2.5,1.44-3.73,2.18-2.48,1.52-4.82,3.15-5.58,6.24a2.69,2.69,0,0,1-.9,1.11c-.93.86-1.94,1.6-1.77,3.14a12.94,12.94,0,0,1-.09,3.73c-.35,1.93-1,3.74.22,5.67.95,1.53-.28,3.8,1.5,5.18.09.08.07.36,0,.53-.17,1,.51,1.26,1.2,1.54L54,55.06l1.36.58c-8-2.4-15.5-5.45-20-13.17-.19-1.37-.38-2.74-.56-4.11l0-.52A3.58,3.58,0,0,1,35.1,37.55Z" transform="translate(-33.97 -15.94)" style="fill:#fabd39"/><path d="M166.74,137.71l-4.63,4.12-2.11.84a2.58,2.58,0,0,0-3.46-1.09c-1.66.78-3.28,1.65-5,2.37-.72.3-1.64.17-2.34.5a10.44,10.44,0,0,1-6.19,1,.91.91,0,0,0-.73.24c-1,1.55-2,.3-3.15.29,1.18-1.79,1-2.68-.59-3.83l-3.29-2.4,1.34-.86,1.36-.36c1.33-.29,2.66-.53,4-.9a9.76,9.76,0,0,0,1.85-.94l2.95-.84,4.71-1.63,2.41-.6-3.67,1.95a6.16,6.16,0,0,1,1.67,0c.35.12.87.54.85.78-.14,1.33.63,1.89,1.67,2.33a1.23,1.23,0,0,1,.65.64c.32,1.11,1.29,1.16,2.07,1.08a5.12,5.12,0,0,0,2.49-.94c1.86-1.5,3.59-3.14,5.35-4.76.86-.78,1.58-.77,2.28.18a8.18,8.18,0,0,0,.64.68Z" transform="translate(-33.97 -15.94)" style="fill:#a02b16"/><path d="M167.87,135.55a8.18,8.18,0,0,1-.64-.68c-.7-1-1.42-1-2.28-.18-1.76,1.62-3.49,3.26-5.35,4.76a5.12,5.12,0,0,1-2.49.94c-.78.08-1.75,0-2.07-1.08a1.23,1.23,0,0,0-.65-.64c-1-.44-1.81-1-1.67-2.33,0-.24-.5-.66-.85-.78a6.16,6.16,0,0,0-1.67,0l3.67-1.95c1.27-.64,2.6-1.18,3.79-1.93,1.6-1,3.1-2.17,4.64-3.26l2.81-2.43c.54.28,1.25.43,1.6.86a8.34,8.34,0,0,1,1.92,6.69A11.46,11.46,0,0,1,167.87,135.55Z" transform="translate(-33.97 -15.94)" style="fill:#9b2815"/><path d="M165.11,126l-2.81,2.43h-.49l3.26-2.73C165.08,125.76,165.1,125.86,165.11,126Z" transform="translate(-33.97 -15.94)" style="fill:#f9b637"/><path d="M159.62,77.5l-6.3,7.67c0-1.72-.39-2-2.12-2.15A5.47,5.47,0,0,1,149,81.91c-.71-.48-1.24-1.37-2-1.57-1.24-.32-1.67-1.35-2.44-2.09-1.16-1.1-2.16-2.4-3.41-3.37s-2.73-1.67-3.83-3a41.41,41.41,0,0,0-5-4.75,6.68,6.68,0,0,0-1.9-1,21.62,21.62,0,0,1-2.4-.92,1.62,1.62,0,0,0-2.35.37A33,33,0,0,1,123,67.93l8.74-9.86,3-.08c.56,0,1.24-.2,1.67,0,1.63.94,3.21,2,4.76,3.06,1.12.77,2.18,1.62,3.21,2.49.53.45.91,1.08,1.44,1.51,2.47,2,5,3.92,7.44,5.93.39.31.52.93.82,1.49,1-.31,1.63-.09,1.92,1.07.09.36.85.72,1.34.8A2.77,2.77,0,0,1,159.62,77.5Z" transform="translate(-33.97 -15.94)" style="fill:#fed64e"/><path d="M138,35.08c.18.29.5.57.52.87a23.64,23.64,0,0,1-1.3,10.19c-1.19,3-2.57,6-3.87,8.92l-1.64,2.47a6.17,6.17,0,0,0-.82.7q-4,4.46-7.87,9a7.44,7.44,0,0,0-.63,1l-1.63,1.38h-1.62l1.13-1.3c2.08-2.26,4.18-4.52,6.24-6.81.23-.26.19-.76.28-1.15.17-.06.4-.08.49-.2,1.67-2.23,3.33-4.46,4.95-6.72.1-.14-.13-.51-.21-.78a7.32,7.32,0,0,0,1.18-1.18c.55-.86,1-1.79,1.47-2.69a21.48,21.48,0,0,0,3.06-9.62C137.85,37.78,137.91,36.43,138,35.08Z" transform="translate(-33.97 -15.94)" style="fill:#fceb8a"/><path d="M122.39,68.19a7.44,7.44,0,0,1,.63-1q3.92-4.49,7.87-9a6.17,6.17,0,0,1,.82-.7c0,.18,0,.36,0,.54L123,67.93Z" transform="translate(-33.97 -15.94)" style="fill:#fbdf76"/><path d="M122.39,68.19l.56-.26a33,33,0,0,0,2.74-2.39,1.62,1.62,0,0,1,2.35-.37,21.62,21.62,0,0,0,2.4.92,6.68,6.68,0,0,1,1.9,1,41.41,41.41,0,0,1,5,4.75c1.1,1.35,2.55,2,3.83,3s2.25,2.27,3.41,3.37c.77.74,1.2,1.77,2.44,2.09.75.2,1.28,1.09,2,1.57A5.47,5.47,0,0,0,151.2,83c1.73.18,2.11.43,2.12,2.15l-8.21,8.48c0-.63.19-1.53-.13-1.84-.92-.83-2.12-1.34-3.1-2.12-1.78-1.43-3.51-2.93-5.2-4.46-1.31-1.19-2.55-2.44-3.77-3.72a79.07,79.07,0,0,1-5.39-5.92,15.06,15.06,0,0,0-6-4.43c-.54-.25-1.46.31-2.2.49-.06,0-.14-.1-.21-.16l1.65-1.92Z" transform="translate(-33.97 -15.94)" style="fill:#fdce49"/><path d="M119.11,71.49c.07.06.15.17.21.16.74-.18,1.66-.74,2.2-.49a15.06,15.06,0,0,1,6,4.43,79.07,79.07,0,0,0,5.39,5.92c1.22,1.28,2.46,2.53,3.77,3.72,1.69,1.53,3.42,3,5.2,4.46,1,.78,2.18,1.29,3.1,2.12.32.31.1,1.21.13,1.84l-1.64,1.64c-1,.79-2,1.57-3,2.36l-3.53,2.84a24.69,24.69,0,0,1-.71-2.88,3,3,0,0,0-1.37-2.19c-1.07-.85-2.28-1.62-2.66-3.15-.13-.52-.83-.91-1.27-1.35-.64-.64-1.3-1.26-1.92-1.92s-1-1.32-1.57-1.86A64.53,64.53,0,0,1,122,82.3a24.29,24.29,0,0,0-6.08-5.49,2.34,2.34,0,0,0-2.24-.4l1.1-1.36Z" transform="translate(-33.97 -15.94)" style="fill:#fcc540"/><path d="M136.9,100.49l3.53-2.84c1-.79,2-1.57,3-2.36l-.85,1.49c.38,0,.73.17.84.06,3-2.85,5.9-5.74,8.86-8.6a9.25,9.25,0,0,1,1.3-.88L142.23,98.88c-.34.35-1.15.6-.47,1.34a15.57,15.57,0,0,0-2.58,1.19c-2.22,1.55-4.36,3.19-6.75,5l1.45.14-1.36.29a6.06,6.06,0,0,0-1-.15c-.44,0-.88,0-1.33.08l.18-1.32.82-.55Z" transform="translate(-33.97 -15.94)" style="fill:#fcd45f"/><path d="M134.67,48.74c-.48.9-.92,1.83-1.47,2.69A7.32,7.32,0,0,1,132,52.61l-8-1.38a6.73,6.73,0,0,0-.87-.27l-3.47-.55c1.16-.4,2.16-1.59,3.47-.72a29.34,29.34,0,0,1,2.55-4.22c2.15-2.52,3.27-5.3,2.7-8.6a13,13,0,0,0-1-2.46c-.33-.81-.63-1.63-.92-2.46a6.74,6.74,0,0,0-.35-1.23c-.46-.81-.47-3.7.12-4.43,1.08-1.35,2.21-2.67,3.29-4l2.28,1.24a13.45,13.45,0,0,1,4.28,5.83c2.48,6,1.55,11.89-.87,17.68C135,47.61,134.84,48.18,134.67,48.74Z" transform="translate(-33.97 -15.94)" style="fill:#ca6215"/><path d="M131.77,23.56l-2.28-1.24c-1.08,1.3-2.21,2.62-3.29,4-.59.73-.58,3.62-.12,4.43a6.74,6.74,0,0,1,.35,1.23c.29.83.59,1.65.92,2.46a13,13,0,0,1,1,2.46c.57,3.3-.55,6.08-2.7,8.6a29.34,29.34,0,0,0-2.55,4.22c-1.31-.87-2.31.32-3.47.72h-.82c.23-.64.43-1.29.69-1.91,1.72-4,3.09-8,2.87-12.43,0-.46,0-.91,0-1.37a20.82,20.82,0,0,0-3.83-12.57c-1-1.39-2.17-2.6-3.38-4h1.74l6,.82A17.94,17.94,0,0,1,131.77,23.56Z" transform="translate(-33.97 -15.94)" style="fill:#ce6614"/><path d="M98,17.54a10,10,0,0,1,1.43-.25c4.18,0,8.37,0,12.56,0,1.57.09,3.15.16,4.72.27.53,0,1,.17,1.57.25l-1.37,0h-2.19l-13.67-.28Z" transform="translate(-33.97 -15.94)" style="fill:#f4a626"/><path d="M116.92,17.87l1.37,0L123,18.91l-6-.81C116.93,18,116.92,18,116.92,17.87Z" transform="translate(-33.97 -15.94)" style="fill:#e88616"/><path d="M37.28,139.9c1.62-.73,1.4-2.62,2.4-3.75a5.57,5.57,0,0,0,.41-.85c1.07-1.82,1-1.53,2.86-.65,2.67,1.23,4.67,3.22,6.87,5s4.35,3.66,6.69,5.25c2.57,1.75,4.93,4.06,8.37,4.05a.92.92,0,0,1,.62.26c1,1.29,2.49,1.35,3.9,1.59,1.25.2,1.17.92.74,1.78-.63,1.25-1.28,2.48-1.93,3.73l-1.92,4.92c.17-1.26-.36-1.9-1.64-1.93a1.29,1.29,0,0,1-.64-.19c-3.13-2.12-6.29-4.21-9.36-6.41-2.88-2-5.63-4.26-8.51-6.29-.73-.51-1.86-.43-2.67-.87-1.41-.77-2.7-1.74-4.07-2.59-.67-.42-1.38-.77-2.33-1.3Z" transform="translate(-33.97 -15.94)" style="fill:#ca5017"/><path d="M66.29,161.25l1.92-4.92h.27l-.75,3.43.37.21a9.05,9.05,0,0,0,.86-1.1c.7-1.2,1.35-2.42,2-3.63-.74,1.79-1.52,3.56-2.24,5.36a21.61,21.61,0,0,0-1.56,10.26,16.9,16.9,0,0,0,1,3.29l.56,1.88,1.8,3.91L69,179a16.79,16.79,0,0,1-3.53-10.19,59.62,59.62,0,0,1,.27-6A7.18,7.18,0,0,1,66.29,161.25Z" transform="translate(-33.97 -15.94)" style="fill:#dc6726"/><path d="M141.56,183.46l-.55-.35.27-.24,4.38-1.37,1.73-.51c-.6.35-1.19.73-1.81,1-.88.4-1.8.73-2.7,1.09h0Z" transform="translate(-33.97 -15.94)" style="fill:#e4701b"/><path d="M112.54,187.24l-7.11.28a6.17,6.17,0,0,0-.34-.88,46.73,46.73,0,0,1-2.52-4.38c-1.55-3.57-2.75-7.3-4.43-10.8-1.83-3.8-3.35-7.79-5.92-11.22a44.54,44.54,0,0,1-2.39-3.92l12,.55a2.35,2.35,0,0,0-.57,3.22c.87,1.77,1.5,3.65,2.19,5.5a23.78,23.78,0,0,0,.73,2.44c1,2.19,2.26,4.31,3.3,6.5s1.88,4.27,2.73,6.44S111.78,185.15,112.54,187.24Z" transform="translate(-33.97 -15.94)" style="fill:#bb4018"/><path d="M89.83,156.32a44.54,44.54,0,0,0,2.39,3.92c2.57,3.43,4.09,7.42,5.92,11.22,1.68,3.5,2.88,7.23,4.43,10.8a46.73,46.73,0,0,0,2.52,4.38,6.17,6.17,0,0,1,.34.88c-4.41,0-8.81,0-13.22,0a7.31,7.31,0,0,1-1.29-.24l2.74,0h4.07a6.67,6.67,0,0,1-1-1.65,19.5,19.5,0,0,0-2.48-7.18c-.48-.73-.55-1.73-1-2.51-1.44-2.66-3-5.24-4.43-7.92-1-1.86-1.63-3.88-2.55-5.77a2.26,2.26,0,0,0-1.4-1.17c-1-.1-1.39-.5-1.37-1.44.45-.95.93-1.89,1.34-2.87a2.51,2.51,0,0,0,0-.95h.55Z" transform="translate(-33.97 -15.94)" style="fill:#b23818"/><path d="M68.76,176c-.19-.63-.37-1.26-.56-1.88a21.36,21.36,0,0,1,1.5-14.6c.8.46,1.43.87,2.11,1.19,1,.48,2.06.83,2.34,2.07.23,1,.39,2,.64,3,.39,1.57.45,3.41,1.33,4.64a29.05,29.05,0,0,1,3.72,6.39,3.43,3.43,0,0,1,.19,1.28c0,2-.14,4,1.78,5.37.46.33.66,1,1.08,1.7l-3.73-.46c-4-1.66-7.66-3.66-9.68-7.76A6.86,6.86,0,0,0,68.76,176Z" transform="translate(-33.97 -15.94)" style="fill:#8c2013"/><path d="M79.16,184.76l3.73.46c-.42-.68-.62-1.37-1.08-1.7-1.92-1.39-1.83-3.37-1.78-5.37a3.43,3.43,0,0,0-.19-1.28,29.05,29.05,0,0,0-3.72-6.39c-.88-1.23-.94-3.07-1.33-4.64-.25-1-.41-2-.64-3-.28-1.24-1.36-1.59-2.34-2.07-.68-.32-1.31-.73-2.11-1.19a21.36,21.36,0,0,0-1.5,14.6,16.9,16.9,0,0,1-1-3.29,21.61,21.61,0,0,1,1.56-10.26c.72-1.8,1.5-3.57,2.24-5.36l.81-1.09H72L77,155a7.59,7.59,0,0,0,1.92.51c1.27,0,1.23.63,1.09,1.58a10.32,10.32,0,0,0-.09,2.66c.36,3.35.78,6.69,1.18,10,0,6.71,2.78,12.19,7.77,16.68l-.29.21-5.84-1H81.62Z" transform="translate(-33.97 -15.94)" style="fill:#952714"/><path d="M112.54,187.24c-.76-2.09-1.47-4.2-2.29-6.27s-1.74-4.33-2.73-6.44-2.25-4.31-3.3-6.5a23.78,23.78,0,0,1-.73-2.44c-.69-1.85-1.32-3.73-2.19-5.5a2.35,2.35,0,0,1,.57-3.22h5.54c-.24.74-.62,1.27-.52,1.69a42.4,42.4,0,0,0,1.59,5.44c1.18,3,2.54,5.91,3.85,8.85.91,2.06,1.94,4.08,2.78,6.17a41.17,41.17,0,0,1,1.27,4.23c.29,1.06.09,2.31,1.28,3,.13.07.06.47.09.71Z" transform="translate(-33.97 -15.94)" style="fill:#c14717"/><path d="M123.49,186.42h-1.37c-.07-.15-.12-.42-.23-.45a3.23,3.23,0,0,1-2.1-3c-.19-3-2-5.35-2.74-8.12-.6-2.27-2-4.32-2.87-6.51-1.33-3.25-2.94-6.44-2.76-10.09.06-1.06-.56-1.35-1.34-1.61h6c.4,1.12.67,1.89,1,2.66a3.84,3.84,0,0,1,.41,1c.19,4.1,2.48,7.57,3.39,11.45.67,2.88,1.58,5.7,2.4,8.55.31,1.09.38,2.24,1.37,3.09a20.22,20.22,0,0,1,2.18,2.52Z" transform="translate(-33.97 -15.94)" style="fill:#c94f17"/><path d="M110.08,156.6c.78.26,1.4.55,1.34,1.61-.18,3.65,1.43,6.84,2.76,10.09.9,2.19,2.27,4.24,2.87,6.51.73,2.77,2.55,5.12,2.74,8.12a3.23,3.23,0,0,0,2.1,3c.11,0,.16.3.23.45l-4.37.54c0-.24,0-.64-.09-.71-1.19-.69-1-1.94-1.28-3a41.17,41.17,0,0,0-1.27-4.23c-.84-2.09-1.87-4.11-2.78-6.17-1.31-2.94-2.67-5.86-3.85-8.85a42.4,42.4,0,0,1-1.59-5.44c-.1-.42.28-.95.52-1.69h-5.54l-12-.55-4.38-.54.28-.83c.34.27.67.75,1,.78,2.88.24,5.76.47,8.64.57,4.26.15,8.51.2,12.76.29Z" transform="translate(-33.97 -15.94)" style="fill:#c64c17"/><path d="M82.71,185.61l5.84,1,.29-.21c-5-4.49-7.76-10-7.77-16.68.09-.56.18-1.12.28-1.69.27-1.53.54-3.07.82-4.6a7.84,7.84,0,0,0,.65,2.14c.45.73,1.43,1.19,1.75,1.94,1,2.5,1.82,5.11,2.83,7.62.29.73,1.18,1.21,1.54,1.93.75,1.47,1.28,3.05,2,4.54.53,1.08,1.28,2.06,1.83,3.14a21,21,0,0,1,.89,2.49l-2.74,0-4.1-.3-1.62-.54Z" transform="translate(-33.97 -15.94)" style="fill:#a82f17"/><path d="M131.44,185.35l-8,1.28v-.21l3.28-.55,4.66-.81Z" transform="translate(-33.97 -15.94)" style="fill:#d7611a"/><path d="M82.71,185.61l2.49.81,1.62.54c-1.51-.18-3-.32-4.54-.57-.25,0-.44-.51-.66-.78Z" transform="translate(-33.97 -15.94)" style="fill:#bf4018"/><path d="M147.39,181l-1.73.51a3,3,0,0,1-2.67-2.67,10.4,10.4,0,0,0-1.71-4,31.74,31.74,0,0,1-5-12.46,19.45,19.45,0,0,0-1.09-3.45c-.55-1.47-1.17-2.91-1.83-4.52l-2.5.24h-.83v-.26l6-.83,1.53-.14c.54,1.36,1.09,2.63,1.53,3.95a11.2,11.2,0,0,1,.48,2.37A23,23,0,0,0,142.93,170c.58.92.66,2.15,1.16,3.14a13.62,13.62,0,0,0,1.74,2.54c1.12,1.35,2.33,2.62,3.45,4,.2.24.15.69.21,1l-.27.11Z" transform="translate(-33.97 -15.94)" style="fill:#e06c1b"/><path d="M136.08,153.58l-6,.83c-2.64.25-5.27.52-7.91.76-1.52.14-3.05.31-4.58.3a16.65,16.65,0,0,1-2.84-.52c1.33-.17,2.65-.37,4-.51,3-.3,6-1.08,8.89-.74,5.2.61,9.88-1.42,14.82-2.08.62-.09,1.25-.15,1.87-.22L141,152.49l-4.33.82A2.62,2.62,0,0,0,136.08,153.58Z" transform="translate(-33.97 -15.94)" style="fill:#f39848"/><path d="M146.27,148.39c-9.52-3.26-19.39-4.69-29.38-5.5l-2.82-.64,1.77-.43c1.85-.1,3.69-.14,5.53-.33,1.64-.17,3.26-.49,4.89-.75,1.86-.25,3.73-.45,5.57-.78a10.29,10.29,0,0,0,2.11-.86l2.42-.33.27.08-1.34.86,3.29,2.4c1.59,1.15,1.77,2,.59,3.83,1.14,0,2.18,1.26,3.15-.29a.91.91,0,0,1,.73-.24,10.44,10.44,0,0,0,6.19-1c.7-.33,1.62-.2,2.34-.5,1.68-.72,3.3-1.59,5-2.37a2.58,2.58,0,0,1,3.46,1.09l2.11-.84a38.93,38.93,0,0,1-4.33,2.75c-2.91,1.35-5.9,2.52-8.91,3.65A8.91,8.91,0,0,1,146.27,148.39Z" transform="translate(-33.97 -15.94)" style="fill:#a72e17"/><path d="M86,154.36l5.16.26.83.1,7.38.51h1.09c0,1.07.77.82,1.35.81l21.1-.53-.28.26-13.91.57a2.19,2.19,0,0,0-.6.25c-4.25-.09-8.5-.14-12.76-.29-2.88-.1-5.76-.33-8.64-.57-.36,0-.69-.51-1-.78Z" transform="translate(-33.97 -15.94)" style="fill:#e1732f"/><path d="M123,155.51l-21.1.53c-.58,0-1.39.26-1.35-.81,1,0,2.08,0,3.11,0,1.34-.05,2.67-.16,4-.24l7.12,0a16.65,16.65,0,0,0,2.84.52c1.53,0,3.06-.16,4.58-.3,2.64-.24,5.27-.51,7.91-.76,0,.09,0,.17,0,.26l-3.83.55Z" transform="translate(-33.97 -15.94)" style="fill:#ed8b43"/><path d="M107.61,155c-1.33.08-2.66.19-4,.24-1,0-2.07,0-3.11,0H99.41a14.24,14.24,0,0,1,1.82-.26C103.36,155,105.48,155,107.61,155Z" transform="translate(-33.97 -15.94)" style="fill:#f39848"/><path d="M63.28,60l4.66,1,1.93.58c-1.12,1.28-2.16,2.65-3.38,3.83a13.28,13.28,0,0,0-2.91,5c-.22.58-.41,1.18-.64,1.76-.69,1.75-1.43,3.49-2.06,5.27a6.48,6.48,0,0,0-.52,2.64c.18,1.8-.71,3.29-1.26,4.83-.68,1.94-.69,3.37.72,4.85.12.11.12.33.18.5l-1.38-.51c-1.13-.38-2.25-.77-3.39-1.13-.88-.28-1.77-.53-2.65-.79L51,87.13c1-2.83,2.55-5.45,2.81-8.56.12-1.32,1-2.57,1.48-3.85a2.58,2.58,0,0,0,.35-1c-.13-2.14,1.27-3.75,1.93-5.6.79-2.22,2.29-4.25,2.74-6.51S61.82,59.68,63.28,60Z" transform="translate(-33.97 -15.94)" style="fill:#fbba38"/><path d="M51,87.13l1.62.79,5.22,1.91.27.54-1.87-.32a2.79,2.79,0,0,0,1.06,1,1.25,1.25,0,0,1,.55,2c-.48.75-.86,1.55-.1,2.19a19.86,19.86,0,0,0,3.17,2.07,4.1,4.1,0,0,0,1.39.19A15.2,15.2,0,0,1,61.94,99a4.49,4.49,0,0,1-.56.9c-2.85-1.3-6-1.77-8.64-3.72A29.8,29.8,0,0,0,48.25,94c-2.82-1.41-5.65-2.78-8-5a41,41,0,0,0-3.92-3.06l-.91,1.7a9.4,9.4,0,0,1,1.65-7A1.36,1.36,0,0,1,39,80l5.19,3.8,4.64,2.5Z" transform="translate(-33.97 -15.94)" style="fill:#b73d18"/><path d="M48.78,86.25l-4.64-2.5c1.27.6,2.54,1.17,3.8,1.79A4.65,4.65,0,0,1,48.78,86.25Z" transform="translate(-33.97 -15.94)" style="fill:#fbba38"/><path d="M55.34,55.64,54,55.06c-.4-.46-.82-.89-1.2-1.36-.53-.68-1.31-1.33-1.47-2.1a24.84,24.84,0,0,1-.25-4.24c0-.21.17-.41.23-.63.53-1.94,1.12-3.88,1.56-5.84A16.85,16.85,0,0,0,53,38.13c.13-.59-.22-1.52,0-1.73,1.28-1.08.33-1.79-.35-2.61a1.84,1.84,0,0,0,.67-2.63,1.88,1.88,0,0,1,.45-1.62,18.41,18.41,0,0,1,3.53-3.31,6.7,6.7,0,0,0,3.23-4l4.92-1.08c-.24.56-.48,1.13-.75,1.68-.17.36-.46.67-.6,1-.6,1.6.4,4-2.32,4.56-.1,0-.12.33-.23.47-1.51,2.08-1.22,4.7-2.07,7a5.16,5.16,0,0,0-.39,1.76,49.07,49.07,0,0,1,.14,5.93,17.15,17.15,0,0,0,.23,5.31c.24,1.17.63,2.31.92,3.47.15.59.22,1.21.37,1.8,0,.16.23.27.36.41L57,55.94Z" transform="translate(-33.97 -15.94)" style="fill:#f8b535"/><path d="M57,55.94l4.13-1.41c.29-.09.59-.21.89-.28l6.19-1.38c.48,0,1-.07,1.46-.15,1.89-.32,3.77-.66,5.66-1l2.74-.52,2.17,0a1.63,1.63,0,0,1-.48.23c-3.05.49-6.12.85-9.14,1.48-3.64.75-7.23,1.73-10.83,2.62-.74.18-1.46.44-2.18.65l.09.4c16.07,4.52,32.51,5.71,49.12,5.26l3.79.05-.53.26H88.46A13.63,13.63,0,0,0,87,61.91c-1.94-.14-3.89-.21-5.83-.38-3.25-.3-6.48-.66-9.72-1l-2.18.26-4.65-1.09.86-.71c-1.45-.16-2.63-1.12-3.88-.11l-4.1-1.37C57.52,56.94,56.31,56.76,57,55.94Z" transform="translate(-33.97 -15.94)" style="fill:#fee689"/><path d="M88.46,62.17h21.62l-.28.27c-.27,0-.65-.06-.79.09-1.07,1.14-2.45,1-3.8,1Q94,63.29,82.72,63l-9.29-.83-3.56-.55L67.94,61l1.37-.24,2.18-.26a5.77,5.77,0,0,0,1.54.79c2.62.41,5.25.76,7.88,1.08a32.57,32.57,0,0,0,4.3.28A21.34,21.34,0,0,0,88.46,62.17Z" transform="translate(-33.97 -15.94)" style="fill:#fed76a"/><path d="M61.64,58.89c1.25-1,2.43,0,3.88.11l-.86.71Z" transform="translate(-33.97 -15.94)" style="fill:#fbe275"/><path d="M58.91,105.42l-1.1-.55v-.28c.54-1,1.48-.4,2.23-.56l5.18,1.41.26.28-1.92,1.88.49-.93-4.86-1Z" transform="translate(-33.97 -15.94)" style="fill:#d4802d"/><path d="M60,104c-.75.16-1.69-.44-2.23.56l-3.56-.54c.32,0,.74.06.93-.12,1-.89,2.08-.65,3.19-.45Z" transform="translate(-33.97 -15.94)" style="fill:#e4872c"/><path d="M147.3,104.87l.27-.27c0,.79.38,1,1.05.69.42-.17.81-.41,1.23-.58.72-.28,1.23-.12,1.43.71a22.32,22.32,0,0,0,1.3,5c1,2,.87,4.22,1.53,6.25.19.57.66,1.06.83,1.63.23.83.17,1.76.48,2.56.64,1.61,1.62,3.1,2.11,4.74a6.8,6.8,0,0,1-.05,3.41,11.6,11.6,0,0,1-1.42,2.72l-4.94,2.45-2.45.83a1.53,1.53,0,0,1-.08-.59c.22-.83.8-1.72.65-2.48a43.87,43.87,0,0,0-1.43-4.18,20.63,20.63,0,0,1-.49-3c-.1-.77-.19-1.55-.23-2.33-.07-1.68-1.58-3.26-.39-5.06.06-.09-.1-.32-.14-.49-.27-1.34-.59-2.66-.78-4s.21-2.92-.44-3.86c-1-1.43-.13-1.89.59-2.64C146.4,105.89,146.84,105.37,147.3,104.87Z" transform="translate(-33.97 -15.94)" style="fill:#f9b637"/><path d="M151.12,134.14l4.94-2.45,5.75-3.29h.49c-1.54,1.09-3,2.26-4.64,3.26-1.19.75-2.52,1.29-3.79,1.93l-2.41.6Z" transform="translate(-33.97 -15.94)" style="fill:#f5ab2f"/><path d="M147.3,104.87c-.46.5-.9,1-1.37,1.51-.72.75-1.58,1.21-.59,2.64.65.94.26,2.56.44,3.86s.51,2.67.78,4c0,.17.2.4.14.49-1.19,1.8.32,3.38.39,5.06,0,.78.13,1.56.23,2.33a20.63,20.63,0,0,0,.49,3,43.87,43.87,0,0,1,1.43,4.18c.15.76-.43,1.65-.65,2.48a1.53,1.53,0,0,0,.08.59l-1.92.84-2.95.84-3.34.79-.71-.1a3,3,0,0,0,1.33-3.65,21.15,21.15,0,0,1-.88-3.11c-.25-1.58-.27-3.19-.49-4.78-.34-2.43-.82-4.84-1.13-7.28-.16-1.18-.14-2.47-.28-3.57a3.23,3.23,0,0,1,.79-3c.29-.28.56-.56.86-.83l6.26-5.73Z" transform="translate(-33.97 -15.94)" style="fill:#f5ab2f"/><path d="M146.21,105.42,140,111.15c-.3.27-.57.55-.86.83l-5.75,4.38h-.54c.36-.4.7-.82,1.08-1.21a5.83,5.83,0,0,0,1.65-4.57c-.08-1.47-.88-2.06-2.35-1.91s-3,.21-4.45.31l.23-.29c3.77-.63,7.56-1.22,11.32-1.91C142.27,106.41,144.23,105.88,146.21,105.42Z" transform="translate(-33.97 -15.94)" style="fill:#df9121"/><path d="M129,108.69c-.08.1-.15.2-.23.29l-1.93,1.1c-.7.37-1.43.7-2.1,1.12a3.9,3.9,0,0,1-3.1.92l1.07-1.23,2.47-1.91,5.19-3.57-.18,1.32c.45,0,.89-.09,1.33-.08a6.06,6.06,0,0,1,1,.15Z" transform="translate(-33.97 -15.94)" style="fill:#fbcb51"/><path d="M45.22,127.58l1.91-2.19c2.21-1.68,3-1.74,5-.19.47.36.65,1.07,1.1,1.48,1.76,1.61,3.48,3.27,5.38,4.7,2.5,1.86,5.17,3.48,7.71,5.28,1.24.88,2.33,2,3.54,2.91,2,1.57,4.13,3.07,6.21,4.62l-.49,1.19-2.19,3-1.09,1.1c-1.56-2.56-3.23-4.93-6.12-6.29-1.41-.67-2.51-2-3.75-3a7.57,7.57,0,0,0-.81-.69c-2.1-1.33-4.23-2.63-6.32-4a12,12,0,0,1-1.41-1.27c-1.9-1.72-3.75-3.51-5.74-5.13A16.06,16.06,0,0,0,45.22,127.58Z" transform="translate(-33.97 -15.94)" style="fill:#d35c19"/><path d="M72.32,149.48l1.09-1.1-.94,1.86.81.71-.69,1.27v.53l-.81,1.39L71,155.23c-.66,1.21-1.31,2.43-2,3.63a9.05,9.05,0,0,1-.86,1.1l-.37-.21.75-3.43Z" transform="translate(-33.97 -15.94)" style="fill:#e5752a"/><path d="M58.91,105.42l.28.27c-.38.36-.93.66-1.11,1.1a5,5,0,0,1-2.56,3A6.62,6.62,0,0,0,53,112a29.69,29.69,0,0,0-2.68,5.12c-.26.63-1.33,1.47-.16,2.29-.36.55-.73,1.1-1.1,1.64l-.27.27-4.36,5.19c-.17.2-.37.38-.55.57A2.06,2.06,0,0,1,42,124.28a3.17,3.17,0,0,1,1-1.71c2.09-1.3,2.76-3.51,3.81-5.49a48.19,48.19,0,0,1,3.42-6c.83-1.14,2.28-1.83,3.46-2.71S55.85,106.74,57,106A7.45,7.45,0,0,1,58.91,105.42Z" transform="translate(-33.97 -15.94)" style="fill:#d06015"/><path d="M75.6,145.38l.49-1.19c-2.08-1.55-4.17-3.05-6.21-4.62-1.21-.93-2.3-2-3.54-2.91-2.54-1.8-5.21-3.42-7.71-5.28-1.9-1.43-3.62-3.09-5.38-4.7-.45-.41-.63-1.12-1.1-1.48-2-1.55-2.81-1.49-5,.19.49-.62.93-1.28,1.47-1.85,1.32-1.41,2.67-2.78,4-4.16a9.45,9.45,0,0,1,1.31-.89,1.7,1.7,0,0,1,1.17-.16,19.53,19.53,0,0,1,2.68,1.5A3,3,0,0,1,59,121.05c1.14,3.32,4.11,4.88,6.5,7a2.74,2.74,0,0,0,.46.29c1.4.86,2.88,1.61,4.18,2.59,2,1.47,3.81,3.11,5.7,4.68a14.44,14.44,0,0,1,1.89,1.69c.65.78.9,2,2.38,1.63.13,0,.38.33.87.78a11.1,11.1,0,0,0-1.68,1.3c-1,1.14-1.93,2.36-2.89,3.54Z" transform="translate(-33.97 -15.94)" style="fill:#d6611a"/><path d="M76.42,144.55c1-1.18,1.88-2.4,2.89-3.54a11.1,11.1,0,0,1,1.68-1.3c-.49-.45-.74-.82-.87-.78-1.48.4-1.73-.85-2.38-1.63a14.44,14.44,0,0,0-1.89-1.69c-1.89-1.57-3.74-3.21-5.7-4.68-1.3-1-2.78-1.73-4.18-2.59a2.74,2.74,0,0,1-.46-.29c-2.39-2.12-5.36-3.68-6.5-7a3,3,0,0,0-1.23-1.22,19.53,19.53,0,0,0-2.68-1.5,1.7,1.7,0,0,0-1.17.16,9.45,9.45,0,0,0-1.31.89v-.28l6.3-5.47a35.91,35.91,0,0,1,3.37,2.18c1.25,1,2.37,2.2,3.53,3.33,1.45,1.42,2.78,3,4.33,4.28,1.86,1.57,3.8,3,5,5.17,0,.07.17.08.24.13.89.68,1.81,1.34,2.67,2.06,1.08.9,2,1.95,3.18,2.76,2.06,1.44,2.35,3.27.66,5.1a3.58,3.58,0,0,0-.31.45Z" transform="translate(-33.97 -15.94)" style="fill:#da6a1c"/><path d="M58.91,113.63l-6.3,5.47L47.45,124l-.23-.19c.52-.85,1-1.7,1.55-2.55L49,121l7.4-7.39.27-.27.82-.27a4.24,4.24,0,0,0,1.3-.1,14.25,14.25,0,0,0,1.73-1Z" transform="translate(-33.97 -15.94)" style="fill:#ed9030"/><path d="M88.46,17.87l8.21-.29a9.55,9.55,0,0,0-.48,1c-.13.42,0,1-.31,1.25a5.74,5.74,0,0,0-1.42,5.46,6.25,6.25,0,0,1-.11,1.35c-.13,2.1-.3,4.21-.34,6.32,0,1.73.43,3.55.07,5.19a43,43,0,0,0-.69,9.18c0,1.91-.39,2.25-2.32,2.32a7.71,7.71,0,0,0-1.78.48l-6.3.32c0-.31-.19-.73,0-.91.93-1.19.78-2.5.63-3.87a14,14,0,0,1,.18-2.56c.09-1.51.26-3,.22-4.53-.06-2.17-.37-4.34-.4-6.51a13.6,13.6,0,0,1,.56-4.74c.51-1.53.17-3.34.31-5a3.35,3.35,0,0,1,.67-2A16.06,16.06,0,0,1,87.42,19,5.76,5.76,0,0,0,88.46,17.87Z" transform="translate(-33.97 -15.94)" style="fill:#ee951c"/><path d="M68.21,52.87,62,54.25c-.3.07-.6.19-.89.28-.13-.14-.32-.25-.36-.41-.15-.59-.22-1.21-.37-1.8-.29-1.16-.68-2.3-.92-3.47a17.15,17.15,0,0,1-.23-5.31,49.07,49.07,0,0,0-.14-5.93,5.16,5.16,0,0,1,.39-1.76c.85-2.27.56-4.89,2.07-7,.11-.14.13-.45.23-.47,2.72-.54,1.72-3,2.32-4.56.14-.36.43-.67.6-1,.27-.55.51-1.12.75-1.68,2-.44,3.94-.89,5.91-1.3a9.12,9.12,0,0,1,1.48-.07c.17,1.17-.54,1.93-1.22,2.74a9.4,9.4,0,0,0-1.7,2.42c-1.32,3.36-.88,7-1.14,10.45-.12,1.49.19,3,.11,4.5-.14,2.39-.43,4.77-.69,7.14-.13,1.12-.42,2.22-.47,3.34C67.7,51.2,67,52.24,68.21,52.87Z" transform="translate(-33.97 -15.94)" style="fill:#f6ae2f"/><path d="M89.29,50.09a7.71,7.71,0,0,1,1.78-.48c1.93-.07,2.31-.41,2.32-2.32a43,43,0,0,1,.69-9.18c.36-1.64-.11-3.46-.07-5.19,0-2.11.21-4.22.34-6.32a6.25,6.25,0,0,0,.11-1.35,5.74,5.74,0,0,1,1.42-5.46c.26-.26.18-.83.31-1.25a9.55,9.55,0,0,1,.48-1l1.34,0,3,0a11.87,11.87,0,0,1,1.27.55,5.28,5.28,0,0,1,1.46,1.08c.11.13-.41.75-.6,1.16s-.53.88-.43,1.21c.64,2.14-.61,4.17-.18,6.34.24,1.22-.49,2.59-.54,3.9a23.78,23.78,0,0,0,.38,3.54c-.16.64-.6,1.39-.41,1.91a4.31,4.31,0,0,1,0,4s.1.17.1.25c0,1.15.37,2.6-.19,3.37-1.15,1.62-.79,4.55-3.75,4.7,0,0,0,.16-.08.25Z" transform="translate(-33.97 -15.94)" style="fill:#ed8c19"/><path d="M68.21,52.87c-1.23-.63-.51-1.67-.46-2.51,0-1.12.34-2.22.47-3.34.26-2.37.55-4.75.69-7.14.08-1.49-.23-3-.11-4.5.26-3.5-.18-7.09,1.14-10.45a9.4,9.4,0,0,1,1.7-2.42c.68-.81,1.39-1.57,1.22-2.74L78.61,19a24.8,24.8,0,0,0-1,3.31c-.38,2.23-.69,4.48-.86,6.73-.2,2.63-.2,5.27-.31,7.9,0,.53-.18,1.07-.17,1.6,0,1.7.16,3.41.1,5.1s-.27,3.55-.48,5.32c-.11,1-.35,1.88-.53,2.82-1.89.33-3.77.67-5.66,1C69.19,52.8,68.69,52.82,68.21,52.87Z" transform="translate(-33.97 -15.94)" style="fill:#f4a626"/><path d="M75.33,51.73c.18-.94.42-1.87.53-2.82.21-1.77.42-3.54.48-5.32s-.08-3.4-.1-5.1c0-.53.15-1.07.17-1.6.11-2.63.11-5.27.31-7.9.17-2.25.48-4.5.86-6.73a24.8,24.8,0,0,1,1-3.31l.83-.28c2.06-.1,4.11-.16,6.16-.31a11.49,11.49,0,0,0,2-.51l.82,0a5.76,5.76,0,0,1-1,1.15,16.06,16.06,0,0,0-2.31,1.3,3.35,3.35,0,0,0-.67,2c-.14,1.67.2,3.48-.31,5A13.6,13.6,0,0,0,83.57,32c0,2.17.34,4.34.4,6.51,0,1.51-.13,3-.22,4.53a14,14,0,0,0-.18,2.56c.15,1.37.3,2.68-.63,3.87-.14.18,0,.6,0,.91a3.35,3.35,0,0,1-.73.26c-1.39.2-2.79.36-4.19.54Z" transform="translate(-33.97 -15.94)" style="fill:#f19f22"/><path d="M60.55,22.22a6.7,6.7,0,0,1-3.23,4,18.41,18.41,0,0,0-3.53,3.31,1.88,1.88,0,0,0-.45,1.62,1.84,1.84,0,0,1-.67,2.63c.68.82,1.63,1.53.35,2.61-.25.21.1,1.14,0,1.73a16.85,16.85,0,0,1-.14,2.76c-.44,2-1,3.9-1.56,5.84-.06.22-.23.42-.23.63a24.84,24.84,0,0,0,.25,4.24c.16.77.94,1.42,1.47,2.1.38.47.8.9,1.2,1.36l-5.65-2.29c-.69-.28-1.37-.57-1.2-1.54,0-.17,0-.45,0-.53-1.78-1.38-.55-3.65-1.5-5.18-1.19-1.93-.57-3.74-.22-5.67a12.94,12.94,0,0,0,.09-3.73c-.17-1.54.84-2.28,1.77-3.14a2.69,2.69,0,0,0,.9-1.11c.76-3.09,3.1-4.72,5.58-6.24,1.23-.74,2.47-1.48,3.73-2.18.64-.36,1.34-.64,2-.95Z" transform="translate(-33.97 -15.94)" style="fill:#f9b937"/><path d="M87.64,17.85a11.49,11.49,0,0,1-2,.51c-2,.15-4.1.21-6.16.31a24.21,24.21,0,0,1,2.62-.51C83.92,18,85.78,18,87.64,17.85Z" transform="translate(-33.97 -15.94)" style="fill:#f6ae2f"/><path d="M77.89,96.87l-15,3c-.31.06-.62.07-.93.11l-.58-.06a4.49,4.49,0,0,0,.56-.9,15.2,15.2,0,0,0,.33-1.52,4.1,4.1,0,0,1-1.39-.19,19.86,19.86,0,0,1-3.17-2.07c-.76-.64-.38-1.44.1-2.19a1.25,1.25,0,0,0-.55-2,2.79,2.79,0,0,1-1.06-1l1.87.32,4.39,1.1,3.07,1.18c-.5.39-.91.73-1.34,1-.86.63-1.66,1.48-1,2.48s1.62.11,2.36-.3c1.45-.8,2.88-1.66,4.31-2.5l2.73.28,6.29.82,2.76.56A5.92,5.92,0,0,1,77.89,96.87Z" transform="translate(-33.97 -15.94)" style="fill:#b33a18"/><path d="M133.34,116.36l5.75-4.38a3.23,3.23,0,0,0-.79,3c.14,1.1.12,2.39.28,3.57.31,2.44.79,4.85,1.13,7.28.22,1.59.24,3.2.49,4.78a21.15,21.15,0,0,0,.88,3.11,3,3,0,0,1-1.33,3.65l.71.1L138,138.49l-1.36.36-.27-.08a15.86,15.86,0,0,1-1-2.81,21.14,21.14,0,0,1-.59-5.88c.46-3.53-.5-6.76-1.21-10.1C133.35,118.85,132.31,117.63,133.34,116.36Z" transform="translate(-33.97 -15.94)" style="fill:#f4a42c"/><path d="M138,138.49l2.47-1.05,3.34-.79a9.76,9.76,0,0,1-1.85.94C140.65,138,139.32,138.2,138,138.49Z" transform="translate(-33.97 -15.94)" style="fill:#f09221"/><path d="M146.75,135.81l1.92-.84,2.45-.83.34,0Z" transform="translate(-33.97 -15.94)" style="fill:#f4a42c"/><path d="M126,60.51l.83-.2c-.09.39-.05.89-.28,1.15-2.06,2.29-4.16,4.55-6.24,6.81l-1.13,1.3h1.62l-1.65,1.92-4.37,3.56c-.52.29-1.06.57-1.58.88-.73.45-1.3,1.29-2.39,1A21.2,21.2,0,0,1,112.63,75c.83-.84,1.6-1.75,2.39-2.63l1.62-1.61a3.63,3.63,0,0,0,1.07-.5c2.27-2.22,4.53-4.45,6.75-6.73a15.33,15.33,0,0,0,1.71-2.27C126.26,61.11,126,60.76,126,60.51Z" transform="translate(-33.97 -15.94)" style="fill:#fbdf76"/><path d="M136.9,100.49l-5.75,4.37a5,5,0,0,0-.73-4.35c-.78-1-1.7-2-2.58-2.92-1.49-1.62-3-3.25-4.52-4.82-.74-.76-1.68-1.34-2.41-2.1-1.66-1.72-3-3.83-4.92-5.17s-3.19-3-5.12-4.28a2.58,2.58,0,0,0-3.4,0,1.24,1.24,0,0,1-.4.08c0-.09,0-.18,0-.27l6.56-4.65a2.34,2.34,0,0,1,2.24.4A24.29,24.29,0,0,1,122,82.3a64.53,64.53,0,0,0,5.44,4.84c.59.54,1,1.26,1.57,1.86s1.28,1.28,1.92,1.92c.44.44,1.14.83,1.27,1.35.38,1.53,1.59,2.3,2.66,3.15a3,3,0,0,1,1.37,2.19A24.69,24.69,0,0,0,136.9,100.49Z" transform="translate(-33.97 -15.94)" style="fill:#fabc3a"/><path d="M113.64,76.41l-6.56,4.65c-1.3.48-2.39,1.63-4,1.34l2.9-2.71,9-7.34c-.79.88-1.56,1.79-2.39,2.63a21.2,21.2,0,0,0-1.86,1.92c1.09.32,1.66-.52,2.39-1,.52-.31,1.06-.59,1.58-.88Z" transform="translate(-33.97 -15.94)" style="fill:#fcd96b"/><path d="M107.07,81.33a1.24,1.24,0,0,0,.4-.08,2.58,2.58,0,0,1,3.4,0c1.93,1.24,3.3,3,5.12,4.28s3.26,3.45,4.92,5.17c.73.76,1.67,1.34,2.41,2.1,1.54,1.57,3,3.2,4.52,4.82.88,1,1.8,1.89,2.58,2.92a5,5,0,0,1,.73,4.35l-.82.55L125.14,109c.83-.69,1.62-1.44,2.51-2s1.24-1.11.47-2-1.75-1.73-2.6-2.61c-1.59-1.66-3.18-3.33-4.74-5-.81-.89-1.47-1.93-2.33-2.77-1.51-1.47-3.13-2.83-4.7-4.25-.62-.58-1.24-1.17-1.82-1.79s-1.21-1.47-1.88-2.13c-1.27-1.26-3.27-1.74-3.92-3.68,0-.14-.28-.21-.43-.31Z" transform="translate(-33.97 -15.94)" style="fill:#fab638"/><path d="M124,51.23l-5.42-.57.26-.26h.82l3.47.55A6.73,6.73,0,0,1,124,51.23Z" transform="translate(-33.97 -15.94)" style="fill:#ee951c"/><path d="M118.84,50.4l-.26.26h-.31a6.93,6.93,0,0,0-1-.24L112,49.84l-1.13-.43A12.38,12.38,0,0,0,113,49a2.57,2.57,0,0,0,1.36-1,17,17,0,0,0,1.65-8.7,60,60,0,0,1-.25-9.09,37,37,0,0,0-.22-6c-.09-.9-.62-1.75-.77-2.64-.19-1.14-.21-2.3-.3-3.45l.27-.26h2.19c0,.08,0,.15,0,.23h-1.74c1.21,1.43,2.42,2.64,3.38,4a20.82,20.82,0,0,1,3.83,12.57c0,.46,0,.91,0,1.37.22,4.41-1.15,8.46-2.87,12.43C119.27,49.11,119.07,49.76,118.84,50.4Z" transform="translate(-33.97 -15.94)" style="fill:#e47814"/><path d="M114.73,17.86l-.27.26c-.95,0-1.9,0-2.85,0-.32,0-.82.17-.89.38A8.54,8.54,0,0,0,110,21.7c.26,3-1.3,5.44-1.79,8.18-.28.07-.63.05-.82.21a18.54,18.54,0,0,0-1.57,1.5,1.43,1.43,0,0,0-.34.67c-.4,2-.86,2.37-2.89,2.08l-.13,1a23.78,23.78,0,0,1-.38-3.54c0-1.31.78-2.68.54-3.9-.43-2.17.82-4.2.18-6.34-.1-.33.25-.81.43-1.21s.71-1,.6-1.16a5.28,5.28,0,0,0-1.46-1.08,11.87,11.87,0,0,0-1.27-.55Z" transform="translate(-33.97 -15.94)" style="fill:#e88616"/><path d="M123,155.51l3.27-.29H128c.16,1.17.29,2,.41,2.9a16.54,16.54,0,0,0,.37,2.66c.43,1.38,1.07,2.7,1.56,4.07,1.08,3,2,6.1,3.23,9,1.45,3.32,2.75,6.82,5.92,9.06.12.08.11.33.16.5l-2.38.56-4.74,1c-.8-1.39-1.66-2.74-2.37-4.17a42.79,42.79,0,0,1-2-4.56c-.69-1.85-1.22-3.77-1.88-5.63a69.49,69.49,0,0,1-2.42-6.74c-.63-2.67-.81-5.44-1.19-8.17Z" transform="translate(-33.97 -15.94)" style="fill:#d7611a"/><path d="M139.64,183.43c0-.17,0-.42-.16-.5-3.17-2.24-4.47-5.74-5.92-9.06-1.27-2.92-2.15-6-3.23-9-.49-1.37-1.13-2.69-1.56-4.07a16.54,16.54,0,0,1-.37-2.66c-.12-.86-.25-1.73-.41-2.9h-1.77l3.83-.55h.83c.25.66.48,1.32.74,2a10.16,10.16,0,0,1,.56,1.33c.15.58.1,1.22.28,1.78.85,2.66,1.76,5.29,2.61,7.94.4,1.24.57,2.57,1.08,3.75,1.65,3.83,3.41,7.61,5.13,11.42l-.27.24Z" transform="translate(-33.97 -15.94)" style="fill:#da661b"/><path d="M132.52,185l4.74-1-1.73.8-4.09.56v-.29Z" transform="translate(-33.97 -15.94)" style="fill:#de681c"/><path d="M141.28,182.87c-1.72-3.81-3.48-7.59-5.13-11.42-.51-1.18-.68-2.51-1.08-3.75-.85-2.65-1.76-5.28-2.61-7.94-.18-.56-.13-1.2-.28-1.78a10.16,10.16,0,0,0-.56-1.33c-.26-.65-.49-1.31-.74-2l2.5-.24c.66,1.61,1.28,3.05,1.83,4.52a19.45,19.45,0,0,1,1.09,3.45,31.74,31.74,0,0,0,5,12.46,10.4,10.4,0,0,1,1.71,4,3,3,0,0,0,2.67,2.67Z" transform="translate(-33.97 -15.94)" style="fill:#de681c"/><path d="M93.66,187.24a21,21,0,0,0-.89-2.49c-.55-1.08-1.3-2.06-1.83-3.14-.72-1.49-1.25-3.07-2-4.54-.36-.72-1.25-1.2-1.54-1.93-1-2.51-1.79-5.12-2.83-7.62-.32-.75-1.3-1.21-1.75-1.94a7.84,7.84,0,0,1-.65-2.14l1.37-3.84c0,.94.36,1.34,1.37,1.44a2.26,2.26,0,0,1,1.4,1.17c.92,1.89,1.59,3.91,2.55,5.77,1.39,2.68,3,5.26,4.43,7.92.42.78.49,1.78,1,2.51a19.5,19.5,0,0,1,2.48,7.18,6.67,6.67,0,0,0,1,1.65Z" transform="translate(-33.97 -15.94)" style="fill:#ae3317"/><path d="M83.54,159.6l-1.37,3.84c-.28,1.53-.55,3.07-.82,4.6-.1.57-.19,1.13-.28,1.69-.4-3.34-.82-6.68-1.18-10A10.32,10.32,0,0,1,80,157c.14-.95.18-1.59-1.09-1.58A7.59,7.59,0,0,1,77,155l7.93.82h0a2.51,2.51,0,0,1,0,.95C84.47,157.71,84,158.65,83.54,159.6Z" transform="translate(-33.97 -15.94)" style="fill:#9f2d16"/><path d="M71.78,154.14l.81-1.39c.45,0,.91,0,1.36.07L86,154.36h0l-.31.59-.28.83H84.9c-1.48-.27-3-.5-4.45-.83a44.33,44.33,0,0,1-5.82-1.49c-1.2-.46-1.95-.45-2.59.68Z" transform="translate(-33.97 -15.94)" style="fill:#b74818"/><path d="M72,154.13c.64-1.13,1.39-1.14,2.59-.68a44.33,44.33,0,0,0,5.82,1.49c1.47.33,3,.56,4.45.83L77,155Z" transform="translate(-33.97 -15.94)" style="fill:#ac3b17"/><path d="M132.52,185l-1.09,0-4.66.81a20.22,20.22,0,0,0-2.18-2.52c-1-.85-1.06-2-1.37-3.09-.82-2.85-1.73-5.67-2.4-8.55-.91-3.88-3.2-7.35-3.39-11.45a3.84,3.84,0,0,0-.41-1c-.28-.77-.55-1.54-1-2.66h-7.91a2.19,2.19,0,0,1,.6-.25l13.91-.57c.38,2.73.56,5.5,1.19,8.17a69.49,69.49,0,0,0,2.42,6.74c.66,1.86,1.19,3.78,1.88,5.63a42.79,42.79,0,0,0,2,4.56C130.86,182.3,131.72,183.65,132.52,185Z" transform="translate(-33.97 -15.94)" style="fill:#d15815"/><path d="M76.42,144.55l5.2-5.46c.53-.4,1.07-.78,1.58-1.19.76-.6,1.5-1.23,2.24-1.85-.56,1.27-2.42,1.69-2.4,3.64l2.15-1.15-3,3-1.86,1.62,1.3.35c-1.47,0-2.34.92-3.17,2-1.56,2-3.16,3.88-4.69,5.85-.24.29-.22.79-.32,1.19l-.81-.26.69-1.27-.81-.71.94-1.86,2.19-3Z" transform="translate(-33.97 -15.94)" style="fill:#ec8937"/><path d="M81.58,143.48l-1.3-.35,1.86-1.62a8.45,8.45,0,0,1,1.86-.19c2.39.28,4.76.63,7,.94l-.89.34-1.61.32Z" transform="translate(-33.97 -15.94)" style="fill:#a23116"/><path d="M88.52,142.92l1.61-.32,6.82-.26h3.52c.55,0,1.1,0,1.64,0l13.73-.54-1.77.43,2.82.64c-3.32-.11-6.64-.32-10-.3C100.8,142.63,94.66,142.8,88.52,142.92Z" transform="translate(-33.97 -15.94)" style="fill:#df7321"/><path d="M72.59,152.22l.81.26c3.95.48,7.9,1,11.84,1.47a2.89,2.89,0,0,1,.8.41L74,152.82c-.45-.06-.91,0-1.36-.07Z" transform="translate(-33.97 -15.94)" style="fill:#e1732f"/><path d="M133.34,116.36c-1,1.27,0,2.49.25,3.62.71,3.34,1.67,6.57,1.21,10.1a21.14,21.14,0,0,0,.59,5.88,15.86,15.86,0,0,0,1,2.81l-2.42.33-5.25.8a4.28,4.28,0,0,1,.27-.81c.24-.42.76-.8.77-1.21a33.87,33.87,0,0,0-.12-6.13c-.43-2.81-1.35-5.54-1.86-8.34-.27-1.48-.55-3.18,1.35-4.06.18-.08.28-.34.41-.52l3.29-2.47Z" transform="translate(-33.97 -15.94)" style="fill:#f29d28"/><path d="M115.84,141.82l-13.73.54c-.54,0-1.09,0-1.64,0l-2.63-.84,5.13-4.6c.73-.5,1.48-1,2.19-1.52,1.92-1.4,3.83-2.82,5.74-4.23h.28c-2.48,2-2.68,4.25-.64,6.92a3.1,3.1,0,0,1,.37,1.11,3.08,3.08,0,0,0,2.88,2.37c.68,0,1.36,0,2,0l4.93-.29,4.37-.54,1.13,0c-1.63.26-3.25.58-4.89.75C119.53,141.68,117.69,141.72,115.84,141.82Z" transform="translate(-33.97 -15.94)" style="fill:#e77517"/><path d="M126.26,140.74l-1.13,0,3.56-.81,5.25-.8a10.29,10.29,0,0,1-2.11.86C130,140.29,128.12,140.49,126.26,140.74Z" transform="translate(-33.97 -15.94)" style="fill:#ea7f1b"/><path d="M69.87,61.62l3.56.55a4,4,0,0,0-.49.9c-.11.42,0,.94-.14,1.29C71.91,66,71,67.65,70,69.23c-.9,1.43-1.91,2.65-2.12,4.53A75.65,75.65,0,0,1,66,82.32a13.3,13.3,0,0,0-.75,2.43c-.12,2.67-1.78,4.31-3.6,5.89L60,90.35c-.06-.17-.06-.39-.18-.5-1.41-1.48-1.4-2.91-.72-4.85.55-1.54,1.44-3,1.26-4.83a6.48,6.48,0,0,1,.52-2.64c.63-1.78,1.37-3.52,2.06-5.27.23-.58.42-1.18.64-1.76a13.28,13.28,0,0,1,2.91-5C67.71,64.27,68.75,62.9,69.87,61.62Z" transform="translate(-33.97 -15.94)" style="fill:#fab434"/><path d="M60,90.35l1.64.29,6.56,1.65,0,.24-.32,0c-.6-.11-1.21-.21-1.81-.34l-3.64-.77-4.39-1.1-.27-.54h.82Z" transform="translate(-33.97 -15.94)" style="fill:#e08619"/><path d="M58.62,89.84H57.8l-5.22-1.91c.88.26,1.77.51,2.65.79C56.37,89.07,57.49,89.46,58.62,89.84Z" transform="translate(-33.97 -15.94)" style="fill:#f8ad2e"/><path d="M126,60.51c.08.25.3.6.21.73a15.33,15.33,0,0,1-1.71,2.27c-2.22,2.28-4.48,4.51-6.75,6.73a3.63,3.63,0,0,1-1.07.5l3-3.09c1.64-1.65,3.29-3.29,4.93-4.93-.07-.18-.13-.5-.2-.51a12.55,12.55,0,0,0-1.62.07c-3,.33-6.07.67-9.11,1-1.74.19-3.48.35-5.23.53l1.37-1.35.28-.27.53-.26Z" transform="translate(-33.97 -15.94)" style="fill:#e1a941"/><path d="M88.46,62.17a21.34,21.34,0,0,1-3.25.52,32.57,32.57,0,0,1-4.3-.28c-2.63-.32-5.26-.67-7.88-1.08a5.77,5.77,0,0,1-1.54-.79c3.24.33,6.47.69,9.72,1,1.94.17,3.89.24,5.83.38A13.63,13.63,0,0,1,88.46,62.17Z" transform="translate(-33.97 -15.94)" style="fill:#fdde75"/><path d="M116.64,50.7a180.21,180.21,0,0,0-31.51,0c-1.64.12-3.26.33-4.89.5l-2.17,0c1.4-.18,2.8-.34,4.19-.54a3.35,3.35,0,0,0,.73-.26l6.3-.32,8.76-.28h4.65l9.29,0,5.28.57a6.93,6.93,0,0,1,1,.24Z" transform="translate(-33.97 -15.94)" style="fill:#f8b535"/><path d="M68.2,92.29l-6.56-1.65c1.82-1.58,3.48-3.22,3.6-5.89A13.3,13.3,0,0,1,66,82.32a75.65,75.65,0,0,0,1.87-8.56c.21-1.88,1.22-3.1,2.12-4.53,1-1.58,1.93-3.22,2.82-4.87.19-.35,0-.87.14-1.29a4,4,0,0,1,.49-.9l9.29.83a1.22,1.22,0,0,0,0,.27,11.3,11.3,0,0,0-2.18,0,2,2,0,0,0-1.22.82,48.71,48.71,0,0,0-2.43,5.11,31.9,31.9,0,0,0-2,6.44c-.46,3-1.88,5.63-2.91,8.41-1,2.63-2.64,5.06-2.54,8.12Z" transform="translate(-33.97 -15.94)" style="fill:#f8ad2e"/><path d="M82.72,63.27a1.22,1.22,0,0,1,0-.27q11.23.27,22.49.54c1.35,0,2.73.14,3.8-1,.14-.15.52-.07.79-.09l-1.37,1.35v0l-14.78.27-5.19-.27Z" transform="translate(-33.97 -15.94)" style="fill:#fac13a"/><path d="M56.71,113.35l-.27.27a4.2,4.2,0,0,0-.92.54c-1.8,1.72-3.59,3.47-5.38,5.21-1.17-.82-.1-1.66.16-2.29A29.69,29.69,0,0,1,53,112a6.62,6.62,0,0,1,2.54-2.18,5,5,0,0,0,2.56-3c.18-.44.73-.74,1.11-1.1l4.86,1-.49.93-2.74,2.21Z" transform="translate(-33.97 -15.94)" style="fill:#c95b17"/><path d="M60.82,109.81l2.74-2.21,1.92-1.88L66.55,107l6.31-4.27h.55c-.28.27-.55.54-.82.82-1,.65-2.09,1.26-3.09,2-1.46,1-2.87,2.15-4.31,3.23l-1.62,1.1-3,2.19a14.25,14.25,0,0,1-1.73,1,4.24,4.24,0,0,1-1.3.1Z" transform="translate(-33.97 -15.94)" style="fill:#f09b36"/><path d="M72.86,102.68,66.55,107l-1.07-1.23-.26-.28a9.37,9.37,0,0,0,2.07-.62c1.1-.63,2.1-1.41,3.15-2.13l2.42-.92Z" transform="translate(-33.97 -15.94)" style="fill:#f4ac45"/><path d="M72.86,102.68v-.91l-2.42.92L78.73,97l-.84-.17A5.92,5.92,0,0,0,81.64,95a5.52,5.52,0,0,0,.83-.33l6.81-4.09-6.67,4.77.19.36c.75-.33,1.51-.64,2.24-1,1.79-.89,3.56-1.81,5.34-2.72l-2.46,1.64c-1.63.95-3.29,1.86-4.88,2.86C81,97.8,79,99.16,77,100.49l-2.46,1.64-1.09.55Z" transform="translate(-33.97 -15.94)" style="fill:#f7b547"/><path d="M132.8,116.36l-3.29,2.47c-.43.22-.88.43-1.3.67-.85.5-1.69,1-2.53,1.52.64-2.37,1.34-4.72,1.88-7.11a6.34,6.34,0,0,0-.15-2.28c-.1-.71-.52-.91-1.18-.57-.27.14-.56.25-.85.37l1.42-1.35,1.93-1.1c1.48-.1,3-.16,4.45-.31s2.27.44,2.35,1.91a5.83,5.83,0,0,1-1.65,4.57C133.5,115.54,133.16,116,132.8,116.36Z" transform="translate(-33.97 -15.94)" style="fill:#dc821b"/><path d="M105.7,82.43c.15.1.38.17.43.31.65,1.94,2.65,2.42,3.92,3.68.67.66,1.23,1.44,1.88,2.13s1.2,1.21,1.82,1.79c1.57,1.42,3.19,2.78,4.7,4.25.86.84,1.52,1.88,2.33,2.77,1.56,1.69,3.15,3.36,4.74,5,.85.88,1.77,1.71,2.6,2.61s.36,1.4-.47,2-1.68,1.35-2.51,2l-2.47,1.91h-.55a1.18,1.18,0,0,0,0-1.87c-1-1.08-1.71-2.39-2.67-3.49-1.56-1.79-3.2-3.52-4.85-5.23-2.08-2.17-4.2-4.31-6.3-6.46-1.16-1.18-2.27-2.4-3.49-3.5s-2.53-1.69-3.41-2.82a1.64,1.64,0,0,0-2.25-.71v-.28c1.11-.68,2.21-1.35,3.31-2Z" transform="translate(-33.97 -15.94)" style="fill:#f8b032"/><path d="M122.12,110.89h.55l-1.07,1.23a3.9,3.9,0,0,0,3.1-.92c.67-.42,1.4-.75,2.1-1.12l-1.42,1.35L121,113.91a8.31,8.31,0,0,0-1.34.53c-3.44,2.08-6.85,4.2-10.29,6.26a5,5,0,0,1-1.63.32l-.13-.44c.55-.36,1.11-.71,1.65-1.09,1.54-1.12,3.08-2.27,4.61-3.4l2.47-1.64Z" transform="translate(-33.97 -15.94)" style="fill:#f9c149"/><path d="M50.14,119.37c1.79-1.74,3.58-3.49,5.38-5.21a4.2,4.2,0,0,1,.92-.54L49,121C49.41,120.47,49.78,119.92,50.14,119.37Z" transform="translate(-33.97 -15.94)" style="fill:#e37c29"/><path d="M60.56,112l3-2.19A2.07,2.07,0,0,1,65.81,111a12.66,12.66,0,0,0,1.88,2.48c1.61,1.56,3.37,3,5,4.53,2,2,3.94,4,6,5.94,1.75,1.65,3.61,3.19,5.44,4.76,1.62,1.39,3.27,2.74,4.91,4.11l-3.57,3.26c-.74.62-1.48,1.25-2.24,1.85-.51.41-1,.79-1.58,1.19a3.58,3.58,0,0,1,.31-.45c1.69-1.83,1.4-3.66-.66-5.1-1.14-.81-2.1-1.86-3.18-2.76-.86-.72-1.78-1.38-2.67-2.06-.07-.05-.2-.06-.24-.13-1.24-2.16-3.18-3.6-5-5.17-1.55-1.3-2.88-2.86-4.33-4.28-1.16-1.13-2.28-2.32-3.53-3.33a35.91,35.91,0,0,0-3.37-2.18Z" transform="translate(-33.97 -15.94)" style="fill:#dd6e1d"/><path d="M60.82,109.81l-3.29,3.27-.82.27Z" transform="translate(-33.97 -15.94)" style="fill:#e37c29"/><path d="M102.7,49.8H98.05c0-.09,0-.25.08-.25,3-.15,2.6-3.08,3.75-4.7.56-.77.16-2.22.19-3.37,0-.08-.12-.2-.1-.25a4.31,4.31,0,0,0,0-4c-.19-.52.25-1.27.41-1.91l.13-1c2,.29,2.49-.06,2.89-2.08a1.43,1.43,0,0,1,.34-.67,18.54,18.54,0,0,1,1.57-1.5c.19-.16.54-.14.82-.21.15.47.55,1,.42,1.39-.51,1.43.27,2.63.47,3.93.34,2.17.73,4.32,1,6.49.08.7-.33,1.48-.16,2.13a1.82,1.82,0,0,1-.47,2,13.56,13.56,0,0,0-1,1.42c-1,1.41-2.22,2.47-4.19,2.15C103.74,49.27,103.21,49.64,102.7,49.8Z" transform="translate(-33.97 -15.94)" style="fill:#e88616"/><path d="M89.28,90.61,82.47,94.7a5.52,5.52,0,0,1-.83.33l-2.76-.56-6.29-.82-2.73-.28-2-.79.32,0,1.9.3,2.73.27,8.76,1.1c.37-.33.9-.58,1.08-1a4.71,4.71,0,0,1,3.59-2.6,3.59,3.59,0,0,0,1.42-1c1.23-1.19,2.34-2.52,3.64-3.61.92-.77,2.18-1.12,3.12-1.87,1.81-1.42,3.47-3,5.25-4.48s3.86-3,5.74-4.56c1.23-1,2.23-2.37,3.57-3.15,2-1.19,3.34-3,4.8-4.66.66-.76,1.31-1.86,2.51-1.54s2.85.13,3.32,1.87l-3,3.09L115,72.35l-9,7.34c-.94.61-1.89,1.19-2.81,1.82l-6,4.16Z" transform="translate(-33.97 -15.94)" style="fill:#d67511"/><path d="M67.91,92.58l2,.79c-1.43.84-2.86,1.7-4.31,2.5-.74.41-1.65,1.37-2.36.3s.14-1.85,1-2.48c.43-.31.84-.65,1.34-1l-3.07-1.18,3.64.77C66.7,92.37,67.31,92.47,67.91,92.58Z" transform="translate(-33.97 -15.94)" style="fill:#b73d18"/><path d="M72.59,93.65l6.29.82Z" transform="translate(-33.97 -15.94)" style="fill:#b73d18"/><path d="M97.21,85.67l6-4.16c.92-.63,1.87-1.21,2.81-1.82l-2.9,2.71c1.61.29,2.7-.86,4-1.34,0,.09,0,.18,0,.27l-1.37,1.1-3.26,2.06c-1.1.69-2.2,1.36-3.31,2-1,.53-2,1.1-3.07,1.56a5.39,5.39,0,0,1-1.47.17l0-.43Z" transform="translate(-33.97 -15.94)" style="fill:#fbce5b"/><path d="M102.7,49.8c.51-.16,1-.53,1.51-.45,2,.32,3.15-.74,4.19-2.15a13.56,13.56,0,0,1,1-1.42,1.82,1.82,0,0,0,.47-2c-.17-.65.24-1.43.16-2.13-.27-2.17-.66-4.32-1-6.49-.2-1.3-1-2.5-.47-3.93.13-.36-.27-.92-.42-1.39.49-2.74,2-5.22,1.79-8.18a8.54,8.54,0,0,1,.76-3.19c.07-.21.57-.36.89-.38,1,0,1.9,0,2.85,0,.09,1.15.11,2.31.3,3.45.15.89.68,1.74.77,2.64a37,37,0,0,1,.22,6,60,60,0,0,0,.25,9.09,17,17,0,0,1-1.65,8.7A2.57,2.57,0,0,1,113,49a12.38,12.38,0,0,1-2.13.4l1.13.43Z" transform="translate(-33.97 -15.94)" style="fill:#e77f14"/><path d="M97,142.34l-6.82.26.89-.34c-2.26-.31-4.63-.66-7-.94a8.45,8.45,0,0,0-1.86.19l3-3,6.57-5.46c.27-.15.56-.27.81-.44l5.44-3.7,1.39-.51a11.18,11.18,0,0,0-.78,2.15,23.41,23.41,0,0,0-.37,4.93c.12,1.43-1,2.85,0,4.3.15.2-.18.82-.39,1.19A13.27,13.27,0,0,1,97,142.34Z" transform="translate(-33.97 -15.94)" style="fill:#cc5c16"/><path d="M91.76,133.08l-6.57,5.46L83,139.69c0-1.95,1.84-2.37,2.4-3.64L89,132.79l3.56-2.74h.54c-.72.67-1.47,1.32-2.16,2a9.42,9.42,0,0,0-.93,1.25l1.44-.26.27,0Z" transform="translate(-33.97 -15.94)" style="fill:#f29b39"/><path d="M97,142.34a13.27,13.27,0,0,0,.92-1.34c.21-.37.54-1,.39-1.19-1.05-1.45.11-2.87,0-4.3a23.41,23.41,0,0,1,.37-4.93,11.18,11.18,0,0,1,.78-2.15l-1.39.51c.11-.17.21-.35.32-.53l1.9-1.1c1.2-.7,2.41-1.39,3.61-2.1s2.13-1.31,3.2-2l.29.35a9.12,9.12,0,0,0-1,2c-.7,2.6-1.3,5.22-1.92,7.84,0,.21.09.46.05.67a6.48,6.48,0,0,1-.41,1.6,7.53,7.53,0,0,1-1,1.23l-5.13,4.6,2.63.84Z" transform="translate(-33.97 -15.94)" style="fill:#cf6115"/><path d="M125.68,121c.84-.51,1.68-1,2.53-1.52.42-.24.87-.45,1.3-.67-.13.18-.23.44-.41.52-1.9.88-1.62,2.58-1.35,4.06.51,2.8,1.43,5.53,1.86,8.34a33.87,33.87,0,0,1,.12,6.13c0,.41-.53.79-.77,1.21a4.28,4.28,0,0,0-.27.81l-3.56.81-4.37.54c.16-.35.25-.92.51-1,1.37-.49,1.5-1.51,1.41-2.73a15.63,15.63,0,0,1,0-2.65c.22-2.18-.62-4.15-1.08-6.21a27.13,27.13,0,0,1-.31-4.34Z" transform="translate(-33.97 -15.94)" style="fill:#f09221"/><path d="M121.3,124.3a27.13,27.13,0,0,0,.31,4.34c.46,2.06,1.3,4,1.08,6.21a15.63,15.63,0,0,0,0,2.65c.09,1.22,0,2.24-1.41,2.73-.26.1-.35.67-.51,1l-4.93.29a32,32,0,0,0,1-5.66c0-1.48-.82-2.94-1.11-4.45a22.59,22.59,0,0,1-.17-3.3l4.1-3Z" transform="translate(-33.97 -15.94)" style="fill:#ed891c"/><path d="M119.66,125.12l-4.1,3-4.38,3h-.28c2.23-2.16,3.15-4.62,1.94-7.68-.49-1.24-.77-2.55.42-3.65,0,0,0-.15-.07-.23l-.93.06,7.12-4.37c.34.08,1,.14,1,.25.11,1.44,1.77,2.41,1,4.18S121.09,123.57,119.66,125.12Z" transform="translate(-33.97 -15.94)" style="fill:#d77015"/><path d="M112.26,119.64l.93-.06c0,.08.1.21.07.23-1.19,1.1-.91,2.41-.42,3.65,1.21,3.06.29,5.52-1.94,7.68-1.91,1.41-3.82,2.83-5.74,4.23-.71.53-1.46,1-2.19,1.52a7.53,7.53,0,0,0,1-1.23,6.48,6.48,0,0,0,.41-1.6c0-.21-.1-.46-.05-.67.62-2.62,1.22-5.24,1.92-7.84a9.12,9.12,0,0,1,1-2l-.29-.35c-1.07.65-2.13,1.32-3.2,2s-2.41,1.4-3.61,2.1c.45-.36.88-.75,1.35-1.07,1.46-1,2.94-2,4.42-3l1.87-.84,4.4-2.73Z" transform="translate(-33.97 -15.94)" style="fill:#d36813"/><path d="M111.18,131.14l4.38-3a22.59,22.59,0,0,0,.17,3.3c.29,1.51,1.12,3,1.11,4.45a32,32,0,0,1-1,5.66c-.68,0-1.36,0-2,0a3.08,3.08,0,0,1-2.88-2.37,3.1,3.1,0,0,0-.37-1.11C108.5,135.39,108.7,133.14,111.18,131.14Z" transform="translate(-33.97 -15.94)" style="fill:#ea7f1b"/><path d="M70.13,92.83l-1.9-.3,0-.24,1.2-.08c-.1-3.06,1.57-5.49,2.54-8.12,1-2.78,2.45-5.39,2.91-8.41a31.9,31.9,0,0,1,2-6.44,48.71,48.71,0,0,1,2.43-5.11,2,2,0,0,1,1.22-.82,11.3,11.3,0,0,1,2.18,0l5.75.55H86.54c-.44,1.08-.75,1.91-1.12,2.71a38.18,38.18,0,0,0-3.13,8.26c-.27,1.3-.61,2.59-1,3.87-.91,3.24-1.22,6.76-4.23,9a.86.86,0,0,0-.13.23c-1.6,1.26-3.17,2.53-4.8,3.74A19.73,19.73,0,0,1,70.13,92.83Z" transform="translate(-33.97 -15.94)" style="fill:#f6a627"/><path d="M119.66,67.65c-.47-1.74-2.1-1.53-3.32-1.87s-1.85.78-2.51,1.54c-1.46,1.7-2.78,3.47-4.8,4.66-1.34.78-2.34,2.13-3.57,3.15-1.88,1.55-3.85,3-5.74,4.56s-3.44,3.06-5.25,4.48c-.94.75-2.2,1.1-3.12,1.87-1.3,1.09-2.41,2.42-3.64,3.61a3.59,3.59,0,0,1-1.42,1,4.71,4.71,0,0,0-3.59,2.6c-.18.41-.71.66-1.08,1-.38-1.5.81-3.68,2.27-4.6a32.53,32.53,0,0,0,3.59-2.75c.86-.7,1.61-1.54,2.45-2.26.57-.49,1.21-.9,1.82-1.34a22.27,22.27,0,0,1,1.72-1.78q2.66-2.22,5.38-4.34c.59-.46,1.37-.68,1.92-1.17,1.39-1.27,2.68-2.65,4-4,1.68-1.63,3.41-3.2,5-4.89.31-.33.26-1.1.2-1.65a5.38,5.38,0,0,0-.59-1.38c1.69-.09,3.23-.12,4.76-.28,2.06-.21,4.12-.55,6.18-.77,1.4-.16,2.81-.21,4.22-.31C123,64.36,121.3,66,119.66,67.65Z" transform="translate(-33.97 -15.94)" style="fill:#d97b0f"/><path d="M124.59,62.72c-1.41.1-2.82.15-4.22.31-2.06.22-4.12.56-6.18.77-1.53.16-3.07.19-4.76.28a5.38,5.38,0,0,1,.59,1.38c.06.55.11,1.32-.2,1.65-1.61,1.69-3.34,3.26-5,4.89-1.35,1.31-2.64,2.69-4,4-.55.49-1.33.71-1.92,1.17q-2.73,2.12-5.38,4.34a22.27,22.27,0,0,0-1.72,1.78l-4.93,1.37c.38-.47.74-1,1.16-1.39a15.13,15.13,0,0,0,1.64-1.55c1-1.44,2-3,2.95-4.45,3-2.4,6.05-4.75,9-7.23,2.35-2,4.58-4.11,6.87-6.18v0c1.75-.18,3.49-.34,5.23-.53,3-.32,6.08-.66,9.11-1a12.55,12.55,0,0,1,1.62-.07C124.46,62.22,124.52,62.54,124.59,62.72Z" transform="translate(-33.97 -15.94)" style="fill:#df8016"/><path d="M77,87.9a.86.86,0,0,1,.13-.23c3-2.25,3.32-5.77,4.23-9,.35-1.28.69-2.57,1-3.87a38.18,38.18,0,0,1,3.13-8.26c.37-.8.68-1.63,1.12-2.71h1.93l5.19.27c.18,1.71-.9,3.29-.92,4.75,0,2.5-2.3,3.6-2.65,5.74-.1.64-.84,1.16-1.18,1.79-1,1.79-1.56,3.83-3.18,5.24C84.15,82.81,82.6,84,81,85.19,79.68,86.14,78.31,87,77,87.9Z" transform="translate(-33.97 -15.94)" style="fill:#f59f22"/><path d="M85.73,81.61c1.62-1.41,2.2-3.45,3.18-5.24.34-.63,1.08-1.15,1.18-1.79.35-2.14,2.62-3.24,2.65-5.74,0-1.46,1.1-3,.92-4.75l14.78-.27c-2.29,2.07-4.52,4.2-6.87,6.18-2.95,2.48-6,4.83-9,7.23a9,9,0,0,0-.82.41Z" transform="translate(-33.97 -15.94)" style="fill:#f39a1e"/><path d="M92.57,130.05,89,132.79c-1.64-1.37-3.29-2.72-4.91-4.11-1.83-1.57-3.69-3.11-5.44-4.76-2-1.93-4-4-6-5.94-1.62-1.55-3.38-3-5-4.53A12.66,12.66,0,0,1,65.81,111a2.07,2.07,0,0,0-2.24-1.17l1.62-1.1c.65-.4,1.27-.86,2-1.19.41-.2,1-.43,1.35-.26a43.76,43.76,0,0,1,6.29,3.89c1.78,1.45,3.09,3.46,4.72,5.12,1.48,1.49,3.15,2.81,4.67,4.27.57.54.88,1.4,1.5,1.86,1.62,1.22,3.37,2.28,5,3.45,1.12.79,2.18,1.67,3.28,2.53Z" transform="translate(-33.97 -15.94)" style="fill:#e4781f"/><path d="M92.57,130.05,94,128.37c-1.1-.86-2.16-1.74-3.28-2.53-1.66-1.17-3.41-2.23-5-3.45-.62-.46-.93-1.32-1.5-1.86-1.52-1.46-3.19-2.78-4.67-4.27-1.63-1.66-2.94-3.67-4.72-5.12a43.76,43.76,0,0,0-6.29-3.89c-.31-.17-.94.06-1.35.26-.68.33-1.3.79-2,1.19,1.44-1.08,2.85-2.19,4.31-3.23,1-.71,2.06-1.32,3.09-2,1.69,1.55,3.38,3.09,5.06,4.65,1.49,1.38,3,2.77,4.43,4.17a4,4,0,0,1,.34.58c.37.52.76,1,1.15,1.57.26.35.51.7.79,1a7.67,7.67,0,0,0,.93,1c.62.51,1.34.92,1.93,1.47a31.11,31.11,0,0,0,2.24,2.34c1.65,1.24,3.5,2.23,5.13,3.49,2.21,1.71,2.29,2.34,1,4l-2.47,2.18Z" transform="translate(-33.97 -15.94)" style="fill:#e77e21"/><path d="M95.58,127.87c1.3-1.68,1.22-2.31-1-4-1.63-1.26-3.48-2.25-5.13-3.49A31.11,31.11,0,0,1,87.22,118c-.59-.55-1.31-1-1.93-1.47a7.67,7.67,0,0,1-.93-1c-.28-.34-.53-.69-.79-1-.39-.53-.78-1-1.15-1.57a4,4,0,0,0-.34-.58c-1.47-1.4-2.94-2.79-4.43-4.17-1.68-1.56-3.37-3.1-5.06-4.65.27-.28.54-.55.82-.82l1.09-.55c2-.4,2.9.88,3.89,2.24a9.79,9.79,0,0,0,2,1.65c.24.19.59.26.82.47,1.87,1.75,3.8,3.45,5.56,5.3,1.52,1.59,2.67,3.56,4.31,5,2.19,1.92,4.72,3.44,7,5.22.92.7,2,1.41,1.89,2.85Z" transform="translate(-33.97 -15.94)" style="fill:#e98322"/><path d="M77,100.49c2-1.33,4-2.69,6.08-4,1.59-1,3.25-1.91,4.88-2.86a1.91,1.91,0,0,1,.6.26c1.46,1.33,2.9,2.68,4.34,4s3,2.66,4.28,4.12c1.53,1.68,2.73,3.68,4.37,5.23,2.41,2.29,5.15,4.23,7.61,6.46a5,5,0,0,1,1.79,4L103,122.93l1.78-1.61c-.31-2.12-1.8-3.25-3.35-4.14-3.2-1.82-5.58-4.54-8.12-7.08-1.42-1.42-2.42-3.23-4.4-4.11-.69-.3-1.18-1.08-1.74-1.65-.4-.41-.76-.84-1.15-1.25s-.89-.86-1.27-1.34c-1-1.3-2-2.63-3.1-4l-3.28,2.18Z" transform="translate(-33.97 -15.94)" style="fill:#f09224"/><path d="M110.91,117.74a5,5,0,0,0-1.79-4c-2.46-2.23-5.2-4.17-7.61-6.46-1.64-1.55-2.84-3.55-4.37-5.23-1.33-1.46-2.84-2.76-4.28-4.12s-2.88-2.7-4.34-4a1.91,1.91,0,0,0-.6-.26L90.38,92l3.55-1.92c.58.52,1.08,1.27,1.75,1.51,3,1.06,4.71,3.72,6.82,5.77,2.7,2.61,4.9,5.74,7.94,8a30,30,0,0,1,2.57,2.34,19.7,19.7,0,0,1,3.49,4.9,1.35,1.35,0,0,1-.12,1.8l-2.47,1.64c-.34.2-.67.41-1,.6Z" transform="translate(-33.97 -15.94)" style="fill:#f49f2b"/><path d="M77,100.49l1.38-.55c.68.67,1.4,1.3,2,2s1.21,1.59,1.8,2.4a5.73,5.73,0,0,0,.65,1c1.09,1,2.26,1.9,3.34,2.9a42.09,42.09,0,0,1,4,4,25,25,0,0,0,8.49,7.18,5.12,5.12,0,0,1,3.2,4.07l-1.38,1.35H100c.11-1.44-1-2.15-1.89-2.85-2.32-1.78-4.85-3.3-7-5.22-1.64-1.43-2.79-3.4-4.31-5-1.76-1.85-3.69-3.55-5.56-5.3-.23-.21-.58-.28-.82-.47a9.79,9.79,0,0,1-2-1.65c-1-1.36-1.93-2.64-3.89-2.24Z" transform="translate(-33.97 -15.94)" style="fill:#eb8825"/><path d="M93.93,90.09,90.38,92c-1.78.91-3.55,1.83-5.34,2.72-.73.37-1.49.68-2.24,1l-.19-.36,6.67-4.77,7.93-4.94-2.66,2.16,0,.43a5.39,5.39,0,0,0,1.47-.17c1-.46,2-1,3.07-1.56v.28Z" transform="translate(-33.97 -15.94)" style="fill:#f9c251"/><path d="M119.66,125.12c1.43-1.55.94-3.7,1.69-5.42s-.89-2.74-1-4.18c0-.11-.63-.17-1-.25l1.66-1.36,4.34-2.48c.29-.12.58-.23.85-.37.66-.34,1.08-.14,1.18.57a6.34,6.34,0,0,1,.15,2.28c-.54,2.39-1.24,4.74-1.88,7.11l-4.38,3.28Z" transform="translate(-33.97 -15.94)" style="fill:#d97b16"/><path d="M93.93,90.09l5.2-3.28a1.64,1.64,0,0,1,2.25.71c.88,1.13,2.31,1.83,3.41,2.82s2.33,2.32,3.49,3.5c2.1,2.15,4.22,4.29,6.3,6.46,1.65,1.71,3.29,3.44,4.85,5.23,1,1.1,1.7,2.41,2.67,3.49a1.18,1.18,0,0,1,0,1.87l-5.74,3.56a1.35,1.35,0,0,0,.12-1.8,19.7,19.7,0,0,0-3.49-4.9,30,30,0,0,0-2.57-2.34c-3-2.3-5.24-5.43-7.94-8-2.11-2.05-3.79-4.71-6.82-5.77C95,91.36,94.51,90.61,93.93,90.09Z" transform="translate(-33.97 -15.94)" style="fill:#f6a62d"/><path d="M121,113.91l-1.66,1.36-7.12,4.37h0l-4.4,2.73-1.88.84a18.33,18.33,0,0,0-2,1C102,125.59,100,127,98,128.4l-.82.28c-1.19-1.29.38-1.39.87-1.87a30.83,30.83,0,0,1,2.41-2l1.38-1.35,1.09-.56,7.94-5.19,2-1c.35-.19.68-.4,1-.6-1.53,1.13-3.07,2.28-4.61,3.4-.54.38-1.1.73-1.65,1.09l.13.44a5,5,0,0,0,1.63-.32c3.44-2.06,6.85-4.18,10.29-6.26A8.31,8.31,0,0,1,121,113.91Z" transform="translate(-33.97 -15.94)" style="fill:#f8b642"/><path d="M85.73,81.61l6-4a9,9,0,0,1,.82-.41c-1,1.49-1.91,3-2.95,4.45A15.13,15.13,0,0,1,88,83.23c-.42.43-.78.92-1.16,1.39-1,.93-1.78,2.2-2.94,2.73a10.13,10.13,0,0,0-3.71,3,4.71,4.71,0,0,1-2.55,1.23,8.27,8.27,0,0,1-2.56-.15,1.77,1.77,0,0,0-2.2,1.65l-2.73-.27a19.73,19.73,0,0,0,2-1.19c1.63-1.21,3.2-2.48,4.8-3.74,1.34-.9,2.71-1.76,4-2.71C82.6,84,84.15,82.81,85.73,81.61Z" transform="translate(-33.97 -15.94)" style="fill:#e08619"/><path d="M72.86,93.1a1.77,1.77,0,0,1,2.2-1.65,8.27,8.27,0,0,0,2.56.15,4.71,4.71,0,0,0,2.55-1.23,10.13,10.13,0,0,1,3.71-3c1.16-.53,2-1.8,2.94-2.73l4.93-1.37c-.61.44-1.25.85-1.82,1.34-.84.72-1.59,1.56-2.45,2.26a32.53,32.53,0,0,1-3.59,2.75c-1.46.92-2.65,3.1-2.27,4.6Z" transform="translate(-33.97 -15.94)" style="fill:#db8017"/><path d="M97.22,128.68l.82-.28h.29c-.11.18-.21.36-.32.53l-5.44,3.7c-.25.17-.54.29-.81.44l0,0c.43-.39.84-.82,1.3-1.17C94.41,130.79,95.82,129.74,97.22,128.68Z" transform="translate(-33.97 -15.94)" style="fill:#f29b39"/><path d="M97.22,128.68c-1.4,1.06-2.81,2.11-4.19,3.19-.46.35-.87.78-1.3,1.17l-.27,0-1.44.26a9.42,9.42,0,0,1,.93-1.25c.69-.7,1.44-1.35,2.16-2l2.47-2.18,4.38-3h.54a30.83,30.83,0,0,0-2.41,2C97.6,127.29,96,127.39,97.22,128.68Z" transform="translate(-33.97 -15.94)" style="fill:#f5ab3f"/><path d="M98.33,128.41H98c2-1.4,3.93-2.81,5.92-4.17a18.33,18.33,0,0,1,2-1c-1.47,1-2.95,2-4.41,3-.47.32-.9.71-1.35,1.07Z" transform="translate(-33.97 -15.94)" style="fill:#f5ab3f"/><path d="M107.87,122.37l4.4-2.73Z" transform="translate(-33.97 -15.94)" style="fill:#d77015"/><path d="M103,122.93l-1.09.56a5.12,5.12,0,0,0-3.2-4.07,25,25,0,0,1-8.49-7.18,42.09,42.09,0,0,0-4-4c-1.08-1-2.25-1.91-3.34-2.9a5.73,5.73,0,0,1-.65-1c-.59-.81-1.15-1.65-1.8-2.4s-1.35-1.35-2-2l3.28-2.18c1.06,1.36,2.06,2.69,3.1,4,.38.48.85.89,1.27,1.34s.75.84,1.15,1.25c.56.57,1,1.35,1.74,1.65,2,.88,3,2.69,4.4,4.11,2.54,2.54,4.92,5.26,8.12,7.08,1.55.89,3,2,3.35,4.14Z" transform="translate(-33.97 -15.94)" style="fill:#ec8b24"/></svg>