<svg id="Layer_1" data-name="Layer 1" xmlns="http://www.w3.org/2000/svg" viewBox="0 0 249.05 43.42"><path d="M35.72,34.43l-1.87,2a.38.38,0,0,1-.43-.41.4.4,0,0,0-.09-.21L31.85,34.4c-.77-.67-1.55-1.31-2.33-2C29,32,28.39,31.53,27.88,31s-1-1.16-1.49-1.72a12.62,12.62,0,0,0-1.69-1.66c-.67-.49-1-1.35-1.92-1.57L22.67,26l-1-1a.72.72,0,0,1-.09-.2,1.23,1.23,0,0,0-.14-.31c-.44-.51-.89-1-1.35-1.5s-1.15-1.17-1.72-1.75l-.07-.09a8.83,8.83,0,0,0-.71-1c-.26-.28-.55-.51-.78-.8a1.89,1.89,0,0,0-1.3-.87.31.31,0,0,1-.18-.09c-.43-.33-.87-.62-1.43-.23h-.19L13.63,18v-.54H17.4c.08.13.12.31.24.39.31.21.68.35,1,.57a19.16,19.16,0,0,1,1.93,1.54,10.33,10.33,0,0,1,1.28,1.6c.46.63.82,1.33,1.29,2,.25.33.71.48.8,1,0,.06.14.11.21.16a7,7,0,0,1,.84.69c.7.66,1.37,1.35,2,2.07A11.27,11.27,0,0,0,28.43,29,17.1,17.1,0,0,0,30,30.48c.59.46,1.21.9,1.78,1.39s1.25.83,1.82,1.35A12.17,12.17,0,0,0,35.72,34.43Z" transform="translate(0.01 0.03)" style="fill:#882e84"/><path d="M13.69,18.15h.19c.56-.39,1-.1,1.43.23a.31.31,0,0,0,.18.09,1.62,1.62,0,0,1,1.3.87c.3.43.55.51.78.8s.47.7.71,1l.07.09c.57.58,1.16,1.15,1.72,1.75s.91,1,1.35,1.5a1.23,1.23,0,0,1,.14.31.72.72,0,0,0,.09.2c.32.34.65.66,1,1,0,0,.07.1.11.11.88.22,1.25,1.08,1.92,1.57a12.62,12.62,0,0,1,1.69,1.66c.52.56,1,1.19,1.49,1.72a15.26,15.26,0,0,0,1.64,1.37c.78.66,1.56,1.3,2.33,2,.5.44,1,.9,1.48,1.36a.38.38,0,0,1,.14.21c0,.3.2.37.43.41l-1,1.09v-.3c-.48-.16-1.12.1-1.29-.63a.11.11,0,0,0-.09-.06,2.4,2.4,0,0,1-1.45-1,10.76,10.76,0,0,0-1.13-1.11l-.69-.64c-.39-.35-.79-.67-1.16-1a6,6,0,0,0-1.48-1.4l-.06-.05c-.68-.54-1.12-1.34-2-1.72-.09,0-.14-.18-.22-.27-.5-.58-1-1.18-1.51-1.75-.13-.14-.34-.21-.47-.35-.42-.44-.82-.89-1.23-1.34,0,0-.11,0-.15-.06a5.71,5.71,0,0,1-.47-.39,6,6,0,0,0-.53-.6c-.2-.15-.6-.1-.46-.54a.66.66,0,0,0-.15-.16,4.1,4.1,0,0,1-1.77-1.75,1.73,1.73,0,0,0-.38-.43c-.34-.29-.7-.55-1-.84s-.5-.44-.37-.73L14,19.74a1.66,1.66,0,0,0-.31-.12A14.29,14.29,0,0,1,13.69,18.15Z" transform="translate(0.01 0.03)" style="fill:#852b82"/><path d="M36.1,6.23a1.86,1.86,0,0,1,.39-.1h2a3.81,3.81,0,0,1,3.78,2.61c.23.63.57,1.23.86,1.84s.52,1.14.73,1.72a6.76,6.76,0,0,1,.18,1,1.48,1.48,0,0,1-1.33.6H23.63v-.27H37.44a.39.39,0,0,0-.17-.26,1.23,1.23,0,0,1-.54-1.12A10,10,0,0,0,37,10.73c.05-.67.23-1.32.31-2a.59.59,0,0,0-.21-.37,1.46,1.46,0,0,0-.44-.16,3.69,3.69,0,0,0-.07-.94A6.68,6.68,0,0,0,36.1,6.23Z" transform="translate(0.01 0.03)" style="fill:#f2c2db"/><path d="M38.14,31.89l-1.81,1.87c-.42,0-.77,0-.75-.59a.51.51,0,0,0-.09-.12c-.3-.25-.59-.5-.9-.72s-.46-.21-.65-.35c-.46-.35-.89-.72-1.33-1.08-.87-.7-1.76-1.38-2.6-2.11-.53-.47-1-1-1.49-1.51a37.26,37.26,0,0,0-2.77-2.85,2.25,2.25,0,0,1-.21-.24c-.25-.26-.52-.51-.75-.78a19.64,19.64,0,0,1-1.24-1.58,6.23,6.23,0,0,1-.49-.92,4.06,4.06,0,0,0-.39-.78c-.34-.39-.77-.7-1.08-1.11a4.13,4.13,0,0,0-2.31-1.3c-.11,0-.19-.2-.28-.31h3.54c.05.14.06.33.16.42.41.34.87.62,1.25,1a5.27,5.27,0,0,1,1.11,1.29,2.45,2.45,0,0,0,.72.78c.08.07.18.14.2.23.12.6.66.87,1,1.3a10.34,10.34,0,0,0,.95,1c.32.32.76.81,1.15,1.21.22.23.47.44.69.69s.5.7.81,1c.66.64,1.36,1.23,2,1.84.5.43,1,.86,1.53,1.28a9.86,9.86,0,0,0,1,.69c.18.12.43.13.6.26.51.41,1,.85,1.5,1.29.24.22.46.34.76.1C38,31.76,38.07,31.86,38.14,31.89Z" transform="translate(0.01 0.03)" style="fill:#93358c"/><path d="M13.62,19.57a1.66,1.66,0,0,1,.31.12l.88.63c-.13.29.13.52.37.73s.7.55,1,.84a1.73,1.73,0,0,1,.38.43,4.1,4.1,0,0,0,1.77,1.75c.06,0,.16.12.15.16-.14.44.26.39.46.54a6,6,0,0,1,.53.6,5.71,5.71,0,0,0,.47.39s.12,0,.15.06c.41.45.81.9,1.23,1.34.13.14.34.21.47.35.51.57,1,1.17,1.51,1.75.08.09.13.23.22.27.83.38,1.27,1.18,1.95,1.72l.06.05A6,6,0,0,1,27,32.7c.37.36.77.68,1.16,1l.69.64A10.76,10.76,0,0,1,30,35.45a2.4,2.4,0,0,0,1.45,1,.11.11,0,0,1,.09.06c.17.73.81.47,1.29.63v.3l-.84.81-1,.37c-.27-.25-.53-.51-.81-.75s-.36-.23-.53-.37l-.86-.72a6.39,6.39,0,0,1-.87-.78,8.11,8.11,0,0,0-2.58-2.6s-.14-.07-.14-.12c0-.28-.24-.3-.42-.39s-.19-.08-.22-.15c-.28-.71-1-1-1.47-1.5a5.37,5.37,0,0,1-.81-.84,1.69,1.69,0,0,0-.72-.73c-.47-.22-.67-.81-1.23-.9,0,0-.07-.05-.08-.08a1.72,1.72,0,0,0-1-1.12l-.13-.15-.78-.66a5.59,5.59,0,0,1-.52-.45c-.31-.31-.61-.63-.9-.95a7.81,7.81,0,0,0-.56-.59c-.39-.35-.81-.66-1.21-1a.58.58,0,0,1-.22-.27,1.66,1.66,0,0,0-1.4-1.21Z" transform="translate(0.01 0.03)" style="fill:#80287e"/><path d="M3.94,27.76a2.62,2.62,0,0,1-2.58-1.38,8.87,8.87,0,0,1-1.23-3.7,11.58,11.58,0,0,1,.78-6.34,6.57,6.57,0,0,1,1-1.54,1.73,1.73,0,0,1,1.43-.61,3,3,0,0,1,1.75,1.49,10,10,0,0,1,.69,1.57,13.54,13.54,0,0,1,.55,5.51l-.57,2.53a6.43,6.43,0,0,1-.54,1c-.34.45-.74.84-1.11,1.25h0L4,27.73ZM1.27,18.92l-.24,2a6.69,6.69,0,0,0,.63,3.15,2,2,0,0,0,1,1.09c1,.2,1.24.1,1.8-.74a3.46,3.46,0,0,0,.47-1.12,8.27,8.27,0,0,0,.26-3.21,7.19,7.19,0,0,0-.78-2.64,1.24,1.24,0,0,0-1.76-.7h0l-.53.48c-.08.05-.21.08-.24.15-.2.55-.37,1.06-.56,1.56Z" transform="translate(0.01 0.03)" style="fill:#6b1f6d"/><path d="M7.33,13.2a3,3,0,0,1-.52-1.65,2.51,2.51,0,0,1,1.32-.24h4.2c.22,0,.44,0,.66.07a2,2,0,0,1,.43.33c.42.48.8,1,1.22,1.48a5,5,0,0,0,1.89,1.72,2,2,0,0,0,.52.16c.79,0,1.59,0,2.38.08h16.7l-.39.3-.79.08a1.53,1.53,0,0,0-.37-.08l-3.89.08h-2.4l-3.7.2h-.8c-1.27.07-2.54.12-3.81.23a8.8,8.8,0,0,0-1.34.35v.11H16.8a3.41,3.41,0,0,1-2.31-1.31h0c-1.18-1.72-1.36-1.81-3.39-1.79a2.9,2.9,0,0,0-.41-.06H7.9A2.76,2.76,0,0,1,7.33,13.2Z" transform="translate(0.01 0.03)" style="fill:#39073f"/><path d="M42.16,27.65,41,28.76c-.35,0-.44-.17-.53-.46a1.07,1.07,0,0,0-.82-.85,2.87,2.87,0,0,1-1-.48c-.64-.39-1.26-.81-1.89-1.21a19.67,19.67,0,0,1-2-1.25,5.13,5.13,0,0,1-1.6-1.83.58.58,0,0,0-.22-.22,6.82,6.82,0,0,1-1.69-1.7,2.65,2.65,0,0,0-.52-.72c-.45-.4-.94-.75-1.4-1.13-.07-.06-.16-.13-.18-.21-.15-.5-.61-.64-1-.83-.22-.11-.29-.23-.2-.45a6.54,6.54,0,0,1,6,3.06c.36.71.73,1.41,1.06,2.13a3.52,3.52,0,0,0,2.63,2c.64.13,1.32.11,2,.19A2.64,2.64,0,0,1,42.16,27.65Z" transform="translate(0.01 0.03)" style="fill:#a8499b"/><path d="M40.14,29.76l-1.66,1.67a1.41,1.41,0,0,1-.34-.35,3.85,3.85,0,0,0-1.27-1.33c-.47-.34-1-.59-1.47-.95-.78-.61-1.53-1.26-2.28-1.91s-1.2-1.07-1.78-1.63-1.12-1.13-1.65-1.72c-.39-.41-.73-.87-1.11-1.29s-1-1-1.39-1.46-.75-1-1.16-1.44a6,6,0,0,0-1.75-1.43c-.23-.11-.32-.26-.21-.5H26c-.18.38.11.55.36.64a2.47,2.47,0,0,1,1,.72c.4.42.83.81,1.25,1.22.18.18.45.32.53.54.23.64.84.94,1.21,1.45a17.57,17.57,0,0,0,1.21,1.38c.16.16.36.29.51.45s.32.42.5.59.64.54.93.84a6.09,6.09,0,0,0,1.44,1.19c.46.27.87.6,1.3.91L37,28c.57.4,1.14.8,1.72,1.19A2.37,2.37,0,0,0,40.14,29.76Z" transform="translate(0.01 0.03)" style="fill:#9e4094"/><path d="M19,17.44c.09.11.17.27.28.31a4.13,4.13,0,0,1,2.31,1.3c.31.41.74.72,1.08,1.11a4.06,4.06,0,0,1,.39.78,6.23,6.23,0,0,0,.49.92c.39.55.81,1.06,1.24,1.58.23.27.5.52.75.78a2.25,2.25,0,0,0,.21.24,37.26,37.26,0,0,1,2.77,2.85c.5.5,1,1,1.49,1.51.84.73,1.73,1.41,2.6,2.11.44.36.87.73,1.33,1.08.19.14.45.21.65.35s.6.47.9.72c0,0,.09.08.09.12,0,.54.33.61.75.59l-.57.64a12.42,12.42,0,0,1-2.08-1.29c-.57-.52-1.25-.85-1.82-1.35s-1.2-.91-1.78-1.39-1.08-.95-1.59-1.46A11.27,11.27,0,0,1,27,27.37c-.63-.72-1.3-1.41-2-2.07a7,7,0,0,0-.84-.69c-.07-.05-.2-.1-.21-.16-.09-.48-.55-.63-.8-1-.47-.62-.83-1.32-1.29-2a10.33,10.33,0,0,0-1.28-1.6,19.16,19.16,0,0,0-1.93-1.54c-.3-.22-.67-.36-1-.57-.12-.08-.16-.26-.24-.39h1.34Z" transform="translate(0.01 0.03)" style="fill:#8e3289"/><path d="M40.14,29.76a2.4,2.4,0,0,1-1.46-.61c-.58-.39-1.15-.79-1.72-1.19l-.79-.61c-.43-.31-.84-.64-1.3-.91a6.09,6.09,0,0,1-1.44-1.19c-.29-.3-.63-.55-.93-.84a7.25,7.25,0,0,1-.5-.59c-.18-.19-.35-.29-.51-.45A17.57,17.57,0,0,1,30.28,22c-.37-.51-1-.81-1.21-1.45-.08-.22-.35-.36-.53-.54-.42-.41-.85-.8-1.25-1.22a2.47,2.47,0,0,0-1-.72c-.25-.09-.54-.26-.36-.64h2c-.09.22,0,.34.2.45.4.19.86.33,1,.83,0,.08.11.15.18.21.46.38,1,.73,1.4,1.13a2.65,2.65,0,0,1,.52.72A7,7,0,0,0,33,22.45a.58.58,0,0,1,.22.22,5.13,5.13,0,0,0,1.6,1.83,19.67,19.67,0,0,0,2,1.25c.63.4,1.25.82,1.89,1.21a2.87,2.87,0,0,0,1,.48c.54.08.7.45.82.85s.18.51.53.46Z" transform="translate(0.01 0.03)" style="fill:#a24497"/><path d="M42.16,27.65c.2-1.85-1.32-2.66-2.59-2.82-.66-.08-1.34-.06-2-.19a3.52,3.52,0,0,1-2.63-2c-.33-.72-.7-1.42-1.06-2.13l1.61.45c.88.24,1.76.47,2.64.73a19.47,19.47,0,0,1,2.58.85,5.83,5.83,0,0,0,2.38.89c.3,0,.58.09.85-.09a4.65,4.65,0,0,1-.3,2.39c-.14.25-.27.5-.4.75Z" transform="translate(0.01 0.03)" style="fill:#c569b0"/><path d="M24.07,17.44c-.11.24,0,.39.21.5A6,6,0,0,1,26,19.37c.41.46.75,1,1.16,1.44s.94,1,1.39,1.46.72.88,1.11,1.29c.53.59,1.08,1.17,1.65,1.72s1.17,1.1,1.78,1.63,1.5,1.3,2.28,1.91c.46.36,1,.61,1.47.95a3.85,3.85,0,0,1,1.27,1.33,1.41,1.41,0,0,0,.34.35l-.34.44c-.07,0-.18-.1-.2-.08-.3.24-.52.12-.76-.1-.49-.44-1-.88-1.5-1.29-.17-.13-.42-.14-.6-.26a9.86,9.86,0,0,1-1-.69c-.52-.42-1-.85-1.53-1.28-.69-.61-1.39-1.2-2-1.84a11.39,11.39,0,0,1-.81-1c-.28-.33-.47-.46-.69-.69-.39-.4-.77-.81-1.15-1.21s-.67-.66-.95-1-.87-.7-1-1.3c0-.09-.12-.16-.2-.23a2.45,2.45,0,0,1-.72-.78,5.27,5.27,0,0,0-1.11-1.29c-.38-.36-.84-.64-1.25-1-.1-.09-.11-.28-.16-.42Z" transform="translate(0.01 0.03)" style="fill:#993b91"/><path d="M13,11.39c-.22,0-.44-.07-.66-.07H8.17a2.51,2.51,0,0,0-1.32.24A2.54,2.54,0,0,1,7,11.09C7.59,10,8.2,9,8.82,8a4.85,4.85,0,0,1,.55-.65c.08.11.15.27.26.32.54.23,1-.09,1.54-.2a.35.35,0,0,0,.11-.32c-.09-.35,0-.46.32-.48a1.69,1.69,0,0,1,.55,0c.5.11,1.06.06,1.48.49A13.76,13.76,0,0,0,14.71,8l-.21.87a1.37,1.37,0,0,0-.24.29,4.73,4.73,0,0,1-1.21,2C13,11.22,13,11.32,13,11.39Z" transform="translate(0.01 0.03)" style="fill:#5d1560"/><path d="M14.72,36.45c-.46-.78-.88-1.6-1.39-2.35a6.35,6.35,0,0,0-2.87-2.27,2.71,2.71,0,0,1,.41-.09h4.18a6.72,6.72,0,0,1,.87.18c.39.13.76.31,1.15.47.5.38,1,.72,1.49,1.14a8.84,8.84,0,0,1,1,1.2c.19.26.37.54.55.8v.68H20c-.88,0-1.77,0-2.64-.08a10,10,0,0,1-1.63-.34.48.48,0,0,0-.59.23A3.22,3.22,0,0,1,14.72,36.45Z" transform="translate(0.01 0.03)" style="fill:#410947"/><path d="M6.27,30.1l-.09-.19a3,3,0,0,1,1.42-1c.13-.05.31,0,.43-.06a17.25,17.25,0,0,0,1.78-1A6.91,6.91,0,0,0,11,26.76c.22-.24.34-.56.56-.8A2.17,2.17,0,0,0,12,24.61c.11-1,.13-2,.17-3a3.48,3.48,0,0,0,0-.79c-.11-.75-.29-1.48-.34-2.23a2.19,2.19,0,0,0-.63-1.34.32.32,0,0,0-.43-.15.31.31,0,0,0-.15.15L10,16.44l-.47-.32-.8-.22-.4-.69q.32-.33.66-.63c.49-.38.5-.36.86.15s.79,1.08,1.17,1.64a.41.41,0,0,0,.55.19l.05,0c.37-.2.79-.34,1-.8,0-.08.18-.11.28-.17l.4,1a10.72,10.72,0,0,0-.68.94.88.88,0,0,0,.26.94c.2.1.4.17.6.26v6.83c-.29,0-.31.21-.3.41a.34.34,0,0,1-.36.39.69.69,0,0,0-.61.68.38.38,0,0,1-.07.21c-.17.23-.36.45-.54.67a.66.66,0,0,1-.23.21c-.58.29-1.18.54-1.75.85a5,5,0,0,1-1.49.8c-.35.06-.7.09-1,.13Z" transform="translate(0.01 0.03)" style="fill:#410947"/><path d="M10.24,31.76c-.47-.06-.58-.37-.57-.77h3.74a3.93,3.93,0,0,0,.76-.23l.94-.92.25-.18h.06l.87-.19a4.26,4.26,0,0,1,.94.07A6.67,6.67,0,0,1,22.09,33c.76,1.31,1.43,2.67,2.14,4A3.56,3.56,0,0,0,27,39a8.78,8.78,0,0,0,4.26-.19.46.46,0,0,1-.43.5,8.37,8.37,0,0,1-1,.18c-1,.07-2,.11-3,.13a1.8,1.8,0,0,1-.72-.16A5.45,5.45,0,0,1,23.41,37c-.25-.43-.43-.9-.69-1.34-.46-.78-1-1.54-1.43-2.32a7.61,7.61,0,0,0-2-2,3.52,3.52,0,0,0-1.74-.9,1.33,1.33,0,0,0-1.45.53l-.73.69H15a.86.86,0,0,0-.21-.07H10.48A1.67,1.67,0,0,0,10.24,31.76Z" transform="translate(0.01 0.03)" style="fill:#39073f"/><path d="M10.61,17.39a.32.32,0,0,1,.43-.15.31.31,0,0,1,.15.15,2.19,2.19,0,0,1,.63,1.34A15.62,15.62,0,0,0,12.16,21a3.48,3.48,0,0,1,0,.79,27.42,27.42,0,0,1-.17,3,2.17,2.17,0,0,1-.51,1.35c-.22.24-.34.56-.56.8A6.91,6.91,0,0,1,9.78,28,17.25,17.25,0,0,1,8,29c-.12.06-.3,0-.43.06a3,3,0,0,0-1.42,1C6.09,29.35,6,28.65,6,28a2.16,2.16,0,0,0,2.09-1l.08-.19h0l.24-.32h0l.29-.32a2.31,2.31,0,0,0,1.82-1.25,4.9,4.9,0,0,0,.79-2.52l.07-1.42-.07-.85A7,7,0,0,0,10.61,17.39Z" transform="translate(0.01 0.03)" style="fill:#39073f"/><path d="M11.9,31H9.67c-.72,0-1.43-.06-2.15-.07a1.3,1.3,0,0,1-1.25-.79L7,30a6.28,6.28,0,0,0,1-.13,5,5,0,0,0,1.49-.8c.57-.31,1.17-.56,1.75-.85a.66.66,0,0,0,.23-.21c.18-.22.37-.44.54-.67a.38.38,0,0,0,.07-.21.6.6,0,0,1,.61-.68c.41,0,.37-.13.36-.39s0-.41.3-.41v3.85A1.76,1.76,0,0,1,11.9,31Z" transform="translate(0.01 0.03)" style="fill:#480d4d"/><path d="M8.25,15.35l.4.69.82,2.35c.07.47.13.94.19,1.41H9.45l-.16-.63a5.84,5.84,0,0,0-.11-.73c0-.19-.14-.29-.39-.25a3.35,3.35,0,0,1-1,0c-.46-.06-.9-.19-1.42-.31l.26,1.78.07.86v.79l-.06,1v.53H6.33a13.63,13.63,0,0,0-.49-5.5,10,10,0,0,0-.69-1.57A3,3,0,0,0,3.4,14.28c.26,0,.51-.06.77-.06H6a1.91,1.91,0,0,1,.58.06A2.89,2.89,0,0,1,8.25,15.35Z" transform="translate(0.01 0.03)" style="fill:#f0bad8"/><path d="M14.72,36.45a3.06,3.06,0,0,0,.37-.35.48.48,0,0,1,.59-.23,10,10,0,0,0,1.63.34c.87.07,1.76.06,2.64.08h.14v-.68l.37.64.47,1.33a2.51,2.51,0,0,0-.32.41,1.15,1.15,0,0,1-1.48.7l-.11,0a.65.65,0,0,0-.34,0,5.86,5.86,0,0,1-1.32.08,16.28,16.28,0,0,1-1.94-.51l-.54-1.33.12-.11-.21-.13Z" transform="translate(0.01 0.03)" style="fill:#480d4d"/><path d="M16.13,31a1.33,1.33,0,0,1,1.45-.53,3.52,3.52,0,0,1,1.74.9,7.61,7.61,0,0,1,2,2c.46.78,1,1.54,1.43,2.32.26.44.44.91.69,1.34a5.45,5.45,0,0,0,2.68,2.51,1.8,1.8,0,0,0,.72.16c1,0,2-.06,3-.13a8.37,8.37,0,0,0,1-.18c.26-.06.47-.18.43-.5l.51-.27v.78h-.16a6.42,6.42,0,0,1-2.76.57A9.23,9.23,0,0,0,27.2,40a3.19,3.19,0,0,1-2.51-.87,4,4,0,0,0-1.48-1c-.39-.72-.76-1.45-1.17-2.16s-.91-1.64-1.42-2.43a6.17,6.17,0,0,0-.78-.84,2.17,2.17,0,0,0-.24-.29A5.59,5.59,0,0,0,16.13,31Z" transform="translate(0.01 0.03)" style="fill:#500e53"/><path d="M20.84,6.12h1.59V5h4.7a2.83,2.83,0,0,1-.11.31c-.11.27-.24.53-.36.79H23.29l.06,0,.21.19c.07.12.12.25.19.37a1.39,1.39,0,0,1,.13,1.49,1.2,1.2,0,0,1-1.47.24,1.88,1.88,0,0,1-1-1A6.37,6.37,0,0,0,20.84,6.12Z" transform="translate(0.01 0.03)" style="fill:#410947"/><path d="M8.25,15.35A2.9,2.9,0,0,0,6.58,14.2,1.91,1.91,0,0,1,6,14.14l.45-.63H11c.3.17.7.27.88.53a13.35,13.35,0,0,1,.85,1.69c-.1.06-.25.09-.28.17-.17.46-.59.6-1,.8a.41.41,0,0,1-.57-.11l0-.05c-.38-.56-.78-1.09-1.17-1.64s-.37-.53-.86-.15A8.21,8.21,0,0,0,8.25,15.35Z" transform="translate(0.01 0.03)" style="fill:#480d4d"/><path d="M15.42,38.18a16.28,16.28,0,0,0,1.94.51,5.86,5.86,0,0,0,1.32-.08.65.65,0,0,1,.34,0,1.17,1.17,0,0,0,1.55-.55s0-.07,0-.11a2.51,2.51,0,0,1,.32-.41H21l.89,2.54c-.09.27-.27.29-.53.25-.42-.06-.85-.11-1.28-.13-.23,0-.47,0-.7.06a4.42,4.42,0,0,0-2.36.29l-.25-.28c-.2.13-.3.22-.11.44.06.06,0,.23,0,.36-.27-.57-.55-1.13-.8-1.7C15.69,39,15.56,38.59,15.42,38.18Z" transform="translate(0.01 0.03)" style="fill:#500e53"/><path d="M21.71,4.94h-2a1.64,1.64,0,0,1-1.57-1.47,10.29,10.29,0,0,1,0-1.36h4.13a.61.61,0,0,1,0,.27A1.57,1.57,0,0,0,22.09,4c.12.27.21.65-.29.75C21.74,4.76,21.73,4.88,21.71,4.94Z" transform="translate(0.01 0.03)" style="fill:#5d1560"/><path d="M16.66,41.1c0-.13.06-.3,0-.36-.19-.22-.09-.31.11-.44l.25.28a4.42,4.42,0,0,1,2.36-.29c.23,0,.47,0,.7-.06a9.1,9.1,0,0,1,1.28.13c.26,0,.44,0,.53-.25l.17.42a.19.19,0,0,0-.15.12c-.16.64-.68.84-1.21,1.06s-1,.44-1.4.65l.13.52A3.85,3.85,0,0,1,16.66,41.1Z" transform="translate(0.01 0.03)" style="fill:#5d1560"/><path d="M27.21,43.38H25.49l-1.18-.48a2.29,2.29,0,0,1,.32-.43,4.2,4.2,0,0,1,2.42-1.06,1.3,1.3,0,0,0,1.11-.69h.43a6.81,6.81,0,0,0,3.09-.48l-.05.56a4.22,4.22,0,0,0-2.14.93,4.39,4.39,0,0,1-1.17.67A8.65,8.65,0,0,0,27,43Z" transform="translate(0.01 0.03)" style="fill:#a8499b"/><path d="M8.11,26.82a2.16,2.16,0,0,1-2.09,1H3.94l.16-.19h0a.91.91,0,0,0,.33-.1,4.18,4.18,0,0,0,1.48-2.18H6a1.83,1.83,0,0,0,1.41-.15.62.62,0,0,1,.33,0l1.11.12-.39,1.1h0l-.24.32h0Z" transform="translate(0.01 0.03)" style="fill:#671968"/><path d="M34.74,2.14V3.39A1.66,1.66,0,0,1,33.09,5H31v-.2h.36c.77,0,.79,0,.79-.78V2.1Z" transform="translate(0.01 0.03)" style="fill:#df90c1"/><path d="M43.73,10.61a14.43,14.43,0,0,1,1.86,0c1.27.13,1.79,1.06,2.14,2.14.07.21.09.43.14.65-.59-.11-1.17-.23-1.76-.32-.23,0-.36,0-.29.34s.14.82.2,1.23l.07.94V16h-.22v-.09a8.73,8.73,0,0,0-.67-3.6A2.71,2.71,0,0,0,43.73,10.61Z" transform="translate(0.01 0.03)" style="fill:#f0bad8"/><path d="M36.1,6.23a6.17,6.17,0,0,1,.49,1,3.69,3.69,0,0,1,.07.94l-.33.45a1.45,1.45,0,0,1-1.93-.51,9.9,9.9,0,0,1-.57-1c-.18-.31-.36-.63-.53-1h2.43A1.51,1.51,0,0,1,36.1,6.23Z" transform="translate(0.01 0.03)" style="fill:#480d4d"/><path d="M19.43,42.88l-.13-.52c.45-.21.91-.45,1.4-.65a1.77,1.77,0,0,0,1.21-1.06s.09-.08.14-.12.09.16.12.25a4,4,0,0,0,2.18,2.43s.07.1.11.14L20.09,43Z" transform="translate(0.01 0.03)" style="fill:#671968"/><path d="M14.71,8a11.91,11.91,0,0,1-1.08-.92c-.42-.43-1-.38-1.48-.49a1.69,1.69,0,0,0-.55,0c-.35,0-.41.13-.32.48a.35.35,0,0,1-.11.32c-.51.11-1,.43-1.54.2-.11-.05-.18-.21-.26-.32a3.47,3.47,0,0,1,2.52-1.15h4.46v.11a5,5,0,0,0-1,.71A5.44,5.44,0,0,0,14.71,8Z" transform="translate(0.01 0.03)" style="fill:#671968"/><path d="M27.21,43.38,27,43a8.65,8.65,0,0,1,1.36-.6,4.39,4.39,0,0,0,1.17-.67,4.22,4.22,0,0,1,2.14-.93,2.59,2.59,0,0,1-2.51,2.59C28.48,43.4,27.85,43.38,27.21,43.38Z" transform="translate(0.01 0.03)" style="fill:#b85ca9"/><path d="M19,2.12h-.83a2.38,2.38,0,0,1,2-2.05,11.65,11.65,0,0,1,1.32,0,7.59,7.59,0,0,0,.18,1.33,2.57,2.57,0,0,0,.21.52H20.7Z" transform="translate(0.01 0.03)" style="fill:#6b1f6d"/><path d="M48,19.64A4.32,4.32,0,0,1,47.56,22,1.71,1.71,0,0,1,46,23H44.75l.55-.5a1.37,1.37,0,0,0,.53-.95l-.13-.07a3.78,3.78,0,0,1,.1-.57l.21-.22a1.33,1.33,0,0,0,1-.37A9.16,9.16,0,0,1,48,19.64Z" transform="translate(0.01 0.03)" style="fill:#7a247a"/><path d="M31.75,38.58l-.51.27A8.78,8.78,0,0,1,27,39a3.56,3.56,0,0,1-2.75-2c-.71-1.34-1.38-2.7-2.14-4a6.67,6.67,0,0,0-4.86-3.48c-.31,0-.63,0-.94-.07l.08-.27h.23l.08.11.08-.11.27.06A6.64,6.64,0,0,1,22,32.43c.9,1.42,1.64,2.94,2.42,4.43a3.59,3.59,0,0,0,2.58,2c.41.07.83.06,1.25.09a7.22,7.22,0,0,0,2.85-.26l1-.37Z" transform="translate(0.01 0.03)" style="fill:#a8499b"/><path d="M14.71,8a5.21,5.21,0,0,1,.61-1.11,5,5,0,0,1,1-.71l.17-.13h4a1.57,1.57,0,0,1,.3,0c.24.46.47.92.7,1.38a1.88,1.88,0,0,0,1,1A1.2,1.2,0,0,0,24,8.26c.07.42-.22.54-.53.64a2.07,2.07,0,0,1-1.88-.72l-.72-1.43a.64.64,0,0,0-.58-.38H17a3.07,3.07,0,0,0-.93.3,2.66,2.66,0,0,0-.46.35,3.89,3.89,0,0,0-.53,4,5.72,5.72,0,0,0,1.55,2l-.12.12a4.06,4.06,0,0,1-.46-.36,4.76,4.76,0,0,1-1.53-3.89Z" transform="translate(0.01 0.03)" style="fill:#e59bc7"/><path d="M31.38,0a3.37,3.37,0,0,1,2.36.44,2.15,2.15,0,0,1,1,1.5l-3.15-.16a.83.83,0,0,1,.07-.42c.26-.4.09-.73-.1-1.08A.74.74,0,0,1,31.38,0Z" transform="translate(0.01 0.03)" style="fill:#f0bad8"/><path d="M45.8,20.88l-.1.57-.4,1-.55.5h-.46V18.82c.12.12.24.24.35.37l.41.46.75.82Z" transform="translate(0.01 0.03)" style="fill:#410947"/><path d="M33.33,6.14c.17.32.35.64.53,1a9.9,9.9,0,0,0,.57,1,1.45,1.45,0,0,0,1.93.51c.25.22,0,.33-.07.48a9.39,9.39,0,0,1-1.17-.16,6.68,6.68,0,0,1-.87-.37C34,8,33.71,7.55,33.47,7a1,1,0,0,0-1-.63H23.73l-.21-.19V6.08h6.92a2.59,2.59,0,0,0,.4.09Z" transform="translate(0.01 0.03)" style="fill:#f2c2db"/><path d="M31.38,0a.71.71,0,0,0,.13.28c.19.35.36.68.1,1.08-.08.11,0,.28-.07.42H29.18L29.34,0h2Z" transform="translate(0.01 0.03)" style="fill:#e59bc7"/><path d="M30.33,6h-3.6c.12-.26.25-.52.36-.79a2.83,2.83,0,0,0,.11-.31h3.13Z" transform="translate(0.01 0.03)" style="fill:#500e53"/><path d="M43.73,10.61a2.7,2.7,0,0,1,1.4,1.65c-.36,0-.39.35-.45.61-.09.44-.15.89-.24,1.33s-.2.48-.63.34l.2-1.22a6.76,6.76,0,0,0-.18-1c-.21-.58-.49-1.15-.73-1.72Z" transform="translate(0.01 0.03)" style="fill:#6b1f6d"/><path d="M21.71,4.94V4.76c.5-.1.41-.48.29-.75a1.57,1.57,0,0,1,.18-1.6.61.61,0,0,0,0-.27H23a8.13,8.13,0,0,1-.08,2.65h-.47l-.16.14Z" transform="translate(0.01 0.03)" style="fill:#671968"/><path d="M21.79,1.88a2.57,2.57,0,0,1-.21-.52C21.5.92,21.45.47,21.4,0h1.65V.34c-.06.52-.33,1-.12,1.56h-1.1Z" transform="translate(0.01 0.03)" style="fill:#80287e"/><path d="M30.33,5H28.77a1.76,1.76,0,0,0,.07-.45c0-.78,0-1.56-.07-2.33h.86a4.37,4.37,0,0,0-.08,1.69c.11.72.26.9,1,.9h.27l.16.08V5Z" transform="translate(0.01 0.03)" style="fill:#d077b7"/><path d="M46,14.62c-.06-.41-.1-.82-.2-1.23s.06-.38.29-.34c.59.09,1.17.21,1.76.32a7.34,7.34,0,0,0,.1.93Z" transform="translate(0.01 0.03)" style="fill:#df90c1"/><path d="M26.9,0h1.43L28.25,1.8h-1.1c-.11-.2-.22-.4-.31-.6A1.63,1.63,0,0,1,26.9,0Z" transform="translate(0.01 0.03)" style="fill:#d077b7"/><path d="M46,14.62,48,14.3v1.41l-1.9-.15Z" transform="translate(0.01 0.03)" style="fill:#d077b7"/><path d="M22.89,1.88c-.21-.54.06-1,.12-1.56V0h1c.06.6.11,1.2.16,1.81l-.92.07c-.16,0-.3,0-.26.23h-.16Z" transform="translate(0.01 0.03)" style="fill:#93358c"/><path d="M24.46,43.35s-.06-.12-.11-.14a4,4,0,0,1-2.18-2.43c0-.09-.08-.16-.12-.25l-.16-.42c-.3-.85-.59-1.7-.89-2.54l.1-.19c.32.8.65,1.59,1,2.39l.18.46a6.92,6.92,0,0,0,.28.76,3.52,3.52,0,0,0,1.77,1.91l1.18.48Z" transform="translate(0.01 0.03)" style="fill:#df90c1"/><path d="M48,17.21v1.1a2.41,2.41,0,0,1-1.67-.22h-.23v-.78h1A8,8,0,0,0,48,17.21Z" transform="translate(0.01 0.03)" style="fill:#9e4094"/><path d="M31.68,40.22a6.81,6.81,0,0,1-3.09.48H27.37c.08-.07.15-.21.23-.21a8.11,8.11,0,0,0,3.65-.81c.12-.06.19-.2.29-.31h.16Z" transform="translate(0.01 0.03)" style="fill:#671968"/><path d="M48,19.64a9.51,9.51,0,0,0-1,.65,1.33,1.33,0,0,1-1,.37c0-.36,0-.73.08-1.1.31-.12.61-.27.92-.36s.48,0,.7-.07.26.06.28.23Z" transform="translate(0.01 0.03)" style="fill:#852b82"/><path d="M48,19.36c0-.17,0-.29-.28-.23s-.48,0-.7.07-.61.24-.92.36V18.07h.23a2.41,2.41,0,0,0,1.67.22Z" transform="translate(0.01 0.03)" style="fill:#93358c"/><path d="M44.26,19.64V23a14.81,14.81,0,0,1-.11,2,2.17,2.17,0,0,1-.92,1.51c.13-.25.26-.5.4-.75a4.65,4.65,0,0,0,.3-2.39v-3.7Z" transform="translate(0.01 0.03)" style="fill:#f0bad8"/><path d="M24.23,1.82,24.07,0h1.1a3.23,3.23,0,0,1,0,.44c-.05.46-.11.92-.17,1.37h-.77Z" transform="translate(0.01 0.03)" style="fill:#a24497"/><path d="M27.77,1.82h3.77L34.69,2v.17h-7Z" transform="translate(0.01 0.03)" style="fill:#f2c2db"/><path d="M29.18,1.76h-.94L28.32,0h1Z" transform="translate(0.01 0.03)" style="fill:#d885be"/><path d="M26.9,0a1.61,1.61,0,0,0-.07,1.2c.09.2.2.4.31.6H25.8L26,0Z" transform="translate(0.01 0.03)" style="fill:#b85ca9"/><path d="M46.09,15.56l1.9.15v.72a4.35,4.35,0,0,1-1.9,0v-.87Z" transform="translate(0.01 0.03)" style="fill:#c065ae"/><path d="M46.1,16.43a4.35,4.35,0,0,0,1.9,0v.78c-.29,0-.59.07-.89.08s-.67,0-1,0v-.86Z" transform="translate(0.01 0.03)" style="fill:#a8499b"/><path d="M26,0l-.16,1.8H25c.06-.45.12-.91.17-1.37a3.23,3.23,0,0,0,0-.44Z" transform="translate(0.01 0.03)" style="fill:#a8499b"/><path d="M11.05,13.48H6.49L7,13.31l.38-.14a2.36,2.36,0,0,0,.45.08h2.79a2.9,2.9,0,0,1,.41.06Z" transform="translate(0.01 0.03)" style="fill:#882e84"/><path d="M10.24,31.76c.09-.05.18-.14.27-.14h4.31a.86.86,0,0,1,.21.07v.13H10.85a2.71,2.71,0,0,0-.41.09Z" transform="translate(0.01 0.03)" style="fill:#5d1560"/><path d="M14.79,36.61l.21.13-.12.11Z" transform="translate(0.01 0.03)" style="fill:#410947"/><path d="M12.11,6.12h0Z" transform="translate(0.01 0.03)" style="fill:#d885be"/><path d="M22.33,4.94l.16-.14V5h0Z" transform="translate(0.01 0.03)" style="fill:#7a247a"/><path d="M16.52,6.07l-.17.13V6.09Z" transform="translate(0.01 0.03)" style="fill:#d885be"/><path d="M18.73,17.42H13.62a3.86,3.86,0,0,0-.09-.49c-.2-.61-.42-1.21-.62-1.81s-.06-.68.49-.58a1,1,0,0,1,.46.26,7.82,7.82,0,0,1,.55.6,2.57,2.57,0,0,0,1.77,1.23,21.87,21.87,0,0,0,2.56.18Z" transform="translate(0.01 0.03)" style="fill:#c065ae"/><path d="M13.33,29.54V18.86a4.74,4.74,0,0,1,.05-.84h.2l.08.16a9.72,9.72,0,0,1-.07,1.42v6.75a10.85,10.85,0,0,0,.08,1.4,1.1,1.1,0,0,0,.53.92l1,.51c-.61.22-1.09-.15-1.58-.35l-.23.74Z" transform="translate(0.01 0.03)" style="fill:#9e4094"/><path d="M13.61,18h-.2v-.58h.19A5.8,5.8,0,0,1,13.61,18Z" transform="translate(0.01 0.03)" style="fill:#c065ae"/><path d="M30,6.38h2.46a1,1,0,0,1,1,.63c.24.53.51,1,.78,1.57.41.83.82,1.66,1.25,2.49a1.61,1.61,0,0,1-.53,2.22,1.69,1.69,0,0,1-.27.13,1,1,0,0,0-.22.18H33.18a3.16,3.16,0,0,1-.47-.62c-.28-.66-.54-1.32-.77-2-.16-.48-.28-1-.41-1.45s-.15-.76-.27-1.12a11.2,11.2,0,0,0-.52-1.24,1.22,1.22,0,0,0-.26-.38A5.08,5.08,0,0,0,30,6.38Z" transform="translate(0.01 0.03)" style="fill:#e59bc7"/><path d="M44,13.32l-.2,1.22-.78.62-2,.06H29.33a2,2,0,0,0-.49-.51.65.65,0,0,1-.38-.72H42.67A1.49,1.49,0,0,0,44,13.32Z" transform="translate(0.01 0.03)" style="fill:#993b91"/><path d="M30,6.38c.17.13.36.26.52.41a1.22,1.22,0,0,1,.26.38,11.2,11.2,0,0,1,.52,1.24c.12.36.18.75.27,1.12s.25,1,.41,1.45c.23.67.49,1.33.77,2a3.16,3.16,0,0,0,.47.62H30.33A3.25,3.25,0,0,1,30,13c-.15-.62-.19-1.28-.39-1.89-.25-.81-.61-1.58-.93-2.37a8.15,8.15,0,0,0-1.21-2.32Z" transform="translate(0.01 0.03)" style="fill:#df90c1"/><path d="M27.45,6.37a8.15,8.15,0,0,1,1.21,2.32c.32.79.68,1.56.93,2.37.2.61.24,1.27.39,1.89a3.25,3.25,0,0,0,.38.65H28c-.1-.13-.25-.25-.29-.39-.13-.51-.22-1-.35-1.55a7,7,0,0,0-.29-.76c-.2-.53-.39-1.08-.59-1.61a2.7,2.7,0,0,0-.22-.53c-.25-.41-.45-1-.82-1.15-.58-.29-.63-.9-1.05-1.24Z" transform="translate(0.01 0.03)" style="fill:#d885be"/><path d="M24.39,6.37c.42.34.47,1,1.05,1.24.37.19.57.74.82,1.15a3.49,3.49,0,0,1,.22.53c.2.53.39,1.08.59,1.61a7,7,0,0,1,.29.76c.13.51.22,1,.35,1.55,0,.14.19.26.29.39H25.41a.11.11,0,0,0,0-.08,4.93,4.93,0,0,1-1-2.25A6.1,6.1,0,0,0,24,10c-.17-.39-.4-.76-.6-1.13.31-.1.6-.22.53-.64a1.41,1.41,0,0,0-.13-1.49c-.07-.12-.12-.25-.19-.37Z" transform="translate(0.01 0.03)" style="fill:#d077b7"/><path d="M23.44,8.89c.2.37.43.74.6,1.13a6.1,6.1,0,0,1,.41,1.25,4.93,4.93,0,0,0,1,2.25.11.11,0,0,1,0,.08H23.09s0-.13-.05-.14a.64.64,0,0,1-.43-.76.47.47,0,0,0-.06-.15A15.49,15.49,0,0,1,21.9,11c-.18-.59-.41-1.36-.59-2a.56.56,0,0,1,.27-.74h0A2.06,2.06,0,0,0,23.44,8.89Z" transform="translate(0.01 0.03)" style="fill:#c569b0"/><path d="M34.45,13.59a1,1,0,0,1,.22-.18,1.61,1.61,0,0,0,.93-2.08,1.66,1.66,0,0,0-.13-.27c-.43-.83-.84-1.66-1.25-2.49a6.68,6.68,0,0,0,.87.37,9.39,9.39,0,0,0,1.17.16c.08-.15.32-.26.07-.48l.33-.45a1.46,1.46,0,0,1,.44.16c.11.09.23.26.21.37-.08.67-.26,1.32-.31,2a10,10,0,0,1-.31,1.52,1.23,1.23,0,0,0,.54,1.12.39.39,0,0,1,.17.26Z" transform="translate(0.01 0.03)" style="fill:#f0bad8"/><path d="M28.47,13.93a.65.65,0,0,0,.38.72,2,2,0,0,1,.49.51h-5.9c-.05-.17-.06-.39-.17-.49a.61.61,0,0,1-.22-.74h5.42Z" transform="translate(0.01 0.03)" style="fill:#882e84"/><path d="M23.6,13.9H19.05a4.77,4.77,0,0,1-2.22-.52l-.33-.27.12-.12a4.18,4.18,0,0,0,1.13.48c.82.09,1.65.07,2.48.1h3.38Z" transform="translate(0.01 0.03)" style="fill:#f0bad8"/><path d="M18.73,17.42v-.6h5.9l-.23.6H18.73Z" transform="translate(0.01 0.03)" style="fill:#c569b0"/><path d="M15.27,29.15l-1-.51a1.1,1.1,0,0,1-.53-.92,10.85,10.85,0,0,1-.08-1.4v-4a1.66,1.66,0,0,1,1.4,1.21.58.58,0,0,0,.22.27c.4.34.82.65,1.21,1a7.81,7.81,0,0,1,.56.59c.29.32.59.64.9.95a5.59,5.59,0,0,0,.52.45l.78.66c.05.05.08.13.13.15a1.72,1.72,0,0,1,1,1.12.08.08,0,0,0,.08.08c.56.09.76.68,1.23.9a1.69,1.69,0,0,1,.72.73,5.37,5.37,0,0,0,.81.84c.49.5,1.19.79,1.47,1.5,0,.07.14.11.22.15s.42.11.42.39c0,0,.09.1.14.12A8.11,8.11,0,0,1,28.05,36a6.39,6.39,0,0,0,.87.78c.28.24.57.49.86.72s.37.23.53.37l.81.75a7.22,7.22,0,0,1-2.85.26A5.8,5.8,0,0,1,27,38.82a3.59,3.59,0,0,1-2.58-2c-.78-1.49-1.52-3-2.42-4.43a6.64,6.64,0,0,0-4.94-3.15l-.27-.06H15.32Z" transform="translate(0.01 0.03)" style="fill:#7a247a"/><path d="M2.6,16.81c.76-.34,1.32-.13,1.76.7a7.19,7.19,0,0,1,.78,2.64,8.27,8.27,0,0,1-.26,3.21,3.46,3.46,0,0,1-.47,1.12c-.56.84-.82.94-1.8.74-.16-.23-.33-.45-.47-.69A7.7,7.7,0,0,1,1.24,21l.17-2,.66-1.66.53-.48Zm1.65,4.4a3,3,0,0,0-.32-1.73c-.19-.29-.42-.55-.84-.38-.17.13-.4.22-.51.39a2.84,2.84,0,0,0-.35,1.91,2.19,2.19,0,0,0,.55,1.44c.23.2.46.37.75.11.12-.08.29-.14.33-.25.15-.49.27-.94.39-1.49Z" transform="translate(0.01 0.03)" style="fill:#39073f"/><path d="M1.24,21a7.7,7.7,0,0,0,.9,3.55c.14.24.31.46.47.69a2,2,0,0,1-.95-1.09A6.69,6.69,0,0,1,1,21Z" transform="translate(0.01 0.03)" style="fill:#b85ca9"/><path d="M6,25.29H5.75l.58-2.53h.25a6.38,6.38,0,0,1-.1.73c0,.25,0,.23-.07.34C6.26,24.32,6.11,24.76,6,25.29Z" transform="translate(0.01 0.03)" style="fill:#c065ae"/><path d="M5.75,25.3h.16a4.18,4.18,0,0,1-1.48,2.18.91.91,0,0,1-.33.1c.37-.41.77-.8,1.11-1.25A6.73,6.73,0,0,0,5.75,25.3Z" transform="translate(0.01 0.03)" style="fill:#993b91"/><path d="M1.24,21H1l.24-2h.14Z" transform="translate(0.01 0.03)" style="fill:#a8499b"/><path d="M1.41,19H1.27c.19-.5.36-1,.56-1.5,0-.07.16-.1.24-.15Z" transform="translate(0.01 0.03)" style="fill:#8e3289"/><path d="M4.1,27.58l-.16.19Z" transform="translate(0.01 0.03)" style="fill:#993b91"/><path d="M2.6,16.81Z" transform="translate(0.01 0.03)" style="fill:#8e3289"/><path d="M16.49,13.14l.33.27c-.12.08-.31.15-.34.25s.1.27.14.42a.76.76,0,0,1,.08.33,3.05,3.05,0,0,1-.17.51,5.12,5.12,0,0,1-1.89-1.72c-.42-.49-.8-1-1.22-1.48a2,2,0,0,0-.43-.33c0-.07,0-.17.06-.21a4.73,4.73,0,0,0,1.21-2,1.37,1.37,0,0,1,.24-.29A4.75,4.75,0,0,0,16,12.76,3.32,3.32,0,0,0,16.49,13.14Z" transform="translate(0.01 0.03)" style="fill:#6b1f6d"/><path d="M18.57,16.5v-.11A8.8,8.8,0,0,1,19.91,16c1.27-.11,2.54-.16,3.81-.23h.8l3.7-.2h2.4l3.89-.08a1.53,1.53,0,0,1,.37.08c-.05,0-.11.07-.17.07l-3.38.08c-1.08,0-2.17,0-3.25.09a2,2,0,0,0-1.21.61H24.76Z" transform="translate(0.01 0.03)" style="fill:#410947"/><path d="M19,13.93h4a.61.61,0,0,0,.22.74c.11.1.12.32.17.49h-4c0-.12-.1-.24-.13-.35C19.21,14.51,19.12,14.22,19,13.93Z" transform="translate(0.01 0.03)" style="fill:#80287e"/><path d="M26.82,16.49A2,2,0,0,1,28,15.88c1.08-.05,2.17-.06,3.25-.09l3.47-.16c.06,0,.12-.05.17-.07l.79-.08a1.76,1.76,0,0,0,.4.07h2.22c-.07,0-.13.13-.19.13H36c-1,0-2,.1-3,.15a.78.78,0,0,0-.74.62Z" transform="translate(0.01 0.03)" style="fill:#500e53"/><path d="M19,13.93c.08.29.17.58.26.88a1.37,1.37,0,0,0,.13.35,23.66,23.66,0,0,1-2.38-.08,2,2,0,0,1-.52-.16,3.05,3.05,0,0,0,.17-.51.76.76,0,0,0-.08-.33c0-.15-.16-.3-.14-.42s.22-.17.34-.25A4.77,4.77,0,0,0,19,13.93Z" transform="translate(0.01 0.03)" style="fill:#7a247a"/><path d="M18.57,16.5h6.6v.28H18.72a21.87,21.87,0,0,1-2.56-.18,2.57,2.57,0,0,1-1.77-1.23v-.23a3.41,3.41,0,0,0,2.31,1.31A14.7,14.7,0,0,0,18.57,16.5Z" transform="translate(0.01 0.03)" style="fill:#f0bad8"/><path d="M14.42,15.18v.23a7.82,7.82,0,0,0-.55-.6,1,1,0,0,0-.46-.26c-.55-.1-.67.06-.49.58s.42,1.2.62,1.81a3.86,3.86,0,0,1,.09.49h-.2l-.22-.72-.4-1A13.35,13.35,0,0,0,12,14c-.18-.26-.58-.36-.88-.53v-.13c2,0,2.21.07,3.39,1.79C14.42,15.15,14.42,15.16,14.42,15.18Z" transform="translate(0.01 0.03)" style="fill:#e59bc7"/><path d="M38.33,15.56h-2.2a1.76,1.76,0,0,1-.4-.07l.39-.3h5l-.33.26h-.23l-.24.08h-2Z" transform="translate(0.01 0.03)" style="fill:#410947"/><path d="M24.62,16.83h.55l5.59.07c-.11.43,0,.51.45.57s1.11.11,1.66.22c1.46.3,2.91.64,4.37.95.39.09.8.09,1.19.2.79.22,1.57.51,2.36.74.59.17,1.19.26,1.78.42a1.79,1.79,0,0,0,1.38.06v3.3c-.27.18-.55.09-.85.09a5.83,5.83,0,0,1-2.38-.89,19.47,19.47,0,0,0-2.58-.85c-.88-.26-1.76-.49-2.64-.73l-1.61-.45a6.54,6.54,0,0,0-6-3.06H24.36Z" transform="translate(0.01 0.03)" style="fill:#d077b7"/><path d="M20.46,36.22l-.37-.64c-.18-.26-.36-.54-.55-.8a8.84,8.84,0,0,0-1-1.2c-.46-.42-1-.76-1.49-1.14l.07-.15a2.64,2.64,0,0,1,.38.18l1.19.85c.44.56.91,1.1,1.32,1.68a7.58,7.58,0,0,1,.57,1.14Z" transform="translate(0.01 0.03)" style="fill:#b85ca9"/><path d="M17.15,32.29l-.07.15c-.39-.16-.76-.34-1.15-.47a6.72,6.72,0,0,0-.87-.18v-.13h.37Z" transform="translate(0.01 0.03)" style="fill:#a24497"/><path d="M10.61,17.39A7,7,0,0,1,11.33,20c-.32,0-.66.12-.85-.24A6.7,6.7,0,0,1,10,18.66c-.18-.58-.32-1.17-.48-1.74l.39-.34Z" transform="translate(0.01 0.03)" style="fill:#b85ca9"/><path d="M9.92,16.58l-.39.34c.16.57.3,1.16.48,1.74a6.7,6.7,0,0,0,.47,1.06c.19.36.53.28.85.24a3.53,3.53,0,0,0,.07.85l-.46.25-.24.08h-.31a.89.89,0,0,0,0-.23c-.23-.84-.47-1.68-.7-2.52-.13-.52-.25-1.05-.41-1.56a.44.44,0,0,1,.18-.57Z" transform="translate(0.01 0.03)" style="fill:#9e4094"/><path d="M13.18,16.76l.22.72v.58a5.21,5.21,0,0,1-.05.84c-.2-.09-.4-.16-.6-.26a.88.88,0,0,1-.26-.94A9.07,9.07,0,0,1,13.18,16.76Z" transform="translate(0.01 0.03)" style="fill:#480d4d"/><path d="M9.45,16.26a.44.44,0,0,0-.18.57c.16.51.28,1,.41,1.56H9.47L8.65,16Z" transform="translate(0.01 0.03)" style="fill:#93358c"/><path d="M17.15,32.29l-1.75-.65.73-.69a5.57,5.57,0,0,1,3.39,1.43,2.17,2.17,0,0,1,.24.29c-.1.08-.22.25-.28.23-.43-.15-.56.19-.76.42l-1.19-.85A2.64,2.64,0,0,0,17.15,32.29Z" transform="translate(0.01 0.03)" style="fill:#80287e"/><path d="M15.27,29.15h.31l-.16.47h-.09l-.25.18-.94.92c-.19,0-.37-.07-.56-.08-.44,0-.51-.12-.33-.51a5.76,5.76,0,0,0,.18-.59l.23-.74C14.18,29,14.66,29.37,15.27,29.15Z" transform="translate(0.01 0.03)" style="fill:#852b82"/><path d="M13.46,29.54a5.76,5.76,0,0,1-.18.59c-.18.39-.11.49.33.51a5.39,5.39,0,0,1,.56.08,3.93,3.93,0,0,1-.76.23H11.9a1.77,1.77,0,0,0,1.42-1.41Z" transform="translate(0.01 0.03)" style="fill:#93358c"/><path d="M15.42,29.62l.16-.47h.75l-.08.27Z" transform="translate(0.01 0.03)" style="fill:#9e4094"/><path d="M15.11,29.76l.25-.18Z" transform="translate(0.01 0.03)" style="fill:#9e4094"/><path d="M11.33,22.23a4.9,4.9,0,0,1-.79,2.52L10,25c-.15-.31-.28-.61-.42-.89,0-.05-.1-.07-.15-.1s0-.34,0-.5c.08-.76.17-1.51.25-2.26v-.15h.09a1.85,1.85,0,0,0,.11.45c.2.78.46.92,1.22.67A.82.82,0,0,1,11.33,22.23Z" transform="translate(0.01 0.03)" style="fill:#5d1560"/><path d="M11.33,22.23h-.16c-.76.25-1,.11-1.22-.67a1.85,1.85,0,0,0-.11-.45h.86l.24-.08.46-.25A10.27,10.27,0,0,0,11.33,22.23Z" transform="translate(0.01 0.03)" style="fill:#671968"/><path d="M9.44,24a.42.42,0,0,1,.15.1c.14.28.27.58.42.89l.53-.28A2.31,2.31,0,0,1,8.72,26l.33-.86L9.42,24Z" transform="translate(0.01 0.03)" style="fill:#500e53"/><path d="M9.05,25.14,8.72,26l-.29.32.39-1.1L9,25Z" transform="translate(0.01 0.03)" style="fill:#882e84"/><path d="M8.19,26.64l.24-.32Z" transform="translate(0.01 0.03)" style="fill:#882e84"/><path d="M8.11,26.82l.08-.19Z" transform="translate(0.01 0.03)" style="fill:#882e84"/><path d="M6.47,23.5a5.83,5.83,0,0,1,.1-.73,3.1,3.1,0,0,0,0-.53l2.82.08c-.07.49-.14,1-.22,1.49Z" transform="translate(0.01 0.03)" style="fill:#8e3289"/><path d="M6.62,19.64l-.29-1.78c.52.12,1,.25,1.42.31a3.35,3.35,0,0,0,1,0c.25,0,.35.06.39.25a5.84,5.84,0,0,1,.11.73c-.11,0-.23.15-.34.15A6.6,6.6,0,0,0,6.62,19.64Z" transform="translate(0.01 0.03)" style="fill:#d885be"/><path d="M9.44,22.32l-2.82-.08.06-1,2.77-.08Z" transform="translate(0.01 0.03)" style="fill:#a24497"/><path d="M6.62,19.64A6.57,6.57,0,0,1,9,19.32c.11,0,.23-.1.34-.15a2.91,2.91,0,0,0,.16.63v.32L6.7,20.5Z" transform="translate(0.01 0.03)" style="fill:#d077b7"/><path d="M6.69,20.5l2.75-.38a5,5,0,0,0,.08,1.09H9.45l-2.77.08C6.69,21,6.69,20.76,6.69,20.5Z" transform="translate(0.01 0.03)" style="fill:#b85ca9"/><path d="M10.39,21.14H9.75l-.09-1.33c-.06-.47-.12-.94-.19-1.41h.21c.23.84.47,1.68.7,2.52A.81.81,0,0,1,10.39,21.14Z" transform="translate(0.01 0.03)" style="fill:#852b82"/><path d="M9.66,19.76l.09,1.33v.15l-.2-.07c0-.36-.05-.73-.08-1.09v-.32Z" transform="translate(0.01 0.03)" style="fill:#e59bc7"/><path d="M20.46,36.22l.15-.08.15.16c.11.36.22.72.34,1.08l-.1.19h-.07Z" transform="translate(0.01 0.03)" style="fill:#c569b0"/><path d="M20.76,36.3l-.15-.16A7.58,7.58,0,0,0,20,35c-.41-.58-.88-1.12-1.32-1.68.2-.23.33-.57.76-.42.06,0,.18-.15.28-.23a6.17,6.17,0,0,1,.78.84c.51.79,1,1.61,1.42,2.43s.78,1.44,1.17,2.16v.16c-.18-.12-.43-.2-.53-.36-.26-.42-.44-.89-.67-1.33a.33.33,0,0,0-.22-.18C21.4,36.34,21.08,36.33,20.76,36.3Z" transform="translate(0.01 0.03)" style="fill:#882e84"/><path d="M23.14,38.26V38.1a4,4,0,0,1,1.48,1,3.19,3.19,0,0,0,2.51.87,9.23,9.23,0,0,1,1.66-.07,6.42,6.42,0,0,0,2.76-.57c-.1.11-.17.25-.29.31a8.11,8.11,0,0,1-3.65.81c-.08,0-.15.14-.23.21l-1.25-.16-.54-.21A4.33,4.33,0,0,1,23.76,39Z" transform="translate(0.01 0.03)" style="fill:#5d1560"/><path d="M28.08,2.14h.71c0,.77.06,1.55.07,2.33a1.76,1.76,0,0,1-.07.45H27.15c.11,0,.24-.14.35-.13A.44.44,0,0,0,28,4.36a8.44,8.44,0,0,0,.09-1C28.09,3,28.08,2.56,28.08,2.14Z" transform="translate(0.01 0.03)" style="fill:#c065ae"/><path d="M28.08,2.14V3.41a8.44,8.44,0,0,1-.09,1,.4.4,0,0,1-.49.43,1.25,1.25,0,0,0-.35.13H25.49V4.76h1c.63,0,.76-.13.79-.77s.1-1.25.15-1.88h.32Z" transform="translate(0.01 0.03)" style="fill:#a8499b"/><path d="M25.49,4.76V4.9H23.13V4.76Z" transform="translate(0.01 0.03)" style="fill:#9e4094"/><path d="M23.13,4.76V4.9H22.5V4.76Z" transform="translate(0.01 0.03)" style="fill:#852b82"/><path d="M23.43,6.12V6.2l-.06,0Z" transform="translate(0.01 0.03)" style="fill:#d077b7"/><path d="M21.79,1.88h.95V2.1H19c.57-.08,1.13-.17,1.69-.22Z" transform="translate(0.01 0.03)" style="fill:#b85ca9"/><path d="M26.12,40.53l1.25.16h.79a1.3,1.3,0,0,1-1.11.69,4.2,4.2,0,0,0-2.42,1.06,2.29,2.29,0,0,0-.32.43A3.52,3.52,0,0,1,22.54,41a6.92,6.92,0,0,1-.28-.76,1.77,1.77,0,0,1,.31.15,1.45,1.45,0,0,0,1.69.23,1.4,1.4,0,0,1,.86,0A3.06,3.06,0,0,0,26.12,40.53Z" transform="translate(0.01 0.03)" style="fill:#a24497"/><path d="M6.47,23.5l2.75.31V24L9,25l-.15.24L7.71,25.1a.62.62,0,0,0-.33,0A1.83,1.83,0,0,1,6,25.25c.14-.49.29-1,.43-1.45A1.21,1.21,0,0,0,6.47,23.5Z" transform="translate(0.01 0.03)" style="fill:#7a247a"/><path d="M30.83,2.13h1.28V4c0,.63,0,.79-.79.78H31l-.16-.08a1.75,1.75,0,0,0-.12-.32,1.68,1.68,0,0,1-.15-1.48A7.83,7.83,0,0,1,30.83,2.13Z" transform="translate(0.01 0.03)" style="fill:#f0bad8"/><path d="M43,15.16l.78-.62c.43.14.54.1.63-.34s.15-.89.24-1.33c.06-.26.09-.57.45-.61a8.73,8.73,0,0,1,.67,3.6c-.12.07-.3.11-.34.21a1.13,1.13,0,0,1-1.13.87s0,0-.08.08c-.18-.46-.58-.51-1-.53a.4.4,0,0,0-.15-.29c-.3-.18-.29-.43-.17-.71C43,15.38,43,15.27,43,15.16Z" transform="translate(0.01 0.03)" style="fill:#5d1560"/><path d="M44.25,17s0-.09.08-.08a1.13,1.13,0,0,0,1.13-.87c0-.1.22-.14.34-.21v4.65l-.75-.82-.41-.46c-.11-.13-.23-.25-.35-.37Z" transform="translate(0.01 0.03)" style="fill:#480d4d"/><path d="M45.85,17V16h.22v1Z" transform="translate(0.01 0.03)" style="fill:#df90c1"/><path d="M45.8,20.51V18.23H46v1.34c0,.37-.06.74-.08,1.1l-.21.22Z" transform="translate(0.01 0.03)" style="fill:#b85ca9"/><path d="M45.33,22.47l.4-1s.12,0,.13.07A1.33,1.33,0,0,1,45.33,22.47Z" transform="translate(0.01 0.03)" style="fill:#852b82"/><path d="M16.6,29.16h.16l-.08.11Z" transform="translate(0.01 0.03)" style="fill:#9e4094"/><path d="M20.22,13.6a20.49,20.49,0,0,1-2.48-.1A4.18,4.18,0,0,1,16.61,13a5.72,5.72,0,0,1-1.55-2,3.89,3.89,0,0,1,.53-4,2.66,2.66,0,0,1,.46-.35c.07,0,.15.08.22.07a1.76,1.76,0,0,1,1.82,1.34c.15.39.25.79.39,1.18.27.78.55,1.55.82,2.33s.12,1.54.91,2Z" transform="translate(0.01 0.03)" style="fill:#b85ca9"/><path d="M20.22,13.6h0c-.79-.42-.67-1.28-.91-2s-.55-1.55-.82-2.33c-.14-.39-.24-.79-.39-1.18a1.76,1.76,0,0,0-1.82-1.34.94.94,0,0,1-.22-.07,3.07,3.07,0,0,1,.93-.3h3.28a.64.64,0,0,1,.58.38l.72,1.43a.56.56,0,0,0-.3.73v0c.18.68.36,1.37.59,2s.43,1.07.65,1.59a.47.47,0,0,1,.06.15.64.64,0,0,0,.43.76.23.23,0,0,0,0,.14Z" transform="translate(0.01 0.03)" style="fill:#c065ae"/><path d="M44.25,17v2.62H44a6.64,6.64,0,0,0-.48-1.05A2.86,2.86,0,0,0,41,17.45H38.74a2,2,0,0,1-1-.25,2.5,2.5,0,0,0-1.38-.35H31.17a3,3,0,0,0-.42.06l-5.59-.07v-.28H43.25C43.67,16.51,44.07,16.56,44.25,17Z" transform="translate(0.01 0.03)" style="fill:#f2c2db"/><path d="M23.13,4.76H23a8.13,8.13,0,0,0,.08-2.65h1.1a3.19,3.19,0,0,0,.26,2.25,1,1,0,0,1,0,.41Z" transform="translate(0.01 0.03)" style="fill:#7a247a"/><path d="M22.74,2.11V1.89h.15v.24Z" transform="translate(0.01 0.03)" style="fill:#d885be"/><path d="M30.83,2.13c-.09.26-.19.52-.27.79a1.68,1.68,0,0,0,.15,1.48,1.75,1.75,0,0,1,.12.32h-.27c-.73,0-.88-.18-1-.9a4.37,4.37,0,0,1,.08-1.69Z" transform="translate(0.01 0.03)" style="fill:#e59bc7"/><path d="M27.77,2.11H24.84L25,1.86h2.75Z" transform="translate(0.01 0.03)" style="fill:#f0bad8"/><path d="M25,1.84l-.19.24-.69,0h-1.1c0-.22.1-.22.26-.23l.92-.07Z" transform="translate(0.01 0.03)" style="fill:#d885be"/><path d="M23.14,38.26c.2.26.4.53.61.79a1.17,1.17,0,0,0-.37.08c-.44.2-.87.42-1.3.64-.33-.8-.66-1.59-1-2.39-.12-.36-.23-.72-.34-1.08a3.92,3.92,0,0,1,1,.09.33.33,0,0,1,.22.18c.23.44.41.91.67,1.33C22.71,38.06,23,38.14,23.14,38.26Z" transform="translate(0.01 0.03)" style="fill:#93358c"/><path d="M22.08,39.76c.43-.22.86-.44,1.3-.64a1.17,1.17,0,0,1,.37-.08,4.33,4.33,0,0,0,1.83,1.27l.54.21a3.06,3.06,0,0,1-1,.08,1.4,1.4,0,0,0-.86,0,1.45,1.45,0,0,1-1.69-.23,1.77,1.77,0,0,0-.31-.15Z" transform="translate(0.01 0.03)" style="fill:#9e4094"/><path d="M46.08,18.22h-.22V17h.24v1.1Z" transform="translate(0.01 0.03)" style="fill:#d077b7"/><path d="M30.76,16.88a3,3,0,0,1,.42-.06h5.19a2.5,2.5,0,0,1,1.38.35,2,2,0,0,0,1,.25H41a2.86,2.86,0,0,1,2.46,1.14A6.64,6.64,0,0,1,44,19.61V20A1.79,1.79,0,0,1,42.59,20c-.59-.16-1.19-.25-1.78-.42-.79-.23-1.57-.52-2.36-.74-.39-.11-.8-.11-1.19-.2-1.46-.31-2.91-.65-4.37-.95-.55-.11-1.1-.16-1.66-.22S30.65,17.31,30.76,16.88Z" transform="translate(0.01 0.03)" style="fill:#d885be"/><path d="M42.47,16.5h-.08v-.74c-.06-.1-.1-.27-.17-.28H40.74l.33-.26,2-.06a2,2,0,0,1-.09.33c-.12.28-.13.53.17.71.08.05.1.19.15.29h-.83Z" transform="translate(0.01 0.03)" style="fill:#500e53"/><path d="M3.53,23c-.29.26-.52.09-.75-.11a2.19,2.19,0,0,1-.55-1.44,2.84,2.84,0,0,1,.35-1.91c.11-.17.34-.26.51-.39a.84.84,0,0,1,.66.61c.13.49.2,1,.3,1.49Z" transform="translate(0.01 0.03)" style="fill:#7a247a"/><path d="M4.05,21.2c-.1-.5-.17-1-.3-1.49a.84.84,0,0,0-.66-.61c.42-.17.65.09.84.38a3,3,0,0,1,.32,1.73Z" transform="translate(0.01 0.03)" style="fill:#e59bc7"/><path d="M4.05,21.2h.2c-.12.5-.24,1-.39,1.49,0,.11-.21.17-.33.25C3.71,22.37,3.88,21.76,4.05,21.2Z" transform="translate(0.01 0.03)" style="fill:#b85ca9"/><path d="M40.74,15.48h1.48c.07,0,.11.18.17.28h-.73c-.62,0-1.24.1-1.85.12s-1.51,0-2.27,0c-.49,0-1,0-1.2.62H32.25a.78.78,0,0,1,.74-.62c1-.05,2-.11,3-.15h2.15c.06,0,.12-.09.19-.13h.15c.09,0,.17.13.26.13a3.89,3.89,0,0,0,.76-.05l.63-.08h.16l.24-.08Z" transform="translate(0.01 0.03)" style="fill:#5d1560"/><path d="M40.11,15.56l-.63.08c-.25,0-.51,0-.76,0-.09,0-.17-.09-.26-.13Z" transform="translate(0.01 0.03)" style="fill:#500e53"/><path d="M40.51,15.48l-.24.08Z" transform="translate(0.01 0.03)" style="fill:#500e53"/><path d="M10.94,21.06l-.24.08Z" transform="translate(0.01 0.03)" style="fill:#852b82"/><path d="M9.22,24v-.23c.08-.5.15-1,.22-1.49a5.84,5.84,0,0,0,0-1.11h.07l.2.07c-.08.75-.17,1.5-.25,2.26V24H9.22Z" transform="translate(0.01 0.03)" style="fill:#c569b0"/><path d="M9.22,24h.2c-.13.37-.25.74-.37,1.11L9,25Z" transform="translate(0.01 0.03)" style="fill:#a8499b"/><path d="M25.17,2.12h1.34a4.13,4.13,0,0,0-.07.49c0,.72,0,1.45.07,2.17h-1A6.87,6.87,0,0,0,25.17,2.12Z" transform="translate(0.01 0.03)" style="fill:#93358c"/><path d="M26.51,4.76c0-.72-.06-1.45-.07-2.17a4.13,4.13,0,0,1,.07-.49h.94c0,.63-.12,1.25-.15,1.88S27.14,4.76,26.51,4.76Z" transform="translate(0.01 0.03)" style="fill:#9e4094"/><path d="M25.17,2.12a6.9,6.9,0,0,1,.31,2.67h-1a1,1,0,0,0,0-.41,3.19,3.19,0,0,1-.26-2.25l.69,0Z" transform="translate(0.01 0.03)" style="fill:#852b82"/><path d="M36.33,16.5c.2-.59.71-.61,1.2-.62H39.8c.76,0,1.23-.09,1.85-.12h.73v.71Z" transform="translate(0.01 0.03)" style="fill:#671968"/><path d="M42.47,16.5Z" transform="translate(0.01 0.03)" style="fill:#df90c1"/><path d="M63,14.46V24c0,3.62,1.61,5.16,3.77,5.16,2.4,0,3.93-1.59,3.93-5.16V14.46h2.12v9.43c0,5-2.62,7-6.12,7-3.32,0-5.81-1.9-5.81-6.91V14.46Z" transform="translate(0.01 0.03)" style="fill:#fff"/><path d="M76.36,22.16c0-1.2,0-2.18-.1-3.14h1.87l.12,1.92h0a4.28,4.28,0,0,1,3.84-2.18c1.61,0,4.11,1,4.11,4.94v6.94H84.13v-6.7c0-1.87-.69-3.43-2.69-3.43a3,3,0,0,0-2.83,2.16,3.17,3.17,0,0,0-.14,1v7H76.36Z" transform="translate(0.01 0.03)" style="fill:#fff"/><path d="M92,15.76a1.31,1.31,0,0,1-2.62,0,1.28,1.28,0,0,1,1.32-1.32A1.25,1.25,0,0,1,92,15.76ZM89.68,30.64V19h2.11V30.64Z" transform="translate(0.01 0.03)" style="fill:#fff"/><path d="M95.51,30.64v-10H93.88V19h1.63V18.4c0-3.08,1.8-5.07,5.06-5.07a5.82,5.82,0,0,1,3,.77l-.6,1.61a4.4,4.4,0,0,0-2.44-.68c-2.24,0-2.88,1.57-2.88,3.41V19h6.74V30.64h-2.09v-10H97.6v10Z" transform="translate(0.01 0.03)" style="fill:#fff"/><path d="M109,25.21a3.72,3.72,0,0,0,4,4,7.56,7.56,0,0,0,3.22-.6l.36,1.52a9.5,9.5,0,0,1-3.86.72c-3.58,0-5.72-2.36-5.72-5.86s2.07-6.26,5.45-6.26c3.79,0,4.8,3.33,4.8,5.47a8.79,8.79,0,0,1-.07,1Zm6.19-1.51c0-1.34-.55-3.43-2.93-3.43-2.13,0-3.07,2-3.24,3.43Z" transform="translate(0.01 0.03)" style="fill:#fff"/><path d="M129.9,13.6v14c0,1,0,2.2.1,3h-1.9l-.1-2h0a4.3,4.3,0,0,1-4,2.28c-2.81,0-5-2.38-5-5.9,0-3.87,2.37-6.24,5.21-6.24a3.9,3.9,0,0,1,3.5,1.77h.05V13.6Zm-2.11,10.15a3.8,3.8,0,0,0-.1-.89,3.11,3.11,0,0,0-3-2.45c-2.18,0-3.48,1.92-3.48,4.49,0,2.35,1.16,4.3,3.44,4.3a3.17,3.17,0,0,0,3.09-2.52,3.82,3.82,0,0,0,.1-.92Z" transform="translate(0.01 0.03)" style="fill:#fff"/><path d="M140.65,16.23h-4.92V14.46h12v1.77h-5V30.64h-2.11Z" transform="translate(0.01 0.03)" style="fill:#fff"/><path d="M148.91,25.21a3.72,3.72,0,0,0,4,4,7.6,7.6,0,0,0,3.22-.6l.36,1.52a9.56,9.56,0,0,1-3.87.72c-3.57,0-5.71-2.36-5.71-5.86s2.07-6.26,5.45-6.26c3.79,0,4.8,3.33,4.8,5.47a8.79,8.79,0,0,1-.07,1Zm6.19-1.51c0-1.34-.55-3.43-2.93-3.43-2.13,0-3.07,2-3.24,3.43Z" transform="translate(0.01 0.03)" style="fill:#fff"/><path d="M159.47,28.48a5.61,5.61,0,0,0,2.78.84c1.54,0,2.26-.77,2.26-1.73s-.6-1.56-2.16-2.14c-2.09-.74-3.07-1.9-3.07-3.29,0-1.87,1.51-3.4,4-3.4a5.74,5.74,0,0,1,2.86.72L165.61,21a4.46,4.46,0,0,0-2.37-.67c-1.25,0-2,.72-2,1.58s.7,1.4,2.21,2c2,.77,3.05,1.78,3.05,3.51,0,2-1.59,3.48-4.35,3.48a6.6,6.6,0,0,1-3.26-.8Z" transform="translate(0.01 0.03)" style="fill:#fff"/><path d="M171.8,15.68V19h3v1.61h-3v6.26c0,1.44.41,2.26,1.59,2.26a4.28,4.28,0,0,0,1.22-.15l.1,1.59a5.16,5.16,0,0,1-1.88.29,3,3,0,0,1-2.28-.89,4.38,4.38,0,0,1-.81-3V20.63h-1.8V19h1.8V16.23Z" transform="translate(0.01 0.03)" style="fill:#fff"/><path d="M190.74,23.05h-6.29v5.83h7v1.76h-9.1V14.46h8.74v1.75h-6.65v5.11h6.29Z" transform="translate(0.01 0.03)" style="fill:#fff"/><path d="M194.1,22.16c0-1.2,0-2.18-.1-3.14h1.87l.12,1.92h0a4.28,4.28,0,0,1,3.84-2.18c1.61,0,4.11,1,4.11,4.94v6.94h-2.11v-6.7c0-1.87-.7-3.43-2.69-3.43a3,3,0,0,0-2.84,2.16,3.17,3.17,0,0,0-.14,1v7H194.1Z" transform="translate(0.01 0.03)" style="fill:#fff"/><path d="M217.43,19c-.05.84-.1,1.78-.1,3.19V29c0,2.66-.53,4.29-1.66,5.3a6.12,6.12,0,0,1-4.22,1.39,7.48,7.48,0,0,1-3.87-1l.53-1.61a6.56,6.56,0,0,0,3.41.92c2.16,0,3.75-1.13,3.75-4.06v-1.3h-.05a4.16,4.16,0,0,1-3.7,1.95c-2.88,0-4.94-2.45-4.94-5.67,0-3.93,2.57-6.16,5.23-6.16a3.84,3.84,0,0,1,3.62,2h0l.1-1.75Zm-2.19,4.58a2.91,2.91,0,0,0-.12-1,3,3,0,0,0-3-2.23c-2,0-3.46,1.71-3.46,4.39,0,2.28,1.16,4.18,3.44,4.18a3.08,3.08,0,0,0,2.92-2.16,3.69,3.69,0,0,0,.17-1.13Z" transform="translate(0.01 0.03)" style="fill:#fff"/><path d="M223,15.76a1.31,1.31,0,0,1-2.61,0,1.28,1.28,0,0,1,1.32-1.32A1.25,1.25,0,0,1,223,15.76Zm-2.35,14.88V19h2.11V30.64Z" transform="translate(0.01 0.03)" style="fill:#fff"/><path d="M226.31,22.16c0-1.2,0-2.18-.1-3.14h1.87l.12,1.92h.05a4.28,4.28,0,0,1,3.84-2.18c1.61,0,4.1,1,4.1,4.94v6.94h-2.11v-6.7c0-1.87-.69-3.43-2.69-3.43a3,3,0,0,0-2.83,2.16,3.17,3.17,0,0,0-.14,1v7h-2.11Z" transform="translate(0.01 0.03)" style="fill:#fff"/><path d="M240.8,25.21a3.72,3.72,0,0,0,4,4,7.54,7.54,0,0,0,3.21-.6l.36,1.52a9.46,9.46,0,0,1-3.86.72c-3.58,0-5.71-2.36-5.71-5.86s2.06-6.26,5.44-6.26c3.8,0,4.8,3.33,4.8,5.47a6.87,6.87,0,0,1-.07,1ZM247,23.7c0-1.34-.55-3.43-2.92-3.43-2.14,0-3.08,2-3.24,3.43Z" transform="translate(0.01 0.03)" style="fill:#fff"/></svg>