<svg id="Layer_1" data-name="Layer 1" xmlns="http://www.w3.org/2000/svg" viewBox="0 0 168.37 43.39"><text x="-761.67" y="-454.24"/><path d="M826.12,475.71a9.71,9.71,0,0,1-4,.72c-4.28,0-7.5-2.7-7.5-7.67a7.55,7.55,0,0,1,7.92-8,8.12,8.12,0,0,1,3.6.67l-.47,1.6a7.12,7.12,0,0,0-3.06-.63c-3.56,0-5.92,2.27-5.92,6.26,0,3.71,2.14,6.1,5.83,6.1a7.92,7.92,0,0,0,3.2-.63Z" transform="translate(-761.67 -454.24)"/><path d="M838.11,470.67c0,4-2.79,5.78-5.42,5.78-3,0-5.22-2.16-5.22-5.6,0-3.65,2.38-5.79,5.4-5.79S838.11,467.34,838.11,470.67Zm-8.64.11c0,2.39,1.37,4.19,3.31,4.19s3.31-1.78,3.31-4.23c0-1.85-.92-4.19-3.27-4.19S829.47,468.71,829.47,470.78Z" transform="translate(-761.67 -454.24)"/><path d="M840.61,468.71c0-1.28,0-2.39-.09-3.4h1.73l.07,2.14h.09a3.27,3.27,0,0,1,3-2.39,2.4,2.4,0,0,1,.57.07V467a2.72,2.72,0,0,0-3.33,2.48,5,5,0,0,0-.09.92v5.8h-2Z" transform="translate(-761.67 -454.24)"/><path d="M848.84,471.12a3.49,3.49,0,0,0,3.74,3.78,7.29,7.29,0,0,0,3-.56l.33,1.41a8.69,8.69,0,0,1-3.62.68c-3.35,0-5.36-2.21-5.36-5.49s1.94-5.88,5.11-5.88c3.56,0,4.5,3.13,4.5,5.14a8.38,8.38,0,0,1-.06.92Zm5.81-1.42c0-1.26-.52-3.22-2.75-3.22-2,0-2.88,1.85-3,3.22Z" transform="translate(-761.67 -454.24)"/><path d="M876.36,478.43c-2-.54-4.05-1.14-5.8-1.75a2.76,2.76,0,0,0-.93-.23c-3.6-.13-6.68-2.79-6.68-7.67s3-8,7.07-8,6.79,3.19,6.79,7.67c0,3.9-1.8,6.39-4.32,7.27v.09c1.51.38,3.15.74,4.44,1Zm-1.62-9.88c0-3-1.57-6.16-4.79-6.16s-4.93,3.06-4.91,6.34,1.76,6.12,4.82,6.12S874.74,472,874.74,468.55Z" transform="translate(-761.67 -454.24)"/><path d="M888.47,473.23c0,1.13,0,2.12.09,3H886.8l-.11-1.77h-.05a4.09,4.09,0,0,1-3.6,2c-1.71,0-3.75-.94-3.75-4.77v-6.37h2v6c0,2.07.63,3.47,2.43,3.47a2.87,2.87,0,0,0,2.61-1.8,2.93,2.93,0,0,0,.18-1v-6.69h2Z" transform="translate(-761.67 -454.24)"/><path d="M897.78,476.2l-.16-1.37h-.06a4.05,4.05,0,0,1-3.33,1.62,3.11,3.11,0,0,1-3.34-3.13c0-2.63,2.34-4.07,6.55-4.05v-.22a2.24,2.24,0,0,0-2.47-2.52,5.42,5.42,0,0,0-2.84.81l-.45-1.31a6.82,6.82,0,0,1,3.58-1c3.33,0,4.14,2.28,4.14,4.46v4.07a15.8,15.8,0,0,0,.18,2.61Zm-.29-5.55c-2.16,0-4.61.33-4.61,2.45a1.75,1.75,0,0,0,1.86,1.89,2.72,2.72,0,0,0,2.64-1.82,2.39,2.39,0,0,0,.11-.63Z" transform="translate(-761.67 -454.24)"/><path d="M902.59,460.22h2v16h-2Z" transform="translate(-761.67 -454.24)"/><path d="M910.11,462.25a1.23,1.23,0,0,1-2.45,0,1.2,1.2,0,0,1,1.23-1.24A1.18,1.18,0,0,1,910.11,462.25ZM907.9,476.2V465.31h2V476.2Z" transform="translate(-761.67 -454.24)"/><path d="M915.56,462.18v3.13h2.83v1.51h-2.83v5.87c0,1.35.38,2.12,1.48,2.12a4.28,4.28,0,0,0,1.15-.14l.09,1.49a4.79,4.79,0,0,1-1.76.27,2.76,2.76,0,0,1-2.14-.83,4.07,4.07,0,0,1-.76-2.84v-5.94h-1.69v-1.51h1.69V462.7Z" transform="translate(-761.67 -454.24)"/><path d="M921.54,465.31l2.38,6.44c.25.72.52,1.57.7,2.23h0c.2-.66.43-1.49.7-2.28l2.16-6.39h2.09l-3,7.77c-1.42,3.73-2.39,5.65-3.74,6.82a5.39,5.39,0,0,1-2.43,1.28l-.49-1.67a5.24,5.24,0,0,0,1.73-1,6.06,6.06,0,0,0,1.66-2.21,1.43,1.43,0,0,0,.16-.47,1.65,1.65,0,0,0-.13-.52l-4-10Z" transform="translate(-761.67 -454.24)"/><path d="M816.73,482.39v5.39c0,2,.91,2.91,2.12,2.91s2.22-.9,2.22-2.91v-5.39h1.19v5.31c0,2.8-1.48,3.94-3.45,3.94s-3.27-1.06-3.27-3.88v-5.37Z" transform="translate(-761.67 -454.24)"/><path d="M824.25,486.73c0-.68,0-1.23,0-1.77h1l.07,1.08h0a2.4,2.4,0,0,1,2.16-1.23c.9,0,2.31.54,2.31,2.78v3.91h-1.19v-3.77c0-1.05-.39-1.93-1.52-1.93a1.68,1.68,0,0,0-1.59,1.21,1.84,1.84,0,0,0-.08.56v3.93h-1.19Z" transform="translate(-761.67 -454.24)"/><path d="M833.07,483.12a.71.71,0,0,1-.76.73.7.7,0,0,1-.71-.73.73.73,0,0,1,.74-.74A.71.71,0,0,1,833.07,483.12Zm-1.33,8.38V485h1.19v6.54Z" transform="translate(-761.67 -454.24)"/><path d="M835,491.5v-5.63h-.91V485H835v-.35a2.62,2.62,0,0,1,2.85-2.85,3.34,3.34,0,0,1,1.67.43l-.34.91a2.46,2.46,0,0,0-1.38-.38c-1.26,0-1.62.88-1.62,1.92V485H840v6.54h-1.17v-5.63H836.2v5.63Z" transform="translate(-761.67 -454.24)"/><path d="M842.63,488.44a2.09,2.09,0,0,0,2.24,2.27,4.48,4.48,0,0,0,1.81-.33l.2.85a5.32,5.32,0,0,1-2.17.4,3,3,0,0,1-3.22-3.29c0-2,1.16-3.53,3.07-3.53,2.13,0,2.7,1.88,2.7,3.08a5.29,5.29,0,0,1,0,.55Zm3.48-.85a1.7,1.7,0,0,0-1.65-1.93,2,2,0,0,0-1.82,1.93Z" transform="translate(-761.67 -454.24)"/><path d="M854.37,481.91v7.9c0,.58,0,1.24.06,1.69h-1.07l-.06-1.14h0a2.42,2.42,0,0,1-2.23,1.28c-1.58,0-2.8-1.33-2.8-3.32,0-2.17,1.34-3.51,2.93-3.51a2.2,2.2,0,0,1,2,1h0v-3.9Zm-1.19,5.71a2.12,2.12,0,0,0,0-.5,1.76,1.76,0,0,0-1.72-1.38c-1.22,0-1.95,1.08-1.95,2.53s.64,2.42,1.93,2.42a1.8,1.8,0,0,0,1.74-1.42,2.1,2.1,0,0,0,0-.51Z" transform="translate(-761.67 -454.24)"/><path d="M860.42,483.39h-2.77v-1h6.74v1h-2.78v8.11h-1.19Z" transform="translate(-761.67 -454.24)"/><path d="M865.06,488.44a2.1,2.1,0,0,0,2.24,2.27,4.41,4.41,0,0,0,1.81-.33l.21.85a5.33,5.33,0,0,1-2.18.4,3,3,0,0,1-3.21-3.29c0-2,1.16-3.53,3.06-3.53,2.14,0,2.7,1.88,2.7,3.08a3.45,3.45,0,0,1,0,.55Zm3.49-.85a1.7,1.7,0,0,0-1.65-1.93,2,2,0,0,0-1.82,1.93Z" transform="translate(-761.67 -454.24)"/><path d="M871,490.28a3.1,3.1,0,0,0,1.57.47c.86,0,1.27-.43,1.27-1s-.34-.88-1.22-1.2c-1.17-.42-1.73-1.07-1.73-1.85a2,2,0,0,1,2.26-1.92,3.25,3.25,0,0,1,1.61.41l-.3.86a2.58,2.58,0,0,0-1.34-.38c-.7,0-1.09.41-1.09.89s.39.79,1.24,1.11c1.13.43,1.72,1,1.72,2,0,1.15-.9,2-2.45,2a3.76,3.76,0,0,1-1.84-.44Z" transform="translate(-761.67 -454.24)"/><path d="M877.94,483.08V485h1.7v.91h-1.7v3.52c0,.81.23,1.27.89,1.27a2.7,2.7,0,0,0,.69-.08l.06.89a3.06,3.06,0,0,1-1.06.16,1.62,1.62,0,0,1-1.28-.5,2.4,2.4,0,0,1-.46-1.7v-3.56h-1V485h1v-1.57Z" transform="translate(-761.67 -454.24)"/><path d="M883.88,482.5a14.28,14.28,0,0,1,2.26-.17,3.77,3.77,0,0,1,2.55.75,2.47,2.47,0,0,1,.8,1.91,2.67,2.67,0,0,1-.71,1.94,3.77,3.77,0,0,1-2.78,1,3.88,3.88,0,0,1-.94-.08v3.65h-1.18Zm1.18,4.39a3.75,3.75,0,0,0,1,.1c1.42,0,2.28-.69,2.28-1.95s-.85-1.78-2.15-1.78a5.19,5.19,0,0,0-1.1.09Z" transform="translate(-761.67 -454.24)"/><path d="M891,481.91h1.19v9.59H891Z" transform="translate(-761.67 -454.24)"/><path d="M897.76,491.5l-.09-.83h0a2.39,2.39,0,0,1-2,1,1.86,1.86,0,0,1-2-1.87c0-1.58,1.4-2.45,3.93-2.43v-.14a1.35,1.35,0,0,0-1.49-1.51,3.22,3.22,0,0,0-1.7.49l-.27-.79a4.06,4.06,0,0,1,2.15-.58c2,0,2.48,1.37,2.48,2.68v2.44a9.35,9.35,0,0,0,.11,1.57Zm-.18-3.34c-1.29,0-2.76.2-2.76,1.47a1.05,1.05,0,0,0,1.12,1.14,1.62,1.62,0,0,0,1.58-1.1,1.19,1.19,0,0,0,.06-.37Z" transform="translate(-761.67 -454.24)"/><path d="M902,483.08V485h1.71v.91H902v3.52c0,.81.23,1.27.9,1.27a2.55,2.55,0,0,0,.68-.08l.06.89a3,3,0,0,1-1,.16,1.64,1.64,0,0,1-1.29-.5,2.4,2.4,0,0,1-.46-1.7v-3.56h-1V485h1v-1.57Z" transform="translate(-761.67 -454.24)"/><path d="M905.18,491.5v-5.63h-.91V485h.91v-.31a3.08,3.08,0,0,1,.76-2.28,2.29,2.29,0,0,1,1.59-.61,2.68,2.68,0,0,1,1,.19l-.17.92a1.76,1.76,0,0,0-.75-.15c-1,0-1.27.89-1.27,1.89V485h1.58v.91h-1.58v5.63Z" transform="translate(-761.67 -454.24)"/><path d="M914.74,488.17a3.19,3.19,0,0,1-3.25,3.47,3.1,3.1,0,0,1-3.13-3.36,3.19,3.19,0,0,1,3.24-3.47A3.1,3.1,0,0,1,914.74,488.17Zm-5.18.07c0,1.43.82,2.51,2,2.51s2-1.06,2-2.53c0-1.11-.56-2.52-2-2.52S909.56,487,909.56,488.24Z" transform="translate(-761.67 -454.24)"/><path d="M916.24,487c0-.77,0-1.43,0-2h1l0,1.28h.05a2,2,0,0,1,1.81-1.43,1.76,1.76,0,0,1,.34,0V486a2.37,2.37,0,0,0-.41,0,1.67,1.67,0,0,0-1.59,1.53,3,3,0,0,0-.06.55v3.49h-1.17Z" transform="translate(-761.67 -454.24)"/><path d="M920.71,486.73c0-.68,0-1.23-.06-1.77h1l.06,1.05h0a2.24,2.24,0,0,1,2.05-1.2,1.93,1.93,0,0,1,1.85,1.31h0a2.68,2.68,0,0,1,.73-.85,2.2,2.2,0,0,1,1.44-.46c.87,0,2.15.57,2.15,2.84v3.85h-1.16v-3.7c0-1.26-.46-2-1.42-2a1.54,1.54,0,0,0-1.4,1.08,1.84,1.84,0,0,0-.1.6v4H924.8v-3.92c0-1-.46-1.8-1.36-1.8A1.63,1.63,0,0,0,922,487a1.85,1.85,0,0,0-.09.58v3.95h-1.16Z" transform="translate(-761.67 -454.24)"/><path d="M797.39,488.67l-1.87,1.95c-.23,0-.43-.11-.43-.41A.36.36,0,0,0,795,490c-.49-.46-1-.92-1.48-1.36-.77-.67-1.55-1.31-2.33-2-.55-.45-1.13-.87-1.64-1.37s-1-1.16-1.49-1.72a12.61,12.61,0,0,0-1.69-1.66c-.67-.49-1-1.35-1.92-1.57,0,0-.07-.07-.11-.11-.32-.33-.65-.65-1-1a.61.61,0,0,1-.09-.2,1.46,1.46,0,0,0-.14-.31c-.44-.51-.89-1-1.35-1.5s-1.15-1.17-1.72-1.75a.31.31,0,0,1-.07-.09c-.24-.35-.45-.72-.71-1s-.55-.51-.78-.8-.68-.86-1.3-.87a.38.38,0,0,1-.18-.09c-.43-.33-.87-.62-1.43-.23,0,0-.12,0-.19,0l-.08-.16v-.54h3.77c.08.13.12.31.24.39.31.21.68.35,1,.57a19.16,19.16,0,0,1,1.93,1.54,10.44,10.44,0,0,1,1.28,1.6c.46.63.82,1.33,1.29,2,.25.33.71.48.8,1,0,.06.14.11.21.16a6.3,6.3,0,0,1,.84.69,28.62,28.62,0,0,1,2,2.07,11.86,11.86,0,0,0,1.44,1.57c.51.51,1,1,1.59,1.46s1.21.9,1.78,1.39,1.25.83,1.82,1.35A12.51,12.51,0,0,0,797.39,488.67Z" transform="translate(-761.67 -454.24)" style="fill:#882e84"/><path d="M775.36,472.39c.07,0,.15,0,.19,0,.56-.39,1-.1,1.43.23a.38.38,0,0,0,.18.09c.62,0,1,.44,1.3.87s.55.51.78.8.47.7.71,1a.31.31,0,0,0,.07.09c.57.58,1.16,1.15,1.72,1.75s.91,1,1.35,1.5a1.46,1.46,0,0,1,.14.31.61.61,0,0,0,.09.2c.32.34.65.66,1,1,0,0,.07.1.11.11.88.22,1.25,1.08,1.92,1.57a12.61,12.61,0,0,1,1.69,1.66c.52.56,1,1.19,1.49,1.72s1.09.92,1.64,1.37c.78.66,1.56,1.3,2.33,2,.5.44,1,.9,1.48,1.36a.36.36,0,0,1,.14.21c0,.3.2.37.43.41l-1,1.09,0-.3c-.48-.16-1.12.1-1.29-.63a.11.11,0,0,0-.09-.06,2.39,2.39,0,0,1-1.45-1,10.78,10.78,0,0,0-1.13-1.11l-.69-.64c-.39-.35-.79-.67-1.16-1a5.79,5.79,0,0,0-1.48-1.4s0,0-.06-.05c-.68-.54-1.12-1.34-1.95-1.72-.09,0-.14-.18-.22-.27-.5-.58-1-1.18-1.51-1.75-.13-.14-.34-.21-.47-.35-.42-.44-.82-.89-1.23-1.34,0,0-.11,0-.15-.06a6.08,6.08,0,0,1-.47-.39,5.05,5.05,0,0,0-.53-.6c-.2-.15-.6-.1-.46-.54,0,0-.09-.13-.15-.16a4.1,4.1,0,0,1-1.77-1.75,1.73,1.73,0,0,0-.38-.43c-.34-.29-.7-.55-1-.84s-.5-.44-.37-.73l-.88-.63a1.43,1.43,0,0,0-.31-.12C775.32,473.33,775.34,472.86,775.36,472.39Z" transform="translate(-761.67 -454.24)" style="fill:#852b82"/><path d="M797.77,460.47a1.86,1.86,0,0,1,.39-.1c.66,0,1.32,0,2,0a3.81,3.81,0,0,1,3.78,2.61c.23.63.57,1.23.86,1.84s.52,1.14.73,1.72a6.79,6.79,0,0,1,.18,1,1.49,1.49,0,0,1-1.33.6h-13.7l-.51,0h-.55l-4.32,0v-.27l1.81,0h12a.41.41,0,0,0-.17-.26,1.21,1.21,0,0,1-.54-1.12,9.52,9.52,0,0,0,.31-1.52c.05-.67.23-1.32.31-2,0-.11-.1-.28-.21-.37a1.54,1.54,0,0,0-.44-.16,3.66,3.66,0,0,0-.07-.94A6.61,6.61,0,0,0,797.77,460.47Z" transform="translate(-761.67 -454.24)" style="fill:#f2c2db"/><path d="M799.81,486.13,798,488c-.42,0-.77,0-.75-.59,0,0-.05-.09-.09-.12-.3-.25-.59-.5-.9-.72s-.46-.21-.65-.35c-.46-.35-.89-.72-1.33-1.08-.87-.7-1.76-1.38-2.6-2.11-.53-.47-1-1-1.49-1.51a39.25,39.25,0,0,0-2.77-2.85,2.41,2.41,0,0,1-.21-.24c-.25-.26-.52-.51-.75-.78-.43-.52-.85-1-1.24-1.58a6.23,6.23,0,0,1-.49-.92,4.06,4.06,0,0,0-.39-.78c-.34-.39-.77-.7-1.08-1.11a4.11,4.11,0,0,0-2.31-1.3c-.11,0-.19-.2-.28-.31h3.54c.05.14.06.33.16.42.41.34.87.62,1.25,1a5.21,5.21,0,0,1,1.11,1.29,2.46,2.46,0,0,0,.72.78c.08.07.18.14.2.23.12.6.66.87,1,1.3s.63.68.95,1,.76.81,1.15,1.21c.22.23.47.44.69.69s.5.7.81,1c.66.64,1.36,1.23,2,1.84.5.43,1,.86,1.53,1.28a11.3,11.3,0,0,0,1,.69c.18.12.43.13.6.26.51.41,1,.85,1.5,1.29.24.22.46.34.76.1C799.63,486,799.74,486.1,799.81,486.13Z" transform="translate(-761.67 -454.24)" style="fill:#93358c"/><path d="M775.29,473.81a1.43,1.43,0,0,1,.31.12l.88.63c-.13.29.13.52.37.73s.7.55,1,.84a1.73,1.73,0,0,1,.38.43,4.1,4.1,0,0,0,1.77,1.75c.06,0,.16.12.15.16-.14.44.26.39.46.54a5.05,5.05,0,0,1,.53.6,6.08,6.08,0,0,0,.47.39s.12,0,.15.06c.41.45.81.9,1.23,1.34.13.14.34.21.47.35.51.57,1,1.17,1.51,1.75.08.09.13.23.22.27.83.38,1.27,1.18,1.95,1.72,0,0,0,0,.06.05a5.79,5.79,0,0,1,1.48,1.4c.37.36.77.68,1.16,1l.69.64a10.78,10.78,0,0,1,1.13,1.11,2.39,2.39,0,0,0,1.45,1,.11.11,0,0,1,.09.06c.17.73.81.47,1.29.63l0,.3-.84.81-1,.37c-.27-.25-.53-.51-.81-.75s-.36-.23-.53-.37-.58-.48-.86-.72a6.53,6.53,0,0,1-.87-.78,8.11,8.11,0,0,0-2.58-2.6c-.05,0-.14-.07-.14-.12,0-.28-.24-.3-.42-.39s-.19-.08-.22-.15c-.28-.71-1-1-1.47-1.5a4.93,4.93,0,0,1-.81-.84,1.69,1.69,0,0,0-.72-.73c-.47-.22-.67-.81-1.23-.9,0,0-.07-.05-.08-.08a1.74,1.74,0,0,0-1-1.12s-.08-.1-.13-.15l-.78-.66a5.59,5.59,0,0,1-.52-.45c-.31-.31-.61-.63-.9-.95a7.91,7.91,0,0,0-.56-.59c-.39-.35-.81-.66-1.21-1a.58.58,0,0,1-.22-.27,1.65,1.65,0,0,0-1.4-1.21Z" transform="translate(-761.67 -454.24)" style="fill:#80287e"/><path d="M765.61,482a2.61,2.61,0,0,1-2.58-1.38,8.87,8.87,0,0,1-1.23-3.7,11.58,11.58,0,0,1,.78-6.34,6.66,6.66,0,0,1,1-1.54,1.73,1.73,0,0,1,1.43-.61,3,3,0,0,1,1.75,1.49,10,10,0,0,1,.69,1.57A13.63,13.63,0,0,1,768,477l-.57,2.53a6.69,6.69,0,0,1-.54,1c-.34.45-.74.84-1.11,1.25h0l-.16.19Zm-2.67-8.84-.24,2a6.69,6.69,0,0,0,.63,3.15,2,2,0,0,0,.95,1.09c1,.2,1.24.1,1.8-.74a3.7,3.7,0,0,0,.47-1.12,8.26,8.26,0,0,0,.26-3.21,7.14,7.14,0,0,0-.78-2.64c-.44-.83-1-1-1.76-.7l0,0,0,0-.53.48c-.08.05-.21.08-.24.15C763.3,472.17,763.13,472.68,762.94,473.18Z" transform="translate(-761.67 -454.24)" style="fill:#6b1f6d"/><path d="M769,467.44a3.12,3.12,0,0,1-.52-1.65,2.49,2.49,0,0,1,1.32-.24H774c.22,0,.44.05.66.07a2.34,2.34,0,0,1,.43.33c.42.48.8,1,1.22,1.48a5.13,5.13,0,0,0,1.89,1.72,2,2,0,0,0,.52.16c.79,0,1.59.05,2.38.08h10.7l6,0-.39.3-.79.08a1.53,1.53,0,0,0-.37-.08l-3.89.08c-.8,0-1.6,0-2.4,0l-3.7.2c-.27,0-.54,0-.8,0-1.27.07-2.54.12-3.81.23a8.27,8.27,0,0,0-1.34.35s0,.07,0,.11c-.61,0-1.23,0-1.84,0a3.4,3.4,0,0,1-2.31-1.31s0,0,0,0c-1.18-1.72-1.36-1.81-3.39-1.79a3.12,3.12,0,0,0-.41-.06h-2.79A2.36,2.36,0,0,1,769,467.44Z" transform="translate(-761.67 -454.24)" style="fill:#39073f"/><path d="M803.83,481.89,802.7,483c-.35.05-.44-.17-.53-.46s-.28-.77-.82-.85a2.93,2.93,0,0,1-1.05-.48c-.64-.39-1.26-.81-1.89-1.21a19.75,19.75,0,0,1-2-1.25,5.14,5.14,0,0,1-1.6-1.83.66.66,0,0,0-.22-.22A6.78,6.78,0,0,1,792.9,475a2.65,2.65,0,0,0-.52-.72c-.45-.4-.94-.75-1.4-1.13-.07-.06-.16-.13-.18-.21-.15-.5-.61-.64-1-.83-.22-.11-.29-.23-.2-.45a6.55,6.55,0,0,1,6,3.06c.36.71.73,1.41,1.06,2.13a3.51,3.51,0,0,0,2.63,2c.64.13,1.32.11,2,.19C802.51,479.23,804,480,803.83,481.89Z" transform="translate(-761.67 -454.24)" style="fill:#a8499b"/><path d="M801.81,484l-1.66,1.67a1.41,1.41,0,0,1-.34-.35,3.85,3.85,0,0,0-1.27-1.33c-.47-.34-1-.59-1.47-.95-.78-.61-1.53-1.26-2.28-1.91s-1.2-1.07-1.78-1.63-1.12-1.13-1.65-1.72c-.39-.41-.73-.87-1.11-1.29s-1-1-1.39-1.46-.75-1-1.16-1.44a6,6,0,0,0-1.75-1.43c-.23-.11-.32-.26-.21-.5h1.89c-.18.38.11.55.36.64a2.47,2.47,0,0,1,1,.72c.4.42.83.81,1.25,1.22.18.18.45.32.53.54.23.64.84.94,1.21,1.45a17.57,17.57,0,0,0,1.21,1.38c.16.16.36.29.51.45s.32.42.5.59.64.54.93.84a6.34,6.34,0,0,0,1.44,1.19c.46.27.87.6,1.3.91l.79.61c.57.4,1.14.8,1.72,1.19A2.37,2.37,0,0,0,801.81,484Z" transform="translate(-761.67 -454.24)" style="fill:#9e4094"/><path d="M780.63,471.68c.09.11.17.27.28.31a4.11,4.11,0,0,1,2.31,1.3c.31.41.74.72,1.08,1.11a4.06,4.06,0,0,1,.39.78,6.23,6.23,0,0,0,.49.92c.39.55.81,1.06,1.24,1.58.23.27.5.52.75.78a2.41,2.41,0,0,0,.21.24,39.25,39.25,0,0,1,2.77,2.85c.5.5,1,1,1.49,1.51.84.73,1.73,1.41,2.6,2.11.44.36.87.73,1.33,1.08.19.14.45.21.65.35s.6.47.9.72c0,0,.09.08.09.12,0,.54.33.61.75.59l-.57.64a12.51,12.51,0,0,1-2.08-1.29c-.57-.52-1.25-.85-1.82-1.35s-1.2-.91-1.78-1.39-1.08-.95-1.59-1.46a11.86,11.86,0,0,1-1.44-1.57,28.62,28.62,0,0,0-2-2.07,6.3,6.3,0,0,0-.84-.69c-.07-.05-.2-.1-.21-.16-.09-.48-.55-.63-.8-1-.47-.62-.83-1.32-1.29-2a10.44,10.44,0,0,0-1.28-1.6,19.16,19.16,0,0,0-1.93-1.54c-.3-.22-.67-.36-1-.57-.12-.08-.16-.26-.24-.39l1.34,0Z" transform="translate(-761.67 -454.24)" style="fill:#8e3289"/><path d="M801.81,484a2.37,2.37,0,0,1-1.46-.61c-.58-.39-1.15-.79-1.72-1.19l-.79-.61c-.43-.31-.84-.64-1.3-.91a6.34,6.34,0,0,1-1.44-1.19c-.29-.3-.63-.55-.93-.84s-.32-.4-.5-.59-.35-.29-.51-.45a17.57,17.57,0,0,1-1.21-1.38c-.37-.51-1-.81-1.21-1.45-.08-.22-.35-.36-.53-.54-.42-.41-.85-.8-1.25-1.22a2.47,2.47,0,0,0-1-.72c-.25-.09-.54-.26-.36-.64h2c-.09.22,0,.34.2.45.4.19.86.33,1,.83,0,.08.11.15.18.21.46.38.95.73,1.4,1.13a2.65,2.65,0,0,1,.52.72,6.78,6.78,0,0,0,1.73,1.69.66.66,0,0,1,.22.22,5.14,5.14,0,0,0,1.6,1.83,19.75,19.75,0,0,0,2,1.25c.63.4,1.25.82,1.89,1.21a2.93,2.93,0,0,0,1.05.48c.54.08.7.45.82.85s.18.51.53.46Z" transform="translate(-761.67 -454.24)" style="fill:#a24497"/><path d="M803.83,481.89c.2-1.85-1.32-2.66-2.59-2.82-.66-.08-1.34-.06-2-.19a3.51,3.51,0,0,1-2.63-2c-.33-.72-.7-1.42-1.06-2.13l1.61.45c.88.24,1.76.47,2.64.73a19,19,0,0,1,2.58.85,5.78,5.78,0,0,0,2.38.89c.3,0,.58.09.85-.09a4.65,4.65,0,0,1-.3,2.39c-.14.25-.27.5-.4.75Z" transform="translate(-761.67 -454.24)" style="fill:#c569b0"/><path d="M785.74,471.68c-.11.24,0,.39.21.5a6,6,0,0,1,1.75,1.43c.41.46.75,1,1.16,1.44s.94,1,1.39,1.46.72.88,1.11,1.29c.53.59,1.08,1.17,1.65,1.72s1.17,1.1,1.78,1.63,1.5,1.3,2.28,1.91c.46.36,1,.61,1.47.95a3.85,3.85,0,0,1,1.27,1.33,1.41,1.41,0,0,0,.34.35l-.34.44c-.07,0-.18-.1-.2-.08-.3.24-.52.12-.76-.1-.49-.44-1-.88-1.5-1.29-.17-.13-.42-.14-.6-.26a11.3,11.3,0,0,1-1-.69c-.52-.42-1-.85-1.53-1.28-.69-.61-1.39-1.2-2-1.84-.31-.29-.53-.67-.81-1s-.47-.46-.69-.69c-.39-.4-.77-.81-1.15-1.21s-.67-.66-.95-1-.87-.7-1-1.3c0-.09-.12-.16-.2-.23a2.46,2.46,0,0,1-.72-.78,5.21,5.21,0,0,0-1.11-1.29c-.38-.36-.84-.64-1.25-1-.1-.09-.11-.28-.16-.42Z" transform="translate(-761.67 -454.24)" style="fill:#993b91"/><path d="M774.66,465.63c-.22,0-.44-.07-.66-.07h-4.16a2.49,2.49,0,0,0-1.32.24,2.15,2.15,0,0,1,.14-.47c.6-1.05,1.21-2.1,1.83-3.14a4.85,4.85,0,0,1,.55-.65c.08.11.15.27.26.32.54.23,1-.09,1.54-.2a.36.36,0,0,0,.11-.32c-.09-.35,0-.46.32-.48a1.69,1.69,0,0,1,.55,0c.5.11,1.06.06,1.48.49a13.76,13.76,0,0,0,1.08.92l-.21.87a1.32,1.32,0,0,0-.24.29,4.73,4.73,0,0,1-1.21,2C774.67,465.46,774.68,465.56,774.66,465.63Z" transform="translate(-761.67 -454.24)" style="fill:#5d1560"/><path d="M776.39,490.69c-.46-.78-.88-1.6-1.39-2.35a6.36,6.36,0,0,0-2.87-2.27,2,2,0,0,1,.41-.09h3.18l1,0a8.38,8.38,0,0,1,.87.18c.39.13.76.31,1.15.47.5.38,1,.72,1.49,1.14a9.42,9.42,0,0,1,1,1.2c.19.26.37.54.55.8v.68a.58.58,0,0,1-.14,0c-.88,0-1.77,0-2.64-.08a10.27,10.27,0,0,1-1.63-.34.48.48,0,0,0-.59.23A3.06,3.06,0,0,1,776.39,490.69Z" transform="translate(-761.67 -454.24)" style="fill:#410947"/><path d="M767.94,484.34l-.09-.19a3,3,0,0,1,1.42-1c.13-.05.31,0,.43-.06a16.93,16.93,0,0,0,1.78-1,6.89,6.89,0,0,0,1.14-1.09c.22-.24.34-.56.56-.8a2.22,2.22,0,0,0,.51-1.35c.11-1,.13-2,.17-3a3.49,3.49,0,0,0,0-.79c-.11-.75-.29-1.48-.34-2.23a2.19,2.19,0,0,0-.63-1.34.32.32,0,0,0-.58,0l-.69-.81-.47-.32-.8-.22-.4-.69a7.82,7.82,0,0,1,.66-.63c.49-.38.5-.36.86.15s.79,1.08,1.17,1.64a.41.41,0,0,0,.6.16c.37-.2.79-.34,1-.8,0-.08.18-.11.28-.17l.4,1a10.17,10.17,0,0,0-.68.94.89.89,0,0,0,.26.94c.2.1.4.17.6.26v6.83c-.29,0-.31.21-.3.41s-.08.37-.36.39-.6.27-.61.68a.38.38,0,0,1-.07.21c-.17.23-.36.45-.54.67a.76.76,0,0,1-.23.21c-.58.29-1.18.54-1.75.85a5.23,5.23,0,0,1-1.49.8c-.35.06-.7.09-1.05.13Z" transform="translate(-761.67 -454.24)" style="fill:#410947"/><path d="M771.91,486c-.47-.06-.58-.37-.57-.77h2.23c.5,0,1,0,1.51,0a3.67,3.67,0,0,0,.76-.23l.94-.92.25-.18h.06l.87-.19c.31,0,.63,0,.94.07a6.66,6.66,0,0,1,4.86,3.48c.76,1.31,1.43,2.67,2.14,4a3.58,3.58,0,0,0,2.75,2,8.79,8.79,0,0,0,4.26-.19c0,.32-.17.44-.43.5a7.16,7.16,0,0,1-1,.18c-1,.07-2,.11-3,.13a1.84,1.84,0,0,1-.72-.16,5.45,5.45,0,0,1-2.68-2.51c-.25-.43-.43-.9-.69-1.34-.46-.78-1-1.54-1.43-2.32a7.61,7.61,0,0,0-2-2,3.55,3.55,0,0,0-1.74-.9,1.34,1.34,0,0,0-1.45.53l-.73.69-.37,0a.86.86,0,0,0-.21-.07h-4.31C772.09,485.83,772,485.92,771.91,486Z" transform="translate(-761.67 -454.24)" style="fill:#39073f"/><path d="M772.28,471.63a.32.32,0,0,1,.58,0,2.19,2.19,0,0,1,.63,1.34c0,.75.23,1.48.34,2.23a3.49,3.49,0,0,1,0,.79c0,1-.06,2-.17,3a2.22,2.22,0,0,1-.51,1.35c-.22.24-.34.56-.56.8a6.89,6.89,0,0,1-1.14,1.09,16.93,16.93,0,0,1-1.78,1c-.12.06-.3,0-.43.06a3,3,0,0,0-1.42,1c-.06-.7-.11-1.4-.16-2.1a2.16,2.16,0,0,0,2.09-1l.08-.19h0l.24-.32h0l.29-.32a2.32,2.32,0,0,0,1.82-1.25,4.93,4.93,0,0,0,.79-2.52l.07-1.42-.07-.85A7,7,0,0,0,772.28,471.63Z" transform="translate(-761.67 -454.24)" style="fill:#39073f"/><path d="M773.57,485.19h-2.23c-.72,0-1.43-.06-2.15-.07a1.3,1.3,0,0,1-1.25-.79l.7-.06c.35,0,.7-.07,1.05-.13a5.23,5.23,0,0,0,1.49-.8c.57-.31,1.17-.56,1.75-.85a.76.76,0,0,0,.23-.21c.18-.22.37-.44.54-.67a.38.38,0,0,0,.07-.21c0-.41.2-.66.61-.68s.37-.13.36-.39,0-.41.3-.41c0,1.28,0,2.57,0,3.85A1.77,1.77,0,0,1,773.57,485.19Z" transform="translate(-761.67 -454.24)" style="fill:#480d4d"/><path d="M769.92,469.59l.4.69.82,2.35c.07.47.13.94.19,1.41h-.21l-.16-.63a5.84,5.84,0,0,0-.11-.73c0-.19-.14-.29-.39-.25a3.42,3.42,0,0,1-1,0c-.46-.06-.9-.19-1.42-.31l.26,1.78.07.86v.79l-.06,1,0,.53H768a13.63,13.63,0,0,0-.49-5.5,10,10,0,0,0-.69-1.57,3,3,0,0,0-1.75-1.49c.26,0,.51-.06.77-.06h1.84c.19,0,.39,0,.58.06A2.9,2.9,0,0,1,769.92,469.59Z" transform="translate(-761.67 -454.24)" style="fill:#f0bad8"/><path d="M776.39,490.69a3.06,3.06,0,0,0,.37-.35.48.48,0,0,1,.59-.23,10.27,10.27,0,0,0,1.63.34c.87.07,1.76.06,2.64.08a.58.58,0,0,0,.14,0v-.68l.37.64.47,1.33a3,3,0,0,0-.32.41,1.16,1.16,0,0,1-1.59.66.65.65,0,0,0-.34,0,5.89,5.89,0,0,1-1.32.08,16.28,16.28,0,0,1-1.94-.51l-.54-1.33.12-.11-.21-.13Z" transform="translate(-761.67 -454.24)" style="fill:#480d4d"/><path d="M777.8,485.19a1.34,1.34,0,0,1,1.45-.53,3.55,3.55,0,0,1,1.74.9,7.61,7.61,0,0,1,2,2c.46.78,1,1.54,1.43,2.32.26.44.44.91.69,1.34a5.45,5.45,0,0,0,2.68,2.51,1.84,1.84,0,0,0,.72.16c1,0,2-.06,3-.13a7.16,7.16,0,0,0,1-.18c.26-.06.47-.18.43-.5l.51-.27,0,.78h-.16a6.39,6.39,0,0,1-2.76.57,9.23,9.23,0,0,0-1.66.07,3.16,3.16,0,0,1-2.51-.87,4.12,4.12,0,0,0-1.48-1c-.39-.72-.76-1.45-1.17-2.16s-.91-1.64-1.42-2.43a6.17,6.17,0,0,0-.78-.84,2.31,2.31,0,0,0-.24-.29A5.57,5.57,0,0,0,777.8,485.19Z" transform="translate(-761.67 -454.24)" style="fill:#500e53"/><path d="M782.51,460.36h1.59v-1.17l0,0h0l.63,0h4l.07,0a2.83,2.83,0,0,1-.11.31c-.11.27-.24.53-.36.79l-.74,0-2.58,0-.05,0,.06.05.21.19c.07.12.12.25.19.37a1.41,1.41,0,0,1,.13,1.49,1.2,1.2,0,0,1-1.47.24,1.86,1.86,0,0,1-1-1C783,461.28,782.75,460.82,782.51,460.36Z" transform="translate(-761.67 -454.24)" style="fill:#410947"/><path d="M769.92,469.59a2.9,2.9,0,0,0-1.67-1.15c-.19,0-.39,0-.58-.06l.45-.63h1.56l3,0c.3.17.7.27.88.53a14,14,0,0,1,.85,1.69c-.1.06-.25.09-.28.17-.17.46-.59.6-1,.8a.41.41,0,0,1-.6-.16c-.38-.56-.78-1.09-1.17-1.64s-.37-.53-.86-.15A7.82,7.82,0,0,0,769.92,469.59Z" transform="translate(-761.67 -454.24)" style="fill:#480d4d"/><path d="M777.09,492.42a16.28,16.28,0,0,0,1.94.51,5.89,5.89,0,0,0,1.32-.08.65.65,0,0,1,.34,0,1.16,1.16,0,0,0,1.59-.66,3,3,0,0,1,.32-.41l.07,0,.89,2.54c-.09.27-.27.29-.53.25-.42-.06-.85-.11-1.28-.13a5.67,5.67,0,0,1-.7.06,4.34,4.34,0,0,0-2.36.29l-.25-.28c-.2.13-.3.22-.11.44.06.06,0,.23,0,.36-.27-.57-.55-1.13-.8-1.7C777.36,493.24,777.23,492.83,777.09,492.42Z" transform="translate(-761.67 -454.24)" style="fill:#500e53"/><path d="M783.38,459.18c-.67,0-1.35,0-2,0a1.64,1.64,0,0,1-1.57-1.47,12.34,12.34,0,0,1,0-1.36h.83l3.3,0a.77.77,0,0,1,0,.27,1.58,1.58,0,0,0-.18,1.6c.12.27.21.65-.29.75C783.41,459,783.4,459.12,783.38,459.18Z" transform="translate(-761.67 -454.24)" style="fill:#5d1560"/><path d="M778.33,495.34c0-.13.06-.3,0-.36-.19-.22-.09-.31.11-.44l.25.28a4.34,4.34,0,0,1,2.36-.29,5.67,5.67,0,0,0,.7-.06c.43,0,.86.07,1.28.13.26,0,.44,0,.53-.25l.17.42c-.06,0-.14.07-.15.12-.16.64-.68.84-1.21,1.06s-1,.44-1.4.65l.13.52A3.85,3.85,0,0,1,778.33,495.34Z" transform="translate(-761.67 -454.24)" style="fill:#5d1560"/><path d="M788.88,497.62h-1.72l-1.18-.48a2.29,2.29,0,0,1,.32-.43,4.2,4.2,0,0,1,2.42-1.06,1.3,1.3,0,0,0,1.11-.69l.43,0a6.79,6.79,0,0,0,3.09-.48l-.05.56a4.22,4.22,0,0,0-2.14.93,4.24,4.24,0,0,1-1.17.67,8.65,8.65,0,0,0-1.36.6Z" transform="translate(-761.67 -454.24)" style="fill:#a8499b"/><path d="M769.78,481.06a2.16,2.16,0,0,1-2.09,1l-2.08,0h0l.16-.19h0a.91.91,0,0,0,.33-.1,4.18,4.18,0,0,0,1.48-2.18h.06a1.83,1.83,0,0,0,1.41-.15.61.61,0,0,1,.33,0l1.11.12-.39,1.1h0l-.24.32h0Z" transform="translate(-761.67 -454.24)" style="fill:#671968"/><path d="M796.41,456.38c0,.42,0,.84,0,1.25a1.67,1.67,0,0,1-1.65,1.57h-2.12V459H793c.77,0,.79,0,.79-.78s0-1.25,0-1.88Z" transform="translate(-761.67 -454.24)" style="fill:#df90c1"/><path d="M805.4,464.85a14.44,14.44,0,0,1,1.86,0c1.27.13,1.79,1.06,2.14,2.14.07.21.09.43.14.65-.59-.11-1.17-.23-1.76-.32-.23,0-.36,0-.29.34s.14.82.2,1.23l.07.94c0,.12,0,.25,0,.38h-.22l0-.09a8.7,8.7,0,0,0-.67-3.6A2.7,2.7,0,0,0,805.4,464.85Z" transform="translate(-761.67 -454.24)" style="fill:#f0bad8"/><path d="M797.77,460.47a6.61,6.61,0,0,1,.49,1,3.66,3.66,0,0,1,.07.94l-.33.45a1.45,1.45,0,0,1-1.93-.51,9.19,9.19,0,0,1-.57-1c-.18-.31-.36-.63-.53-.95l2.43,0A1.4,1.4,0,0,1,797.77,460.47Z" transform="translate(-761.67 -454.24)" style="fill:#480d4d"/><path d="M781.1,497.12l-.13-.52c.45-.21.91-.45,1.4-.65s1-.42,1.21-1.06c0-.05.09-.08.14-.12s.09.16.12.25a4,4,0,0,0,2.18,2.43c.05,0,.07.1.11.14l-4.37-.38Z" transform="translate(-761.67 -454.24)" style="fill:#671968"/><path d="M776.38,462.26a13.76,13.76,0,0,1-1.08-.92c-.42-.43-1-.38-1.48-.49a1.69,1.69,0,0,0-.55,0c-.35,0-.41.13-.32.48a.36.36,0,0,1-.11.32c-.51.11-1,.43-1.54.2-.11-.05-.18-.21-.26-.32a3.47,3.47,0,0,1,2.52-1.15l.22,0,4.24,0v.11a5.08,5.08,0,0,0-1,.71A5.37,5.37,0,0,0,776.38,462.26Z" transform="translate(-761.67 -454.24)" style="fill:#671968"/><path d="M788.88,497.62l-.25-.4a8.65,8.65,0,0,1,1.36-.6,4.24,4.24,0,0,0,1.17-.67,4.22,4.22,0,0,1,2.14-.93,2.6,2.6,0,0,1-2.51,2.59C790.15,497.64,789.52,497.62,788.88,497.62Z" transform="translate(-761.67 -454.24)" style="fill:#b85ca9"/><path d="M780.63,456.36h-.83a2.37,2.37,0,0,1,2-2.05,11.56,11.56,0,0,1,1.32-.05c0,.44.1.89.18,1.33a2.57,2.57,0,0,0,.21.52c-.38,0-.76,0-1.14,0C781.76,456.19,781.2,456.28,780.63,456.36Z" transform="translate(-761.67 -454.24)" style="fill:#6b1f6d"/><path d="M809.66,473.88a4.32,4.32,0,0,1-.43,2.32,1.71,1.71,0,0,1-1.53,1c-.42,0-.85,0-1.28,0l.55-.5a1.36,1.36,0,0,0,.53-.95s-.09-.05-.13-.07c0-.19.07-.38.1-.57l.21-.22a1.35,1.35,0,0,0,1-.37A10.11,10.11,0,0,1,809.66,473.88Z" transform="translate(-761.67 -454.24)" style="fill:#7a247a"/><path d="M793.42,492.82l-.51.27a8.79,8.79,0,0,1-4.26.19,3.58,3.58,0,0,1-2.75-2c-.71-1.34-1.38-2.7-2.14-4a6.66,6.66,0,0,0-4.86-3.48c-.31-.05-.63-.05-.94-.07l.08-.27h.23l.08.11.08-.11.27.06a6.64,6.64,0,0,1,4.94,3.15c.9,1.42,1.64,2.94,2.42,4.43a3.56,3.56,0,0,0,2.58,2c.41.07.83.06,1.25.09a7.23,7.23,0,0,0,2.85-.26l1-.37Z" transform="translate(-761.67 -454.24)" style="fill:#a8499b"/><path d="M776.38,462.26a5.37,5.37,0,0,1,.61-1.11,5.08,5.08,0,0,1,1-.71l.17-.13h4a1.57,1.57,0,0,1,.3.05c.24.46.47.92.7,1.38a1.86,1.86,0,0,0,1,1,1.2,1.2,0,0,0,1.47-.24c.07.42-.22.54-.53.64a2.07,2.07,0,0,1-1.88-.72l-.72-1.43a.62.62,0,0,0-.58-.38c-1.09,0-2.19,0-3.28,0a3.26,3.26,0,0,0-.93.3,2.42,2.42,0,0,0-.46.35,3.89,3.89,0,0,0-.53,4,5.79,5.79,0,0,0,1.55,2l-.12.12a3.33,3.33,0,0,1-.46-.36,4.76,4.76,0,0,1-1.53-3.89Z" transform="translate(-761.67 -454.24)" style="fill:#e59bc7"/><path d="M793.05,454.27a3.37,3.37,0,0,1,2.36.44,2.14,2.14,0,0,1,1,1.5l-3.15-.16c0-.14,0-.31.07-.42.26-.4.09-.73-.1-1.08C793.13,454.46,793.09,454.36,793.05,454.27Z" transform="translate(-761.67 -454.24)" style="fill:#f0bad8"/><path d="M807.47,475.12l-.1.57-.4,1-.55.5-.46,0,0-3.35,0-.78c.12.12.24.24.35.37l.41.46.75.82Z" transform="translate(-761.67 -454.24)" style="fill:#410947"/><path d="M795,460.38c.17.32.35.64.53.95a9.19,9.19,0,0,0,.57,1,1.45,1.45,0,0,0,1.93.51c.25.22,0,.33-.07.48a10.32,10.32,0,0,1-1.17-.16,7.32,7.32,0,0,1-.87-.37c-.27-.53-.54-1-.78-1.57a1,1,0,0,0-1-.63h-8l-.74,0-.21-.19v-.08l2.58,0,.74,0,3.6,0a2.88,2.88,0,0,0,.4.09Z" transform="translate(-761.67 -454.24)" style="fill:#f2c2db"/><path d="M793.05,454.27c0,.09.08.19.13.28.19.35.36.68.1,1.08-.08.11,0,.28-.07.42h-2.36l.16-1.78h1.07Z" transform="translate(-761.67 -454.24)" style="fill:#e59bc7"/><path d="M792,460.28l-3.6,0c.12-.26.25-.52.36-.79a2.83,2.83,0,0,0,.11-.31l1.57,0,1.56,0Z" transform="translate(-761.67 -454.24)" style="fill:#500e53"/><path d="M805.4,464.85a2.7,2.7,0,0,1,1.4,1.65c-.36,0-.39.35-.45.61-.09.44-.15.89-.24,1.33s-.2.48-.63.34l.2-1.22a6.79,6.79,0,0,0-.18-1c-.21-.58-.49-1.15-.73-1.72Z" transform="translate(-761.67 -454.24)" style="fill:#6b1f6d"/><path d="M783.38,459.18c0-.06,0-.17,0-.18.5-.1.41-.48.29-.75a1.58,1.58,0,0,1,.18-1.6.77.77,0,0,0,0-.27l.48,0h.15l.16,0a8.13,8.13,0,0,1-.08,2.65h-.47l-.16.14Z" transform="translate(-761.67 -454.24)" style="fill:#671968"/><path d="M783.46,456.12a2.57,2.57,0,0,1-.21-.52c-.08-.44-.13-.89-.18-1.33l1.65,0c0,.1,0,.21,0,.31-.06.52-.33,1-.12,1.56h-1.1Z" transform="translate(-761.67 -454.24)" style="fill:#80287e"/><path d="M792,459.2l-1.56,0a1.76,1.76,0,0,0,.07-.45c0-.78,0-1.56-.07-2.33h.86a4.36,4.36,0,0,0-.08,1.69c.11.72.26.9,1,.9h.27l.16.08v.15Z" transform="translate(-761.67 -454.24)" style="fill:#d077b7"/><path d="M807.69,468.86c-.06-.41-.1-.82-.2-1.23s.06-.38.29-.34c.59.09,1.17.21,1.76.32,0,.31.06.62.1.93Z" transform="translate(-761.67 -454.24)" style="fill:#df90c1"/><path d="M788.57,454.25H790l-.08,1.79-.47,0h-.63c-.11-.2-.22-.4-.31-.6A1.61,1.61,0,0,1,788.57,454.25Z" transform="translate(-761.67 -454.24)" style="fill:#d077b7"/><path d="M807.69,468.86l1.95-.32c0,.47,0,.94,0,1.41l-1.9-.15Z" transform="translate(-761.67 -454.24)" style="fill:#d077b7"/><path d="M784.56,456.12c-.21-.54.06-1,.12-1.56,0-.1,0-.21,0-.31h1c.06.6.11,1.2.16,1.81l-.92.07c-.16,0-.3,0-.26.23v0l-.16,0Z" transform="translate(-761.67 -454.24)" style="fill:#93358c"/><path d="M786.13,497.59s-.06-.12-.11-.14a4,4,0,0,1-2.18-2.43c0-.09-.08-.16-.12-.25l-.16-.42c-.3-.85-.59-1.7-.89-2.54l.1-.19c.32.8.65,1.59,1,2.39l.18.46a6.92,6.92,0,0,0,.28.76,3.52,3.52,0,0,0,1.77,1.91l1.18.48Z" transform="translate(-761.67 -454.24)" style="fill:#df90c1"/><path d="M809.66,471.45v1.1a2.42,2.42,0,0,1-1.67-.22s-.15,0-.23,0v-.78c.33,0,.67,0,1,0S809.37,471.48,809.66,471.45Z" transform="translate(-761.67 -454.24)" style="fill:#9e4094"/><path d="M793.35,494.46a6.79,6.79,0,0,1-3.09.48l-.43,0-.79,0c.08-.07.15-.21.23-.21a8,8,0,0,0,3.65-.81c.12-.06.19-.2.29-.31h.16Z" transform="translate(-761.67 -454.24)" style="fill:#671968"/><path d="M809.66,473.88a10.11,10.11,0,0,0-1,.65,1.35,1.35,0,0,1-1,.37c0-.36.05-.73.08-1.1.31-.12.61-.27.92-.36s.48,0,.7-.07.26.06.28.23Z" transform="translate(-761.67 -454.24)" style="fill:#852b82"/><path d="M809.66,473.6c0-.17,0-.29-.28-.23s-.48,0-.7.07-.61.24-.92.36v-1.49c.08,0,.18,0,.23,0a2.42,2.42,0,0,0,1.67.22Z" transform="translate(-761.67 -454.24)" style="fill:#93358c"/><path d="M805.93,473.88l0,3.35a14.51,14.51,0,0,1-.11,2,2.16,2.16,0,0,1-.92,1.51c.13-.25.26-.5.4-.75a4.65,4.65,0,0,0,.3-2.39c0-1.1,0-2.2,0-3.3,0-.13,0-.26,0-.4Z" transform="translate(-761.67 -454.24)" style="fill:#f0bad8"/><path d="M785.9,456.06l-.16-1.81h1.1a3.31,3.31,0,0,1,0,.44c-.05.46-.11.92-.17,1.37v0Z" transform="translate(-761.67 -454.24)" style="fill:#a24497"/><path d="M789.44,456.06l.47,0h3.3l3.15.16c0,.05,0,.11,0,.17h-6.66l-.31,0Z" transform="translate(-761.67 -454.24)" style="fill:#f2c2db"/><path d="M790.85,456h-.94l.08-1.79h1Z" transform="translate(-761.67 -454.24)" style="fill:#d885be"/><path d="M788.57,454.25a1.61,1.61,0,0,0-.07,1.2c.09.2.2.4.31.6h-1.34l.16-1.8Z" transform="translate(-761.67 -454.24)" style="fill:#b85ca9"/><path d="M807.76,469.8l1.9.15c0,.24,0,.48,0,.72a4.35,4.35,0,0,1-1.9,0l0-.49Z" transform="translate(-761.67 -454.24)" style="fill:#c065ae"/><path d="M807.77,470.67a4.35,4.35,0,0,0,1.9,0c0,.26,0,.52,0,.78-.29,0-.59.07-.89.08s-.67,0-1,0v-.86Z" transform="translate(-761.67 -454.24)" style="fill:#a8499b"/><path d="M787.63,454.25l-.16,1.8h-.78c.06-.45.12-.91.17-1.37a3.31,3.31,0,0,0,0-.44Z" transform="translate(-761.67 -454.24)" style="fill:#a8499b"/><path d="M772.72,467.72l-3,0h-1.56l.54-.17.38-.14a2.36,2.36,0,0,0,.45.08h2.79a3.12,3.12,0,0,1,.41.06Z" transform="translate(-761.67 -454.24)" style="fill:#882e84"/><path d="M771.91,486c.09-.05.18-.14.27-.14h4.31a.86.86,0,0,1,.21.07l0,.13-1,0h-3.18a2,2,0,0,0-.41.09Z" transform="translate(-761.67 -454.24)" style="fill:#5d1560"/><path d="M776.46,490.85l.21.13-.12.11Z" transform="translate(-761.67 -454.24)" style="fill:#410947"/><path d="M773.78,460.36l-.22,0Z" transform="translate(-761.67 -454.24)" style="fill:#d885be"/><path d="M784,459.18l.16-.14v.16h0l0,0Z" transform="translate(-761.67 -454.24)" style="fill:#7a247a"/><path d="M778.19,460.31l-.17.13v-.11Z" transform="translate(-761.67 -454.24)" style="fill:#d885be"/><path d="M780.4,471.66l-1.34,0h-3.77l0,0a3.56,3.56,0,0,0-.09-.49c-.2-.61-.42-1.21-.62-1.81s-.06-.68.49-.58a1,1,0,0,1,.46.26,7.82,7.82,0,0,1,.55.6,2.59,2.59,0,0,0,1.77,1.23,24.28,24.28,0,0,0,2.56.18Z" transform="translate(-761.67 -454.24)" style="fill:#c065ae"/><path d="M775,483.78c0-1.28,0-2.57,0-3.85,0-2.28,0-4.55,0-6.83,0-.28,0-.56.05-.84l.2,0,.08.16c0,.47,0,.94-.07,1.42,0,.91,0,1.83,0,2.75,0,1.33,0,2.67,0,4a10.85,10.85,0,0,0,.08,1.4,1.09,1.09,0,0,0,.53.92l1,.51c-.61.22-1.09-.15-1.58-.35l-.23.74Z" transform="translate(-761.67 -454.24)" style="fill:#9e4094"/><path d="M775.28,472.23l-.2,0c0-.2,0-.39,0-.58l.19,0,0,0C775.29,471.87,775.28,472.05,775.28,472.23Z" transform="translate(-761.67 -454.24)" style="fill:#c065ae"/><path d="M791.64,460.62h2.46a1,1,0,0,1,1,.63c.24.53.51,1,.78,1.57.41.83.82,1.66,1.25,2.49a1.61,1.61,0,0,1-.8,2.35,1,1,0,0,0-.22.18h-1.26a3.07,3.07,0,0,1-.47-.62c-.28-.66-.54-1.32-.77-2-.16-.48-.28-1-.41-1.45s-.15-.76-.27-1.12a10.45,10.45,0,0,0-.52-1.24,1.12,1.12,0,0,0-.26-.38C792,460.88,791.81,460.75,791.64,460.62Z" transform="translate(-761.67 -454.24)" style="fill:#e59bc7"/><path d="M805.68,467.56l-.2,1.22-.78.62-2,.06-5,0-6,0H791a2.17,2.17,0,0,0-.49-.51.64.64,0,0,1-.38-.72l.51,0h13.7A1.49,1.49,0,0,0,805.68,467.56Z" transform="translate(-761.67 -454.24)" style="fill:#993b91"/><path d="M791.64,460.62c.17.13.36.26.52.41a1.12,1.12,0,0,1,.26.38,10.45,10.45,0,0,1,.52,1.24c.12.36.18.75.27,1.12s.25,1,.41,1.45c.23.67.49,1.33.77,2a3.07,3.07,0,0,0,.47.62H792a2.9,2.9,0,0,1-.38-.65c-.15-.62-.19-1.28-.39-1.89-.25-.81-.61-1.58-.93-2.37a8.15,8.15,0,0,0-1.21-2.32Z" transform="translate(-761.67 -454.24)" style="fill:#df90c1"/><path d="M789.12,460.61a8.15,8.15,0,0,1,1.21,2.32c.32.79.68,1.56.93,2.37.2.61.24,1.27.39,1.89a2.9,2.9,0,0,0,.38.65h-2.36c-.1-.13-.25-.25-.29-.39-.13-.51-.22-1-.35-1.55a5.91,5.91,0,0,0-.29-.76c-.2-.53-.39-1.08-.59-1.61a2.81,2.81,0,0,0-.22-.53c-.25-.41-.45-1-.82-1.15-.58-.29-.63-.9-1.05-1.24Z" transform="translate(-761.67 -454.24)" style="fill:#d885be"/><path d="M786.06,460.61c.42.34.47.95,1.05,1.24.37.19.57.74.82,1.15a2.81,2.81,0,0,1,.22.53c.2.53.39,1.08.59,1.61a5.91,5.91,0,0,1,.29.76c.13.51.22,1,.35,1.55,0,.14.19.26.29.39h-2.59a.19.19,0,0,0,0-.08,5,5,0,0,1-1-2.25,6.1,6.1,0,0,0-.41-1.25c-.17-.39-.4-.76-.6-1.13.31-.1.6-.22.53-.64a1.41,1.41,0,0,0-.13-1.49c-.07-.12-.12-.25-.19-.37Z" transform="translate(-761.67 -454.24)" style="fill:#d077b7"/><path d="M785.11,463.13c.2.37.43.74.6,1.13a6.1,6.1,0,0,1,.41,1.25,5,5,0,0,0,1,2.25.19.19,0,0,1,0,.08l-1.81,0-.55,0s0-.13-.05-.14a.63.63,0,0,1-.43-.76.47.47,0,0,0-.06-.15c-.22-.52-.47-1-.65-1.59s-.41-1.36-.59-2a.56.56,0,0,1,.29-.75A2.07,2.07,0,0,0,785.11,463.13Z" transform="translate(-761.67 -454.24)" style="fill:#c569b0"/><path d="M796.12,467.83a1,1,0,0,1,.22-.18,1.61,1.61,0,0,0,.8-2.35c-.43-.83-.84-1.66-1.25-2.49a7.32,7.32,0,0,0,.87.37,10.32,10.32,0,0,0,1.17.16c.08-.15.32-.26.07-.48l.33-.45a1.54,1.54,0,0,1,.44.16c.11.09.23.26.21.37-.08.67-.26,1.32-.31,2a9.52,9.52,0,0,1-.31,1.52,1.21,1.21,0,0,0,.54,1.12.41.41,0,0,1,.17.26Z" transform="translate(-761.67 -454.24)" style="fill:#f0bad8"/><path d="M790.14,468.17a.64.64,0,0,0,.38.72,2.17,2.17,0,0,1,.49.51h-5.9c-.05-.17-.06-.39-.17-.49a.61.61,0,0,1-.22-.74l.55,0,4.32,0Z" transform="translate(-761.67 -454.24)" style="fill:#882e84"/><path d="M785.27,468.14l-.55,0h-4a4.77,4.77,0,0,1-2.22-.52l-.33-.27.12-.12a4.27,4.27,0,0,0,1.13.48c.82.09,1.65.07,2.48.1h2.83l.55,0Z" transform="translate(-761.67 -454.24)" style="fill:#f0bad8"/><path d="M780.4,471.66v-.6h5.9l-.23.6h-5.43Z" transform="translate(-761.67 -454.24)" style="fill:#c569b0"/><path d="M776.94,483.39l-1-.51a1.09,1.09,0,0,1-.53-.92,10.85,10.85,0,0,1-.08-1.4c0-1.33,0-2.67,0-4a1.65,1.65,0,0,1,1.4,1.21.58.58,0,0,0,.22.27c.4.34.82.65,1.21,1a7.91,7.91,0,0,1,.56.59c.29.32.59.64.9.95a5.59,5.59,0,0,0,.52.45l.78.66c.05.05.08.13.13.15a1.74,1.74,0,0,1,1,1.12s0,.08.08.08c.56.09.76.68,1.23.9a1.69,1.69,0,0,1,.72.73,4.93,4.93,0,0,0,.81.84c.49.5,1.19.79,1.47,1.5,0,.07.14.11.22.15s.42.11.42.39c0,.05.09.1.14.12a8.11,8.11,0,0,1,2.58,2.6,6.53,6.53,0,0,0,.87.78c.28.24.57.49.86.72s.37.23.53.37.54.5.81.75a7.23,7.23,0,0,1-2.85.26c-.42,0-.84,0-1.25-.09a3.56,3.56,0,0,1-2.58-2c-.78-1.49-1.52-3-2.42-4.43a6.64,6.64,0,0,0-4.94-3.15l-.27-.06h-1.49Z" transform="translate(-761.67 -454.24)" style="fill:#7a247a"/><path d="M764.27,471.05c.76-.34,1.32-.13,1.76.7a7.14,7.14,0,0,1,.78,2.64,8.26,8.26,0,0,1-.26,3.21,3.7,3.7,0,0,1-.47,1.12c-.56.84-.82.94-1.8.74-.16-.23-.33-.45-.47-.69a7.7,7.7,0,0,1-.9-3.55l.17-2,.66-1.66.53-.48Zm1.65,4.4a3.05,3.05,0,0,0-.32-1.73c-.19-.29-.42-.55-.84-.38-.17.13-.4.22-.51.39a2.83,2.83,0,0,0-.35,1.91,2.19,2.19,0,0,0,.55,1.44c.23.2.46.37.75.11.12-.08.29-.14.33-.25C765.68,476.45,765.8,476,765.92,475.45Z" transform="translate(-761.67 -454.24)" style="fill:#39073f"/><path d="M762.91,475.22a7.7,7.7,0,0,0,.9,3.55c.14.24.31.46.47.69a2,2,0,0,1-.95-1.09,6.69,6.69,0,0,1-.63-3.15Z" transform="translate(-761.67 -454.24)" style="fill:#b85ca9"/><path d="M767.64,479.53h-.22L768,477h.25c0,.24-.07.48-.1.73s0,.23-.07.34C767.93,478.56,767.78,479,767.64,479.53Z" transform="translate(-761.67 -454.24)" style="fill:#c065ae"/><path d="M767.42,479.54h.16a4.18,4.18,0,0,1-1.48,2.18.91.91,0,0,1-.33.1c.37-.41.77-.8,1.11-1.25A6.69,6.69,0,0,0,767.42,479.54Z" transform="translate(-761.67 -454.24)" style="fill:#993b91"/><path d="M762.91,475.22h-.21l.24-2h.14Z" transform="translate(-761.67 -454.24)" style="fill:#a8499b"/><path d="M763.08,473.19h-.14c.19-.5.36-1,.56-1.5,0-.07.16-.1.24-.15Z" transform="translate(-761.67 -454.24)" style="fill:#8e3289"/><path d="M765.77,481.82l-.16.19Z" transform="translate(-761.67 -454.24)" style="fill:#993b91"/><path d="M764.27,471.05l0,0,0,0Z" transform="translate(-761.67 -454.24)" style="fill:#8e3289"/><path d="M778.16,467.38l.33.27c-.12.08-.31.15-.34.25s.1.27.14.42a.7.7,0,0,1,.08.33,3.05,3.05,0,0,1-.17.51,5.13,5.13,0,0,1-1.89-1.72c-.42-.49-.8-1-1.22-1.48a2.34,2.34,0,0,0-.43-.33c0-.07,0-.17.06-.21a4.73,4.73,0,0,0,1.21-2,1.32,1.32,0,0,1,.24-.29A4.76,4.76,0,0,0,777.7,467,3.33,3.33,0,0,0,778.16,467.38Z" transform="translate(-761.67 -454.24)" style="fill:#6b1f6d"/><path d="M780.24,470.74s0-.1,0-.11a8.27,8.27,0,0,1,1.34-.35c1.27-.11,2.54-.16,3.81-.23.26,0,.53,0,.8,0l3.7-.2c.8,0,1.6,0,2.4,0l3.89-.08a1.53,1.53,0,0,1,.37.08c-.05,0-.11.07-.17.07L793,470c-1.08,0-2.17,0-3.25.09a2,2,0,0,0-1.21.61l-1.65,0-.46,0Z" transform="translate(-761.67 -454.24)" style="fill:#410947"/><path d="M780.71,468.17h4a.61.61,0,0,0,.22.74c.11.1.12.32.17.49h-4c0-.12-.1-.24-.13-.35C780.88,468.75,780.79,468.46,780.71,468.17Z" transform="translate(-761.67 -454.24)" style="fill:#80287e"/><path d="M788.49,470.73a2,2,0,0,1,1.21-.61c1.08-.05,2.17-.06,3.25-.09l3.47-.16c.06,0,.12-.05.17-.07l.79-.08a1.87,1.87,0,0,0,.4.07H800c-.07,0-.13.13-.19.13-.72,0-1.44,0-2.15,0-1,0-2,.1-3,.15a.77.77,0,0,0-.74.62Z" transform="translate(-761.67 -454.24)" style="fill:#500e53"/><path d="M780.71,468.17c.08.29.17.58.26.88,0,.11.09.23.13.35-.79,0-1.59,0-2.38-.08a2,2,0,0,1-.52-.16,3.05,3.05,0,0,0,.17-.51.7.7,0,0,0-.08-.33c0-.15-.16-.3-.14-.42s.22-.17.34-.25A4.77,4.77,0,0,0,780.71,468.17Z" transform="translate(-761.67 -454.24)" style="fill:#7a247a"/><path d="M780.24,470.74h6.14l.46,0v.28l-.55,0h-5.9a24.28,24.28,0,0,1-2.56-.18,2.59,2.59,0,0,1-1.77-1.23l0-.23a3.4,3.4,0,0,0,2.31,1.31C779,470.77,779.63,470.74,780.24,470.74Z" transform="translate(-761.67 -454.24)" style="fill:#f0bad8"/><path d="M776.09,469.42l0,.23a7.82,7.82,0,0,0-.55-.6,1,1,0,0,0-.46-.26c-.55-.1-.67.06-.49.58s.42,1.2.62,1.81a3.56,3.56,0,0,1,.09.49h-.2l-.22-.72-.4-1a14,14,0,0,0-.85-1.69c-.18-.26-.58-.36-.88-.53l0-.13c2,0,2.21.07,3.39,1.79C776.09,469.39,776.09,469.4,776.09,469.42Z" transform="translate(-761.67 -454.24)" style="fill:#e59bc7"/><path d="M800,469.8h-2.2a1.87,1.87,0,0,1-.4-.07l.39-.3,5,0-.33.26h-.23l-.24.08h-2Z" transform="translate(-761.67 -454.24)" style="fill:#410947"/><path d="M786.29,471.07l.55,0,5.59.07c-.11.43,0,.51.45.57s1.11.11,1.66.22c1.46.3,2.91.64,4.37.95.39.09.8.09,1.19.2.79.22,1.57.51,2.36.74.59.17,1.19.26,1.78.42a1.79,1.79,0,0,0,1.38.06c0,1.1,0,2.2,0,3.3-.27.18-.55.09-.85.09a5.78,5.78,0,0,1-2.38-.89,19,19,0,0,0-2.58-.85c-.88-.26-1.76-.49-2.64-.73l-1.61-.45a6.55,6.55,0,0,0-6-3.06h-3.53Z" transform="translate(-761.67 -454.24)" style="fill:#d077b7"/><path d="M782.13,490.46l-.37-.64c-.18-.26-.36-.54-.55-.8a9.42,9.42,0,0,0-1-1.2c-.46-.42-1-.76-1.49-1.14l.07-.15a3.35,3.35,0,0,1,.38.18l1.19.85c.44.56.91,1.1,1.32,1.68a7.58,7.58,0,0,1,.57,1.14Z" transform="translate(-761.67 -454.24)" style="fill:#b85ca9"/><path d="M778.82,486.53l-.07.15c-.39-.16-.76-.34-1.15-.47a8.38,8.38,0,0,0-.87-.18l0-.13.37,0Z" transform="translate(-761.67 -454.24)" style="fill:#a24497"/><path d="M772.28,471.63a7,7,0,0,1,.72,2.57c-.32,0-.66.12-.85-.24a6.7,6.7,0,0,1-.47-1.06c-.18-.58-.32-1.17-.48-1.74l.39-.34Z" transform="translate(-761.67 -454.24)" style="fill:#b85ca9"/><path d="M771.59,470.82l-.39.34c.16.57.3,1.16.48,1.74a6.7,6.7,0,0,0,.47,1.06c.19.36.53.28.85.24,0,.28,0,.56.07.85l-.46.25-.24.08h-.31a.89.89,0,0,0,0-.23c-.23-.84-.47-1.68-.7-2.52-.13-.52-.25-1.05-.41-1.56a.44.44,0,0,1,.18-.57Z" transform="translate(-761.67 -454.24)" style="fill:#9e4094"/><path d="M774.85,471l.22.72c0,.19,0,.38,0,.58s0,.56-.05.84c-.2-.09-.4-.16-.6-.26a.89.89,0,0,1-.26-.94A10.17,10.17,0,0,1,774.85,471Z" transform="translate(-761.67 -454.24)" style="fill:#480d4d"/><path d="M771.12,470.5a.44.44,0,0,0-.18.57c.16.51.28,1,.41,1.56h-.21l-.82-2.35Z" transform="translate(-761.67 -454.24)" style="fill:#93358c"/><path d="M778.82,486.53l-1.75-.65.73-.69a5.57,5.57,0,0,1,3.39,1.43,2.31,2.31,0,0,1,.24.29c-.1.08-.22.25-.28.23-.43-.15-.56.19-.76.42l-1.19-.85A3.35,3.35,0,0,0,778.82,486.53Z" transform="translate(-761.67 -454.24)" style="fill:#80287e"/><path d="M776.94,483.39h.31l-.16.47H777l-.25.18-.94.92c-.19,0-.37-.07-.56-.08-.44,0-.51-.12-.33-.51a5.76,5.76,0,0,0,.18-.59l.23-.74C775.85,483.24,776.33,483.61,776.94,483.39Z" transform="translate(-761.67 -454.24)" style="fill:#852b82"/><path d="M775.13,483.78a5.76,5.76,0,0,1-.18.59c-.18.39-.11.49.33.51.19,0,.37.06.56.08a3.67,3.67,0,0,1-.76.23c-.5,0-1,0-1.51,0a1.77,1.77,0,0,0,1.42-1.41Z" transform="translate(-761.67 -454.24)" style="fill:#93358c"/><path d="M777.09,483.86l.16-.47H778l-.08.27Z" transform="translate(-761.67 -454.24)" style="fill:#9e4094"/><path d="M776.78,484l.25-.18Z" transform="translate(-761.67 -454.24)" style="fill:#9e4094"/><path d="M773,476.47a4.93,4.93,0,0,1-.79,2.52l-.53.28c-.15-.31-.28-.61-.42-.89,0-.05-.1-.07-.15-.1s0-.34,0-.5c.08-.76.17-1.51.25-2.26l0-.15h.09c0,.15.07.3.11.45.2.78.46.92,1.22.67A.88.88,0,0,1,773,476.47Z" transform="translate(-761.67 -454.24)" style="fill:#5d1560"/><path d="M773,476.47a.88.88,0,0,0-.16,0c-.76.25-1,.11-1.22-.67,0-.15-.07-.3-.11-.45h.86l.24-.08.46-.25C773,475.52,773,476,773,476.47Z" transform="translate(-761.67 -454.24)" style="fill:#671968"/><path d="M771.11,478.28s.12.05.15.1c.14.28.27.58.42.89l.53-.28a2.32,2.32,0,0,1-1.82,1.25l.33-.86.37-1.11Z" transform="translate(-761.67 -454.24)" style="fill:#500e53"/><path d="M770.72,479.38l-.33.86-.29.32.39-1.1.15-.24Z" transform="translate(-761.67 -454.24)" style="fill:#882e84"/><path d="M769.86,480.88l.24-.32Z" transform="translate(-761.67 -454.24)" style="fill:#882e84"/><path d="M769.78,481.06l.08-.19Z" transform="translate(-761.67 -454.24)" style="fill:#882e84"/><path d="M768.14,477.74c0-.25.07-.49.1-.73s0-.36,0-.53l2.82.08c-.07.49-.14,1-.22,1.49Z" transform="translate(-761.67 -454.24)" style="fill:#8e3289"/><path d="M768.29,473.88,768,472.1c.52.12,1,.25,1.42.31a3.42,3.42,0,0,0,1,0c.25,0,.35.06.39.25a5.84,5.84,0,0,1,.11.73c-.11,0-.23.15-.34.15A6.54,6.54,0,0,0,768.29,473.88Z" transform="translate(-761.67 -454.24)" style="fill:#d885be"/><path d="M771.11,476.56l-2.82-.08.06-1,2.77-.08Z" transform="translate(-761.67 -454.24)" style="fill:#a24497"/><path d="M768.29,473.88a6.54,6.54,0,0,1,2.33-.32c.11,0,.23-.1.34-.15,0,.21.11.42.16.63v.32l-2.75.38Z" transform="translate(-761.67 -454.24)" style="fill:#d077b7"/><path d="M768.36,474.74l2.75-.38c0,.36,0,.73.08,1.09h-.07l-2.77.08C768.36,475.27,768.36,475,768.36,474.74Z" transform="translate(-761.67 -454.24)" style="fill:#b85ca9"/><path d="M772.06,475.38h-.64l-.09-1.33c-.06-.47-.12-.94-.19-1.41h.21c.23.84.47,1.68.7,2.52A.89.89,0,0,1,772.06,475.38Z" transform="translate(-761.67 -454.24)" style="fill:#852b82"/><path d="M771.33,474l.09,1.33,0,.15-.2-.07c0-.36-.05-.73-.08-1.09V474Z" transform="translate(-761.67 -454.24)" style="fill:#e59bc7"/><path d="M782.13,490.46l.15-.08.15.16c.11.36.22.72.34,1.08l-.1.19-.07,0Z" transform="translate(-761.67 -454.24)" style="fill:#c569b0"/><path d="M782.43,490.54l-.15-.16a7.58,7.58,0,0,0-.57-1.14c-.41-.58-.88-1.12-1.32-1.68.2-.23.33-.57.76-.42.06,0,.18-.15.28-.23a6.17,6.17,0,0,1,.78.84c.51.79,1,1.61,1.42,2.43s.78,1.44,1.17,2.16v.16c-.18-.12-.43-.2-.53-.36-.26-.42-.44-.89-.67-1.33a.35.35,0,0,0-.22-.18C783.07,490.58,782.75,490.57,782.43,490.54Z" transform="translate(-761.67 -454.24)" style="fill:#882e84"/><path d="M784.81,492.5v-.16a4.12,4.12,0,0,1,1.48,1,3.16,3.16,0,0,0,2.51.87,9.23,9.23,0,0,1,1.66-.07,6.39,6.39,0,0,0,2.76-.57c-.1.11-.17.25-.29.31a8,8,0,0,1-3.65.81c-.08,0-.15.14-.23.21l-1.25-.16-.54-.21a4.33,4.33,0,0,1-1.83-1.27Z" transform="translate(-761.67 -454.24)" style="fill:#5d1560"/><path d="M789.75,456.38h.71c0,.77.06,1.55.07,2.33a1.76,1.76,0,0,1-.07.45l-1.57,0-.07,0c.11,0,.24-.14.35-.13.33,0,.44-.17.49-.43a7.61,7.61,0,0,0,.09-1C789.76,457.23,789.75,456.8,789.75,456.38Z" transform="translate(-761.67 -454.24)" style="fill:#c065ae"/><path d="M789.75,456.38c0,.42,0,.85,0,1.27a7.61,7.61,0,0,1-.09,1c0,.26-.16.47-.49.43-.11,0-.24.09-.35.13h-1.66V459h1c.63,0,.76-.13.79-.77s.1-1.25.15-1.88l.32,0Z" transform="translate(-761.67 -454.24)" style="fill:#a8499b"/><path d="M787.16,459v.14H784.8V459h2.36Z" transform="translate(-761.67 -454.24)" style="fill:#9e4094"/><path d="M784.8,459v.14l-.63,0V459h.63Z" transform="translate(-761.67 -454.24)" style="fill:#852b82"/><path d="M785.1,460.36v.08l-.06-.05Z" transform="translate(-761.67 -454.24)" style="fill:#d077b7"/><path d="M783.46,456.12h.95v.22l-.48,0-3.3,0c.57-.08,1.13-.17,1.69-.22C782.7,456.11,783.08,456.12,783.46,456.12Z" transform="translate(-761.67 -454.24)" style="fill:#b85ca9"/><path d="M787.79,494.77l1.25.16.79,0a1.3,1.3,0,0,1-1.11.69,4.2,4.2,0,0,0-2.42,1.06,2.29,2.29,0,0,0-.32.43,3.52,3.52,0,0,1-1.77-1.91,6.92,6.92,0,0,1-.28-.76,1.48,1.48,0,0,1,.31.15,1.45,1.45,0,0,0,1.69.23,1.4,1.4,0,0,1,.86,0A3.15,3.15,0,0,0,787.79,494.77Z" transform="translate(-761.67 -454.24)" style="fill:#a24497"/><path d="M768.14,477.74l2.75.31v.23l-.25.94-.15.24-1.11-.12a.61.61,0,0,0-.33,0,1.83,1.83,0,0,1-1.41.15c.14-.49.29-1,.43-1.45C768.1,478,768.12,477.85,768.14,477.74Z" transform="translate(-761.67 -454.24)" style="fill:#7a247a"/><path d="M792.5,456.37h1.28c0,.63,0,1.25,0,1.88s0,.79-.79.78h-.31l-.16-.08a1.52,1.52,0,0,0-.12-.32,1.68,1.68,0,0,1-.15-1.48C792.31,456.89,792.41,456.63,792.5,456.37Z" transform="translate(-761.67 -454.24)" style="fill:#f0bad8"/><path d="M804.7,469.4l.78-.62c.43.14.54.1.63-.34s.15-.89.24-1.33c.06-.26.09-.57.45-.61a8.7,8.7,0,0,1,.67,3.6c-.12.07-.3.11-.34.21a1.13,1.13,0,0,1-1.13.87s0,.05-.08.08c-.18-.46-.58-.51-1-.53,0-.1-.07-.24-.15-.29-.3-.18-.29-.43-.17-.71A3.18,3.18,0,0,0,804.7,469.4Z" transform="translate(-761.67 -454.24)" style="fill:#5d1560"/><path d="M805.92,471.26s.05-.09.08-.08a1.13,1.13,0,0,0,1.13-.87c0-.1.22-.14.34-.21l0,.09v2.28c0,.17,0,.33,0,.5,0,.6,0,1.19,0,1.78l-.75-.82-.41-.46c-.11-.13-.23-.25-.35-.37Z" transform="translate(-761.67 -454.24)" style="fill:#480d4d"/><path d="M807.52,471.21v-1h.22l0,.49v.54Z" transform="translate(-761.67 -454.24)" style="fill:#df90c1"/><path d="M807.47,474.75c0-.59,0-1.18,0-1.78,0-.17,0-.33,0-.5h.22v1.34c0,.37-.06.74-.08,1.1l-.21.22Z" transform="translate(-761.67 -454.24)" style="fill:#b85ca9"/><path d="M807,476.71l.4-1s.12,0,.13.07A1.36,1.36,0,0,1,807,476.71Z" transform="translate(-761.67 -454.24)" style="fill:#852b82"/><path d="M778.27,483.4h.16l-.08.11Z" transform="translate(-761.67 -454.24)" style="fill:#9e4094"/><path d="M781.89,467.84c-.83,0-1.66,0-2.48-.1a4.27,4.27,0,0,1-1.13-.48,5.79,5.79,0,0,1-1.55-2,3.89,3.89,0,0,1,.53-4,2.42,2.42,0,0,1,.46-.35c.07,0,.15.08.22.07a1.76,1.76,0,0,1,1.82,1.34c.15.39.25.79.39,1.18.27.78.55,1.55.82,2.33s.12,1.54.91,2A.06.06,0,0,1,781.89,467.84Z" transform="translate(-761.67 -454.24)" style="fill:#b85ca9"/><path d="M781.89,467.84a.06.06,0,0,0,0,0c-.79-.42-.67-1.28-.91-2s-.55-1.55-.82-2.33c-.14-.39-.24-.79-.39-1.18a1.76,1.76,0,0,0-1.82-1.34c-.07,0-.15-.05-.22-.07a3.26,3.26,0,0,1,.93-.3c1.09,0,2.19,0,3.28,0a.62.62,0,0,1,.58.38l.72,1.43a.56.56,0,0,0-.29.75c.18.68.36,1.37.59,2s.43,1.07.65,1.59a.47.47,0,0,1,.06.15.63.63,0,0,0,.43.76s0,.09.05.14Z" transform="translate(-761.67 -454.24)" style="fill:#c065ae"/><path d="M805.92,471.26l0,1.84,0,.78h-.29a6.25,6.25,0,0,0-.48-1.05,2.87,2.87,0,0,0-2.46-1.14c-.76,0-1.52,0-2.28,0a2,2,0,0,1-1-.25,2.45,2.45,0,0,0-1.38-.35c-1.73,0-3.46,0-5.19,0a3,3,0,0,0-.42.06l-5.59-.07v-.28l1.65,0h16.44C805.34,470.75,805.74,470.8,805.92,471.26Z" transform="translate(-761.67 -454.24)" style="fill:#f2c2db"/><path d="M784.8,459h-.16a8.13,8.13,0,0,0,.08-2.65v0h1.1a3.2,3.2,0,0,0,.26,2.25,1.08,1.08,0,0,1,0,.41Z" transform="translate(-761.67 -454.24)" style="fill:#7a247a"/><path d="M784.41,456.35v-.22h.15v.24Z" transform="translate(-761.67 -454.24)" style="fill:#d885be"/><path d="M792.5,456.37c-.09.26-.19.52-.27.79a1.68,1.68,0,0,0,.15,1.48,1.52,1.52,0,0,1,.12.32h-.27c-.73,0-.88-.18-1-.9a4.36,4.36,0,0,1,.08-1.69Z" transform="translate(-761.67 -454.24)" style="fill:#e59bc7"/><path d="M789.44,456.35l-.32,0h-2.28l-.33,0,.19-.25v0h2.75Z" transform="translate(-761.67 -454.24)" style="fill:#f0bad8"/><path d="M786.7,456.08l-.19.24-.69.05h-1.1c0-.22.1-.22.26-.23l.92-.07Z" transform="translate(-761.67 -454.24)" style="fill:#d885be"/><path d="M784.81,492.5c.2.26.4.53.61.79a1.11,1.11,0,0,0-.37.08c-.44.2-.87.42-1.3.64-.33-.8-.66-1.59-1-2.39-.12-.36-.23-.72-.34-1.08.32,0,.64,0,1,.09a.35.35,0,0,1,.22.18c.23.44.41.91.67,1.33C784.38,492.3,784.63,492.38,784.81,492.5Z" transform="translate(-761.67 -454.24)" style="fill:#93358c"/><path d="M783.75,494c.43-.22.86-.44,1.3-.64a1.11,1.11,0,0,1,.37-.08,4.33,4.33,0,0,0,1.83,1.27l.54.21a3.15,3.15,0,0,1-1,.08,1.4,1.4,0,0,0-.86,0,1.45,1.45,0,0,1-1.69-.23,1.48,1.48,0,0,0-.31-.15Z" transform="translate(-761.67 -454.24)" style="fill:#9e4094"/><path d="M807.75,472.46h-.22v-1.26h.24c0,.11,0,.21,0,.32,0,.26,0,.52,0,.78Z" transform="translate(-761.67 -454.24)" style="fill:#d077b7"/><path d="M792.43,471.12a3,3,0,0,1,.42-.06c1.73,0,3.46,0,5.19,0a2.45,2.45,0,0,1,1.38.35,2,2,0,0,0,1,.25c.76,0,1.52,0,2.28,0a2.87,2.87,0,0,1,2.46,1.14,6.25,6.25,0,0,1,.48,1.05c0,.14,0,.27,0,.4a1.79,1.79,0,0,1-1.38-.06c-.59-.16-1.19-.25-1.78-.42-.79-.23-1.57-.52-2.36-.74-.39-.11-.8-.11-1.19-.2-1.46-.31-2.91-.65-4.37-.95-.55-.11-1.1-.16-1.66-.22S792.32,471.55,792.43,471.12Z" transform="translate(-761.67 -454.24)" style="fill:#d885be"/><path d="M804.14,470.74h-.08V470c-.06-.1-.1-.27-.17-.28a4.75,4.75,0,0,0-.65,0l-.83,0,.33-.26,2-.06a3.18,3.18,0,0,1-.09.33c-.12.28-.13.53.17.71.08.05.1.19.15.29h-.79Z" transform="translate(-761.67 -454.24)" style="fill:#500e53"/><path d="M765.2,477.19c-.29.26-.52.09-.75-.11a2.19,2.19,0,0,1-.55-1.44,2.83,2.83,0,0,1,.35-1.91c.11-.17.34-.26.51-.39a.84.84,0,0,1,.66.61c.13.49.2,1,.3,1.49Z" transform="translate(-761.67 -454.24)" style="fill:#7a247a"/><path d="M765.72,475.44c-.1-.5-.17-1-.3-1.49a.84.84,0,0,0-.66-.61c.42-.17.65.09.84.38a3.05,3.05,0,0,1,.32,1.73Z" transform="translate(-761.67 -454.24)" style="fill:#e59bc7"/><path d="M765.72,475.44h.2c-.12.5-.24,1-.39,1.49,0,.11-.21.17-.33.25C765.38,476.61,765.55,476,765.72,475.44Z" transform="translate(-761.67 -454.24)" style="fill:#b85ca9"/><path d="M802.41,469.72l.83,0a4.75,4.75,0,0,1,.65,0c.07,0,.11.18.17.28a6,6,0,0,0-.73,0c-.62,0-1.24.1-1.85.12s-1.51,0-2.27,0c-.49,0-1,0-1.2.62h-4.09a.77.77,0,0,1,.74-.62c1-.05,2-.11,3-.15.71,0,1.43,0,2.15,0,.06,0,.12-.09.19-.13h.15c.09,0,.17.13.26.13.25,0,.51,0,.76-.05l.63-.08h.16l.24-.08Z" transform="translate(-761.67 -454.24)" style="fill:#5d1560"/><path d="M801.78,469.8l-.63.08c-.25,0-.51.05-.76.05-.09,0-.17-.09-.26-.13Z" transform="translate(-761.67 -454.24)" style="fill:#500e53"/><path d="M802.18,469.72l-.24.08Z" transform="translate(-761.67 -454.24)" style="fill:#500e53"/><path d="M772.61,475.3l-.24.08Z" transform="translate(-761.67 -454.24)" style="fill:#852b82"/><path d="M770.89,478.28v-.23c.08-.5.15-1,.22-1.49s0-.74,0-1.11h.07l.2.07c-.08.75-.17,1.5-.25,2.26,0,.16,0,.33,0,.5h-.22Z" transform="translate(-761.67 -454.24)" style="fill:#c569b0"/><path d="M770.89,478.28h.2c-.13.37-.25.74-.37,1.11l-.08-.16Z" transform="translate(-761.67 -454.24)" style="fill:#a8499b"/><path d="M786.84,456.36h1.34a4.13,4.13,0,0,0-.07.49c0,.72,0,1.45.07,2.17h-1A6.9,6.9,0,0,0,786.84,456.36Z" transform="translate(-761.67 -454.24)" style="fill:#93358c"/><path d="M788.18,459c0-.72-.06-1.45-.07-2.17a4.13,4.13,0,0,1,.07-.49h.94c0,.63-.12,1.25-.15,1.88S788.81,459,788.18,459Z" transform="translate(-761.67 -454.24)" style="fill:#9e4094"/><path d="M786.84,456.36a6.9,6.9,0,0,1,.31,2.67h-1a1.08,1.08,0,0,0,0-.41,3.2,3.2,0,0,1-.26-2.25l.69-.05Z" transform="translate(-761.67 -454.24)" style="fill:#852b82"/><path d="M798,470.74c.2-.59.71-.61,1.2-.62.76,0,1.51,0,2.27,0s1.23-.09,1.85-.12a6,6,0,0,1,.73,0v.71Z" transform="translate(-761.67 -454.24)" style="fill:#671968"/><path d="M804.14,470.74h0Z" transform="translate(-761.67 -454.24)" style="fill:#df90c1"/></svg>